<svg xmlns="http://www.w3.org/2000/svg" width="1974" height="658" viewBox="0 0 1974 658" font-family="'Segoe UI','Hiragino Sans','Noto Sans JP',Meiryo,sans-serif"><defs></defs><rect width="100%" height="100%" fill="#ffffff"/><text x="24" y="30" font-size="19" font-weight="700" fill="#1e293b">全体論理構成図</text><rect x="40.0" y="264.0" width="1153.4" height="144.0" rx="6" fill="#f7f9fc" stroke="#8fa8c4"/><text x="44.0" y="256.0" font-size="14.5" font-weight="600" fill="#33475b">DCコロケーション</text><rect x="1249.4" y="264.0" width="257.3" height="262.0" rx="6" fill="#f7f9fc" stroke="#8fa8c4"/><text x="1253.4" y="256.0" font-size="14.5" font-weight="600" fill="#33475b">AWS ap-northeast-1</text><rect x="1562.7" y="264.0" width="371.7" height="354.0" rx="6" fill="#f7f9fc" stroke="#8fa8c4"/><text x="1566.7" y="256.0" font-size="14.5" font-weight="600" fill="#33475b">本社</text><polyline points="1378.0,398.0 1378.0,454.0" fill="none" stroke="#0f766e" stroke-width="1.5" opacity="1.0"></polyline><text x="1382.0" y="411.0" font-size="10.5" font-style="italic" fill="#5f6368" opacity="1.0">vpc1</text><polyline points="1703.4,366.0 1703.4,388.0 1667.9,388.0 1667.9,428.0" fill="none" stroke="#4a4a4a" stroke-width="2.0" opacity="1.0"></polyline><text x="1707.4" y="379.0" font-size="10.5" font-style="italic" fill="#5f6368" opacity="1.0">Gi0/0/1</text><text x="1671.9" y="423.0" font-size="10.5" font-style="italic" fill="#5f6368" opacity="1.0">Gi1/0/1</text><polyline points="1850.1,366.0 1850.1,388.0 1739.0,388.0 1739.0,428.0" fill="none" stroke="#4a4a4a" stroke-width="2.0" opacity="1.0"></polyline><text x="1854.1" y="379.0" font-size="10.5" font-style="italic" fill="#5f6368" opacity="1.0">Gi0/0/1</text><text x="1743.0" y="423.0" font-size="10.5" font-style="italic" fill="#5f6368" opacity="1.0">Gi1/0/2</text><polyline points="1703.4,490.0 1703.4,546.0" fill="none" stroke="#0f766e" stroke-width="1.5" opacity="1.0"></polyline><text x="1707.4" y="503.0" font-size="10.5" font-style="italic" fill="#5f6368" opacity="1.0">Vlan100</text><polyline points="758.2,122.0 758.2,140.0 192.8,140.0 192.8,320.0" fill="none" stroke="#7b1fa2" stroke-width="2.0" opacity="1.0" stroke-dasharray="7 4"></polyline><rect x="39.8" y="204.0" width="306.0" height="24.0" rx="4" fill="#ffffff" fill-opacity="0.92" opacity="1.0"/><text x="192.8" y="217.0" text-anchor="middle" font-size="12" font-style="italic" font-weight="400" fill="#5f6368" opacity="1.0">Site-to-Site VPN (DX障害時のバックアップ)</text><polyline points="812.7,122.0 812.7,140.0 1412.2,140.0 1412.2,320.0" fill="none" stroke="#7b1fa2" stroke-width="2.0" opacity="1.0" stroke-dasharray="7 4"></polyline><rect x="1259.2" y="204.0" width="306.0" height="24.0" rx="4" fill="#ffffff" fill-opacity="0.92" opacity="1.0"/><text x="1412.2" y="217.0" text-anchor="middle" font-size="12" font-style="italic" font-weight="400" fill="#5f6368" opacity="1.0">Site-to-Site VPN (DX障害時のバックアップ)</text><polyline points="1320.5,122.0 1320.5,158.0 1703.4,158.0 1703.4,320.0" fill="none" stroke="#188038" stroke-width="2.0" opacity="1.0" stroke-dasharray="3 3"></polyline><rect x="1681.9" y="204.0" width="43.0" height="24.0" rx="4" fill="#ffffff" fill-opacity="0.92" opacity="1.0"/><text x="1703.4" y="217.0" text-anchor="middle" font-size="12" font-style="italic" font-weight="400" fill="#5f6368" opacity="1.0">OSPF</text><polyline points="1277.2,122.0 1277.2,158.0 388.6,158.0 388.6,320.0" fill="none" stroke="#188038" stroke-width="2.0" opacity="1.0" stroke-dasharray="3 3"></polyline><rect x="367.1" y="204.0" width="43.0" height="24.0" rx="4" fill="#ffffff" fill-opacity="0.92" opacity="1.0"/><text x="388.6" y="217.0" text-anchor="middle" font-size="12" font-style="italic" font-weight="400" fill="#5f6368" opacity="1.0">OSPF</text><polyline points="1363.9,122.0 1363.9,176.0 1850.1,176.0 1850.1,320.0" fill="none" stroke="#188038" stroke-width="2.0" opacity="1.0" stroke-dasharray="3 3"></polyline><rect x="1828.6" y="204.0" width="43.0" height="24.0" rx="4" fill="#ffffff" fill-opacity="0.92" opacity="1.0"/><text x="1850.1" y="217.0" text-anchor="middle" font-size="12" font-style="italic" font-weight="400" fill="#5f6368" opacity="1.0">OSPF</text><polyline points="427.5,320.0 427.5,176.0 1343.8,176.0 1343.8,320.0" fill="none" stroke="#188038" stroke-width="2.0" opacity="1.0" stroke-dasharray="3 3"></polyline><rect x="842.1" y="204.0" width="87.1" height="24.0" rx="4" fill="#ffffff" fill-opacity="0.92" opacity="1.0"/><text x="885.6" y="217.0" text-anchor="middle" font-size="12" font-style="italic" font-weight="400" fill="#5f6368" opacity="1.0">BGP (DX上)</text><ellipse cx="785.4" cy="84.0" rx="81.8" ry="38.0" fill="#f1f3f4" stroke="#5f6368" stroke-width="1.6"/><text x="785.4" y="84.0" text-anchor="middle" dominant-baseline="central" font-size="12.5" font-weight="600" fill="#1e293b">インターネット</text><ellipse cx="1320.5" cy="84.0" rx="86.7" ry="38.0" fill="#f1f3f4" stroke="#5f6368" stroke-width="1.6"/><text x="1320.5" y="84.0" text-anchor="middle" dominant-baseline="central" font-size="12.5" font-weight="600" fill="#1e293b">広域Ethernet網</text><rect x="66.0" y="320.0" width="253.7" height="62.0" rx="4" fill="#fce8e6" stroke="#c5221f" stroke-width="1.4"/><text x="192.8" y="335.0" text-anchor="middle" dominant-baseline="central" font-size="12.5" font-weight="600" fill="#1e293b">dc-fw01</text><text x="192.8" y="351.0" text-anchor="middle" dominant-baseline="central" font-size="12.5" font-weight="400" fill="#1e293b">FortiGate 600F</text><text x="192.8" y="367.0" text-anchor="middle" dominant-baseline="central" font-size="12.5" font-weight="400" fill="#1e293b">tunnel.aws: 169.254.200.1/30</text><rect x="349.7" y="320.0" width="116.7" height="46.0" rx="4" fill="#e8f0fe" stroke="#1a56b0" stroke-width="1.4"/><text x="408.0" y="335.0" text-anchor="middle" dominant-baseline="central" font-size="12.5" font-weight="600" fill="#1e293b">dc-rt01</text><text x="408.0" y="351.0" text-anchor="middle" dominant-baseline="central" font-size="12.5" font-weight="400" fill="#1e293b">Cisco C8500</text><rect x="496.3" y="320.0" width="208.4" height="62.0" rx="4" fill="#f1f3f4" stroke="#5f6368" stroke-width="1.4"/><text x="600.6" y="335.0" text-anchor="middle" dominant-baseline="central" font-size="12.5" font-weight="600" fill="#1e293b">dc-srv01</text><text x="600.6" y="351.0" text-anchor="middle" dominant-baseline="central" font-size="12.5" font-weight="400" fill="#1e293b">PowerEdge R760 (基幹AP)</text><text x="600.6" y="367.0" text-anchor="middle" dominant-baseline="central" font-size="12.5" font-weight="400" fill="#1e293b">eno1: 10.20.10.11/24</text><rect x="734.8" y="320.0" width="189.2" height="62.0" rx="4" fill="#f1f3f4" stroke="#5f6368" stroke-width="1.4"/><text x="829.4" y="335.0" text-anchor="middle" dominant-baseline="central" font-size="12.5" font-weight="600" fill="#1e293b">dc-srv02</text><text x="829.4" y="351.0" text-anchor="middle" dominant-baseline="central" font-size="12.5" font-weight="400" fill="#1e293b">PowerEdge R760 (DB)</text><text x="829.4" y="367.0" text-anchor="middle" dominant-baseline="central" font-size="12.5" font-weight="400" fill="#1e293b">eno1: 10.20.10.12/24</text><rect x="954.0" y="320.0" width="213.4" height="46.0" rx="4" fill="#e2f5f0" stroke="#0f766e" stroke-width="1.4"/><text x="1060.7" y="335.0" text-anchor="middle" dominant-baseline="central" font-size="12.5" font-weight="600" fill="#1e293b">DCサーバ</text><text x="1060.7" y="351.0" text-anchor="middle" dominant-baseline="central" font-size="12.5" font-weight="400" fill="#1e293b">VLAN 20 / 10.20.10.0/24</text><rect x="1275.4" y="320.0" width="205.3" height="78.0" rx="4" fill="#e8f0fe" stroke="#1a56b0" stroke-width="1.4"/><text x="1378.0" y="335.0" text-anchor="middle" dominant-baseline="central" font-size="12.5" font-weight="600" fill="#1e293b">aws-vgw01</text><text x="1378.0" y="351.0" text-anchor="middle" dominant-baseline="central" font-size="12.5" font-weight="400" fill="#1e293b">AWS VGW/TGW</text><text x="1378.0" y="367.0" text-anchor="middle" dominant-baseline="central" font-size="12.5" font-weight="400" fill="#1e293b">vpn1: 169.254.200.2/30</text><text x="1378.0" y="383.0" text-anchor="middle" dominant-baseline="central" font-size="12.5" font-weight="400" fill="#1e293b">vpc1: 10.100.0.1/16</text><rect x="1311.6" y="454.0" width="132.8" height="46.0" rx="4" fill="#e2f5f0" stroke="#0f766e" stroke-width="1.4"/><text x="1378.0" y="469.0" text-anchor="middle" dominant-baseline="central" font-size="12.5" font-weight="600" fill="#1e293b">VPC アプリ用</text><text x="1378.0" y="485.0" text-anchor="middle" dominant-baseline="central" font-size="12.5" font-weight="400" fill="#1e293b">10.100.0.0/16</text><rect x="1645.1" y="320.0" width="116.7" height="46.0" rx="4" fill="#e8f0fe" stroke="#1a56b0" stroke-width="1.4"/><text x="1703.4" y="335.0" text-anchor="middle" dominant-baseline="central" font-size="12.5" font-weight="600" fill="#1e293b">hq-rt01</text><text x="1703.4" y="351.0" text-anchor="middle" dominant-baseline="central" font-size="12.5" font-weight="400" fill="#1e293b">Cisco C8300</text><rect x="1791.8" y="320.0" width="116.7" height="46.0" rx="4" fill="#e8f0fe" stroke="#1a56b0" stroke-width="1.4"/><text x="1850.1" y="335.0" text-anchor="middle" dominant-baseline="central" font-size="12.5" font-weight="600" fill="#1e293b">hq-rt02</text><text x="1850.1" y="351.0" text-anchor="middle" dominant-baseline="central" font-size="12.5" font-weight="400" fill="#1e293b">Cisco C8300</text><rect x="1596.7" y="428.0" width="213.4" height="62.0" rx="4" fill="#d2e3fc" stroke="#1a56b0" stroke-width="1.4"/><text x="1703.4" y="443.0" text-anchor="middle" dominant-baseline="central" font-size="12.5" font-weight="600" fill="#1e293b">hq-sw01</text><text x="1703.4" y="459.0" text-anchor="middle" dominant-baseline="central" font-size="12.5" font-weight="400" fill="#1e293b">Catalyst 9300</text><text x="1703.4" y="475.0" text-anchor="middle" dominant-baseline="central" font-size="12.5" font-weight="400" fill="#1e293b">Vlan100: 10.10.100.1/24</text><rect x="1588.7" y="546.0" width="229.5" height="46.0" rx="4" fill="#e2f5f0" stroke="#0f766e" stroke-width="1.4"/><text x="1703.4" y="561.0" text-anchor="middle" dominant-baseline="central" font-size="12.5" font-weight="600" fill="#1e293b">本社ユーザ</text><text x="1703.4" y="577.0" text-anchor="middle" dominant-baseline="central" font-size="12.5" font-weight="400" fill="#1e293b">VLAN 100 / 10.10.100.0/24</text></svg>