<svg xmlns="http://www.w3.org/2000/svg" width="2074" height="694" viewBox="0 0 2074 694" font-family="'Segoe UI','Hiragino Sans','Noto Sans JP',Meiryo,sans-serif"><defs></defs><rect width="100%" height="100%" fill="#ffffff"/><text x="24" y="30" font-size="19" font-weight="700" fill="#1e293b">全体論理構成図</text><rect x="40.0" y="300.0" width="1253.2" height="252.0" rx="6" fill="#f7f9fc" stroke="#8fa8c4"/><text x="44.0" y="292.0" font-size="14.5" font-weight="600" fill="#33475b">DCコロケーション</text><rect x="1349.2" y="300.0" width="257.3" height="262.0" rx="6" fill="#f7f9fc" stroke="#8fa8c4"/><text x="1353.2" y="292.0" font-size="14.5" font-weight="600" fill="#33475b">AWS ap-northeast-1</text><rect x="1662.5" y="300.0" width="371.7" height="354.0" rx="6" fill="#f7f9fc" stroke="#8fa8c4"/><text x="1666.5" y="292.0" font-size="14.5" font-weight="600" fill="#33475b">本社</text><polyline points="797.1,418.0 797.1,440.0 761.6,440.0 761.6,480.0" fill="none" stroke="#0f766e" stroke-width="1.5" opacity="1.0"></polyline><text x="801.1" y="431.0" font-size="10.5" font-style="italic" fill="#5f6368" opacity="1.0">eno1</text><polyline points="1025.9,418.0 1025.9,440.0 832.7,440.0 832.7,480.0" fill="none" stroke="#0f766e" stroke-width="1.5" opacity="1.0"></polyline><text x="1029.9" y="431.0" font-size="10.5" font-style="italic" fill="#5f6368" opacity="1.0">eno1</text><polyline points="1477.9,434.0 1477.9,490.0" fill="none" stroke="#0f766e" stroke-width="1.5" opacity="1.0"></polyline><text x="1481.9" y="447.0" font-size="10.5" font-style="italic" fill="#5f6368" opacity="1.0">vpc1</text><polyline points="1803.3,402.0 1803.3,424.0 1767.7,424.0 1767.7,464.0" fill="none" stroke="#4a4a4a" stroke-width="2.0" opacity="1.0"></polyline><text x="1807.3" y="415.0" font-size="10.5" font-style="italic" fill="#5f6368" opacity="1.0">Gi0/0/1</text><text x="1771.7" y="459.0" font-size="10.5" font-style="italic" fill="#5f6368" opacity="1.0">Gi1/0/1</text><polyline points="1949.9,402.0 1949.9,424.0 1838.8,424.0 1838.8,464.0" fill="none" stroke="#4a4a4a" stroke-width="2.0" opacity="1.0"></polyline><text x="1953.9" y="415.0" font-size="10.5" font-style="italic" fill="#5f6368" opacity="1.0">Gi0/0/1</text><text x="1842.8" y="459.0" font-size="10.5" font-style="italic" fill="#5f6368" opacity="1.0">Gi1/0/2</text><polyline points="1803.3,526.0 1803.3,582.0" fill="none" stroke="#0f766e" stroke-width="1.5" opacity="1.0"></polyline><text x="1807.3" y="539.0" font-size="10.5" font-style="italic" fill="#5f6368" opacity="1.0">Vlan100</text><polyline points="808.1,122.0 808.1,140.0 192.8,140.0 192.8,356.0" fill="none" stroke="#7b1fa2" stroke-width="2.0" opacity="1.0" stroke-dasharray="7 4"></polyline><rect x="39.8" y="204.0" width="306.0" height="24.0" rx="4" fill="#ffffff" fill-opacity="0.92" opacity="1.0"/><text x="192.8" y="217.0" text-anchor="middle" font-size="12" font-style="italic" font-weight="400" fill="#5f6368" opacity="1.0">Site-to-Site VPN (DX障害時のバックアップ)</text><polyline points="862.6,122.0 862.6,140.0 1443.7,140.0 1443.7,356.0" fill="none" stroke="#7b1fa2" stroke-width="2.0" opacity="1.0" stroke-dasharray="7 4"></polyline><rect x="1290.7" y="204.0" width="306.0" height="24.0" rx="4" fill="#ffffff" fill-opacity="0.92" opacity="1.0"/><text x="1443.7" y="217.0" text-anchor="middle" font-size="12" font-style="italic" font-weight="400" fill="#5f6368" opacity="1.0">Site-to-Site VPN (DX障害時のバックアップ)</text><polyline points="1654.0,122.0 1654.0,140.0 1803.3,140.0 1803.3,356.0" fill="none" stroke="#188038" stroke-width="2.0" opacity="1.0" stroke-dasharray="3 3"></polyline><rect x="1781.8" y="204.0" width="43.0" height="24.0" rx="4" fill="#ffffff" fill-opacity="0.92" opacity="1.0"/><text x="1803.3" y="217.0" text-anchor="middle" font-size="12" font-style="italic" font-weight="400" fill="#5f6368" opacity="1.0">OSPF</text><polyline points="1610.7,122.0 1610.7,158.0 1228.3,158.0 1228.3,356.0" fill="none" stroke="#188038" stroke-width="2.0" opacity="1.0" stroke-dasharray="3 3"></polyline><rect x="1206.8" y="204.0" width="43.0" height="24.0" rx="4" fill="#ffffff" fill-opacity="0.92" opacity="1.0"/><text x="1228.3" y="217.0" text-anchor="middle" font-size="12" font-style="italic" font-weight="400" fill="#5f6368" opacity="1.0">OSPF</text><polyline points="1697.4,122.0 1697.4,158.0 1949.9,158.0 1949.9,356.0" fill="none" stroke="#188038" stroke-width="2.0" opacity="1.0" stroke-dasharray="3 3"></polyline><rect x="1928.4" y="204.0" width="43.0" height="24.0" rx="4" fill="#ffffff" fill-opacity="0.92" opacity="1.0"/><text x="1949.9" y="217.0" text-anchor="middle" font-size="12" font-style="italic" font-weight="400" fill="#5f6368" opacity="1.0">OSPF</text><polyline points="1189.4,356.0 1189.4,176.0 1512.1,176.0 1512.1,356.0" fill="none" stroke="#188038" stroke-width="2.0" opacity="1.0" stroke-dasharray="3 3"></polyline><rect x="1307.2" y="240.0" width="87.1" height="24.0" rx="4" fill="#ffffff" fill-opacity="0.92" opacity="1.0"/><text x="1350.8" y="253.0" text-anchor="middle" font-size="12" font-style="italic" font-weight="400" fill="#5f6368" opacity="1.0">BGP (DX上)</text><ellipse cx="835.4" cy="84.0" rx="81.8" ry="38.0" fill="#f1f3f4" stroke="#5f6368" stroke-width="1.6"/><text x="835.4" y="84.0" text-anchor="middle" dominant-baseline="central" font-size="12.5" font-weight="600" fill="#1e293b">インターネット</text><ellipse cx="1654.0" cy="84.0" rx="86.7" ry="38.0" fill="#f1f3f4" stroke="#5f6368" stroke-width="1.6"/><text x="1654.0" y="84.0" text-anchor="middle" dominant-baseline="central" font-size="12.5" font-weight="600" fill="#1e293b">広域Ethernet網</text><rect x="66.0" y="356.0" width="253.7" height="62.0" rx="4" fill="#fce8e6" stroke="#c5221f" stroke-width="1.4"/><text x="192.8" y="371.0" text-anchor="middle" dominant-baseline="central" font-size="12.5" font-weight="600" fill="#1e293b">dc-fw01</text><text x="192.8" y="387.0" text-anchor="middle" dominant-baseline="central" font-size="12.5" font-weight="400" fill="#1e293b">FortiGate 600F</text><text x="192.8" y="403.0" text-anchor="middle" dominant-baseline="central" font-size="12.5" font-weight="400" fill="#1e293b">tunnel.aws: 169.254.200.1/30</text><rect x="1150.5" y="356.0" width="116.7" height="46.0" rx="4" fill="#e8f0fe" stroke="#1a56b0" stroke-width="1.4"/><text x="1208.9" y="371.0" text-anchor="middle" dominant-baseline="central" font-size="12.5" font-weight="600" fill="#1e293b">dc-rt01</text><text x="1208.9" y="387.0" text-anchor="middle" dominant-baseline="central" font-size="12.5" font-weight="400" fill="#1e293b">Cisco C8500</text><rect x="692.9" y="356.0" width="208.4" height="62.0" rx="4" fill="#f1f3f4" stroke="#5f6368" stroke-width="1.4"/><text x="797.1" y="371.0" text-anchor="middle" dominant-baseline="central" font-size="12.5" font-weight="600" fill="#1e293b">dc-srv01</text><text x="797.1" y="387.0" text-anchor="middle" dominant-baseline="central" font-size="12.5" font-weight="400" fill="#1e293b">PowerEdge R760 (基幹AP)</text><text x="797.1" y="403.0" text-anchor="middle" dominant-baseline="central" font-size="12.5" font-weight="400" fill="#1e293b">eno1: 10.20.10.11/24</text><rect x="931.3" y="356.0" width="189.2" height="62.0" rx="4" fill="#f1f3f4" stroke="#5f6368" stroke-width="1.4"/><text x="1025.9" y="371.0" text-anchor="middle" dominant-baseline="central" font-size="12.5" font-weight="600" fill="#1e293b">dc-srv02</text><text x="1025.9" y="387.0" text-anchor="middle" dominant-baseline="central" font-size="12.5" font-weight="400" fill="#1e293b">PowerEdge R760 (DB)</text><text x="1025.9" y="403.0" text-anchor="middle" dominant-baseline="central" font-size="12.5" font-weight="400" fill="#1e293b">eno1: 10.20.10.12/24</text><rect x="690.4" y="480.0" width="213.4" height="46.0" rx="4" fill="#e2f5f0" stroke="#0f766e" stroke-width="1.4"/><text x="797.1" y="495.0" text-anchor="middle" dominant-baseline="central" font-size="12.5" font-weight="600" fill="#1e293b">DCサーバ</text><text x="797.1" y="511.0" text-anchor="middle" dominant-baseline="central" font-size="12.5" font-weight="400" fill="#1e293b">VLAN 20 / 10.20.10.0/24</text><rect x="1375.2" y="356.0" width="205.3" height="78.0" rx="4" fill="#e8f0fe" stroke="#1a56b0" stroke-width="1.4"/><text x="1477.9" y="371.0" text-anchor="middle" dominant-baseline="central" font-size="12.5" font-weight="600" fill="#1e293b">aws-vgw01</text><text x="1477.9" y="387.0" text-anchor="middle" dominant-baseline="central" font-size="12.5" font-weight="400" fill="#1e293b">AWS VGW/TGW</text><text x="1477.9" y="403.0" text-anchor="middle" dominant-baseline="central" font-size="12.5" font-weight="400" fill="#1e293b">vpn1: 169.254.200.2/30</text><text x="1477.9" y="419.0" text-anchor="middle" dominant-baseline="central" font-size="12.5" font-weight="400" fill="#1e293b">vpc1: 10.100.0.1/16</text><rect x="1411.5" y="490.0" width="132.8" height="46.0" rx="4" fill="#e2f5f0" stroke="#0f766e" stroke-width="1.4"/><text x="1477.9" y="505.0" text-anchor="middle" dominant-baseline="central" font-size="12.5" font-weight="600" fill="#1e293b">VPC アプリ用</text><text x="1477.9" y="521.0" text-anchor="middle" dominant-baseline="central" font-size="12.5" font-weight="400" fill="#1e293b">10.100.0.0/16</text><rect x="1745.0" y="356.0" width="116.7" height="46.0" rx="4" fill="#e8f0fe" stroke="#1a56b0" stroke-width="1.4"/><text x="1803.3" y="371.0" text-anchor="middle" dominant-baseline="central" font-size="12.5" font-weight="600" fill="#1e293b">hq-rt01</text><text x="1803.3" y="387.0" text-anchor="middle" dominant-baseline="central" font-size="12.5" font-weight="400" fill="#1e293b">Cisco C8300</text><rect x="1891.6" y="356.0" width="116.7" height="46.0" rx="4" fill="#e8f0fe" stroke="#1a56b0" stroke-width="1.4"/><text x="1949.9" y="371.0" text-anchor="middle" dominant-baseline="central" font-size="12.5" font-weight="600" fill="#1e293b">hq-rt02</text><text x="1949.9" y="387.0" text-anchor="middle" dominant-baseline="central" font-size="12.5" font-weight="400" fill="#1e293b">Cisco C8300</text><rect x="1696.6" y="464.0" width="213.4" height="62.0" rx="4" fill="#d2e3fc" stroke="#1a56b0" stroke-width="1.4"/><text x="1803.3" y="479.0" text-anchor="middle" dominant-baseline="central" font-size="12.5" font-weight="600" fill="#1e293b">hq-sw01</text><text x="1803.3" y="495.0" text-anchor="middle" dominant-baseline="central" font-size="12.5" font-weight="400" fill="#1e293b">Catalyst 9300</text><text x="1803.3" y="511.0" text-anchor="middle" dominant-baseline="central" font-size="12.5" font-weight="400" fill="#1e293b">Vlan100: 10.10.100.1/24</text><rect x="1688.5" y="582.0" width="229.5" height="46.0" rx="4" fill="#e2f5f0" stroke="#0f766e" stroke-width="1.4"/><text x="1803.3" y="597.0" text-anchor="middle" dominant-baseline="central" font-size="12.5" font-weight="600" fill="#1e293b">本社ユーザ</text><text x="1803.3" y="613.0" text-anchor="middle" dominant-baseline="central" font-size="12.5" font-weight="400" fill="#1e293b">VLAN 100 / 10.10.100.0/24</text></svg>