<svg xmlns="http://www.w3.org/2000/svg" width="544" height="596" viewBox="0 0 544 596" font-family="'Segoe UI','Hiragino Sans','Noto Sans JP',Meiryo,sans-serif"><defs></defs><rect width="100%" height="100%" fill="#ffffff"/><text x="24" y="30" font-size="19" font-weight="700" fill="#1e293b">全体概要図</text><polyline points="229.8,454.0 229.8,510.0" fill="none" stroke="#1a73e8" stroke-width="3.5" opacity="1.0"></polyline><rect x="62.5" y="471.0" width="334.6" height="22.0" rx="4" fill="#ffffff" fill-opacity="0.92" opacity="1.0"/><text x="229.8" y="484.0" text-anchor="middle" font-size="12" font-style="italic" font-weight="400" fill="#5f6368" opacity="1.0">エクイニクス経由 AWS Direct Connect 専用線 1G</text><polyline points="89.9,122.0 89.9,140.0 70.0,140.0 70.0,408.0" fill="none" stroke="#1a73e8" stroke-width="3.5" opacity="1.0"></polyline><rect x="-25.8" y="204.0" width="191.5" height="24.0" rx="4" fill="#ffffff" fill-opacity="0.92" opacity="1.0"/><text x="70.0" y="217.0" text-anchor="middle" font-size="12" font-style="italic" font-weight="400" fill="#5f6368" opacity="1.0">キャリアA 広域Ethernet 1G</text><polyline points="133.3,122.0 133.3,158.0 100.0,158.0 100.0,408.0" fill="none" stroke="#1a73e8" stroke-width="3.5" opacity="1.0"></polyline><rect x="4.2" y="240.0" width="191.5" height="24.0" rx="4" fill="#ffffff" fill-opacity="0.92" opacity="1.0"/><text x="100.0" y="253.0" text-anchor="middle" font-size="12" font-style="italic" font-weight="400" fill="#5f6368" opacity="1.0">キャリアA 広域Ethernet 1G</text><polyline points="176.6,122.0 176.6,140.0 194.9,140.0 194.9,408.0" fill="none" stroke="#1a73e8" stroke-width="3.5" opacity="1.0"></polyline><rect x="95.3" y="276.0" width="199.2" height="24.0" rx="4" fill="#ffffff" fill-opacity="0.92" opacity="1.0"/><text x="194.9" y="289.0" text-anchor="middle" font-size="12" font-style="italic" font-weight="400" fill="#5f6368" opacity="1.0">キャリアA 広域Ethernet 10G</text><polyline points="320.9,122.0 320.9,140.0 229.8,140.0 229.8,408.0" fill="none" stroke="#1a73e8" stroke-width="3.5" opacity="1.0"></polyline><rect x="112.9" y="312.0" width="233.9" height="24.0" rx="4" fill="#ffffff" fill-opacity="0.92" opacity="1.0"/><text x="229.8" y="325.0" text-anchor="middle" font-size="12" font-style="italic" font-weight="400" fill="#5f6368" opacity="1.0">キャリアB DC IXインターネット 1G</text><polyline points="361.8,122.0 361.8,158.0 264.8,158.0 264.8,408.0" fill="none" stroke="#7b1fa2" stroke-width="2.0" opacity="1.0" stroke-dasharray="7 4"></polyline><rect x="111.8" y="348.0" width="306.0" height="24.0" rx="4" fill="#ffffff" fill-opacity="0.92" opacity="1.0"/><text x="264.8" y="361.0" text-anchor="middle" font-size="12" font-style="italic" font-weight="400" fill="#5f6368" opacity="1.0">Site-to-Site VPN (DX障害時のバックアップ)</text><polyline points="402.7,122.0 402.7,176.0 229.8,176.0 229.8,510.0" fill="none" stroke="#7b1fa2" stroke-width="2.0" opacity="1.0" stroke-dasharray="7 4"></polyline><ellipse cx="133.3" cy="84.0" rx="86.7" ry="38.0" fill="#f1f3f4" stroke="#5f6368" stroke-width="1.6"/><text x="133.3" y="84.0" text-anchor="middle" dominant-baseline="central" font-size="12.5" font-weight="600" fill="#1e293b">広域Ethernet網</text><ellipse cx="361.8" cy="84.0" rx="81.8" ry="38.0" fill="#f1f3f4" stroke="#5f6368" stroke-width="1.6"/><text x="361.8" y="84.0" text-anchor="middle" dominant-baseline="central" font-size="12.5" font-weight="600" fill="#1e293b">インターネット</text><rect x="40.0" y="408.0" width="90.0" height="46.0" rx="4" fill="#fff8e1" stroke="#b58105" stroke-width="1.4"/><text x="85.0" y="431.0" text-anchor="middle" dominant-baseline="central" font-size="12.5" font-weight="600" fill="#1e293b">本社</text><rect x="160.0" y="408.0" width="139.7" height="46.0" rx="4" fill="#fff8e1" stroke="#b58105" stroke-width="1.4"/><text x="229.8" y="431.0" text-anchor="middle" dominant-baseline="central" font-size="12.5" font-weight="600" fill="#1e293b">DCコロケーション</text><rect x="143.3" y="510.0" width="173.1" height="46.0" rx="4" fill="#fff8e1" stroke="#b58105" stroke-width="1.4"/><text x="229.8" y="533.0" text-anchor="middle" dominant-baseline="central" font-size="12.5" font-weight="600" fill="#1e293b">AWS ap-northeast-1</text></svg>