<svg xmlns="http://www.w3.org/2000/svg" width="1806" height="1010" viewBox="0 0 1806 1010" font-family="'Segoe UI','Hiragino Sans','Noto Sans JP',Meiryo,sans-serif"><defs><marker id="arrow-c5221f" viewBox="0 0 10 10" refX="9" refY="5" markerWidth="7" markerHeight="7" orient="auto-start-reverse"><path d="M 0 0 L 10 5 L 0 10 z" fill="#c5221f"/></marker></defs><rect width="100%" height="100%" fill="#ffffff"/><text x="24" y="30" font-size="19" font-weight="700" fill="#1e293b">通信経路 本社→AWS (DX障害時)</text><rect x="40.0" y="336.0" width="516.8" height="418.0" rx="6" fill="#f7f9fc" stroke="#8fa8c4"/><text x="44.0" y="328.0" font-size="14.5" font-weight="600" fill="#33475b">本社</text><rect x="612.8" y="336.0" width="839.9" height="634.0" rx="6" fill="#f7f9fc" stroke="#8fa8c4"/><text x="616.8" y="328.0" font-size="14.5" font-weight="600" fill="#33475b">DCコロケーション</text><rect x="1508.7" y="336.0" width="257.3" height="278.0" rx="6" fill="#f7f9fc" stroke="#8fa8c4"/><text x="1512.7" y="328.0" font-size="14.5" font-weight="600" fill="#33475b">AWS ap-northeast-1</text><polyline points="292.4,470.0 292.4,526.0" fill="none" stroke="#4a4a4a" stroke-width="2.0" opacity="0.15"></polyline><text x="296.4" y="483.0" font-size="10.5" font-style="italic" fill="#5f6368" opacity="0.15">Gi0/0/1</text><text x="296.4" y="521.0" font-size="10.5" font-style="italic" fill="#5f6368" opacity="0.15">Gi1/0/2</text><polyline points="327.9,588.0 327.9,610.0 416.1,610.0 416.1,650.0" fill="none" stroke="#0f766e" stroke-width="1.5" opacity="0.15"></polyline><text x="331.9" y="601.0" font-size="10.5" font-style="italic" fill="#5f6368" opacity="0.15">Vlan100</text><polyline points="1011.1,572.0 1011.1,594.0 1217.7,594.0 1217.7,634.0" fill="none" stroke="#4a4a4a" stroke-width="2.0" opacity="0.15"></polyline><text x="1015.1" y="585.0" font-size="10.5" font-style="italic" fill="#5f6368" opacity="0.15">Eth1/3</text><text x="1221.7" y="629.0" font-size="10.5" font-style="italic" fill="#5f6368" opacity="0.15">Gi1/0/1</text><polyline points="1195.6,680.0 1195.6,734.0 1103.3,734.0 1103.3,774.0" fill="none" stroke="#4a4a4a" stroke-width="2.0" opacity="0.15"></polyline><text x="1199.6" y="693.0" font-size="10.5" font-style="italic" fill="#5f6368" opacity="0.15">Gi1/0/11</text><text x="1107.3" y="769.0" font-size="10.5" font-style="italic" fill="#5f6368" opacity="0.15">eno1</text><polyline points="1239.8,680.0 1239.8,734.0 1332.1,734.0 1332.1,774.0" fill="none" stroke="#4a4a4a" stroke-width="2.0" opacity="0.15"></polyline><text x="1243.8" y="693.0" font-size="10.5" font-style="italic" fill="#5f6368" opacity="0.15">Gi1/0/12</text><text x="1336.1" y="769.0" font-size="10.5" font-style="italic" fill="#5f6368" opacity="0.15">eno1</text><polyline points="1103.3,836.0 1103.3,858.0 1067.7,858.0 1067.7,898.0" fill="none" stroke="#0f766e" stroke-width="1.5" opacity="0.15"></polyline><text x="1107.3" y="849.0" font-size="10.5" font-style="italic" fill="#5f6368" opacity="0.15">eno1</text><polyline points="1332.1,836.0 1332.1,858.0 1138.9,858.0 1138.9,898.0" fill="none" stroke="#0f766e" stroke-width="1.5" opacity="0.15"></polyline><text x="1336.1" y="849.0" font-size="10.5" font-style="italic" fill="#5f6368" opacity="0.15">eno1</text><polyline points="1637.4,486.0 1637.4,542.0" fill="none" stroke="#0f766e" stroke-width="1.5" opacity="0.15"></polyline><text x="1641.4" y="499.0" font-size="10.5" font-style="italic" fill="#5f6368" opacity="0.15">vpc1</text><polyline points="535.1,122.0 535.1,158.0 258.1,158.0 258.1,392.0" fill="none" stroke="#1a73e8" stroke-width="3.5" opacity="0.15"></polyline><rect x="162.4" y="276.0" width="191.5" height="42.0" rx="4" fill="#ffffff" fill-opacity="0.92" opacity="0.15"/><text x="258.1" y="289.0" text-anchor="middle" font-size="12" font-style="italic" font-weight="400" fill="#5f6368" opacity="0.15">キャリアA 広域Ethernet 1G</text><text x="258.1" y="306.0" text-anchor="middle" font-size="12" font-style="italic" font-weight="400" fill="#5f6368" opacity="0.15">(Gi0/0/0)</text><polyline points="1029.9,392.0 1029.9,140.0 1586.1,140.0 1586.1,392.0" fill="none" stroke="#c5221f" stroke-width="3.5" opacity="0.55" stroke-dasharray="5 4"></polyline><rect x="1140.7" y="240.0" width="334.6" height="42.0" rx="4" fill="#ffffff" fill-opacity="0.92" opacity="0.55"/><text x="1308.0" y="253.0" text-anchor="middle" font-size="12" font-style="italic" font-weight="400" fill="#5f6368" opacity="0.55">エクイニクス経由 AWS Direct Connect 専用線 1G</text><text x="1308.0" y="270.0" text-anchor="middle" font-size="12" font-style="italic" font-weight="400" fill="#5f6368" opacity="0.55">(Te0/0/3 - dx1)</text><polyline points="1056.2,122.0 1056.2,176.0 622.8,176.0 622.8,620.0 807.9,620.0 807.9,634.0" fill="none" stroke="#7b1fa2" stroke-width="2.0" opacity="0.15" stroke-dasharray="7 4"></polyline><rect x="654.9" y="276.0" width="306.0" height="24.0" rx="4" fill="#ffffff" fill-opacity="0.92" opacity="0.15"/><text x="807.9" y="289.0" text-anchor="middle" font-size="12" font-style="italic" font-weight="400" fill="#5f6368" opacity="0.15">Site-to-Site VPN (DX障害時のバックアップ)</text><polyline points="513.4,122.0 513.4,176.0 50.0,176.0 50.0,636.0 202.9,636.0 202.9,650.0" fill="none" stroke="#188038" stroke-width="2.0" opacity="0.15" stroke-dasharray="3 3"></polyline><rect x="181.4" y="240.0" width="43.0" height="24.0" rx="4" fill="#ffffff" fill-opacity="0.92" opacity="0.15"/><text x="202.9" y="253.0" text-anchor="middle" font-size="12" font-style="italic" font-weight="400" fill="#5f6368" opacity="0.15">OSPF</text><polyline points="600.1,122.0 600.1,194.0 953.4,194.0 953.4,392.0" fill="none" stroke="#188038" stroke-width="2.0" opacity="0.15" stroke-dasharray="3 3"></polyline><polyline points="556.7,122.0 556.7,194.0 326.6,194.0 326.6,392.0" fill="none" stroke="#188038" stroke-width="2.0" opacity="0.15" stroke-dasharray="3 3"></polyline><rect x="305.1" y="240.0" width="43.0" height="24.0" rx="4" fill="#ffffff" fill-opacity="0.92" opacity="0.15"/><text x="326.6" y="253.0" text-anchor="middle" font-size="12" font-style="italic" font-weight="400" fill="#5f6368" opacity="0.15">OSPF</text><polyline points="621.8,122.0 621.8,212.0 991.7,212.0 991.7,392.0" fill="none" stroke="#188038" stroke-width="2.0" opacity="0.15" stroke-dasharray="3 3"></polyline><polyline points="1068.2,392.0 1068.2,194.0 1637.4,194.0 1637.4,392.0" fill="none" stroke="#9aa0a6" stroke-width="2.0" opacity="0.55" stroke-dasharray="5 5"></polyline><rect x="1309.2" y="276.0" width="87.1" height="24.0" rx="4" fill="#ffffff" fill-opacity="0.92" opacity="0.55"/><text x="1352.8" y="289.0" text-anchor="middle" font-size="12" font-style="italic" font-weight="400" fill="#5f6368" opacity="0.55">BGP (DX上)</text><polyline points="256.8,588.0 256.8,610.0 168.7,610.0 168.7,650.0" fill="none" stroke="#c5221f" stroke-width="4.0" opacity="1.0" stroke-dasharray="10 6" marker-end="url(#arrow-c5221f)"><animate attributeName="stroke-dashoffset" from="32" to="0" dur="1.2s" repeatCount="indefinite"/></polyline><text x="260.8" y="601.0" font-size="10.5" font-style="italic" fill="#5f6368" opacity="1.0">Gi1/0/1</text><text x="172.7" y="645.0" font-size="10.5" font-style="italic" fill="#5f6368" opacity="1.0">Gi0/0/1</text><rect x="183.5" y="599.0" width="58.5" height="22.0" rx="4" fill="#ffffff" fill-opacity="0.92" opacity="1.0"/><text x="212.7" y="612.0" text-anchor="middle" font-size="12" font-style="italic" font-weight="600" fill="#c5221f" opacity="1.0">① HSRP</text><polyline points="991.7,470.0 991.7,526.0" fill="none" stroke="#c5221f" stroke-width="4.0" opacity="1.0" stroke-dasharray="10 6" marker-end="url(#arrow-c5221f)"><animate attributeName="stroke-dashoffset" from="32" to="0" dur="1.2s" repeatCount="indefinite"/></polyline><text x="995.7" y="483.0" font-size="10.5" font-style="italic" fill="#5f6368" opacity="1.0">Te0/0/1</text><text x="995.7" y="521.0" font-size="10.5" font-style="italic" fill="#5f6368" opacity="1.0">Eth1/1</text><rect x="981.8" y="487.0" width="19.8" height="22.0" rx="4" fill="#ffffff" fill-opacity="0.92" opacity="1.0"/><text x="991.7" y="500.0" text-anchor="middle" font-size="12" font-style="italic" font-weight="600" fill="#c5221f" opacity="1.0">④</text><polyline points="972.2,572.0 972.2,594.0 765.7,594.0 765.7,634.0" fill="none" stroke="#c5221f" stroke-width="4.0" opacity="1.0" stroke-dasharray="10 6" marker-end="url(#arrow-c5221f)"><animate attributeName="stroke-dashoffset" from="32" to="0" dur="1.2s" repeatCount="indefinite"/></polyline><text x="976.2" y="585.0" font-size="10.5" font-style="italic" fill="#5f6368" opacity="1.0">Eth1/2</text><text x="769.7" y="629.0" font-size="10.5" font-style="italic" fill="#5f6368" opacity="1.0">internal1</text><rect x="784.5" y="583.0" width="168.9" height="22.0" rx="4" fill="#ffffff" fill-opacity="0.92" opacity="1.0"/><text x="869.0" y="596.0" text-anchor="middle" font-size="12" font-style="italic" font-weight="600" fill="#c5221f" opacity="1.0">⑤ 経路広報の切替でVPNへ</text><polyline points="134.4,650.0 134.4,636.0 50.0,636.0 50.0,140.0 491.7,140.0 491.7,122.0" fill="none" stroke="#c5221f" stroke-width="4.0" opacity="1.0" stroke-dasharray="10 6" marker-end="url(#arrow-c5221f)"><animate attributeName="stroke-dashoffset" from="32" to="0" dur="1.2s" repeatCount="indefinite"/></polyline><rect x="105.2" y="240.0" width="58.5" height="24.0" rx="4" fill="#ffffff" fill-opacity="0.92" opacity="1.0"/><text x="134.4" y="253.0" text-anchor="middle" font-size="12" font-style="italic" font-weight="600" fill="#c5221f" opacity="1.0">② OSPF</text><polyline points="578.4,122.0 578.4,140.0 915.2,140.0 915.2,392.0" fill="none" stroke="#c5221f" stroke-width="4.0" opacity="1.0" stroke-dasharray="10 6" marker-end="url(#arrow-c5221f)"><animate attributeName="stroke-dashoffset" from="32" to="0" dur="1.2s" repeatCount="indefinite"/></polyline><rect x="905.3" y="240.0" width="19.8" height="24.0" rx="4" fill="#ffffff" fill-opacity="0.92" opacity="1.0"/><text x="915.2" y="253.0" text-anchor="middle" font-size="12" font-style="italic" font-weight="600" fill="#c5221f" opacity="1.0">③</text><polyline points="723.4,634.0 723.4,620.0 622.8,620.0 622.8,158.0 1015.3,158.0 1015.3,122.0" fill="none" stroke="#c5221f" stroke-width="4.0" opacity="1.0" stroke-dasharray="10 6" marker-end="url(#arrow-c5221f)"><animate attributeName="stroke-dashoffset" from="32" to="0" dur="1.2s" repeatCount="indefinite"/></polyline><rect x="620.8" y="240.0" width="205.2" height="24.0" rx="4" fill="#ffffff" fill-opacity="0.92" opacity="1.0"/><text x="723.4" y="253.0" text-anchor="middle" font-size="12" font-style="italic" font-weight="600" fill="#c5221f" opacity="1.0">⑥ IPsec インターネット網経由</text><polyline points="1097.1,122.0 1097.1,158.0 1688.7,158.0 1688.7,392.0" fill="none" stroke="#c5221f" stroke-width="4.0" opacity="1.0" stroke-dasharray="10 6" marker-end="url(#arrow-c5221f)"><animate attributeName="stroke-dashoffset" from="32" to="0" dur="1.2s" repeatCount="indefinite"/></polyline><rect x="1584.3" y="240.0" width="208.8" height="24.0" rx="4" fill="#ffffff" fill-opacity="0.92" opacity="1.0"/><text x="1688.7" y="253.0" text-anchor="middle" font-size="12" font-style="italic" font-weight="600" fill="#c5221f" opacity="1.0">⑦ BGP Site-to-Site VPN経由</text><ellipse cx="556.7" cy="84.0" rx="86.7" ry="38.0" fill="#f1f3f4" stroke="#5f6368" stroke-width="1.6"/><text x="556.7" y="84.0" text-anchor="middle" dominant-baseline="central" font-size="12.5" font-weight="600" fill="#1e293b">広域Ethernet網</text><ellipse cx="1056.2" cy="84.0" rx="81.8" ry="38.0" fill="#f1f3f4" stroke="#5f6368" stroke-width="1.6"/><text x="1056.2" y="84.0" text-anchor="middle" dominant-baseline="central" font-size="12.5" font-weight="600" fill="#1e293b">インターネット</text><rect x="66.0" y="650.0" width="205.3" height="78.0" rx="4" fill="#e8f0fe" stroke="#1a56b0" stroke-width="1.4"/><text x="168.7" y="665.0" text-anchor="middle" dominant-baseline="central" font-size="12.5" font-weight="600" fill="#1e293b">hq-rt01</text><text x="168.7" y="681.0" text-anchor="middle" dominant-baseline="central" font-size="12.5" font-weight="400" fill="#1e293b">Cisco C8300</text><text x="168.7" y="697.0" text-anchor="middle" dominant-baseline="central" font-size="12.5" font-weight="400" fill="#1e293b">Gi0/0/0: 10.255.0.1/29</text><text x="168.7" y="713.0" text-anchor="middle" dominant-baseline="central" font-size="12.5" font-weight="400" fill="#1e293b">Gi0/0/1: 10.10.0.2/24</text><rect x="185.7" y="526.0" width="213.4" height="62.0" rx="4" fill="#d2e3fc" stroke="#1a56b0" stroke-width="1.4"/><text x="292.4" y="541.0" text-anchor="middle" dominant-baseline="central" font-size="12.5" font-weight="600" fill="#1e293b">hq-sw01</text><text x="292.4" y="557.0" text-anchor="middle" dominant-baseline="central" font-size="12.5" font-weight="400" fill="#1e293b">Catalyst 9300</text><text x="292.4" y="573.0" text-anchor="middle" dominant-baseline="central" font-size="12.5" font-weight="400" fill="#1e293b">Vlan100: 10.10.100.1/24</text><rect x="189.7" y="392.0" width="205.3" height="78.0" rx="4" fill="#e8f0fe" stroke="#1a56b0" stroke-width="1.4" opacity="0.3"/><text x="292.4" y="407.0" text-anchor="middle" dominant-baseline="central" font-size="12.5" font-weight="600" fill="#1e293b" opacity="0.3">hq-rt02</text><text x="292.4" y="423.0" text-anchor="middle" dominant-baseline="central" font-size="12.5" font-weight="400" fill="#1e293b" opacity="0.3">Cisco C8300</text><text x="292.4" y="439.0" text-anchor="middle" dominant-baseline="central" font-size="12.5" font-weight="400" fill="#1e293b" opacity="0.3">Gi0/0/0: 10.255.0.2/29</text><text x="292.4" y="455.0" text-anchor="middle" dominant-baseline="central" font-size="12.5" font-weight="400" fill="#1e293b" opacity="0.3">Gi0/0/1: 10.10.0.3/24</text><rect x="301.3" y="650.0" width="229.5" height="46.0" rx="4" fill="#e2f5f0" stroke="#0f766e" stroke-width="1.4" opacity="0.3"/><text x="416.1" y="665.0" text-anchor="middle" dominant-baseline="central" font-size="12.5" font-weight="600" fill="#1e293b" opacity="0.3">本社ユーザ</text><text x="416.1" y="681.0" text-anchor="middle" dominant-baseline="central" font-size="12.5" font-weight="400" fill="#1e293b" opacity="0.3">VLAN 100 / 10.10.100.0/24</text><rect x="876.9" y="392.0" width="229.5" height="78.0" rx="4" fill="#e8f0fe" stroke="#1a56b0" stroke-width="1.4"/><text x="991.7" y="407.0" text-anchor="middle" dominant-baseline="central" font-size="12.5" font-weight="600" fill="#1e293b">dc-rt01</text><text x="991.7" y="423.0" text-anchor="middle" dominant-baseline="central" font-size="12.5" font-weight="400" fill="#1e293b">Cisco C8500</text><text x="991.7" y="439.0" text-anchor="middle" dominant-baseline="central" font-size="12.5" font-weight="400" fill="#1e293b">Te0/0/0: 10.255.0.3/29</text><text x="991.7" y="455.0" text-anchor="middle" dominant-baseline="central" font-size="12.5" font-weight="400" fill="#1e293b">Te0/0/3: 169.254.100.1/30</text><rect x="933.4" y="526.0" width="116.7" height="46.0" rx="4" fill="#d2e3fc" stroke="#1a56b0" stroke-width="1.4"/><text x="991.7" y="541.0" text-anchor="middle" dominant-baseline="central" font-size="12.5" font-weight="600" fill="#1e293b">dc-core01</text><text x="991.7" y="557.0" text-anchor="middle" dominant-baseline="central" font-size="12.5" font-weight="400" fill="#1e293b">Nexus 93180</text><rect x="638.8" y="634.0" width="253.7" height="78.0" rx="4" fill="#fce8e6" stroke="#c5221f" stroke-width="1.4"/><text x="765.7" y="649.0" text-anchor="middle" dominant-baseline="central" font-size="12.5" font-weight="600" fill="#1e293b">dc-fw01</text><text x="765.7" y="665.0" text-anchor="middle" dominant-baseline="central" font-size="12.5" font-weight="400" fill="#1e293b">FortiGate 600F</text><text x="765.7" y="681.0" text-anchor="middle" dominant-baseline="central" font-size="12.5" font-weight="400" fill="#1e293b">wan1: 198.51.100.20/29</text><text x="765.7" y="697.0" text-anchor="middle" dominant-baseline="central" font-size="12.5" font-weight="400" fill="#1e293b">tunnel.aws: 169.254.200.1/30</text><rect x="1151.3" y="634.0" width="132.8" height="46.0" rx="4" fill="#e6f4ea" stroke="#137333" stroke-width="1.4" opacity="0.3"/><text x="1217.7" y="649.0" text-anchor="middle" dominant-baseline="central" font-size="12.5" font-weight="600" fill="#1e293b" opacity="0.3">dc-srvsw01</text><text x="1217.7" y="665.0" text-anchor="middle" dominant-baseline="central" font-size="12.5" font-weight="400" fill="#1e293b" opacity="0.3">Catalyst 9200</text><rect x="999.1" y="774.0" width="208.4" height="62.0" rx="4" fill="#f1f3f4" stroke="#5f6368" stroke-width="1.4" opacity="0.3"/><text x="1103.3" y="789.0" text-anchor="middle" dominant-baseline="central" font-size="12.5" font-weight="600" fill="#1e293b" opacity="0.3">dc-srv01</text><text x="1103.3" y="805.0" text-anchor="middle" dominant-baseline="central" font-size="12.5" font-weight="400" fill="#1e293b" opacity="0.3">PowerEdge R760 (基幹AP)</text><text x="1103.3" y="821.0" text-anchor="middle" dominant-baseline="central" font-size="12.5" font-weight="400" fill="#1e293b" opacity="0.3">eno1: 10.20.10.11/24</text><rect x="1237.5" y="774.0" width="189.2" height="62.0" rx="4" fill="#f1f3f4" stroke="#5f6368" stroke-width="1.4" opacity="0.3"/><text x="1332.1" y="789.0" text-anchor="middle" dominant-baseline="central" font-size="12.5" font-weight="600" fill="#1e293b" opacity="0.3">dc-srv02</text><text x="1332.1" y="805.0" text-anchor="middle" dominant-baseline="central" font-size="12.5" font-weight="400" fill="#1e293b" opacity="0.3">PowerEdge R760 (DB)</text><text x="1332.1" y="821.0" text-anchor="middle" dominant-baseline="central" font-size="12.5" font-weight="400" fill="#1e293b" opacity="0.3">eno1: 10.20.10.12/24</text><rect x="996.6" y="898.0" width="213.4" height="46.0" rx="4" fill="#e2f5f0" stroke="#0f766e" stroke-width="1.4" opacity="0.3"/><text x="1103.3" y="913.0" text-anchor="middle" dominant-baseline="central" font-size="12.5" font-weight="600" fill="#1e293b" opacity="0.3">DCサーバ</text><text x="1103.3" y="929.0" text-anchor="middle" dominant-baseline="central" font-size="12.5" font-weight="400" fill="#1e293b" opacity="0.3">VLAN 20 / 10.20.10.0/24</text><rect x="1534.7" y="392.0" width="205.3" height="94.0" rx="4" fill="#e8f0fe" stroke="#1a56b0" stroke-width="1.4"/><text x="1637.4" y="407.0" text-anchor="middle" dominant-baseline="central" font-size="12.5" font-weight="600" fill="#1e293b">aws-vgw01</text><text x="1637.4" y="423.0" text-anchor="middle" dominant-baseline="central" font-size="12.5" font-weight="400" fill="#1e293b">AWS VGW/TGW</text><text x="1637.4" y="439.0" text-anchor="middle" dominant-baseline="central" font-size="12.5" font-weight="400" fill="#1e293b">dx1: 169.254.100.2/30</text><text x="1637.4" y="455.0" text-anchor="middle" dominant-baseline="central" font-size="12.5" font-weight="400" fill="#1e293b">vpn1: 169.254.200.2/30</text><text x="1637.4" y="471.0" text-anchor="middle" dominant-baseline="central" font-size="12.5" font-weight="400" fill="#1e293b">vpc1: 10.100.0.1/16</text><rect x="1571.0" y="542.0" width="132.8" height="46.0" rx="4" fill="#e2f5f0" stroke="#0f766e" stroke-width="1.4" opacity="0.3"/><text x="1637.4" y="557.0" text-anchor="middle" dominant-baseline="central" font-size="12.5" font-weight="600" fill="#1e293b" opacity="0.3">VPC アプリ用</text><text x="1637.4" y="573.0" text-anchor="middle" dominant-baseline="central" font-size="12.5" font-weight="400" fill="#1e293b" opacity="0.3">10.100.0.0/16</text></svg>