<svg xmlns="http://www.w3.org/2000/svg" width="1866" height="888" viewBox="0 0 1866 888" font-family="'Segoe UI','Hiragino Sans','Noto Sans JP',Meiryo,sans-serif"><defs><marker id="arrow-c5221f" viewBox="0 0 10 10" refX="9" refY="5" markerWidth="7" markerHeight="7" orient="auto-start-reverse"><path d="M 0 0 L 10 5 L 0 10 z" fill="#c5221f"/></marker></defs><rect width="100%" height="100%" fill="#ffffff"/><text x="24" y="30" font-size="19" font-weight="700" fill="#1e293b">通信経路 本社→AWS (DX障害時)</text><rect x="40.0" y="354.0" width="504.7" height="386.0" rx="6" fill="#f7f9fc" stroke="#8fa8c4"/><text x="44.0" y="346.0" font-size="14.5" font-weight="600" fill="#33475b">本社</text><rect x="600.7" y="354.0" width="912.4" height="494.0" rx="6" fill="#f7f9fc" stroke="#8fa8c4"/><text x="604.7" y="346.0" font-size="14.5" font-weight="600" fill="#33475b">DCコロケーション</text><rect x="1569.2" y="354.0" width="257.3" height="278.0" rx="6" fill="#f7f9fc" stroke="#8fa8c4"/><text x="1573.2" y="346.0" font-size="14.5" font-weight="600" fill="#33475b">AWS ap-northeast-1</text><rect x="69.1" y="401.0" width="458.6" height="96.0" rx="6" fill="none" stroke="#64748b" stroke-width="1.3" stroke-dasharray="5 4"/><text x="73.1" y="396.0" font-size="11.5" font-weight="600" fill="#475569">HSRP VIP 10.10.0.1</text><polyline points="416.1,488.0 416.1,510.0 216.3,510.0 216.3,550.0" fill="none" stroke="#4a4a4a" stroke-width="2.0" opacity="0.15"></polyline><text x="420.1" y="501.0" font-size="10.5" font-style="italic" fill="#5f6368" opacity="0.15">Gi0/0/1</text><text x="220.3" y="545.0" font-size="10.5" font-style="italic" fill="#5f6368" opacity="0.15">Gi1/0/2</text><polyline points="180.8,612.0 180.8,668.0" fill="none" stroke="#0f766e" stroke-width="1.5" opacity="0.15"></polyline><text x="184.8" y="625.0" font-size="10.5" font-style="italic" fill="#5f6368" opacity="0.15">Vlan100</text><polyline points="845.4,596.0 845.4,652.0" fill="none" stroke="#4a4a4a" stroke-width="2.0" opacity="0.15"></polyline><text x="849.4" y="609.0" font-size="10.5" font-style="italic" fill="#5f6368" opacity="0.15">Eth1/3</text><text x="849.4" y="647.0" font-size="10.5" font-style="italic" fill="#5f6368" opacity="0.15">Gi1/0/1</text><polyline points="823.2,698.0 823.2,720.0 731.0,720.0 731.0,760.0" fill="none" stroke="#4a4a4a" stroke-width="2.0" opacity="0.15"></polyline><text x="827.2" y="711.0" font-size="10.5" font-style="italic" fill="#5f6368" opacity="0.15">Gi1/0/11</text><text x="735.0" y="755.0" font-size="10.5" font-style="italic" fill="#5f6368" opacity="0.15">eno1</text><polyline points="867.5,698.0 867.5,720.0 959.8,720.0 959.8,760.0" fill="none" stroke="#4a4a4a" stroke-width="2.0" opacity="0.15"></polyline><text x="871.5" y="711.0" font-size="10.5" font-style="italic" fill="#5f6368" opacity="0.15">Gi1/0/12</text><text x="963.8" y="755.0" font-size="10.5" font-style="italic" fill="#5f6368" opacity="0.15">eno1</text><polyline points="1697.8,504.0 1697.8,560.0" fill="none" stroke="#0f766e" stroke-width="1.5" opacity="0.15"></polyline><text x="1701.8" y="517.0" font-size="10.5" font-style="italic" fill="#5f6368" opacity="0.15">vpc1</text><polyline points="468.3,122.0 468.3,158.0 381.8,158.0 381.8,410.0" fill="none" stroke="#1a73e8" stroke-width="3.5" opacity="0.15"></polyline><rect x="286.1" y="222.0" width="191.5" height="42.0" rx="4" fill="#ffffff" fill-opacity="0.92" opacity="0.15"/><text x="381.8" y="235.0" text-anchor="middle" font-size="12" font-style="italic" font-weight="400" fill="#5f6368" opacity="0.15">キャリアA 広域Ethernet 1G</text><text x="381.8" y="252.0" text-anchor="middle" font-size="12" font-style="italic" font-weight="400" fill="#5f6368" opacity="0.15">(Gi0/0/0)</text><polyline points="868.3,410.0 868.3,140.0 1646.5,140.0 1646.5,410.0" fill="none" stroke="#c5221f" stroke-width="3.5" opacity="0.55" stroke-dasharray="5 4"></polyline><rect x="1090.1" y="222.0" width="334.6" height="42.0" rx="4" fill="#ffffff" fill-opacity="0.92" opacity="0.55"/><text x="1257.4" y="235.0" text-anchor="middle" font-size="12" font-style="italic" font-weight="400" fill="#5f6368" opacity="0.55">エクイニクス経由 AWS Direct Connect 専用線 1G</text><text x="1257.4" y="252.0" text-anchor="middle" font-size="12" font-style="italic" font-weight="400" fill="#5f6368" opacity="0.55">(Te0/0/3 - dx1)</text><polyline points="1310.6,122.0 1310.6,176.0 1159.2,176.0 1159.2,410.0" fill="none" stroke="#7b1fa2" stroke-width="2.0" opacity="0.15" stroke-dasharray="7 4"></polyline><rect x="1006.2" y="294.0" width="306.0" height="24.0" rx="4" fill="#ffffff" fill-opacity="0.92" opacity="0.15"/><text x="1159.2" y="307.0" text-anchor="middle" font-size="12" font-style="italic" font-weight="400" fill="#5f6368" opacity="0.15">Site-to-Site VPN (DX障害時のバックアップ)</text><polyline points="443.6,122.0 443.6,176.0 215.0,176.0 215.0,410.0" fill="none" stroke="#188038" stroke-width="2.0" opacity="0.15" stroke-dasharray="3 3"></polyline><rect x="193.5" y="222.0" width="43.0" height="24.0" rx="4" fill="#ffffff" fill-opacity="0.92" opacity="0.15"/><text x="215.0" y="235.0" text-anchor="middle" font-size="12" font-style="italic" font-weight="400" fill="#5f6368" opacity="0.15">OSPF</text><polyline points="542.7,122.0 542.7,158.0 822.4,158.0 822.4,410.0" fill="none" stroke="#188038" stroke-width="2.0" opacity="0.15" stroke-dasharray="3 3"></polyline><rect x="800.9" y="222.0" width="43.0" height="24.0" rx="4" fill="#ffffff" fill-opacity="0.92" opacity="0.15"/><text x="822.4" y="235.0" text-anchor="middle" font-size="12" font-style="italic" font-weight="400" fill="#5f6368" opacity="0.15">OSPF</text><polyline points="493.1,122.0 493.1,140.0 450.3,140.0 450.3,410.0" fill="none" stroke="#188038" stroke-width="2.0" opacity="0.15" stroke-dasharray="3 3"></polyline><rect x="428.8" y="258.0" width="43.0" height="24.0" rx="4" fill="#ffffff" fill-opacity="0.92" opacity="0.15"/><text x="450.3" y="271.0" text-anchor="middle" font-size="12" font-style="italic" font-weight="400" fill="#5f6368" opacity="0.15">OSPF</text><polyline points="914.2,410.0 914.2,194.0 1697.8,194.0 1697.8,410.0" fill="none" stroke="#9aa0a6" stroke-width="2.0" opacity="0.55" stroke-dasharray="5 5"></polyline><rect x="1262.5" y="258.0" width="87.1" height="24.0" rx="4" fill="#ffffff" fill-opacity="0.92" opacity="0.55"/><text x="1306.0" y="271.0" text-anchor="middle" font-size="12" font-style="italic" font-weight="400" fill="#5f6368" opacity="0.55">BGP (DX上)</text><polyline points="180.7,488.0 180.7,510.0 145.2,510.0 145.2,550.0" fill="none" stroke="#c5221f" stroke-width="4.0" opacity="1.0" stroke-dasharray="10 6" marker-end="url(#arrow-c5221f)"><animate attributeName="stroke-dashoffset" from="32" to="0" dur="1.2s" repeatCount="indefinite"/></polyline><text x="184.7" y="501.0" font-size="10.5" font-style="italic" fill="#5f6368" opacity="1.0">Gi0/0/1</text><text x="149.2" y="545.0" font-size="10.5" font-style="italic" fill="#5f6368" opacity="1.0">Gi1/0/1</text><rect x="133.7" y="499.0" width="58.5" height="22.0" rx="4" fill="#ffffff" fill-opacity="0.92" opacity="1.0"/><text x="163.0" y="512.0" text-anchor="middle" font-size="12" font-style="italic" font-weight="600" fill="#c5221f" opacity="1.0">① HSRP</text><polyline points="845.4,488.0 845.4,510.0 825.9,510.0 825.9,550.0" fill="none" stroke="#c5221f" stroke-width="4.0" opacity="1.0" stroke-dasharray="10 6" marker-end="url(#arrow-c5221f)"><animate attributeName="stroke-dashoffset" from="32" to="0" dur="1.2s" repeatCount="indefinite"/></polyline><text x="849.4" y="501.0" font-size="10.5" font-style="italic" fill="#5f6368" opacity="1.0">Te0/0/1</text><text x="829.9" y="545.0" font-size="10.5" font-style="italic" fill="#5f6368" opacity="1.0">Eth1/1</text><rect x="825.8" y="499.0" width="19.8" height="22.0" rx="4" fill="#ffffff" fill-opacity="0.92" opacity="1.0"/><text x="835.6" y="512.0" text-anchor="middle" font-size="12" font-style="italic" font-weight="600" fill="#c5221f" opacity="1.0">④</text><polyline points="1117.0,488.0 1117.0,510.0 864.8,510.0 864.8,550.0" fill="none" stroke="#c5221f" stroke-width="4.0" opacity="1.0" stroke-dasharray="10 6" marker-end="url(#arrow-c5221f)"><animate attributeName="stroke-dashoffset" from="32" to="0" dur="1.2s" repeatCount="indefinite"/></polyline><text x="1121.0" y="501.0" font-size="10.5" font-style="italic" fill="#5f6368" opacity="1.0">internal1</text><text x="868.8" y="545.0" font-size="10.5" font-style="italic" fill="#5f6368" opacity="1.0">Eth1/2</text><rect x="906.4" y="499.0" width="168.9" height="22.0" rx="4" fill="#ffffff" fill-opacity="0.92" opacity="1.0"/><text x="990.9" y="512.0" text-anchor="middle" font-size="12" font-style="italic" font-weight="600" fill="#c5221f" opacity="1.0">⑤ 経路広報の切替でVPNへ</text><polyline points="418.8,122.0 418.8,140.0 146.5,140.0 146.5,410.0" fill="none" stroke="#c5221f" stroke-width="4.0" opacity="1.0" stroke-dasharray="10 6" marker-end="url(#arrow-c5221f)"><animate attributeName="stroke-dashoffset" from="32" to="0" dur="1.2s" repeatCount="indefinite"/></polyline><rect x="117.3" y="222.0" width="58.5" height="24.0" rx="4" fill="#ffffff" fill-opacity="0.92" opacity="1.0"/><text x="146.5" y="235.0" text-anchor="middle" font-size="12" font-style="italic" font-weight="600" fill="#c5221f" opacity="1.0">② OSPF</text><polyline points="517.9,122.0 517.9,140.0 776.5,140.0 776.5,410.0" fill="none" stroke="#c5221f" stroke-width="4.0" opacity="1.0" stroke-dasharray="10 6" marker-end="url(#arrow-c5221f)"><animate attributeName="stroke-dashoffset" from="32" to="0" dur="1.2s" repeatCount="indefinite"/></polyline><rect x="766.6" y="222.0" width="19.8" height="24.0" rx="4" fill="#ffffff" fill-opacity="0.92" opacity="1.0"/><text x="776.5" y="235.0" text-anchor="middle" font-size="12" font-style="italic" font-weight="600" fill="#c5221f" opacity="1.0">③</text><polyline points="1269.7,122.0 1269.7,158.0 1074.7,158.0 1074.7,410.0" fill="none" stroke="#c5221f" stroke-width="4.0" opacity="1.0" stroke-dasharray="10 6" marker-end="url(#arrow-c5221f)"><animate attributeName="stroke-dashoffset" from="32" to="0" dur="1.2s" repeatCount="indefinite"/></polyline><rect x="972.0" y="258.0" width="205.2" height="24.0" rx="4" fill="#ffffff" fill-opacity="0.92" opacity="1.0"/><text x="1074.7" y="271.0" text-anchor="middle" font-size="12" font-style="italic" font-weight="600" fill="#c5221f" opacity="1.0">⑥ IPsec インターネット網経由</text><polyline points="1351.5,122.0 1351.5,158.0 1749.2,158.0 1749.2,410.0" fill="none" stroke="#c5221f" stroke-width="4.0" opacity="1.0" stroke-dasharray="10 6" marker-end="url(#arrow-c5221f)"><animate attributeName="stroke-dashoffset" from="32" to="0" dur="1.2s" repeatCount="indefinite"/></polyline><rect x="1644.8" y="222.0" width="208.8" height="24.0" rx="4" fill="#ffffff" fill-opacity="0.92" opacity="1.0"/><text x="1749.2" y="235.0" text-anchor="middle" font-size="12" font-style="italic" font-weight="600" fill="#c5221f" opacity="1.0">⑦ BGP Site-to-Site VPN経由</text><ellipse cx="480.7" cy="84.0" rx="86.7" ry="38.0" fill="#f1f3f4" stroke="#5f6368" stroke-width="1.6"/><text x="480.7" y="84.0" text-anchor="middle" dominant-baseline="central" font-size="12.5" font-weight="600" fill="#1e293b">広域Ethernet網</text><ellipse cx="1310.6" cy="84.0" rx="81.8" ry="38.0" fill="#f1f3f4" stroke="#5f6368" stroke-width="1.6"/><text x="1310.6" y="84.0" text-anchor="middle" dominant-baseline="central" font-size="12.5" font-weight="600" fill="#1e293b">インターネット</text><rect x="78.1" y="410.0" width="205.3" height="78.0" rx="4" fill="#e8f0fe" stroke="#1a56b0" stroke-width="1.4"/><text x="180.7" y="425.0" text-anchor="middle" dominant-baseline="central" font-size="12.5" font-weight="600" fill="#1e293b">hq-rt01 (Act)</text><text x="180.7" y="441.0" text-anchor="middle" dominant-baseline="central" font-size="12.5" font-weight="400" fill="#1e293b">Cisco C8300</text><text x="180.7" y="457.0" text-anchor="middle" dominant-baseline="central" font-size="12.5" font-weight="400" fill="#1e293b">Gi0/0/0: 10.255.0.1/29</text><text x="180.7" y="473.0" text-anchor="middle" dominant-baseline="central" font-size="12.5" font-weight="400" fill="#1e293b">Gi0/0/1: 10.10.0.2/24</text><rect x="74.1" y="550.0" width="213.4" height="62.0" rx="4" fill="#d2e3fc" stroke="#1a56b0" stroke-width="1.4"/><text x="180.8" y="565.0" text-anchor="middle" dominant-baseline="central" font-size="12.5" font-weight="600" fill="#1e293b">hq-sw01</text><text x="180.8" y="581.0" text-anchor="middle" dominant-baseline="central" font-size="12.5" font-weight="400" fill="#1e293b">Catalyst 9300</text><text x="180.8" y="597.0" text-anchor="middle" dominant-baseline="central" font-size="12.5" font-weight="400" fill="#1e293b">Vlan100: 10.10.100.1/24</text><rect x="313.4" y="410.0" width="205.3" height="78.0" rx="4" fill="#e8f0fe" stroke="#1a56b0" stroke-width="1.4" opacity="0.3"/><text x="416.1" y="425.0" text-anchor="middle" dominant-baseline="central" font-size="12.5" font-weight="600" fill="#1e293b" opacity="0.3">hq-rt02 (Sby)</text><text x="416.1" y="441.0" text-anchor="middle" dominant-baseline="central" font-size="12.5" font-weight="400" fill="#1e293b" opacity="0.3">Cisco C8300</text><text x="416.1" y="457.0" text-anchor="middle" dominant-baseline="central" font-size="12.5" font-weight="400" fill="#1e293b" opacity="0.3">Gi0/0/0: 10.255.0.2/29</text><text x="416.1" y="473.0" text-anchor="middle" dominant-baseline="central" font-size="12.5" font-weight="400" fill="#1e293b" opacity="0.3">Gi0/0/1: 10.10.0.3/24</text><rect x="66.0" y="668.0" width="229.5" height="46.0" rx="4" fill="#e2f5f0" stroke="#0f766e" stroke-width="1.4" opacity="0.3"/><text x="180.8" y="683.0" text-anchor="middle" dominant-baseline="central" font-size="12.5" font-weight="600" fill="#1e293b" opacity="0.3">本社ユーザ</text><text x="180.8" y="699.0" text-anchor="middle" dominant-baseline="central" font-size="12.5" font-weight="400" fill="#1e293b" opacity="0.3">VLAN 100 / 10.10.100.0/24</text><rect x="730.6" y="410.0" width="229.5" height="78.0" rx="4" fill="#e8f0fe" stroke="#1a56b0" stroke-width="1.4"/><text x="845.4" y="425.0" text-anchor="middle" dominant-baseline="central" font-size="12.5" font-weight="600" fill="#1e293b">dc-rt01</text><text x="845.4" y="441.0" text-anchor="middle" dominant-baseline="central" font-size="12.5" font-weight="400" fill="#1e293b">Cisco C8500</text><text x="845.4" y="457.0" text-anchor="middle" dominant-baseline="central" font-size="12.5" font-weight="400" fill="#1e293b">Te0/0/0: 10.255.0.3/29</text><text x="845.4" y="473.0" text-anchor="middle" dominant-baseline="central" font-size="12.5" font-weight="400" fill="#1e293b">Te0/0/3: 169.254.100.1/30</text><rect x="787.0" y="550.0" width="116.7" height="46.0" rx="4" fill="#d2e3fc" stroke="#1a56b0" stroke-width="1.4"/><text x="845.4" y="565.0" text-anchor="middle" dominant-baseline="central" font-size="12.5" font-weight="600" fill="#1e293b">dc-core01</text><text x="845.4" y="581.0" text-anchor="middle" dominant-baseline="central" font-size="12.5" font-weight="400" fill="#1e293b">Nexus 93180</text><rect x="990.1" y="410.0" width="253.7" height="78.0" rx="4" fill="#fce8e6" stroke="#c5221f" stroke-width="1.4"/><text x="1117.0" y="425.0" text-anchor="middle" dominant-baseline="central" font-size="12.5" font-weight="600" fill="#1e293b">dc-fw01</text><text x="1117.0" y="441.0" text-anchor="middle" dominant-baseline="central" font-size="12.5" font-weight="400" fill="#1e293b">FortiGate 600F</text><text x="1117.0" y="457.0" text-anchor="middle" dominant-baseline="central" font-size="12.5" font-weight="400" fill="#1e293b">wan1: 198.51.100.20/29</text><text x="1117.0" y="473.0" text-anchor="middle" dominant-baseline="central" font-size="12.5" font-weight="400" fill="#1e293b">tunnel.aws: 169.254.200.1/30</text><rect x="779.0" y="652.0" width="132.8" height="46.0" rx="4" fill="#e6f4ea" stroke="#137333" stroke-width="1.4" opacity="0.3"/><text x="845.4" y="667.0" text-anchor="middle" dominant-baseline="central" font-size="12.5" font-weight="600" fill="#1e293b" opacity="0.3">dc-srvsw01</text><text x="845.4" y="683.0" text-anchor="middle" dominant-baseline="central" font-size="12.5" font-weight="400" fill="#1e293b" opacity="0.3">Catalyst 9200</text><rect x="626.7" y="760.0" width="208.4" height="62.0" rx="4" fill="#f1f3f4" stroke="#5f6368" stroke-width="1.4" opacity="0.3"/><text x="731.0" y="775.0" text-anchor="middle" dominant-baseline="central" font-size="12.5" font-weight="600" fill="#1e293b" opacity="0.3">dc-srv01</text><text x="731.0" y="791.0" text-anchor="middle" dominant-baseline="central" font-size="12.5" font-weight="400" fill="#1e293b" opacity="0.3">PowerEdge R760 (基幹AP)</text><text x="731.0" y="807.0" text-anchor="middle" dominant-baseline="central" font-size="12.5" font-weight="400" fill="#1e293b" opacity="0.3">eno1: 10.20.10.11/24</text><rect x="865.2" y="760.0" width="189.2" height="62.0" rx="4" fill="#f1f3f4" stroke="#5f6368" stroke-width="1.4" opacity="0.3"/><text x="959.8" y="775.0" text-anchor="middle" dominant-baseline="central" font-size="12.5" font-weight="600" fill="#1e293b" opacity="0.3">dc-srv02</text><text x="959.8" y="791.0" text-anchor="middle" dominant-baseline="central" font-size="12.5" font-weight="400" fill="#1e293b" opacity="0.3">PowerEdge R760 (DB)</text><text x="959.8" y="807.0" text-anchor="middle" dominant-baseline="central" font-size="12.5" font-weight="400" fill="#1e293b" opacity="0.3">eno1: 10.20.10.12/24</text><rect x="1273.8" y="410.0" width="213.4" height="46.0" rx="4" fill="#e2f5f0" stroke="#0f766e" stroke-width="1.4" opacity="0.3"/><text x="1380.5" y="425.0" text-anchor="middle" dominant-baseline="central" font-size="12.5" font-weight="600" fill="#1e293b" opacity="0.3">DCサーバ</text><text x="1380.5" y="441.0" text-anchor="middle" dominant-baseline="central" font-size="12.5" font-weight="400" fill="#1e293b" opacity="0.3">VLAN 20 / 10.20.10.0/24</text><rect x="1595.2" y="410.0" width="205.3" height="94.0" rx="4" fill="#e8f0fe" stroke="#1a56b0" stroke-width="1.4"/><text x="1697.8" y="425.0" text-anchor="middle" dominant-baseline="central" font-size="12.5" font-weight="600" fill="#1e293b">aws-vgw01</text><text x="1697.8" y="441.0" text-anchor="middle" dominant-baseline="central" font-size="12.5" font-weight="400" fill="#1e293b">AWS VGW/TGW</text><text x="1697.8" y="457.0" text-anchor="middle" dominant-baseline="central" font-size="12.5" font-weight="400" fill="#1e293b">dx1: 169.254.100.2/30</text><text x="1697.8" y="473.0" text-anchor="middle" dominant-baseline="central" font-size="12.5" font-weight="400" fill="#1e293b">vpn1: 169.254.200.2/30</text><text x="1697.8" y="489.0" text-anchor="middle" dominant-baseline="central" font-size="12.5" font-weight="400" fill="#1e293b">vpc1: 10.100.0.1/16</text><rect x="1631.4" y="560.0" width="132.8" height="46.0" rx="4" fill="#e2f5f0" stroke="#0f766e" stroke-width="1.4" opacity="0.3"/><text x="1697.8" y="575.0" text-anchor="middle" dominant-baseline="central" font-size="12.5" font-weight="600" fill="#1e293b" opacity="0.3">VPC アプリ用</text><text x="1697.8" y="591.0" text-anchor="middle" dominant-baseline="central" font-size="12.5" font-weight="400" fill="#1e293b" opacity="0.3">10.100.0.0/16</text></svg>