<svg xmlns="http://www.w3.org/2000/svg" width="1626" height="1032" viewBox="0 0 1626 1032" font-family="'Segoe UI','Hiragino Sans','Noto Sans JP',Meiryo,sans-serif"><defs><marker id="arrow-c5221f" viewBox="0 0 10 10" refX="9" refY="5" markerWidth="7" markerHeight="7" orient="auto-start-reverse"><path d="M 0 0 L 10 5 L 0 10 z" fill="#c5221f"/></marker></defs><rect width="100%" height="100%" fill="#ffffff"/><text x="24" y="30" font-size="19" font-weight="700" fill="#1e293b">通信経路 本社→AWS (正常時)</text><rect x="40.0" y="390.0" width="504.7" height="386.0" rx="6" fill="#f7f9fc" stroke="#8fa8c4"/><text x="44.0" y="382.0" font-size="14.5" font-weight="600" fill="#33475b">本社</text><rect x="600.7" y="390.0" width="671.5" height="602.0" rx="6" fill="#f7f9fc" stroke="#8fa8c4"/><text x="604.7" y="382.0" font-size="14.5" font-weight="600" fill="#33475b">DCコロケーション</text><rect x="1328.3" y="390.0" width="257.3" height="278.0" rx="6" fill="#f7f9fc" stroke="#8fa8c4"/><text x="1332.3" y="382.0" font-size="14.5" font-weight="600" fill="#33475b">AWS ap-northeast-1</text><polyline points="416.1,524.0 416.1,546.0 216.3,546.0 216.3,586.0" fill="none" stroke="#4a4a4a" stroke-width="2.0" opacity="0.15"></polyline><text x="420.1" y="537.0" font-size="10.5" font-style="italic" fill="#5f6368" opacity="0.15">Gi0/0/1</text><text x="220.3" y="581.0" font-size="10.5" font-style="italic" fill="#5f6368" opacity="0.15">Gi1/0/2</text><polyline points="180.8,648.0 180.8,704.0" fill="none" stroke="#0f766e" stroke-width="1.5" opacity="0.15"></polyline><text x="184.8" y="661.0" font-size="10.5" font-style="italic" fill="#5f6368" opacity="0.15">Vlan100</text><polyline points="847.8,524.0 847.8,546.0 828.4,546.0 828.4,586.0" fill="none" stroke="#4a4a4a" stroke-width="2.0" opacity="0.15"></polyline><text x="851.8" y="537.0" font-size="10.5" font-style="italic" fill="#5f6368" opacity="0.15">Te0/0/1</text><text x="832.4" y="581.0" font-size="10.5" font-style="italic" fill="#5f6368" opacity="0.15">Eth1/1</text><polyline points="1119.4,524.0 1119.4,546.0 867.3,546.0 867.3,586.0" fill="none" stroke="#4a4a4a" stroke-width="2.0" opacity="0.15"></polyline><text x="1123.4" y="537.0" font-size="10.5" font-style="italic" fill="#5f6368" opacity="0.15">internal1</text><text x="871.3" y="581.0" font-size="10.5" font-style="italic" fill="#5f6368" opacity="0.15">Eth1/2</text><polyline points="847.8,632.0 847.8,688.0" fill="none" stroke="#4a4a4a" stroke-width="2.0" opacity="0.15"></polyline><text x="851.8" y="645.0" font-size="10.5" font-style="italic" fill="#5f6368" opacity="0.15">Eth1/3</text><text x="851.8" y="683.0" font-size="10.5" font-style="italic" fill="#5f6368" opacity="0.15">Gi1/0/1</text><polyline points="825.7,734.0 825.7,756.0 733.4,756.0 733.4,796.0" fill="none" stroke="#4a4a4a" stroke-width="2.0" opacity="0.15"></polyline><text x="829.7" y="747.0" font-size="10.5" font-style="italic" fill="#5f6368" opacity="0.15">Gi1/0/11</text><text x="737.4" y="791.0" font-size="10.5" font-style="italic" fill="#5f6368" opacity="0.15">eno1</text><polyline points="870.0,734.0 870.0,756.0 962.2,756.0 962.2,796.0" fill="none" stroke="#4a4a4a" stroke-width="2.0" opacity="0.15"></polyline><text x="874.0" y="747.0" font-size="10.5" font-style="italic" fill="#5f6368" opacity="0.15">Gi1/0/12</text><text x="966.2" y="791.0" font-size="10.5" font-style="italic" fill="#5f6368" opacity="0.15">eno1</text><polyline points="733.4,858.0 733.4,880.0 697.9,880.0 697.9,920.0" fill="none" stroke="#0f766e" stroke-width="1.5" opacity="0.15"></polyline><text x="737.4" y="871.0" font-size="10.5" font-style="italic" fill="#5f6368" opacity="0.15">eno1</text><polyline points="962.2,858.0 962.2,880.0 769.0,880.0 769.0,920.0" fill="none" stroke="#0f766e" stroke-width="1.5" opacity="0.15"></polyline><text x="966.2" y="871.0" font-size="10.5" font-style="italic" fill="#5f6368" opacity="0.15">eno1</text><polyline points="1456.9,540.0 1456.9,596.0" fill="none" stroke="#0f766e" stroke-width="1.5" opacity="0.15"></polyline><text x="1460.9" y="553.0" font-size="10.5" font-style="italic" fill="#5f6368" opacity="0.15">vpc1</text><polyline points="469.2,122.0 469.2,158.0 381.8,158.0 381.8,446.0" fill="none" stroke="#1a73e8" stroke-width="3.5" opacity="0.15"></polyline><rect x="286.1" y="222.0" width="191.5" height="42.0" rx="4" fill="#ffffff" fill-opacity="0.92" opacity="0.15"/><text x="381.8" y="235.0" text-anchor="middle" font-size="12" font-style="italic" font-weight="400" fill="#5f6368" opacity="0.15">キャリアA 広域Ethernet 1G</text><text x="381.8" y="252.0" text-anchor="middle" font-size="12" font-style="italic" font-weight="400" fill="#5f6368" opacity="0.15">(Gi0/0/0)</text><polyline points="1191.0,122.0 1191.0,158.0 1077.1,158.0 1077.1,446.0" fill="none" stroke="#1a73e8" stroke-width="3.5" opacity="0.15"></polyline><rect x="960.2" y="258.0" width="233.9" height="42.0" rx="4" fill="#ffffff" fill-opacity="0.92" opacity="0.15"/><text x="1077.1" y="271.0" text-anchor="middle" font-size="12" font-style="italic" font-weight="400" fill="#5f6368" opacity="0.15">キャリアB DC IXインターネット 1G</text><text x="1077.1" y="288.0" text-anchor="middle" font-size="12" font-style="italic" font-weight="400" fill="#5f6368" opacity="0.15">(wan1)</text><polyline points="1231.9,122.0 1231.9,176.0 1161.7,176.0 1161.7,446.0" fill="none" stroke="#7b1fa2" stroke-width="2.0" opacity="0.15" stroke-dasharray="7 4"></polyline><rect x="1008.7" y="294.0" width="306.0" height="24.0" rx="4" fill="#ffffff" fill-opacity="0.92" opacity="0.15"/><text x="1161.7" y="307.0" text-anchor="middle" font-size="12" font-style="italic" font-weight="400" fill="#5f6368" opacity="0.15">Site-to-Site VPN (DX障害時のバックアップ)</text><polyline points="1272.8,122.0 1272.8,158.0 1508.3,158.0 1508.3,446.0" fill="none" stroke="#7b1fa2" stroke-width="2.0" opacity="0.15" stroke-dasharray="7 4"></polyline><rect x="1355.3" y="222.0" width="306.0" height="24.0" rx="4" fill="#ffffff" fill-opacity="0.92" opacity="0.15"/><text x="1508.3" y="235.0" text-anchor="middle" font-size="12" font-style="italic" font-weight="400" fill="#5f6368" opacity="0.15">Site-to-Site VPN (DX障害時のバックアップ)</text><polyline points="444.4,122.0 444.4,176.0 215.0,176.0 215.0,446.0" fill="none" stroke="#188038" stroke-width="2.0" opacity="0.15" stroke-dasharray="3 3"></polyline><rect x="193.5" y="222.0" width="43.0" height="24.0" rx="4" fill="#ffffff" fill-opacity="0.92" opacity="0.15"/><text x="215.0" y="235.0" text-anchor="middle" font-size="12" font-style="italic" font-weight="400" fill="#5f6368" opacity="0.15">OSPF</text><polyline points="543.5,122.0 543.5,158.0 824.9,158.0 824.9,446.0" fill="none" stroke="#188038" stroke-width="2.0" opacity="0.15" stroke-dasharray="3 3"></polyline><rect x="803.4" y="222.0" width="43.0" height="24.0" rx="4" fill="#ffffff" fill-opacity="0.92" opacity="0.15"/><text x="824.9" y="235.0" text-anchor="middle" font-size="12" font-style="italic" font-weight="400" fill="#5f6368" opacity="0.15">OSPF</text><polyline points="493.9,122.0 493.9,140.0 450.3,140.0 450.3,446.0" fill="none" stroke="#188038" stroke-width="2.0" opacity="0.15" stroke-dasharray="3 3"></polyline><rect x="428.8" y="258.0" width="43.0" height="24.0" rx="4" fill="#ffffff" fill-opacity="0.92" opacity="0.15"/><text x="450.3" y="271.0" text-anchor="middle" font-size="12" font-style="italic" font-weight="400" fill="#5f6368" opacity="0.15">OSPF</text><polyline points="916.7,446.0 916.7,194.0 1456.9,194.0 1456.9,446.0" fill="none" stroke="#188038" stroke-width="2.0" opacity="0.15" stroke-dasharray="3 3"></polyline><rect x="1143.2" y="330.0" width="87.1" height="24.0" rx="4" fill="#ffffff" fill-opacity="0.92" opacity="0.15"/><text x="1186.8" y="343.0" text-anchor="middle" font-size="12" font-style="italic" font-weight="400" fill="#5f6368" opacity="0.15">BGP (DX上)</text><polyline points="180.7,524.0 180.7,546.0 145.2,546.0 145.2,586.0" fill="none" stroke="#c5221f" stroke-width="4.0" opacity="1.0" stroke-dasharray="10 6" marker-end="url(#arrow-c5221f)"><animate attributeName="stroke-dashoffset" from="32" to="0" dur="1.2s" repeatCount="indefinite"/></polyline><text x="184.7" y="537.0" font-size="10.5" font-style="italic" fill="#5f6368" opacity="1.0">Gi0/0/1</text><text x="149.2" y="581.0" font-size="10.5" font-style="italic" fill="#5f6368" opacity="1.0">Gi1/0/1</text><rect x="92.3" y="535.0" width="141.4" height="22.0" rx="4" fill="#ffffff" fill-opacity="0.92" opacity="1.0"/><text x="163.0" y="548.0" text-anchor="middle" font-size="12" font-style="italic" font-weight="600" fill="#c5221f" opacity="1.0">① HSRP active側GW</text><polyline points="419.6,122.0 419.6,140.0 146.5,140.0 146.5,446.0" fill="none" stroke="#c5221f" stroke-width="4.0" opacity="1.0" stroke-dasharray="10 6" marker-end="url(#arrow-c5221f)"><animate attributeName="stroke-dashoffset" from="32" to="0" dur="1.2s" repeatCount="indefinite"/></polyline><rect x="117.3" y="222.0" width="58.5" height="24.0" rx="4" fill="#ffffff" fill-opacity="0.92" opacity="1.0"/><text x="146.5" y="235.0" text-anchor="middle" font-size="12" font-style="italic" font-weight="600" fill="#c5221f" opacity="1.0">② OSPF</text><polyline points="518.7,122.0 518.7,140.0 779.0,140.0 779.0,446.0" fill="none" stroke="#c5221f" stroke-width="4.0" opacity="1.0" stroke-dasharray="10 6" marker-end="url(#arrow-c5221f)"><animate attributeName="stroke-dashoffset" from="32" to="0" dur="1.2s" repeatCount="indefinite"/></polyline><rect x="769.1" y="222.0" width="19.8" height="24.0" rx="4" fill="#ffffff" fill-opacity="0.92" opacity="1.0"/><text x="779.0" y="235.0" text-anchor="middle" font-size="12" font-style="italic" font-weight="600" fill="#c5221f" opacity="1.0">③</text><polyline points="870.8,446.0 870.8,140.0 1405.6,140.0 1405.6,446.0" fill="none" stroke="#c5221f" stroke-width="4.0" opacity="1.0" stroke-dasharray="10 6" marker-end="url(#arrow-c5221f)"><animate attributeName="stroke-dashoffset" from="32" to="0" dur="1.2s" repeatCount="indefinite"/></polyline><rect x="1041.6" y="222.0" width="193.2" height="24.0" rx="4" fill="#ffffff" fill-opacity="0.92" opacity="1.0"/><text x="1138.2" y="235.0" text-anchor="middle" font-size="12" font-style="italic" font-weight="600" fill="#c5221f" opacity="1.0">④ BGP Direct Connect経由</text><ellipse cx="481.6" cy="84.0" rx="86.7" ry="38.0" fill="#f1f3f4" stroke="#5f6368" stroke-width="1.6"/><text x="481.6" y="84.0" text-anchor="middle" dominant-baseline="central" font-size="12.5" font-weight="600" fill="#1e293b">広域Ethernet網</text><ellipse cx="1231.9" cy="84.0" rx="81.8" ry="38.0" fill="#f1f3f4" stroke="#5f6368" stroke-width="1.6" opacity="0.3"/><text x="1231.9" y="84.0" text-anchor="middle" dominant-baseline="central" font-size="12.5" font-weight="600" fill="#1e293b" opacity="0.3">インターネット</text><rect x="78.1" y="446.0" width="205.3" height="78.0" rx="4" fill="#e8f0fe" stroke="#1a56b0" stroke-width="1.4"/><text x="180.7" y="461.0" text-anchor="middle" dominant-baseline="central" font-size="12.5" font-weight="600" fill="#1e293b">hq-rt01</text><text x="180.7" y="477.0" text-anchor="middle" dominant-baseline="central" font-size="12.5" font-weight="400" fill="#1e293b">Cisco C8300</text><text x="180.7" y="493.0" text-anchor="middle" dominant-baseline="central" font-size="12.5" font-weight="400" fill="#1e293b">Gi0/0/0: 10.255.0.1/29</text><text x="180.7" y="509.0" text-anchor="middle" dominant-baseline="central" font-size="12.5" font-weight="400" fill="#1e293b">Gi0/0/1: 10.10.0.2/24</text><rect x="74.1" y="586.0" width="213.4" height="62.0" rx="4" fill="#d2e3fc" stroke="#1a56b0" stroke-width="1.4"/><text x="180.8" y="601.0" text-anchor="middle" dominant-baseline="central" font-size="12.5" font-weight="600" fill="#1e293b">hq-sw01</text><text x="180.8" y="617.0" text-anchor="middle" dominant-baseline="central" font-size="12.5" font-weight="400" fill="#1e293b">Catalyst 9300</text><text x="180.8" y="633.0" text-anchor="middle" dominant-baseline="central" font-size="12.5" font-weight="400" fill="#1e293b">Vlan100: 10.10.100.1/24</text><rect x="313.4" y="446.0" width="205.3" height="78.0" rx="4" fill="#e8f0fe" stroke="#1a56b0" stroke-width="1.4" opacity="0.3"/><text x="416.1" y="461.0" text-anchor="middle" dominant-baseline="central" font-size="12.5" font-weight="600" fill="#1e293b" opacity="0.3">hq-rt02</text><text x="416.1" y="477.0" text-anchor="middle" dominant-baseline="central" font-size="12.5" font-weight="400" fill="#1e293b" opacity="0.3">Cisco C8300</text><text x="416.1" y="493.0" text-anchor="middle" dominant-baseline="central" font-size="12.5" font-weight="400" fill="#1e293b" opacity="0.3">Gi0/0/0: 10.255.0.2/29</text><text x="416.1" y="509.0" text-anchor="middle" dominant-baseline="central" font-size="12.5" font-weight="400" fill="#1e293b" opacity="0.3">Gi0/0/1: 10.10.0.3/24</text><rect x="66.0" y="704.0" width="229.5" height="46.0" rx="4" fill="#e2f5f0" stroke="#0f766e" stroke-width="1.4" opacity="0.3"/><text x="180.8" y="719.0" text-anchor="middle" dominant-baseline="central" font-size="12.5" font-weight="600" fill="#1e293b" opacity="0.3">本社ユーザ</text><text x="180.8" y="735.0" text-anchor="middle" dominant-baseline="central" font-size="12.5" font-weight="400" fill="#1e293b" opacity="0.3">VLAN 100 / 10.10.100.0/24</text><rect x="733.1" y="446.0" width="229.5" height="78.0" rx="4" fill="#e8f0fe" stroke="#1a56b0" stroke-width="1.4"/><text x="847.8" y="461.0" text-anchor="middle" dominant-baseline="central" font-size="12.5" font-weight="600" fill="#1e293b">dc-rt01</text><text x="847.8" y="477.0" text-anchor="middle" dominant-baseline="central" font-size="12.5" font-weight="400" fill="#1e293b">Cisco C8500</text><text x="847.8" y="493.0" text-anchor="middle" dominant-baseline="central" font-size="12.5" font-weight="400" fill="#1e293b">Te0/0/0: 10.255.0.3/29</text><text x="847.8" y="509.0" text-anchor="middle" dominant-baseline="central" font-size="12.5" font-weight="400" fill="#1e293b">Te0/0/3: 169.254.100.1/30</text><rect x="789.5" y="586.0" width="116.7" height="46.0" rx="4" fill="#d2e3fc" stroke="#1a56b0" stroke-width="1.4" opacity="0.3"/><text x="847.8" y="601.0" text-anchor="middle" dominant-baseline="central" font-size="12.5" font-weight="600" fill="#1e293b" opacity="0.3">dc-core01</text><text x="847.8" y="617.0" text-anchor="middle" dominant-baseline="central" font-size="12.5" font-weight="400" fill="#1e293b" opacity="0.3">Nexus 93180</text><rect x="992.6" y="446.0" width="253.7" height="78.0" rx="4" fill="#fce8e6" stroke="#c5221f" stroke-width="1.4" opacity="0.3"/><text x="1119.4" y="461.0" text-anchor="middle" dominant-baseline="central" font-size="12.5" font-weight="600" fill="#1e293b" opacity="0.3">dc-fw01</text><text x="1119.4" y="477.0" text-anchor="middle" dominant-baseline="central" font-size="12.5" font-weight="400" fill="#1e293b" opacity="0.3">FortiGate 600F</text><text x="1119.4" y="493.0" text-anchor="middle" dominant-baseline="central" font-size="12.5" font-weight="400" fill="#1e293b" opacity="0.3">wan1: 198.51.100.20/29</text><text x="1119.4" y="509.0" text-anchor="middle" dominant-baseline="central" font-size="12.5" font-weight="400" fill="#1e293b" opacity="0.3">tunnel.aws: 169.254.200.1/30</text><rect x="781.4" y="688.0" width="132.8" height="46.0" rx="4" fill="#e6f4ea" stroke="#137333" stroke-width="1.4" opacity="0.3"/><text x="847.8" y="703.0" text-anchor="middle" dominant-baseline="central" font-size="12.5" font-weight="600" fill="#1e293b" opacity="0.3">dc-srvsw01</text><text x="847.8" y="719.0" text-anchor="middle" dominant-baseline="central" font-size="12.5" font-weight="400" fill="#1e293b" opacity="0.3">Catalyst 9200</text><rect x="629.2" y="796.0" width="208.4" height="62.0" rx="4" fill="#f1f3f4" stroke="#5f6368" stroke-width="1.4" opacity="0.3"/><text x="733.4" y="811.0" text-anchor="middle" dominant-baseline="central" font-size="12.5" font-weight="600" fill="#1e293b" opacity="0.3">dc-srv01</text><text x="733.4" y="827.0" text-anchor="middle" dominant-baseline="central" font-size="12.5" font-weight="400" fill="#1e293b" opacity="0.3">PowerEdge R760 (基幹AP)</text><text x="733.4" y="843.0" text-anchor="middle" dominant-baseline="central" font-size="12.5" font-weight="400" fill="#1e293b" opacity="0.3">eno1: 10.20.10.11/24</text><rect x="867.6" y="796.0" width="189.2" height="62.0" rx="4" fill="#f1f3f4" stroke="#5f6368" stroke-width="1.4" opacity="0.3"/><text x="962.2" y="811.0" text-anchor="middle" dominant-baseline="central" font-size="12.5" font-weight="600" fill="#1e293b" opacity="0.3">dc-srv02</text><text x="962.2" y="827.0" text-anchor="middle" dominant-baseline="central" font-size="12.5" font-weight="400" fill="#1e293b" opacity="0.3">PowerEdge R760 (DB)</text><text x="962.2" y="843.0" text-anchor="middle" dominant-baseline="central" font-size="12.5" font-weight="400" fill="#1e293b" opacity="0.3">eno1: 10.20.10.12/24</text><rect x="626.7" y="920.0" width="213.4" height="46.0" rx="4" fill="#e2f5f0" stroke="#0f766e" stroke-width="1.4" opacity="0.3"/><text x="733.4" y="935.0" text-anchor="middle" dominant-baseline="central" font-size="12.5" font-weight="600" fill="#1e293b" opacity="0.3">DCサーバ</text><text x="733.4" y="951.0" text-anchor="middle" dominant-baseline="central" font-size="12.5" font-weight="400" fill="#1e293b" opacity="0.3">VLAN 20 / 10.20.10.0/24</text><rect x="1354.3" y="446.0" width="205.3" height="94.0" rx="4" fill="#e8f0fe" stroke="#1a56b0" stroke-width="1.4"/><text x="1456.9" y="461.0" text-anchor="middle" dominant-baseline="central" font-size="12.5" font-weight="600" fill="#1e293b">aws-vgw01</text><text x="1456.9" y="477.0" text-anchor="middle" dominant-baseline="central" font-size="12.5" font-weight="400" fill="#1e293b">AWS VGW/TGW</text><text x="1456.9" y="493.0" text-anchor="middle" dominant-baseline="central" font-size="12.5" font-weight="400" fill="#1e293b">dx1: 169.254.100.2/30</text><text x="1456.9" y="509.0" text-anchor="middle" dominant-baseline="central" font-size="12.5" font-weight="400" fill="#1e293b">vpn1: 169.254.200.2/30</text><text x="1456.9" y="525.0" text-anchor="middle" dominant-baseline="central" font-size="12.5" font-weight="400" fill="#1e293b">vpc1: 10.100.0.1/16</text><rect x="1390.5" y="596.0" width="132.8" height="46.0" rx="4" fill="#e2f5f0" stroke="#0f766e" stroke-width="1.4" opacity="0.3"/><text x="1456.9" y="611.0" text-anchor="middle" dominant-baseline="central" font-size="12.5" font-weight="600" fill="#1e293b" opacity="0.3">VPC アプリ用</text><text x="1456.9" y="627.0" text-anchor="middle" dominant-baseline="central" font-size="12.5" font-weight="400" fill="#1e293b" opacity="0.3">10.100.0.0/16</text></svg>