<svg xmlns="http://www.w3.org/2000/svg" width="1638" height="1032" viewBox="0 0 1638 1032" font-family="'Segoe UI','Hiragino Sans','Noto Sans JP',Meiryo,sans-serif"><defs><marker id="arrow-c5221f" viewBox="0 0 10 10" refX="9" refY="5" markerWidth="7" markerHeight="7" orient="auto-start-reverse"><path d="M 0 0 L 10 5 L 0 10 z" fill="#c5221f"/></marker></defs><rect width="100%" height="100%" fill="#ffffff"/><text x="24" y="30" font-size="19" font-weight="700" fill="#1e293b">通信経路 本社→AWS (正常時)</text><rect x="40.0" y="390.0" width="516.8" height="418.0" rx="6" fill="#f7f9fc" stroke="#8fa8c4"/><text x="44.0" y="382.0" font-size="14.5" font-weight="600" fill="#33475b">本社</text><rect x="612.8" y="390.0" width="671.5" height="602.0" rx="6" fill="#f7f9fc" stroke="#8fa8c4"/><text x="616.8" y="382.0" font-size="14.5" font-weight="600" fill="#33475b">DCコロケーション</text><rect x="1340.4" y="390.0" width="257.3" height="278.0" rx="6" fill="#f7f9fc" stroke="#8fa8c4"/><text x="1344.4" y="382.0" font-size="14.5" font-weight="600" fill="#33475b">AWS ap-northeast-1</text><polyline points="292.4,524.0 292.4,580.0" fill="none" stroke="#4a4a4a" stroke-width="2.0" opacity="0.15"></polyline><text x="296.4" y="537.0" font-size="10.5" font-style="italic" fill="#5f6368" opacity="0.15">Gi0/0/1</text><text x="296.4" y="575.0" font-size="10.5" font-style="italic" fill="#5f6368" opacity="0.15">Gi1/0/2</text><polyline points="327.9,642.0 327.9,664.0 416.1,664.0 416.1,704.0" fill="none" stroke="#0f766e" stroke-width="1.5" opacity="0.15"></polyline><text x="331.9" y="655.0" font-size="10.5" font-style="italic" fill="#5f6368" opacity="0.15">Vlan100</text><polyline points="859.9,524.0 859.9,546.0 840.5,546.0 840.5,586.0" fill="none" stroke="#4a4a4a" stroke-width="2.0" opacity="0.15"></polyline><text x="863.9" y="537.0" font-size="10.5" font-style="italic" fill="#5f6368" opacity="0.15">Te0/0/1</text><text x="844.5" y="581.0" font-size="10.5" font-style="italic" fill="#5f6368" opacity="0.15">Eth1/1</text><polyline points="1131.5,524.0 1131.5,546.0 879.4,546.0 879.4,586.0" fill="none" stroke="#4a4a4a" stroke-width="2.0" opacity="0.15"></polyline><text x="1135.5" y="537.0" font-size="10.5" font-style="italic" fill="#5f6368" opacity="0.15">internal1</text><text x="883.4" y="581.0" font-size="10.5" font-style="italic" fill="#5f6368" opacity="0.15">Eth1/2</text><polyline points="859.9,632.0 859.9,688.0" fill="none" stroke="#4a4a4a" stroke-width="2.0" opacity="0.15"></polyline><text x="863.9" y="645.0" font-size="10.5" font-style="italic" fill="#5f6368" opacity="0.15">Eth1/3</text><text x="863.9" y="683.0" font-size="10.5" font-style="italic" fill="#5f6368" opacity="0.15">Gi1/0/1</text><polyline points="837.8,734.0 837.8,756.0 745.5,756.0 745.5,796.0" fill="none" stroke="#4a4a4a" stroke-width="2.0" opacity="0.15"></polyline><text x="841.8" y="747.0" font-size="10.5" font-style="italic" fill="#5f6368" opacity="0.15">Gi1/0/11</text><text x="749.5" y="791.0" font-size="10.5" font-style="italic" fill="#5f6368" opacity="0.15">eno1</text><polyline points="882.1,734.0 882.1,756.0 974.3,756.0 974.3,796.0" fill="none" stroke="#4a4a4a" stroke-width="2.0" opacity="0.15"></polyline><text x="886.1" y="747.0" font-size="10.5" font-style="italic" fill="#5f6368" opacity="0.15">Gi1/0/12</text><text x="978.3" y="791.0" font-size="10.5" font-style="italic" fill="#5f6368" opacity="0.15">eno1</text><polyline points="745.5,858.0 745.5,880.0 709.9,880.0 709.9,920.0" fill="none" stroke="#0f766e" stroke-width="1.5" opacity="0.15"></polyline><text x="749.5" y="871.0" font-size="10.5" font-style="italic" fill="#5f6368" opacity="0.15">eno1</text><polyline points="974.3,858.0 974.3,880.0 781.1,880.0 781.1,920.0" fill="none" stroke="#0f766e" stroke-width="1.5" opacity="0.15"></polyline><text x="978.3" y="871.0" font-size="10.5" font-style="italic" fill="#5f6368" opacity="0.15">eno1</text><polyline points="1469.0,540.0 1469.0,596.0" fill="none" stroke="#0f766e" stroke-width="1.5" opacity="0.15"></polyline><text x="1473.0" y="553.0" font-size="10.5" font-style="italic" fill="#5f6368" opacity="0.15">vpc1</text><polyline points="478.6,122.0 478.6,158.0 258.1,158.0 258.1,446.0" fill="none" stroke="#1a73e8" stroke-width="3.5" opacity="0.15"></polyline><rect x="162.4" y="258.0" width="191.5" height="42.0" rx="4" fill="#ffffff" fill-opacity="0.92" opacity="0.15"/><text x="258.1" y="271.0" text-anchor="middle" font-size="12" font-style="italic" font-weight="400" fill="#5f6368" opacity="0.15">キャリアA 広域Ethernet 1G</text><text x="258.1" y="288.0" text-anchor="middle" font-size="12" font-style="italic" font-weight="400" fill="#5f6368" opacity="0.15">(Gi0/0/0)</text><polyline points="1203.1,122.0 1203.1,158.0 1089.2,158.0 1089.2,446.0" fill="none" stroke="#1a73e8" stroke-width="3.5" opacity="0.15"></polyline><rect x="972.3" y="258.0" width="233.9" height="42.0" rx="4" fill="#ffffff" fill-opacity="0.92" opacity="0.15"/><text x="1089.2" y="271.0" text-anchor="middle" font-size="12" font-style="italic" font-weight="400" fill="#5f6368" opacity="0.15">キャリアB DC IXインターネット 1G</text><text x="1089.2" y="288.0" text-anchor="middle" font-size="12" font-style="italic" font-weight="400" fill="#5f6368" opacity="0.15">(wan1)</text><polyline points="1244.0,122.0 1244.0,176.0 1173.8,176.0 1173.8,446.0" fill="none" stroke="#7b1fa2" stroke-width="2.0" opacity="0.15" stroke-dasharray="7 4"></polyline><rect x="1020.8" y="294.0" width="306.0" height="24.0" rx="4" fill="#ffffff" fill-opacity="0.92" opacity="0.15"/><text x="1173.8" y="307.0" text-anchor="middle" font-size="12" font-style="italic" font-weight="400" fill="#5f6368" opacity="0.15">Site-to-Site VPN (DX障害時のバックアップ)</text><polyline points="1284.9,122.0 1284.9,158.0 1520.3,158.0 1520.3,446.0" fill="none" stroke="#7b1fa2" stroke-width="2.0" opacity="0.15" stroke-dasharray="7 4"></polyline><polyline points="456.9,122.0 456.9,176.0 50.0,176.0 50.0,690.0 202.9,690.0 202.9,704.0" fill="none" stroke="#188038" stroke-width="2.0" opacity="0.15" stroke-dasharray="3 3"></polyline><rect x="181.4" y="222.0" width="43.0" height="24.0" rx="4" fill="#ffffff" fill-opacity="0.92" opacity="0.15"/><text x="202.9" y="235.0" text-anchor="middle" font-size="12" font-style="italic" font-weight="400" fill="#5f6368" opacity="0.15">OSPF</text><polyline points="543.6,122.0 543.6,158.0 821.7,158.0 821.7,446.0" fill="none" stroke="#188038" stroke-width="2.0" opacity="0.15" stroke-dasharray="3 3"></polyline><polyline points="500.3,122.0 500.3,194.0 326.6,194.0 326.6,446.0" fill="none" stroke="#188038" stroke-width="2.0" opacity="0.15" stroke-dasharray="3 3"></polyline><rect x="305.1" y="222.0" width="43.0" height="24.0" rx="4" fill="#ffffff" fill-opacity="0.92" opacity="0.15"/><text x="326.6" y="235.0" text-anchor="middle" font-size="12" font-style="italic" font-weight="400" fill="#5f6368" opacity="0.15">OSPF</text><polyline points="565.3,122.0 565.3,176.0 859.9,176.0 859.9,446.0" fill="none" stroke="#188038" stroke-width="2.0" opacity="0.15" stroke-dasharray="3 3"></polyline><polyline points="936.4,446.0 936.4,194.0 1469.0,194.0 1469.0,446.0" fill="none" stroke="#188038" stroke-width="2.0" opacity="0.15" stroke-dasharray="3 3"></polyline><rect x="1159.2" y="330.0" width="87.1" height="24.0" rx="4" fill="#ffffff" fill-opacity="0.92" opacity="0.15"/><text x="1202.7" y="343.0" text-anchor="middle" font-size="12" font-style="italic" font-weight="400" fill="#5f6368" opacity="0.15">BGP (DX上)</text><polyline points="256.8,642.0 256.8,664.0 168.7,664.0 168.7,704.0" fill="none" stroke="#c5221f" stroke-width="4.0" opacity="1.0" stroke-dasharray="10 6" marker-end="url(#arrow-c5221f)"><animate attributeName="stroke-dashoffset" from="32" to="0" dur="1.2s" repeatCount="indefinite"/></polyline><text x="260.8" y="655.0" font-size="10.5" font-style="italic" fill="#5f6368" opacity="1.0">Gi1/0/1</text><text x="172.7" y="699.0" font-size="10.5" font-style="italic" fill="#5f6368" opacity="1.0">Gi0/0/1</text><rect x="142.0" y="653.0" width="141.4" height="22.0" rx="4" fill="#ffffff" fill-opacity="0.92" opacity="1.0"/><text x="212.7" y="666.0" text-anchor="middle" font-size="12" font-style="italic" font-weight="600" fill="#c5221f" opacity="1.0">① HSRP active側GW</text><polyline points="134.4,704.0 134.4,690.0 50.0,690.0 50.0,140.0 435.2,140.0 435.2,122.0" fill="none" stroke="#c5221f" stroke-width="4.0" opacity="1.0" stroke-dasharray="10 6" marker-end="url(#arrow-c5221f)"><animate attributeName="stroke-dashoffset" from="32" to="0" dur="1.2s" repeatCount="indefinite"/></polyline><rect x="105.2" y="222.0" width="58.5" height="24.0" rx="4" fill="#ffffff" fill-opacity="0.92" opacity="1.0"/><text x="134.4" y="235.0" text-anchor="middle" font-size="12" font-style="italic" font-weight="600" fill="#c5221f" opacity="1.0">② OSPF</text><polyline points="521.9,122.0 521.9,140.0 783.4,140.0 783.4,446.0" fill="none" stroke="#c5221f" stroke-width="4.0" opacity="1.0" stroke-dasharray="10 6" marker-end="url(#arrow-c5221f)"><animate attributeName="stroke-dashoffset" from="32" to="0" dur="1.2s" repeatCount="indefinite"/></polyline><rect x="773.5" y="222.0" width="19.8" height="24.0" rx="4" fill="#ffffff" fill-opacity="0.92" opacity="1.0"/><text x="783.4" y="235.0" text-anchor="middle" font-size="12" font-style="italic" font-weight="600" fill="#c5221f" opacity="1.0">③</text><polyline points="898.2,446.0 898.2,140.0 1417.7,140.0 1417.7,446.0" fill="none" stroke="#c5221f" stroke-width="4.0" opacity="1.0" stroke-dasharray="10 6" marker-end="url(#arrow-c5221f)"><animate attributeName="stroke-dashoffset" from="32" to="0" dur="1.2s" repeatCount="indefinite"/></polyline><rect x="1061.3" y="222.0" width="193.2" height="24.0" rx="4" fill="#ffffff" fill-opacity="0.92" opacity="1.0"/><text x="1157.9" y="235.0" text-anchor="middle" font-size="12" font-style="italic" font-weight="600" fill="#c5221f" opacity="1.0">④ BGP Direct Connect経由</text><ellipse cx="500.3" cy="84.0" rx="86.7" ry="38.0" fill="#f1f3f4" stroke="#5f6368" stroke-width="1.6"/><text x="500.3" y="84.0" text-anchor="middle" dominant-baseline="central" font-size="12.5" font-weight="600" fill="#1e293b">広域Ethernet網</text><ellipse cx="1244.0" cy="84.0" rx="81.8" ry="38.0" fill="#f1f3f4" stroke="#5f6368" stroke-width="1.6" opacity="0.3"/><text x="1244.0" y="84.0" text-anchor="middle" dominant-baseline="central" font-size="12.5" font-weight="600" fill="#1e293b" opacity="0.3">インターネット</text><rect x="66.0" y="704.0" width="205.3" height="78.0" rx="4" fill="#e8f0fe" stroke="#1a56b0" stroke-width="1.4"/><text x="168.7" y="719.0" text-anchor="middle" dominant-baseline="central" font-size="12.5" font-weight="600" fill="#1e293b">hq-rt01</text><text x="168.7" y="735.0" text-anchor="middle" dominant-baseline="central" font-size="12.5" font-weight="400" fill="#1e293b">Cisco C8300</text><text x="168.7" y="751.0" text-anchor="middle" dominant-baseline="central" font-size="12.5" font-weight="400" fill="#1e293b">Gi0/0/0: 10.255.0.1/29</text><text x="168.7" y="767.0" text-anchor="middle" dominant-baseline="central" font-size="12.5" font-weight="400" fill="#1e293b">Gi0/0/1: 10.10.0.2/24</text><rect x="185.7" y="580.0" width="213.4" height="62.0" rx="4" fill="#d2e3fc" stroke="#1a56b0" stroke-width="1.4"/><text x="292.4" y="595.0" text-anchor="middle" dominant-baseline="central" font-size="12.5" font-weight="600" fill="#1e293b">hq-sw01</text><text x="292.4" y="611.0" text-anchor="middle" dominant-baseline="central" font-size="12.5" font-weight="400" fill="#1e293b">Catalyst 9300</text><text x="292.4" y="627.0" text-anchor="middle" dominant-baseline="central" font-size="12.5" font-weight="400" fill="#1e293b">Vlan100: 10.10.100.1/24</text><rect x="189.7" y="446.0" width="205.3" height="78.0" rx="4" fill="#e8f0fe" stroke="#1a56b0" stroke-width="1.4" opacity="0.3"/><text x="292.4" y="461.0" text-anchor="middle" dominant-baseline="central" font-size="12.5" font-weight="600" fill="#1e293b" opacity="0.3">hq-rt02</text><text x="292.4" y="477.0" text-anchor="middle" dominant-baseline="central" font-size="12.5" font-weight="400" fill="#1e293b" opacity="0.3">Cisco C8300</text><text x="292.4" y="493.0" text-anchor="middle" dominant-baseline="central" font-size="12.5" font-weight="400" fill="#1e293b" opacity="0.3">Gi0/0/0: 10.255.0.2/29</text><text x="292.4" y="509.0" text-anchor="middle" dominant-baseline="central" font-size="12.5" font-weight="400" fill="#1e293b" opacity="0.3">Gi0/0/1: 10.10.0.3/24</text><rect x="301.3" y="704.0" width="229.5" height="46.0" rx="4" fill="#e2f5f0" stroke="#0f766e" stroke-width="1.4" opacity="0.3"/><text x="416.1" y="719.0" text-anchor="middle" dominant-baseline="central" font-size="12.5" font-weight="600" fill="#1e293b" opacity="0.3">本社ユーザ</text><text x="416.1" y="735.0" text-anchor="middle" dominant-baseline="central" font-size="12.5" font-weight="400" fill="#1e293b" opacity="0.3">VLAN 100 / 10.10.100.0/24</text><rect x="745.2" y="446.0" width="229.5" height="78.0" rx="4" fill="#e8f0fe" stroke="#1a56b0" stroke-width="1.4"/><text x="859.9" y="461.0" text-anchor="middle" dominant-baseline="central" font-size="12.5" font-weight="600" fill="#1e293b">dc-rt01</text><text x="859.9" y="477.0" text-anchor="middle" dominant-baseline="central" font-size="12.5" font-weight="400" fill="#1e293b">Cisco C8500</text><text x="859.9" y="493.0" text-anchor="middle" dominant-baseline="central" font-size="12.5" font-weight="400" fill="#1e293b">Te0/0/0: 10.255.0.3/29</text><text x="859.9" y="509.0" text-anchor="middle" dominant-baseline="central" font-size="12.5" font-weight="400" fill="#1e293b">Te0/0/3: 169.254.100.1/30</text><rect x="801.6" y="586.0" width="116.7" height="46.0" rx="4" fill="#d2e3fc" stroke="#1a56b0" stroke-width="1.4" opacity="0.3"/><text x="859.9" y="601.0" text-anchor="middle" dominant-baseline="central" font-size="12.5" font-weight="600" fill="#1e293b" opacity="0.3">dc-core01</text><text x="859.9" y="617.0" text-anchor="middle" dominant-baseline="central" font-size="12.5" font-weight="400" fill="#1e293b" opacity="0.3">Nexus 93180</text><rect x="1004.7" y="446.0" width="253.7" height="78.0" rx="4" fill="#fce8e6" stroke="#c5221f" stroke-width="1.4" opacity="0.3"/><text x="1131.5" y="461.0" text-anchor="middle" dominant-baseline="central" font-size="12.5" font-weight="600" fill="#1e293b" opacity="0.3">dc-fw01</text><text x="1131.5" y="477.0" text-anchor="middle" dominant-baseline="central" font-size="12.5" font-weight="400" fill="#1e293b" opacity="0.3">FortiGate 600F</text><text x="1131.5" y="493.0" text-anchor="middle" dominant-baseline="central" font-size="12.5" font-weight="400" fill="#1e293b" opacity="0.3">wan1: 198.51.100.20/29</text><text x="1131.5" y="509.0" text-anchor="middle" dominant-baseline="central" font-size="12.5" font-weight="400" fill="#1e293b" opacity="0.3">tunnel.aws: 169.254.200.1/30</text><rect x="793.5" y="688.0" width="132.8" height="46.0" rx="4" fill="#e6f4ea" stroke="#137333" stroke-width="1.4" opacity="0.3"/><text x="859.9" y="703.0" text-anchor="middle" dominant-baseline="central" font-size="12.5" font-weight="600" fill="#1e293b" opacity="0.3">dc-srvsw01</text><text x="859.9" y="719.0" text-anchor="middle" dominant-baseline="central" font-size="12.5" font-weight="400" fill="#1e293b" opacity="0.3">Catalyst 9200</text><rect x="641.3" y="796.0" width="208.4" height="62.0" rx="4" fill="#f1f3f4" stroke="#5f6368" stroke-width="1.4" opacity="0.3"/><text x="745.5" y="811.0" text-anchor="middle" dominant-baseline="central" font-size="12.5" font-weight="600" fill="#1e293b" opacity="0.3">dc-srv01</text><text x="745.5" y="827.0" text-anchor="middle" dominant-baseline="central" font-size="12.5" font-weight="400" fill="#1e293b" opacity="0.3">PowerEdge R760 (基幹AP)</text><text x="745.5" y="843.0" text-anchor="middle" dominant-baseline="central" font-size="12.5" font-weight="400" fill="#1e293b" opacity="0.3">eno1: 10.20.10.11/24</text><rect x="879.7" y="796.0" width="189.2" height="62.0" rx="4" fill="#f1f3f4" stroke="#5f6368" stroke-width="1.4" opacity="0.3"/><text x="974.3" y="811.0" text-anchor="middle" dominant-baseline="central" font-size="12.5" font-weight="600" fill="#1e293b" opacity="0.3">dc-srv02</text><text x="974.3" y="827.0" text-anchor="middle" dominant-baseline="central" font-size="12.5" font-weight="400" fill="#1e293b" opacity="0.3">PowerEdge R760 (DB)</text><text x="974.3" y="843.0" text-anchor="middle" dominant-baseline="central" font-size="12.5" font-weight="400" fill="#1e293b" opacity="0.3">eno1: 10.20.10.12/24</text><rect x="638.8" y="920.0" width="213.4" height="46.0" rx="4" fill="#e2f5f0" stroke="#0f766e" stroke-width="1.4" opacity="0.3"/><text x="745.5" y="935.0" text-anchor="middle" dominant-baseline="central" font-size="12.5" font-weight="600" fill="#1e293b" opacity="0.3">DCサーバ</text><text x="745.5" y="951.0" text-anchor="middle" dominant-baseline="central" font-size="12.5" font-weight="400" fill="#1e293b" opacity="0.3">VLAN 20 / 10.20.10.0/24</text><rect x="1366.4" y="446.0" width="205.3" height="94.0" rx="4" fill="#e8f0fe" stroke="#1a56b0" stroke-width="1.4"/><text x="1469.0" y="461.0" text-anchor="middle" dominant-baseline="central" font-size="12.5" font-weight="600" fill="#1e293b">aws-vgw01</text><text x="1469.0" y="477.0" text-anchor="middle" dominant-baseline="central" font-size="12.5" font-weight="400" fill="#1e293b">AWS VGW/TGW</text><text x="1469.0" y="493.0" text-anchor="middle" dominant-baseline="central" font-size="12.5" font-weight="400" fill="#1e293b">dx1: 169.254.100.2/30</text><text x="1469.0" y="509.0" text-anchor="middle" dominant-baseline="central" font-size="12.5" font-weight="400" fill="#1e293b">vpn1: 169.254.200.2/30</text><text x="1469.0" y="525.0" text-anchor="middle" dominant-baseline="central" font-size="12.5" font-weight="400" fill="#1e293b">vpc1: 10.100.0.1/16</text><rect x="1402.6" y="596.0" width="132.8" height="46.0" rx="4" fill="#e2f5f0" stroke="#0f766e" stroke-width="1.4" opacity="0.3"/><text x="1469.0" y="611.0" text-anchor="middle" dominant-baseline="central" font-size="12.5" font-weight="600" fill="#1e293b" opacity="0.3">VPC アプリ用</text><text x="1469.0" y="627.0" text-anchor="middle" dominant-baseline="central" font-size="12.5" font-weight="400" fill="#1e293b" opacity="0.3">10.100.0.0/16</text></svg>