<svg xmlns="http://www.w3.org/2000/svg" width="1182" height="804" viewBox="0 0 1182 804" font-family="'Segoe UI','Hiragino Sans','Noto Sans JP',Meiryo,sans-serif"><defs></defs><rect width="100%" height="100%" fill="#ffffff"/><text x="24" y="30" font-size="19" font-weight="700" fill="#1e293b">全体物理構成図</text><rect x="40.0" y="318.0" width="323.4" height="236.0" rx="6" fill="#f7f9fc" stroke="#8fa8c4"/><text x="44.0" y="310.0" font-size="14.5" font-weight="600" fill="#33475b">本社</text><rect x="419.4" y="318.0" width="497.8" height="446.0" rx="6" fill="#f7f9fc" stroke="#8fa8c4"/><text x="423.4" y="310.0" font-size="14.5" font-weight="600" fill="#33475b">DCコロケーション</text><rect x="973.2" y="318.0" width="168.7" height="128.0" rx="6" fill="#f7f9fc" stroke="#8fa8c4"/><text x="977.2" y="310.0" font-size="14.5" font-weight="600" fill="#33475b">AWS ap-northeast-1</text><polyline points="132.4,420.0 132.4,442.0 110.3,442.0 110.3,482.0" fill="none" stroke="#4a4a4a" stroke-width="2.0" opacity="1.0"></polyline><text x="136.4" y="433.0" font-size="10.5" font-style="italic" fill="#5f6368" opacity="1.0">Gi0/0/1</text><text x="114.3" y="477.0" font-size="10.5" font-style="italic" fill="#5f6368" opacity="1.0">Gi1/0/1</text><polyline points="279.1,420.0 279.1,442.0 154.5,442.0 154.5,482.0" fill="none" stroke="#4a4a4a" stroke-width="2.0" opacity="1.0"></polyline><text x="283.1" y="433.0" font-size="10.5" font-style="italic" fill="#5f6368" opacity="1.0">Gi0/0/1</text><text x="158.5" y="477.0" font-size="10.5" font-style="italic" fill="#5f6368" opacity="1.0">Gi1/0/2</text><polyline points="662.0,420.0 662.0,442.0 642.6,442.0 642.6,482.0" fill="none" stroke="#4a4a4a" stroke-width="2.0" opacity="1.0"></polyline><text x="666.0" y="433.0" font-size="10.5" font-style="italic" fill="#5f6368" opacity="1.0">Te0/0/1</text><text x="646.6" y="477.0" font-size="10.5" font-style="italic" fill="#5f6368" opacity="1.0">Eth1/1</text><polyline points="820.7,420.0 820.7,442.0 681.4,442.0 681.4,482.0" fill="none" stroke="#4a4a4a" stroke-width="2.0" opacity="1.0"></polyline><text x="824.7" y="433.0" font-size="10.5" font-style="italic" fill="#5f6368" opacity="1.0">internal1</text><text x="685.4" y="477.0" font-size="10.5" font-style="italic" fill="#5f6368" opacity="1.0">Eth1/2</text><polyline points="662.0,528.0 662.0,584.0" fill="none" stroke="#4a4a4a" stroke-width="2.0" opacity="1.0"></polyline><text x="666.0" y="541.0" font-size="10.5" font-style="italic" fill="#5f6368" opacity="1.0">Eth1/3</text><text x="666.0" y="579.0" font-size="10.5" font-style="italic" fill="#5f6368" opacity="1.0">Gi1/0/1</text><polyline points="639.9,630.0 639.9,652.0 549.6,652.0 549.6,692.0" fill="none" stroke="#4a4a4a" stroke-width="2.0" opacity="1.0"></polyline><text x="643.9" y="643.0" font-size="10.5" font-style="italic" fill="#5f6368" opacity="1.0">Gi1/0/11</text><text x="553.6" y="687.0" font-size="10.5" font-style="italic" fill="#5f6368" opacity="1.0">eno1</text><polyline points="684.1,630.0 684.1,652.0 774.4,652.0 774.4,692.0" fill="none" stroke="#4a4a4a" stroke-width="2.0" opacity="1.0"></polyline><text x="688.1" y="643.0" font-size="10.5" font-style="italic" fill="#5f6368" opacity="1.0">Gi1/0/12</text><text x="778.4" y="687.0" font-size="10.5" font-style="italic" fill="#5f6368" opacity="1.0">eno1</text><polyline points="314.5,122.0 314.5,140.0 132.4,140.0 132.4,374.0" fill="none" stroke="#1a73e8" stroke-width="3.5" opacity="1.0"></polyline><rect x="36.6" y="186.0" width="191.5" height="42.0" rx="4" fill="#ffffff" fill-opacity="0.92" opacity="1.0"/><text x="132.4" y="199.0" text-anchor="middle" font-size="12" font-style="italic" font-weight="400" fill="#5f6368" opacity="1.0">キャリアA 広域Ethernet 1G</text><text x="132.4" y="216.0" text-anchor="middle" font-size="12" font-style="italic" font-weight="400" fill="#5f6368" opacity="1.0">(Gi0/0/0)</text><polyline points="357.8,122.0 357.8,158.0 279.1,158.0 279.1,374.0" fill="none" stroke="#1a73e8" stroke-width="3.5" opacity="1.0"></polyline><rect x="183.3" y="222.0" width="191.5" height="42.0" rx="4" fill="#ffffff" fill-opacity="0.92" opacity="1.0"/><text x="279.1" y="235.0" text-anchor="middle" font-size="12" font-style="italic" font-weight="400" fill="#5f6368" opacity="1.0">キャリアA 広域Ethernet 1G</text><text x="279.1" y="252.0" text-anchor="middle" font-size="12" font-style="italic" font-weight="400" fill="#5f6368" opacity="1.0">(Gi0/0/0)</text><polyline points="401.2,122.0 401.2,140.0 642.6,140.0 642.6,374.0" fill="none" stroke="#1a73e8" stroke-width="3.5" opacity="1.0"></polyline><rect x="542.9" y="186.0" width="199.2" height="42.0" rx="4" fill="#ffffff" fill-opacity="0.92" opacity="1.0"/><text x="642.6" y="199.0" text-anchor="middle" font-size="12" font-style="italic" font-weight="400" fill="#5f6368" opacity="1.0">キャリアA 広域Ethernet 10G</text><text x="642.6" y="216.0" text-anchor="middle" font-size="12" font-style="italic" font-weight="400" fill="#5f6368" opacity="1.0">(Te0/0/0)</text><polyline points="681.4,374.0 681.4,140.0 1057.5,140.0 1057.5,374.0" fill="none" stroke="#1a73e8" stroke-width="3.5" opacity="1.0"></polyline><rect x="702.2" y="222.0" width="334.6" height="42.0" rx="4" fill="#ffffff" fill-opacity="0.92" opacity="1.0"/><text x="869.5" y="235.0" text-anchor="middle" font-size="12" font-style="italic" font-weight="400" fill="#5f6368" opacity="1.0">エクイニクス経由 AWS Direct Connect 専用線 1G</text><text x="869.5" y="252.0" text-anchor="middle" font-size="12" font-style="italic" font-weight="400" fill="#5f6368" opacity="1.0">(Te0/0/3 - dx1)</text><polyline points="820.7,122.0 820.7,158.0 820.7,158.0 820.7,374.0" fill="none" stroke="#1a73e8" stroke-width="3.5" opacity="1.0"></polyline><rect x="703.8" y="258.0" width="233.9" height="42.0" rx="4" fill="#ffffff" fill-opacity="0.92" opacity="1.0"/><text x="820.7" y="271.0" text-anchor="middle" font-size="12" font-style="italic" font-weight="400" fill="#5f6368" opacity="1.0">キャリアB DC IXインターネット 1G</text><text x="820.7" y="288.0" text-anchor="middle" font-size="12" font-style="italic" font-weight="400" fill="#5f6368" opacity="1.0">(wan1)</text><ellipse cx="357.8" cy="84.0" rx="86.7" ry="38.0" fill="#f1f3f4" stroke="#5f6368" stroke-width="1.6"/><text x="357.8" y="84.0" text-anchor="middle" dominant-baseline="central" font-size="12.5" font-weight="600" fill="#1e293b">広域Ethernet網</text><ellipse cx="820.7" cy="84.0" rx="81.8" ry="38.0" fill="#f1f3f4" stroke="#5f6368" stroke-width="1.6"/><text x="820.7" y="84.0" text-anchor="middle" dominant-baseline="central" font-size="12.5" font-weight="600" fill="#1e293b">インターネット</text><rect x="74.1" y="374.0" width="116.7" height="46.0" rx="4" fill="#e8f0fe" stroke="#1a56b0" stroke-width="1.4"/><text x="132.4" y="389.0" text-anchor="middle" dominant-baseline="central" font-size="12.5" font-weight="600" fill="#1e293b">hq-rt01</text><text x="132.4" y="405.0" text-anchor="middle" dominant-baseline="central" font-size="12.5" font-weight="400" fill="#1e293b">Cisco C8300</text><rect x="66.0" y="482.0" width="132.8" height="46.0" rx="4" fill="#d2e3fc" stroke="#1a56b0" stroke-width="1.4"/><text x="132.4" y="497.0" text-anchor="middle" dominant-baseline="central" font-size="12.5" font-weight="600" fill="#1e293b">hq-sw01</text><text x="132.4" y="513.0" text-anchor="middle" dominant-baseline="central" font-size="12.5" font-weight="400" fill="#1e293b">Catalyst 9300</text><rect x="220.7" y="374.0" width="116.7" height="46.0" rx="4" fill="#e8f0fe" stroke="#1a56b0" stroke-width="1.4"/><text x="279.1" y="389.0" text-anchor="middle" dominant-baseline="central" font-size="12.5" font-weight="600" fill="#1e293b">hq-rt02</text><text x="279.1" y="405.0" text-anchor="middle" dominant-baseline="central" font-size="12.5" font-weight="400" fill="#1e293b">Cisco C8300</text><rect x="603.7" y="374.0" width="116.7" height="46.0" rx="4" fill="#e8f0fe" stroke="#1a56b0" stroke-width="1.4"/><text x="662.0" y="389.0" text-anchor="middle" dominant-baseline="central" font-size="12.5" font-weight="600" fill="#1e293b">dc-rt01</text><text x="662.0" y="405.0" text-anchor="middle" dominant-baseline="central" font-size="12.5" font-weight="400" fill="#1e293b">Cisco C8500</text><rect x="603.7" y="482.0" width="116.7" height="46.0" rx="4" fill="#d2e3fc" stroke="#1a56b0" stroke-width="1.4"/><text x="662.0" y="497.0" text-anchor="middle" dominant-baseline="central" font-size="12.5" font-weight="600" fill="#1e293b">dc-core01</text><text x="662.0" y="513.0" text-anchor="middle" dominant-baseline="central" font-size="12.5" font-weight="400" fill="#1e293b">Nexus 93180</text><rect x="750.3" y="374.0" width="140.8" height="46.0" rx="4" fill="#fce8e6" stroke="#c5221f" stroke-width="1.4"/><text x="820.7" y="389.0" text-anchor="middle" dominant-baseline="central" font-size="12.5" font-weight="600" fill="#1e293b">dc-fw01</text><text x="820.7" y="405.0" text-anchor="middle" dominant-baseline="central" font-size="12.5" font-weight="400" fill="#1e293b">FortiGate 600F</text><rect x="595.6" y="584.0" width="132.8" height="46.0" rx="4" fill="#e6f4ea" stroke="#137333" stroke-width="1.4"/><text x="662.0" y="599.0" text-anchor="middle" dominant-baseline="central" font-size="12.5" font-weight="600" fill="#1e293b">dc-srvsw01</text><text x="662.0" y="615.0" text-anchor="middle" dominant-baseline="central" font-size="12.5" font-weight="400" fill="#1e293b">Catalyst 9200</text><rect x="445.4" y="692.0" width="208.4" height="46.0" rx="4" fill="#f1f3f4" stroke="#5f6368" stroke-width="1.4"/><text x="549.6" y="707.0" text-anchor="middle" dominant-baseline="central" font-size="12.5" font-weight="600" fill="#1e293b">dc-srv01</text><text x="549.6" y="723.0" text-anchor="middle" dominant-baseline="central" font-size="12.5" font-weight="400" fill="#1e293b">PowerEdge R760 (基幹AP)</text><rect x="683.8" y="692.0" width="181.1" height="46.0" rx="4" fill="#f1f3f4" stroke="#5f6368" stroke-width="1.4"/><text x="774.4" y="707.0" text-anchor="middle" dominant-baseline="central" font-size="12.5" font-weight="600" fill="#1e293b">dc-srv02</text><text x="774.4" y="723.0" text-anchor="middle" dominant-baseline="central" font-size="12.5" font-weight="400" fill="#1e293b">PowerEdge R760 (DB)</text><rect x="999.2" y="374.0" width="116.7" height="46.0" rx="4" fill="#e8f0fe" stroke="#1a56b0" stroke-width="1.4"/><text x="1057.5" y="389.0" text-anchor="middle" dominant-baseline="central" font-size="12.5" font-weight="600" fill="#1e293b">aws-vgw01</text><text x="1057.5" y="405.0" text-anchor="middle" dominant-baseline="central" font-size="12.5" font-weight="400" fill="#1e293b">AWS VGW/TGW</text></svg>