<svg xmlns="http://www.w3.org/2000/svg" width="1206" height="804" viewBox="0 0 1206 804" font-family="'Segoe UI','Hiragino Sans','Noto Sans JP',Meiryo,sans-serif"><defs></defs><rect width="100%" height="100%" fill="#ffffff"/><text x="24" y="30" font-size="19" font-weight="700" fill="#1e293b">全体物理構成図</text><rect x="40.0" y="318.0" width="347.6" height="236.0" rx="6" fill="#f7f9fc" stroke="#8fa8c4"/><text x="44.0" y="310.0" font-size="14.5" font-weight="600" fill="#33475b">本社</text><rect x="443.6" y="318.0" width="497.8" height="446.0" rx="6" fill="#f7f9fc" stroke="#8fa8c4"/><text x="447.6" y="310.0" font-size="14.5" font-weight="600" fill="#33475b">DCコロケーション</text><rect x="997.3" y="318.0" width="168.7" height="128.0" rx="6" fill="#f7f9fc" stroke="#8fa8c4"/><text x="1001.3" y="310.0" font-size="14.5" font-weight="600" fill="#33475b">AWS ap-northeast-1</text><rect x="57.0" y="365.0" width="313.6" height="64.0" rx="6" fill="none" stroke="#64748b" stroke-width="1.3" stroke-dasharray="5 4"/><text x="61.0" y="360.0" font-size="11.5" font-weight="600" fill="#475569">HSRP VIP 10.10.0.1</text><polyline points="132.4,420.0 132.4,442.0 110.3,442.0 110.3,482.0" fill="none" stroke="#4a4a4a" stroke-width="2.0" opacity="1.0"></polyline><text x="136.4" y="433.0" font-size="10.5" font-style="italic" fill="#5f6368" opacity="1.0">Gi0/0/1</text><text x="114.3" y="477.0" font-size="10.5" font-style="italic" fill="#5f6368" opacity="1.0">Gi1/0/1</text><polyline points="295.2,420.0 295.2,442.0 154.5,442.0 154.5,482.0" fill="none" stroke="#4a4a4a" stroke-width="2.0" opacity="1.0"></polyline><text x="299.2" y="433.0" font-size="10.5" font-style="italic" fill="#5f6368" opacity="1.0">Gi0/0/1</text><text x="158.5" y="477.0" font-size="10.5" font-style="italic" fill="#5f6368" opacity="1.0">Gi1/0/2</text><polyline points="686.2,420.0 686.2,442.0 666.7,442.0 666.7,482.0" fill="none" stroke="#4a4a4a" stroke-width="2.0" opacity="1.0"></polyline><text x="690.2" y="433.0" font-size="10.5" font-style="italic" fill="#5f6368" opacity="1.0">Te0/0/1</text><text x="670.7" y="477.0" font-size="10.5" font-style="italic" fill="#5f6368" opacity="1.0">Eth1/1</text><polyline points="844.9,420.0 844.9,442.0 705.6,442.0 705.6,482.0" fill="none" stroke="#4a4a4a" stroke-width="2.0" opacity="1.0"></polyline><text x="848.9" y="433.0" font-size="10.5" font-style="italic" fill="#5f6368" opacity="1.0">internal1</text><text x="709.6" y="477.0" font-size="10.5" font-style="italic" fill="#5f6368" opacity="1.0">Eth1/2</text><polyline points="686.2,528.0 686.2,584.0" fill="none" stroke="#4a4a4a" stroke-width="2.0" opacity="1.0"></polyline><text x="690.2" y="541.0" font-size="10.5" font-style="italic" fill="#5f6368" opacity="1.0">Eth1/3</text><text x="690.2" y="579.0" font-size="10.5" font-style="italic" fill="#5f6368" opacity="1.0">Gi1/0/1</text><polyline points="664.0,630.0 664.0,652.0 573.8,652.0 573.8,692.0" fill="none" stroke="#4a4a4a" stroke-width="2.0" opacity="1.0"></polyline><text x="668.0" y="643.0" font-size="10.5" font-style="italic" fill="#5f6368" opacity="1.0">Gi1/0/11</text><text x="577.8" y="687.0" font-size="10.5" font-style="italic" fill="#5f6368" opacity="1.0">eno1</text><polyline points="708.3,630.0 708.3,652.0 798.6,652.0 798.6,692.0" fill="none" stroke="#4a4a4a" stroke-width="2.0" opacity="1.0"></polyline><text x="712.3" y="643.0" font-size="10.5" font-style="italic" fill="#5f6368" opacity="1.0">Gi1/0/12</text><text x="802.6" y="687.0" font-size="10.5" font-style="italic" fill="#5f6368" opacity="1.0">eno1</text><polyline points="327.9,122.0 327.9,140.0 132.4,140.0 132.4,374.0" fill="none" stroke="#1a73e8" stroke-width="3.5" opacity="1.0"></polyline><rect x="36.6" y="186.0" width="191.5" height="42.0" rx="4" fill="#ffffff" fill-opacity="0.92" opacity="1.0"/><text x="132.4" y="199.0" text-anchor="middle" font-size="12" font-style="italic" font-weight="400" fill="#5f6368" opacity="1.0">キャリアA 広域Ethernet 1G</text><text x="132.4" y="216.0" text-anchor="middle" font-size="12" font-style="italic" font-weight="400" fill="#5f6368" opacity="1.0">(Gi0/0/0)</text><polyline points="371.2,122.0 371.2,158.0 295.2,158.0 295.2,374.0" fill="none" stroke="#1a73e8" stroke-width="3.5" opacity="1.0"></polyline><rect x="199.4" y="222.0" width="191.5" height="42.0" rx="4" fill="#ffffff" fill-opacity="0.92" opacity="1.0"/><text x="295.2" y="235.0" text-anchor="middle" font-size="12" font-style="italic" font-weight="400" fill="#5f6368" opacity="1.0">キャリアA 広域Ethernet 1G</text><text x="295.2" y="252.0" text-anchor="middle" font-size="12" font-style="italic" font-weight="400" fill="#5f6368" opacity="1.0">(Gi0/0/0)</text><polyline points="414.6,122.0 414.6,140.0 666.7,140.0 666.7,374.0" fill="none" stroke="#1a73e8" stroke-width="3.5" opacity="1.0"></polyline><rect x="567.1" y="186.0" width="199.2" height="42.0" rx="4" fill="#ffffff" fill-opacity="0.92" opacity="1.0"/><text x="666.7" y="199.0" text-anchor="middle" font-size="12" font-style="italic" font-weight="400" fill="#5f6368" opacity="1.0">キャリアA 広域Ethernet 10G</text><text x="666.7" y="216.0" text-anchor="middle" font-size="12" font-style="italic" font-weight="400" fill="#5f6368" opacity="1.0">(Te0/0/0)</text><polyline points="705.6,374.0 705.6,140.0 1081.7,140.0 1081.7,374.0" fill="none" stroke="#1a73e8" stroke-width="3.5" opacity="1.0"></polyline><rect x="726.3" y="222.0" width="334.6" height="42.0" rx="4" fill="#ffffff" fill-opacity="0.92" opacity="1.0"/><text x="893.6" y="235.0" text-anchor="middle" font-size="12" font-style="italic" font-weight="400" fill="#5f6368" opacity="1.0">エクイニクス経由 AWS Direct Connect 専用線 1G</text><text x="893.6" y="252.0" text-anchor="middle" font-size="12" font-style="italic" font-weight="400" fill="#5f6368" opacity="1.0">(Te0/0/3 - dx1)</text><polyline points="844.9,122.0 844.9,158.0 844.9,158.0 844.9,374.0" fill="none" stroke="#1a73e8" stroke-width="3.5" opacity="1.0"></polyline><rect x="728.0" y="258.0" width="233.9" height="42.0" rx="4" fill="#ffffff" fill-opacity="0.92" opacity="1.0"/><text x="844.9" y="271.0" text-anchor="middle" font-size="12" font-style="italic" font-weight="400" fill="#5f6368" opacity="1.0">キャリアB DC IXインターネット 1G</text><text x="844.9" y="288.0" text-anchor="middle" font-size="12" font-style="italic" font-weight="400" fill="#5f6368" opacity="1.0">(wan1)</text><ellipse cx="371.2" cy="84.0" rx="86.7" ry="38.0" fill="#f1f3f4" stroke="#5f6368" stroke-width="1.6"/><text x="371.2" y="84.0" text-anchor="middle" dominant-baseline="central" font-size="12.5" font-weight="600" fill="#1e293b">広域Ethernet網</text><ellipse cx="844.9" cy="84.0" rx="81.8" ry="38.0" fill="#f1f3f4" stroke="#5f6368" stroke-width="1.6"/><text x="844.9" y="84.0" text-anchor="middle" dominant-baseline="central" font-size="12.5" font-weight="600" fill="#1e293b">インターネット</text><rect x="66.0" y="374.0" width="132.8" height="46.0" rx="4" fill="#e8f0fe" stroke="#1a56b0" stroke-width="1.4"/><text x="132.4" y="389.0" text-anchor="middle" dominant-baseline="central" font-size="12.5" font-weight="600" fill="#1e293b">hq-rt01 (Act)</text><text x="132.4" y="405.0" text-anchor="middle" dominant-baseline="central" font-size="12.5" font-weight="400" fill="#1e293b">Cisco C8300</text><rect x="66.0" y="482.0" width="132.8" height="46.0" rx="4" fill="#d2e3fc" stroke="#1a56b0" stroke-width="1.4"/><text x="132.4" y="497.0" text-anchor="middle" dominant-baseline="central" font-size="12.5" font-weight="600" fill="#1e293b">hq-sw01</text><text x="132.4" y="513.0" text-anchor="middle" dominant-baseline="central" font-size="12.5" font-weight="400" fill="#1e293b">Catalyst 9300</text><rect x="228.8" y="374.0" width="132.8" height="46.0" rx="4" fill="#e8f0fe" stroke="#1a56b0" stroke-width="1.4"/><text x="295.2" y="389.0" text-anchor="middle" dominant-baseline="central" font-size="12.5" font-weight="600" fill="#1e293b">hq-rt02 (Sby)</text><text x="295.2" y="405.0" text-anchor="middle" dominant-baseline="central" font-size="12.5" font-weight="400" fill="#1e293b">Cisco C8300</text><rect x="627.8" y="374.0" width="116.7" height="46.0" rx="4" fill="#e8f0fe" stroke="#1a56b0" stroke-width="1.4"/><text x="686.2" y="389.0" text-anchor="middle" dominant-baseline="central" font-size="12.5" font-weight="600" fill="#1e293b">dc-rt01</text><text x="686.2" y="405.0" text-anchor="middle" dominant-baseline="central" font-size="12.5" font-weight="400" fill="#1e293b">Cisco C8500</text><rect x="627.8" y="482.0" width="116.7" height="46.0" rx="4" fill="#d2e3fc" stroke="#1a56b0" stroke-width="1.4"/><text x="686.2" y="497.0" text-anchor="middle" dominant-baseline="central" font-size="12.5" font-weight="600" fill="#1e293b">dc-core01</text><text x="686.2" y="513.0" text-anchor="middle" dominant-baseline="central" font-size="12.5" font-weight="400" fill="#1e293b">Nexus 93180</text><rect x="774.5" y="374.0" width="140.8" height="46.0" rx="4" fill="#fce8e6" stroke="#c5221f" stroke-width="1.4"/><text x="844.9" y="389.0" text-anchor="middle" dominant-baseline="central" font-size="12.5" font-weight="600" fill="#1e293b">dc-fw01</text><text x="844.9" y="405.0" text-anchor="middle" dominant-baseline="central" font-size="12.5" font-weight="400" fill="#1e293b">FortiGate 600F</text><rect x="619.8" y="584.0" width="132.8" height="46.0" rx="4" fill="#e6f4ea" stroke="#137333" stroke-width="1.4"/><text x="686.2" y="599.0" text-anchor="middle" dominant-baseline="central" font-size="12.5" font-weight="600" fill="#1e293b">dc-srvsw01</text><text x="686.2" y="615.0" text-anchor="middle" dominant-baseline="central" font-size="12.5" font-weight="400" fill="#1e293b">Catalyst 9200</text><rect x="469.6" y="692.0" width="208.4" height="46.0" rx="4" fill="#f1f3f4" stroke="#5f6368" stroke-width="1.4"/><text x="573.8" y="707.0" text-anchor="middle" dominant-baseline="central" font-size="12.5" font-weight="600" fill="#1e293b">dc-srv01</text><text x="573.8" y="723.0" text-anchor="middle" dominant-baseline="central" font-size="12.5" font-weight="400" fill="#1e293b">PowerEdge R760 (基幹AP)</text><rect x="708.0" y="692.0" width="181.1" height="46.0" rx="4" fill="#f1f3f4" stroke="#5f6368" stroke-width="1.4"/><text x="798.6" y="707.0" text-anchor="middle" dominant-baseline="central" font-size="12.5" font-weight="600" fill="#1e293b">dc-srv02</text><text x="798.6" y="723.0" text-anchor="middle" dominant-baseline="central" font-size="12.5" font-weight="400" fill="#1e293b">PowerEdge R760 (DB)</text><rect x="1023.3" y="374.0" width="116.7" height="46.0" rx="4" fill="#e8f0fe" stroke="#1a56b0" stroke-width="1.4"/><text x="1081.7" y="389.0" text-anchor="middle" dominant-baseline="central" font-size="12.5" font-weight="600" fill="#1e293b">aws-vgw01</text><text x="1081.7" y="405.0" text-anchor="middle" dominant-baseline="central" font-size="12.5" font-weight="400" fill="#1e293b">AWS VGW/TGW</text></svg>