<svg xmlns="http://www.w3.org/2000/svg" width="2482" height="994" viewBox="0 0 2482 994" font-family="'Segoe UI','Hiragino Sans','Noto Sans JP',Meiryo,sans-serif"><defs></defs><rect width="100%" height="100%" fill="#ffffff"/><text x="24" y="30" font-size="19" font-weight="700" fill="#1e293b">本社 物理構成図 (29台)</text><rect x="40.0" y="228.0" width="2401.8" height="726.0" rx="6" fill="#f7f9fc" stroke="#8fa8c4"/><text x="44.0" y="220.0" font-size="14.5" font-weight="600" fill="#33475b">本社</text><polyline points="1862.6,330.0 1862.6,386.0" fill="none" stroke="#4a4a4a" stroke-width="2.0" opacity="1.0"></polyline><text x="1866.6" y="343.0" font-size="10.5" font-style="italic" fill="#5f6368" opacity="1.0">Gi0/1</text><text x="1866.6" y="381.0" font-size="10.5" font-style="italic" fill="#5f6368" opacity="1.0">Gi0/1</text><polyline points="1250.0,330.0 1250.0,386.0" fill="none" stroke="#4a4a4a" stroke-width="2.0" opacity="1.0"></polyline><text x="1254.0" y="343.0" font-size="10.5" font-style="italic" fill="#5f6368" opacity="1.0">Gi0/1</text><text x="1254.0" y="381.0" font-size="10.5" font-style="italic" fill="#5f6368" opacity="1.0">Gi0/1</text><polyline points="1845.3,432.0 1845.3,454.0 1441.0,454.0 1441.0,494.0" fill="none" stroke="#4a4a4a" stroke-width="2.0" opacity="1.0"></polyline><text x="1849.3" y="445.0" font-size="10.5" font-style="italic" fill="#5f6368" opacity="1.0">Gi0/2</text><text x="1445.0" y="489.0" font-size="10.5" font-style="italic" fill="#5f6368" opacity="1.0">Gi0/1</text><polyline points="1250.0,432.0 1250.0,517.0 1250.0,562.0 1206.7,562.0 1206.7,634.0" fill="none" stroke="#4a4a4a" stroke-width="2.0" opacity="1.0"></polyline><text x="1254.0" y="445.0" font-size="10.5" font-style="italic" fill="#5f6368" opacity="1.0">Gi0/2</text><text x="1210.7" y="629.0" font-size="10.5" font-style="italic" fill="#5f6368" opacity="1.0">Gi0/1</text><polyline points="1418.8,540.0 1418.8,562.0 1293.4,562.0 1293.4,634.0" fill="none" stroke="#4a4a4a" stroke-width="2.0" opacity="1.0"></polyline><text x="1422.8" y="553.0" font-size="10.5" font-style="italic" fill="#5f6368" opacity="1.0">Gi0/2</text><text x="1297.4" y="629.0" font-size="10.5" font-style="italic" fill="#5f6368" opacity="1.0">Gi0/2</text><polyline points="1374.2,540.0 1374.2,578.0 815.3,578.0 815.3,657.0 815.3,702.0 789.3,702.0 789.3,774.0" fill="none" stroke="#4a4a4a" stroke-width="2.0" opacity="1.0"></polyline><text x="1378.2" y="553.0" font-size="10.5" font-style="italic" fill="#5f6368" opacity="1.0">Gi0/3</text><text x="793.3" y="769.0" font-size="10.5" font-style="italic" fill="#5f6368" opacity="1.0">Gi0/1</text><polyline points="1206.7,680.0 1206.7,702.0 841.3,702.0 841.3,774.0" fill="none" stroke="#4a4a4a" stroke-width="2.0" opacity="1.0"></polyline><text x="1210.7" y="693.0" font-size="10.5" font-style="italic" fill="#5f6368" opacity="1.0">Gi0/3</text><text x="845.3" y="769.0" font-size="10.5" font-style="italic" fill="#5f6368" opacity="1.0">Gi0/2</text><polyline points="1463.3,540.0 1463.3,578.0 1415.0,578.0 1415.0,657.0 1415.0,702.0 1329.6,702.0 1329.6,774.0" fill="none" stroke="#4a4a4a" stroke-width="2.0" opacity="1.0"></polyline><text x="1467.3" y="553.0" font-size="10.5" font-style="italic" fill="#5f6368" opacity="1.0">Gi0/4</text><text x="1333.6" y="769.0" font-size="10.5" font-style="italic" fill="#5f6368" opacity="1.0">Gi0/1</text><polyline points="1250.0,680.0 1250.0,702.0 1277.6,702.0 1277.6,774.0" fill="none" stroke="#4a4a4a" stroke-width="2.0" opacity="1.0"></polyline><text x="1254.0" y="693.0" font-size="10.5" font-style="italic" fill="#5f6368" opacity="1.0">Gi0/4</text><text x="1281.6" y="769.0" font-size="10.5" font-style="italic" fill="#5f6368" opacity="1.0">Gi0/2</text><polyline points="1507.9,540.0 1507.9,562.0 1791.9,562.0 1791.9,657.0 1791.9,702.0 1817.9,702.0 1817.9,774.0" fill="none" stroke="#4a4a4a" stroke-width="2.0" opacity="1.0"></polyline><text x="1511.9" y="553.0" font-size="10.5" font-style="italic" fill="#5f6368" opacity="1.0">Gi0/5</text><text x="1821.9" y="769.0" font-size="10.5" font-style="italic" fill="#5f6368" opacity="1.0">Gi0/1</text><polyline points="1293.4,680.0 1293.4,718.0 1765.9,718.0 1765.9,774.0" fill="none" stroke="#4a4a4a" stroke-width="2.0" opacity="1.0"></polyline><text x="1297.4" y="693.0" font-size="10.5" font-style="italic" fill="#5f6368" opacity="1.0">Gi0/5</text><text x="1769.9" y="769.0" font-size="10.5" font-style="italic" fill="#5f6368" opacity="1.0">Gi0/2</text><polyline points="1552.5,540.0 1552.5,578.0 2117.5,578.0 2117.5,657.0 2117.5,702.0 2139.6,702.0 2139.6,774.0" fill="none" stroke="#4a4a4a" stroke-width="2.0" opacity="1.0"></polyline><text x="1556.5" y="553.0" font-size="10.5" font-style="italic" fill="#5f6368" opacity="1.0">Gi0/6</text><text x="2143.6" y="769.0" font-size="10.5" font-style="italic" fill="#5f6368" opacity="1.0">Gi0/1</text><polyline points="1336.7,680.0 1336.7,734.0 2095.4,734.0 2095.4,774.0" fill="none" stroke="#4a4a4a" stroke-width="2.0" opacity="1.0"></polyline><text x="1340.7" y="693.0" font-size="10.5" font-style="italic" fill="#5f6368" opacity="1.0">Gi0/6</text><text x="2099.4" y="769.0" font-size="10.5" font-style="italic" fill="#5f6368" opacity="1.0">Gi0/2</text><polyline points="776.3,820.0 776.3,842.0 652.5,842.0 652.5,882.0" fill="none" stroke="#4a4a4a" stroke-width="2.0" opacity="1.0"></polyline><text x="780.3" y="833.0" font-size="10.5" font-style="italic" fill="#5f6368" opacity="1.0">Gi0/3</text><text x="656.5" y="877.0" font-size="10.5" font-style="italic" fill="#5f6368" opacity="1.0">Gi0/1</text><polyline points="815.3,820.0 815.3,882.0" fill="none" stroke="#4a4a4a" stroke-width="2.0" opacity="1.0"></polyline><text x="819.3" y="833.0" font-size="10.5" font-style="italic" fill="#5f6368" opacity="1.0">Gi0/4</text><text x="819.3" y="877.0" font-size="10.5" font-style="italic" fill="#5f6368" opacity="1.0">Gi0/1</text><polyline points="854.3,820.0 854.3,842.0 978.0,842.0 978.0,882.0" fill="none" stroke="#4a4a4a" stroke-width="2.0" opacity="1.0"></polyline><text x="858.3" y="833.0" font-size="10.5" font-style="italic" fill="#5f6368" opacity="1.0">Gi0/5</text><text x="982.0" y="877.0" font-size="10.5" font-style="italic" fill="#5f6368" opacity="1.0">Gi0/1</text><polyline points="1264.6,820.0 1264.6,842.0 1140.8,842.0 1140.8,882.0" fill="none" stroke="#4a4a4a" stroke-width="2.0" opacity="1.0"></polyline><text x="1268.6" y="833.0" font-size="10.5" font-style="italic" fill="#5f6368" opacity="1.0">Gi0/3</text><text x="1144.8" y="877.0" font-size="10.5" font-style="italic" fill="#5f6368" opacity="1.0">Gi0/1</text><polyline points="1303.6,820.0 1303.6,882.0" fill="none" stroke="#4a4a4a" stroke-width="2.0" opacity="1.0"></polyline><text x="1307.6" y="833.0" font-size="10.5" font-style="italic" fill="#5f6368" opacity="1.0">Gi0/4</text><text x="1307.6" y="877.0" font-size="10.5" font-style="italic" fill="#5f6368" opacity="1.0">Gi0/1</text><polyline points="1342.6,820.0 1342.6,842.0 1466.4,842.0 1466.4,882.0" fill="none" stroke="#4a4a4a" stroke-width="2.0" opacity="1.0"></polyline><text x="1346.6" y="833.0" font-size="10.5" font-style="italic" fill="#5f6368" opacity="1.0">Gi0/5</text><text x="1470.4" y="877.0" font-size="10.5" font-style="italic" fill="#5f6368" opacity="1.0">Gi0/1</text><polyline points="1752.9,820.0 1752.9,842.0 1629.2,842.0 1629.2,882.0" fill="none" stroke="#4a4a4a" stroke-width="2.0" opacity="1.0"></polyline><text x="1756.9" y="833.0" font-size="10.5" font-style="italic" fill="#5f6368" opacity="1.0">Gi0/3</text><text x="1633.2" y="877.0" font-size="10.5" font-style="italic" fill="#5f6368" opacity="1.0">Gi0/1</text><polyline points="1791.9,820.0 1791.9,882.0" fill="none" stroke="#4a4a4a" stroke-width="2.0" opacity="1.0"></polyline><text x="1795.9" y="833.0" font-size="10.5" font-style="italic" fill="#5f6368" opacity="1.0">Gi0/4</text><text x="1795.9" y="877.0" font-size="10.5" font-style="italic" fill="#5f6368" opacity="1.0">Gi0/1</text><polyline points="1830.9,820.0 1830.9,842.0 1954.7,842.0 1954.7,882.0" fill="none" stroke="#4a4a4a" stroke-width="2.0" opacity="1.0"></polyline><text x="1834.9" y="833.0" font-size="10.5" font-style="italic" fill="#5f6368" opacity="1.0">Gi0/5</text><text x="1958.7" y="877.0" font-size="10.5" font-style="italic" fill="#5f6368" opacity="1.0">Gi0/1</text><polyline points="2117.5,820.0 2117.5,882.0" fill="none" stroke="#4a4a4a" stroke-width="2.0" opacity="1.0"></polyline><text x="2121.5" y="833.0" font-size="10.5" font-style="italic" fill="#5f6368" opacity="1.0">Gi0/3</text><text x="2121.5" y="877.0" font-size="10.5" font-style="italic" fill="#5f6368" opacity="1.0">Gi0/1</text><polyline points="1329.6,540.0 1329.6,594.0 390.0,594.0 390.0,634.0" fill="none" stroke="#4a4a4a" stroke-width="2.0" opacity="1.0"></polyline><text x="1333.6" y="553.0" font-size="10.5" font-style="italic" fill="#5f6368" opacity="1.0">Gi0/7</text><text x="394.0" y="629.0" font-size="10.5" font-style="italic" fill="#5f6368" opacity="1.0">Gi0/1</text><polyline points="1163.4,680.0 1163.4,718.0 244.0,718.0 244.0,774.0" fill="none" stroke="#4a4a4a" stroke-width="2.0" opacity="1.0"></polyline><text x="1167.4" y="693.0" font-size="10.5" font-style="italic" fill="#5f6368" opacity="1.0">Gi0/7</text><text x="248.0" y="769.0" font-size="10.5" font-style="italic" fill="#5f6368" opacity="1.0">Gi0/1</text><polyline points="351.0,680.0 351.0,702.0 199.7,702.0 199.7,774.0" fill="none" stroke="#4a4a4a" stroke-width="2.0" opacity="1.0"></polyline><text x="355.0" y="693.0" font-size="10.5" font-style="italic" fill="#5f6368" opacity="1.0">Gi0/2</text><text x="203.7" y="769.0" font-size="10.5" font-style="italic" fill="#5f6368" opacity="1.0">Gi0/2</text><polyline points="390.0,680.0 390.0,702.0 388.7,702.0 388.7,774.0" fill="none" stroke="#4a4a4a" stroke-width="2.0" opacity="1.0"></polyline><text x="394.0" y="693.0" font-size="10.5" font-style="italic" fill="#5f6368" opacity="1.0">Gi0/3</text><text x="392.7" y="769.0" font-size="10.5" font-style="italic" fill="#5f6368" opacity="1.0">Gi0/1</text><polyline points="429.0,680.0 429.0,702.0 559.5,702.0 559.5,774.0" fill="none" stroke="#4a4a4a" stroke-width="2.0" opacity="1.0"></polyline><text x="433.0" y="693.0" font-size="10.5" font-style="italic" fill="#5f6368" opacity="1.0">Gi0/4</text><text x="563.5" y="769.0" font-size="10.5" font-style="italic" fill="#5f6368" opacity="1.0">Gi0/1</text><polyline points="199.7,820.0 199.7,842.0 136.4,842.0 136.4,882.0" fill="none" stroke="#4a4a4a" stroke-width="2.0" opacity="1.0"></polyline><text x="203.7" y="833.0" font-size="10.5" font-style="italic" fill="#5f6368" opacity="1.0">Gi0/3</text><text x="140.4" y="877.0" font-size="10.5" font-style="italic" fill="#5f6368" opacity="1.0">Gi0/1</text><polyline points="244.0,820.0 244.0,842.0 307.3,842.0 307.3,882.0" fill="none" stroke="#4a4a4a" stroke-width="2.0" opacity="1.0"></polyline><text x="248.0" y="833.0" font-size="10.5" font-style="italic" fill="#5f6368" opacity="1.0">Gi0/4</text><text x="311.3" y="877.0" font-size="10.5" font-style="italic" fill="#5f6368" opacity="1.0">Gi0/1</text><polyline points="1879.9,432.0 1879.9,454.0 2284.2,454.0 2284.2,494.0" fill="none" stroke="#4a4a4a" stroke-width="2.0" opacity="1.0"></polyline><text x="1883.9" y="445.0" font-size="10.5" font-style="italic" fill="#5f6368" opacity="1.0">Gi0/3</text><text x="2288.2" y="489.0" font-size="10.5" font-style="italic" fill="#5f6368" opacity="1.0">Gi0/1</text><polyline points="2262.0,540.0 2262.0,562.0 2210.8,562.0 2210.8,634.0" fill="none" stroke="#4a4a4a" stroke-width="2.0" opacity="1.0"></polyline><text x="2266.0" y="553.0" font-size="10.5" font-style="italic" fill="#5f6368" opacity="1.0">Gi0/2</text><text x="2214.8" y="629.0" font-size="10.5" font-style="italic" fill="#5f6368" opacity="1.0">Gi0/1</text><polyline points="2306.3,540.0 2306.3,562.0 2357.5,562.0 2357.5,634.0" fill="none" stroke="#4a4a4a" stroke-width="2.0" opacity="1.0"></polyline><text x="2310.3" y="553.0" font-size="10.5" font-style="italic" fill="#5f6368" opacity="1.0">Gi0/3</text><text x="2361.5" y="629.0" font-size="10.5" font-style="italic" fill="#5f6368" opacity="1.0">Gi0/1</text><polyline points="1862.6,122.0 1862.6,140.0 1862.6,140.0 1862.6,284.0" fill="none" stroke="#1a73e8" stroke-width="3.5" opacity="1.0"></polyline><rect x="1790.7" y="168.0" width="143.8" height="42.0" rx="4" fill="#ffffff" fill-opacity="0.92" opacity="1.0"/><text x="1862.6" y="181.0" text-anchor="middle" font-size="12" font-style="italic" font-weight="400" fill="#5f6368" opacity="1.0">NTT Com IP-VPN 1G</text><text x="1862.6" y="198.0" text-anchor="middle" font-size="12" font-style="italic" font-weight="400" fill="#5f6368" opacity="1.0">(Gi0/2)</text><polyline points="1250.0,122.0 1250.0,140.0 1250.0,140.0 1250.0,284.0" fill="none" stroke="#1a73e8" stroke-width="3.5" opacity="1.0"></polyline><rect x="1154.3" y="168.0" width="191.5" height="42.0" rx="4" fill="#ffffff" fill-opacity="0.92" opacity="1.0"/><text x="1250.0" y="181.0" text-anchor="middle" font-size="12" font-style="italic" font-weight="400" fill="#5f6368" opacity="1.0">NTT東 フレッツ光 + OCN 1G</text><text x="1250.0" y="198.0" text-anchor="middle" font-size="12" font-style="italic" font-weight="400" fill="#5f6368" opacity="1.0">(Gi0/2)</text><ellipse cx="1250.0" cy="84.0" rx="81.8" ry="38.0" fill="#f1f3f4" stroke="#5f6368" stroke-width="1.6"/><text x="1250.0" y="84.0" text-anchor="middle" dominant-baseline="central" font-size="12.5" font-weight="600" fill="#1e293b">インターネット</text><ellipse cx="1862.6" cy="84.0" rx="75.0" ry="38.0" fill="#f1f3f4" stroke="#5f6368" stroke-width="1.6"/><text x="1862.6" y="84.0" text-anchor="middle" dominant-baseline="central" font-size="12.5" font-weight="600" fill="#1e293b">IP-VPN網</text><rect x="1796.2" y="284.0" width="132.8" height="46.0" rx="4" fill="#e8f0fe" stroke="#1a56b0" stroke-width="1.4"/><text x="1862.6" y="299.0" text-anchor="middle" dominant-baseline="central" font-size="12.5" font-weight="600" fill="#1e293b">hq-rt01</text><text x="1862.6" y="315.0" text-anchor="middle" dominant-baseline="central" font-size="12.5" font-weight="400" fill="#1e293b">Cisco ISR4451</text><rect x="1810.6" y="386.0" width="104.0" height="46.0" rx="4" fill="#fce8e6" stroke="#c5221f" stroke-width="1.4"/><text x="1862.6" y="401.0" text-anchor="middle" dominant-baseline="central" font-size="12.5" font-weight="600" fill="#1e293b">hq-fw01</text><text x="1862.6" y="417.0" text-anchor="middle" dominant-baseline="central" font-size="12.5" font-weight="400" fill="#1e293b">PA-3410</text><rect x="1183.6" y="284.0" width="132.8" height="46.0" rx="4" fill="#e8f0fe" stroke="#1a56b0" stroke-width="1.4"/><text x="1250.0" y="299.0" text-anchor="middle" dominant-baseline="central" font-size="12.5" font-weight="600" fill="#1e293b">hq-rt02</text><text x="1250.0" y="315.0" text-anchor="middle" dominant-baseline="central" font-size="12.5" font-weight="400" fill="#1e293b">Cisco ISR4451</text><rect x="1205.0" y="386.0" width="90.0" height="46.0" rx="4" fill="#fce8e6" stroke="#c5221f" stroke-width="1.4"/><text x="1250.0" y="401.0" text-anchor="middle" dominant-baseline="central" font-size="12.5" font-weight="600" fill="#1e293b">hq-fw02</text><text x="1250.0" y="417.0" text-anchor="middle" dominant-baseline="central" font-size="12.5" font-weight="400" fill="#1e293b">PA-3410</text><rect x="1285.0" y="494.0" width="312.0" height="46.0" rx="4" fill="#d2e3fc" stroke="#1a56b0" stroke-width="1.4"/><text x="1441.0" y="509.0" text-anchor="middle" dominant-baseline="central" font-size="12.5" font-weight="600" fill="#1e293b">hq-core01</text><text x="1441.0" y="525.0" text-anchor="middle" dominant-baseline="central" font-size="12.5" font-weight="400" fill="#1e293b">Catalyst 9500</text><rect x="1120.0" y="634.0" width="260.0" height="46.0" rx="4" fill="#d2e3fc" stroke="#1a56b0" stroke-width="1.4"/><text x="1250.0" y="649.0" text-anchor="middle" dominant-baseline="central" font-size="12.5" font-weight="600" fill="#1e293b">hq-core02</text><text x="1250.0" y="665.0" text-anchor="middle" dominant-baseline="central" font-size="12.5" font-weight="400" fill="#1e293b">Catalyst 9500</text><rect x="737.3" y="774.0" width="156.0" height="46.0" rx="4" fill="#d2e3fc" stroke="#1a56b0" stroke-width="1.4"/><text x="815.3" y="789.0" text-anchor="middle" dominant-baseline="central" font-size="12.5" font-weight="600" fill="#1e293b">hq-dist01</text><text x="815.3" y="805.0" text-anchor="middle" dominant-baseline="central" font-size="12.5" font-weight="400" fill="#1e293b">Catalyst 9300</text><rect x="1225.6" y="774.0" width="156.0" height="46.0" rx="4" fill="#d2e3fc" stroke="#1a56b0" stroke-width="1.4"/><text x="1303.6" y="789.0" text-anchor="middle" dominant-baseline="central" font-size="12.5" font-weight="600" fill="#1e293b">hq-dist02</text><text x="1303.6" y="805.0" text-anchor="middle" dominant-baseline="central" font-size="12.5" font-weight="400" fill="#1e293b">Catalyst 9300</text><rect x="1713.9" y="774.0" width="156.0" height="46.0" rx="4" fill="#d2e3fc" stroke="#1a56b0" stroke-width="1.4"/><text x="1791.9" y="789.0" text-anchor="middle" dominant-baseline="central" font-size="12.5" font-weight="600" fill="#1e293b">hq-dist03</text><text x="1791.9" y="805.0" text-anchor="middle" dominant-baseline="central" font-size="12.5" font-weight="400" fill="#1e293b">Catalyst 9300</text><rect x="2051.1" y="774.0" width="132.8" height="46.0" rx="4" fill="#d2e3fc" stroke="#1a56b0" stroke-width="1.4"/><text x="2117.5" y="789.0" text-anchor="middle" dominant-baseline="central" font-size="12.5" font-weight="600" fill="#1e293b">hq-dist04</text><text x="2117.5" y="805.0" text-anchor="middle" dominant-baseline="central" font-size="12.5" font-weight="400" fill="#1e293b">Catalyst 9300</text><rect x="586.1" y="882.0" width="132.8" height="46.0" rx="4" fill="#e6f4ea" stroke="#137333" stroke-width="1.4"/><text x="652.5" y="897.0" text-anchor="middle" dominant-baseline="central" font-size="12.5" font-weight="600" fill="#1e293b">hq-acc01</text><text x="652.5" y="913.0" text-anchor="middle" dominant-baseline="central" font-size="12.5" font-weight="400" fill="#1e293b">Catalyst 1000</text><rect x="748.9" y="882.0" width="132.8" height="46.0" rx="4" fill="#e6f4ea" stroke="#137333" stroke-width="1.4"/><text x="815.3" y="897.0" text-anchor="middle" dominant-baseline="central" font-size="12.5" font-weight="600" fill="#1e293b">hq-acc02</text><text x="815.3" y="913.0" text-anchor="middle" dominant-baseline="central" font-size="12.5" font-weight="400" fill="#1e293b">Catalyst 1000</text><rect x="911.7" y="882.0" width="132.8" height="46.0" rx="4" fill="#e6f4ea" stroke="#137333" stroke-width="1.4"/><text x="978.0" y="897.0" text-anchor="middle" dominant-baseline="central" font-size="12.5" font-weight="600" fill="#1e293b">hq-acc03</text><text x="978.0" y="913.0" text-anchor="middle" dominant-baseline="central" font-size="12.5" font-weight="400" fill="#1e293b">Catalyst 1000</text><rect x="1074.4" y="882.0" width="132.8" height="46.0" rx="4" fill="#e6f4ea" stroke="#137333" stroke-width="1.4"/><text x="1140.8" y="897.0" text-anchor="middle" dominant-baseline="central" font-size="12.5" font-weight="600" fill="#1e293b">hq-acc04</text><text x="1140.8" y="913.0" text-anchor="middle" dominant-baseline="central" font-size="12.5" font-weight="400" fill="#1e293b">Catalyst 1000</text><rect x="1237.2" y="882.0" width="132.8" height="46.0" rx="4" fill="#e6f4ea" stroke="#137333" stroke-width="1.4"/><text x="1303.6" y="897.0" text-anchor="middle" dominant-baseline="central" font-size="12.5" font-weight="600" fill="#1e293b">hq-acc05</text><text x="1303.6" y="913.0" text-anchor="middle" dominant-baseline="central" font-size="12.5" font-weight="400" fill="#1e293b">Catalyst 1000</text><rect x="1400.0" y="882.0" width="132.8" height="46.0" rx="4" fill="#e6f4ea" stroke="#137333" stroke-width="1.4"/><text x="1466.4" y="897.0" text-anchor="middle" dominant-baseline="central" font-size="12.5" font-weight="600" fill="#1e293b">hq-acc06</text><text x="1466.4" y="913.0" text-anchor="middle" dominant-baseline="central" font-size="12.5" font-weight="400" fill="#1e293b">Catalyst 1000</text><rect x="1562.8" y="882.0" width="132.8" height="46.0" rx="4" fill="#e6f4ea" stroke="#137333" stroke-width="1.4"/><text x="1629.2" y="897.0" text-anchor="middle" dominant-baseline="central" font-size="12.5" font-weight="600" fill="#1e293b">hq-acc07</text><text x="1629.2" y="913.0" text-anchor="middle" dominant-baseline="central" font-size="12.5" font-weight="400" fill="#1e293b">Catalyst 1000</text><rect x="1725.6" y="882.0" width="132.8" height="46.0" rx="4" fill="#e6f4ea" stroke="#137333" stroke-width="1.4"/><text x="1791.9" y="897.0" text-anchor="middle" dominant-baseline="central" font-size="12.5" font-weight="600" fill="#1e293b">hq-acc08</text><text x="1791.9" y="913.0" text-anchor="middle" dominant-baseline="central" font-size="12.5" font-weight="400" fill="#1e293b">Catalyst 1000</text><rect x="1888.3" y="882.0" width="132.8" height="46.0" rx="4" fill="#e6f4ea" stroke="#137333" stroke-width="1.4"/><text x="1954.7" y="897.0" text-anchor="middle" dominant-baseline="central" font-size="12.5" font-weight="600" fill="#1e293b">hq-acc09</text><text x="1954.7" y="913.0" text-anchor="middle" dominant-baseline="central" font-size="12.5" font-weight="400" fill="#1e293b">Catalyst 1000</text><rect x="2051.1" y="882.0" width="132.8" height="46.0" rx="4" fill="#e6f4ea" stroke="#137333" stroke-width="1.4"/><text x="2117.5" y="897.0" text-anchor="middle" dominant-baseline="central" font-size="12.5" font-weight="600" fill="#1e293b">hq-acc10</text><text x="2117.5" y="913.0" text-anchor="middle" dominant-baseline="central" font-size="12.5" font-weight="400" fill="#1e293b">Catalyst 1000</text><rect x="312.0" y="634.0" width="156.0" height="46.0" rx="4" fill="#e6f4ea" stroke="#137333" stroke-width="1.4"/><text x="390.0" y="649.0" text-anchor="middle" dominant-baseline="central" font-size="12.5" font-weight="600" fill="#1e293b">hq-srvsw01</text><text x="390.0" y="665.0" text-anchor="middle" dominant-baseline="central" font-size="12.5" font-weight="400" fill="#1e293b">Catalyst 9200</text><rect x="155.5" y="774.0" width="132.8" height="46.0" rx="4" fill="#e6f4ea" stroke="#137333" stroke-width="1.4"/><text x="221.8" y="789.0" text-anchor="middle" dominant-baseline="central" font-size="12.5" font-weight="600" fill="#1e293b">hq-srvsw02</text><text x="221.8" y="805.0" text-anchor="middle" dominant-baseline="central" font-size="12.5" font-weight="400" fill="#1e293b">Catalyst 9200</text><rect x="318.2" y="774.0" width="140.8" height="46.0" rx="4" fill="#f1f3f4" stroke="#5f6368" stroke-width="1.4"/><text x="388.7" y="789.0" text-anchor="middle" dominant-baseline="central" font-size="12.5" font-weight="600" fill="#1e293b">hq-srv01</text><text x="388.7" y="805.0" text-anchor="middle" dominant-baseline="central" font-size="12.5" font-weight="400" fill="#1e293b">PowerEdge R660</text><rect x="489.1" y="774.0" width="140.8" height="46.0" rx="4" fill="#f1f3f4" stroke="#5f6368" stroke-width="1.4"/><text x="559.5" y="789.0" text-anchor="middle" dominant-baseline="central" font-size="12.5" font-weight="600" fill="#1e293b">hq-srv02</text><text x="559.5" y="805.0" text-anchor="middle" dominant-baseline="central" font-size="12.5" font-weight="400" fill="#1e293b">PowerEdge R660</text><rect x="66.0" y="882.0" width="140.8" height="46.0" rx="4" fill="#f1f3f4" stroke="#5f6368" stroke-width="1.4"/><text x="136.4" y="897.0" text-anchor="middle" dominant-baseline="central" font-size="12.5" font-weight="600" fill="#1e293b">hq-srv03</text><text x="136.4" y="913.0" text-anchor="middle" dominant-baseline="central" font-size="12.5" font-weight="400" fill="#1e293b">PowerEdge R660</text><rect x="236.8" y="882.0" width="140.8" height="46.0" rx="4" fill="#f1f3f4" stroke="#5f6368" stroke-width="1.4"/><text x="307.3" y="897.0" text-anchor="middle" dominant-baseline="central" font-size="12.5" font-weight="600" fill="#1e293b">hq-srv04</text><text x="307.3" y="913.0" text-anchor="middle" dominant-baseline="central" font-size="12.5" font-weight="400" fill="#1e293b">PowerEdge R660</text><rect x="2217.8" y="494.0" width="132.8" height="46.0" rx="4" fill="#e6f4ea" stroke="#137333" stroke-width="1.4"/><text x="2284.2" y="509.0" text-anchor="middle" dominant-baseline="central" font-size="12.5" font-weight="600" fill="#1e293b">hq-dmzsw01</text><text x="2284.2" y="525.0" text-anchor="middle" dominant-baseline="central" font-size="12.5" font-weight="400" fill="#1e293b">Catalyst 1000</text><rect x="2152.5" y="634.0" width="116.7" height="46.0" rx="4" fill="#f1f3f4" stroke="#5f6368" stroke-width="1.4"/><text x="2210.8" y="649.0" text-anchor="middle" dominant-baseline="central" font-size="12.5" font-weight="600" fill="#1e293b">hq-dmzsrv01</text><text x="2210.8" y="665.0" text-anchor="middle" dominant-baseline="central" font-size="12.5" font-weight="400" fill="#1e293b">公開Web</text><rect x="2299.2" y="634.0" width="116.7" height="46.0" rx="4" fill="#f1f3f4" stroke="#5f6368" stroke-width="1.4"/><text x="2357.5" y="649.0" text-anchor="middle" dominant-baseline="central" font-size="12.5" font-weight="600" fill="#1e293b">hq-dmzsrv02</text><text x="2357.5" y="665.0" text-anchor="middle" dominant-baseline="central" font-size="12.5" font-weight="400" fill="#1e293b">公開DNS</text></svg>