<svg xmlns="http://www.w3.org/2000/svg" width="2120" height="1084" viewBox="0 0 2120 1084" font-family="'Segoe UI','Hiragino Sans','Noto Sans JP',Meiryo,sans-serif"><defs></defs><rect width="100%" height="100%" fill="#ffffff"/><text x="24" y="30" font-size="19" font-weight="700" fill="#1e293b">全社論理構成図</text><rect x="40.0" y="282.0" width="1263.1" height="762.0" rx="6" fill="#f7f9fc" stroke="#8fa8c4"/><text x="44.0" y="274.0" font-size="14.5" font-weight="600" fill="#33475b">本社</text><rect x="1359.1" y="282.0" width="391.9" height="354.0" rx="6" fill="#f7f9fc" stroke="#8fa8c4"/><text x="1363.1" y="274.0" font-size="14.5" font-weight="600" fill="#33475b">大阪支社</text><rect x="1807.0" y="282.0" width="273.4" height="246.0" rx="6" fill="#f7f9fc" stroke="#8fa8c4"/><text x="1811.0" y="274.0" font-size="14.5" font-weight="600" fill="#33475b">名古屋営業所</text><polygon class="domain-hull" points="542.2,522.0 631.8,318.0 995.6,318.0 995.6,404.0 994.6,780.0 694.6,780.0 542.2,624.0" fill="#e8710a" fill-opacity="0.09" stroke="#e8710a" stroke-opacity="0.35" stroke-width="1.2" stroke-linejoin="round"/><text x="637.8" y="312.0" font-size="14" font-weight="600" fill="#e8710a" opacity="0.85">OSPF Area 0 (バックボーン)</text><polygon class="domain-hull" points="54.1,834.0 542.2,522.0 894.2,522.0 994.6,678.0 1053.7,834.0 1053.7,936.0 54.1,936.0" fill="#0b8043" fill-opacity="0.09" stroke="#0b8043" stroke-opacity="0.35" stroke-width="1.2" stroke-linejoin="round"/><text x="548.2" y="516.0" font-size="14" font-weight="600" fill="#0b8043" opacity="0.85">OSPF Area 1 (本社アクセス)</text><polygon class="domain-hull" points="1373.1,426.0 1409.4,318.0 1745.0,318.0 1745.0,404.0 1618.5,528.0 1373.1,528.0" fill="#8430ce" fill-opacity="0.09" stroke="#8430ce" stroke-opacity="0.35" stroke-width="1.2" stroke-linejoin="round"/><text x="1415.4" y="312.0" font-size="14" font-weight="600" fill="#8430ce" opacity="0.85">OSPF Area 2 (大阪)</text><polyline points="718.2,384.0 718.2,440.0" fill="none" stroke="#e8710a" stroke-width="2.0" opacity="1.0" stroke-dasharray="3 3"></polyline><polyline points="909.2,384.0 909.2,440.0" fill="none" stroke="#e8710a" stroke-width="2.0" opacity="1.0" stroke-dasharray="3 3"></polyline><polyline points="718.2,486.0 718.2,542.0" fill="none" stroke="#e8710a" stroke-width="2.0" opacity="1.0" stroke-dasharray="3 3"></polyline><polyline points="909.2,486.0 909.2,573.0 909.2,626.0 887.9,626.0 887.9,698.0" fill="none" stroke="#e8710a" stroke-width="2.0" opacity="1.0" stroke-dasharray="3 3"></polyline><polyline points="740.5,604.0 740.5,626.0 801.3,626.0 801.3,698.0" fill="none" stroke="#e8710a" stroke-width="2.0" opacity="1.0" stroke-dasharray="3 3"></polyline><polyline points="606.7,604.0 606.7,626.0 176.7,626.0 176.7,729.0 176.7,782.0 142.5,782.0 142.5,854.0" fill="none" stroke="#0b8043" stroke-width="2.0" opacity="1.0" stroke-dasharray="3 3"></polyline><polyline points="757.9,760.0 757.9,782.0 210.9,782.0 210.9,854.0" fill="none" stroke="#0b8043" stroke-width="2.0" opacity="1.0" stroke-dasharray="3 3"></polyline><polyline points="651.3,604.0 651.3,642.0 428.2,642.0 428.2,729.0 428.2,798.0 393.9,798.0 393.9,854.0" fill="none" stroke="#0b8043" stroke-width="2.0" opacity="1.0" stroke-dasharray="3 3"></polyline><polyline points="801.3,760.0 801.3,798.0 462.4,798.0 462.4,854.0" fill="none" stroke="#0b8043" stroke-width="2.0" opacity="1.0" stroke-dasharray="3 3"></polyline><polyline points="695.9,604.0 695.9,626.0 679.6,626.0 679.6,729.0 679.6,814.0 645.4,814.0 645.4,854.0" fill="none" stroke="#0b8043" stroke-width="2.0" opacity="1.0" stroke-dasharray="3 3"></polyline><polyline points="844.6,760.0 844.6,814.0 713.8,814.0 713.8,854.0" fill="none" stroke="#0b8043" stroke-width="2.0" opacity="1.0" stroke-dasharray="3 3"></polyline><polyline points="785.0,604.0 785.0,642.0 1009.6,642.0 1009.6,729.0 1009.6,782.0 965.3,782.0 965.3,854.0" fill="none" stroke="#0b8043" stroke-width="2.0" opacity="1.0" stroke-dasharray="3 3"></polyline><polyline points="887.9,760.0 887.9,782.0 896.8,782.0 896.8,854.0" fill="none" stroke="#0b8043" stroke-width="2.0" opacity="1.0" stroke-dasharray="3 3"></polyline><polyline points="829.6,604.0 829.6,658.0 1170.4,658.0 1170.4,729.0 1170.4,782.0 1206.0,782.0 1206.0,854.0" fill="none" stroke="#0f766e" stroke-width="1.5" opacity="1.0"></polyline><text x="833.6" y="617.0" font-size="10.5" font-style="italic" fill="#5f6368" opacity="1.0">Vlan20</text><polyline points="931.3,760.0 931.3,798.0 1134.8,798.0 1134.8,854.0" fill="none" stroke="#0f766e" stroke-width="1.5" opacity="1.0"></polyline><text x="935.3" y="773.0" font-size="10.5" font-style="italic" fill="#5f6368" opacity="1.0">Vlan20</text><polyline points="176.7,916.0 176.7,972.0" fill="none" stroke="#0f766e" stroke-width="1.5" opacity="1.0"></polyline><text x="180.7" y="929.0" font-size="10.5" font-style="italic" fill="#5f6368" opacity="1.0">Vlan101</text><polyline points="428.2,916.0 428.2,972.0" fill="none" stroke="#0f766e" stroke-width="1.5" opacity="1.0"></polyline><text x="432.2" y="929.0" font-size="10.5" font-style="italic" fill="#5f6368" opacity="1.0">Vlan102</text><polyline points="679.6,916.0 679.6,972.0" fill="none" stroke="#0f766e" stroke-width="1.5" opacity="1.0"></polyline><text x="683.6" y="929.0" font-size="10.5" font-style="italic" fill="#5f6368" opacity="1.0">Vlan103</text><polyline points="931.0,916.0 931.0,972.0" fill="none" stroke="#0f766e" stroke-width="1.5" opacity="1.0"></polyline><text x="935.0" y="929.0" font-size="10.5" font-style="italic" fill="#5f6368" opacity="1.0">Vlan104</text><polyline points="1495.8,384.0 1495.8,406.0 1461.6,406.0 1461.6,446.0" fill="none" stroke="#8430ce" stroke-width="2.0" opacity="1.0" stroke-dasharray="3 3"></polyline><polyline points="1658.6,384.0 1658.6,406.0 1530.0,406.0 1530.0,446.0" fill="none" stroke="#8430ce" stroke-width="2.0" opacity="1.0" stroke-dasharray="3 3"></polyline><polyline points="1495.8,508.0 1495.8,564.0" fill="none" stroke="#0f766e" stroke-width="1.5" opacity="1.0"></polyline><text x="1499.8" y="521.0" font-size="10.5" font-style="italic" fill="#5f6368" opacity="1.0">Vlan100</text><polyline points="1943.7,400.0 1943.7,456.0" fill="none" stroke="#0f766e" stroke-width="1.5" opacity="1.0"></polyline><text x="1947.7" y="413.0" font-size="10.5" font-style="italic" fill="#5f6368" opacity="1.0">Vlan100</text><polyline points="1174.0,122.0 1174.0,140.0 696.0,140.0 696.0,338.0" fill="none" stroke="#188038" stroke-width="2.0" opacity="1.0" stroke-dasharray="3 3"></polyline><rect x="678.4" y="186.0" width="35.2" height="24.0" rx="4" fill="#ffffff" fill-opacity="0.92" opacity="1.0"/><text x="696.0" y="199.0" text-anchor="middle" font-size="12" font-style="italic" font-weight="400" fill="#5f6368" opacity="1.0">BGP</text><polyline points="1234.0,122.0 1234.0,140.0 1495.8,140.0 1495.8,338.0" fill="none" stroke="#188038" stroke-width="2.0" opacity="1.0" stroke-dasharray="3 3"></polyline><polyline points="1204.0,122.0 1204.0,158.0 740.3,158.0 740.3,338.0" fill="none" stroke="#188038" stroke-width="2.0" opacity="1.0" stroke-dasharray="3 3"></polyline><rect x="722.7" y="222.0" width="35.2" height="24.0" rx="4" fill="#ffffff" fill-opacity="0.92" opacity="1.0"/><text x="740.3" y="235.0" text-anchor="middle" font-size="12" font-style="italic" font-weight="400" fill="#5f6368" opacity="1.0">BGP</text><polyline points="1264.0,122.0 1264.0,158.0 1943.7,158.0 1943.7,338.0" fill="none" stroke="#188038" stroke-width="2.0" opacity="1.0" stroke-dasharray="3 3"></polyline><rect x="1841.7" y="42.0" width="258.7" height="90" rx="8" fill="#ffffff" stroke="#c3ccd6"/><text x="1853.7" y="61.0" font-size="12" fill="#64748b">凡例</text><line x1="1853.7" y1="76.0" x2="1881.7" y2="76.0" stroke="#e8710a" stroke-width="3"/><text x="1889.7" y="80.0" font-size="12.5" fill="#1e293b">OSPF Area 0 (バックボーン)</text><line x1="1853.7" y1="96.0" x2="1881.7" y2="96.0" stroke="#0b8043" stroke-width="3"/><text x="1889.7" y="100.0" font-size="12.5" fill="#1e293b">OSPF Area 1 (本社アクセス)</text><line x1="1853.7" y1="116.0" x2="1881.7" y2="116.0" stroke="#8430ce" stroke-width="3"/><text x="1889.7" y="120.0" font-size="12.5" fill="#1e293b">OSPF Area 2 (大阪)</text><ellipse cx="1219.0" cy="84.0" rx="75.0" ry="38.0" fill="#f1f3f4" stroke="#5f6368" stroke-width="1.6"/><text x="1219.0" y="84.0" text-anchor="middle" dominant-baseline="central" font-size="12.5" font-weight="600" fill="#1e293b">IP-VPN網</text><rect x="651.8" y="338.0" width="132.8" height="46.0" rx="4" fill="#e8f0fe" stroke="#1a56b0" stroke-width="1.4"/><text x="718.2" y="353.0" text-anchor="middle" dominant-baseline="central" font-size="12.5" font-weight="600" fill="#1e293b">hq-rt01</text><text x="718.2" y="369.0" text-anchor="middle" dominant-baseline="central" font-size="12.5" font-weight="400" fill="#1e293b">Cisco ISR4451</text><rect x="673.2" y="440.0" width="90.0" height="46.0" rx="4" fill="#fce8e6" stroke="#c5221f" stroke-width="1.4"/><text x="718.2" y="455.0" text-anchor="middle" dominant-baseline="central" font-size="12.5" font-weight="600" fill="#1e293b">hq-fw01</text><text x="718.2" y="471.0" text-anchor="middle" dominant-baseline="central" font-size="12.5" font-weight="400" fill="#1e293b">PA-3410</text><rect x="842.8" y="338.0" width="132.8" height="46.0" rx="4" fill="#e8f0fe" stroke="#1a56b0" stroke-width="1.4"/><text x="909.2" y="353.0" text-anchor="middle" dominant-baseline="central" font-size="12.5" font-weight="600" fill="#1e293b">hq-rt02</text><text x="909.2" y="369.0" text-anchor="middle" dominant-baseline="central" font-size="12.5" font-weight="400" fill="#1e293b">Cisco ISR4451</text><rect x="864.2" y="440.0" width="90.0" height="46.0" rx="4" fill="#fce8e6" stroke="#c5221f" stroke-width="1.4"/><text x="909.2" y="455.0" text-anchor="middle" dominant-baseline="central" font-size="12.5" font-weight="600" fill="#1e293b">hq-fw02</text><text x="909.2" y="471.0" text-anchor="middle" dominant-baseline="central" font-size="12.5" font-weight="400" fill="#1e293b">PA-3410</text><rect x="562.2" y="542.0" width="312.0" height="62.0" rx="4" fill="#d2e3fc" stroke="#1a56b0" stroke-width="1.4"/><text x="718.2" y="557.0" text-anchor="middle" dominant-baseline="central" font-size="12.5" font-weight="600" fill="#1e293b">hq-core01</text><text x="718.2" y="573.0" text-anchor="middle" dominant-baseline="central" font-size="12.5" font-weight="400" fill="#1e293b">Catalyst 9500</text><text x="718.2" y="589.0" text-anchor="middle" dominant-baseline="central" font-size="12.5" font-weight="400" fill="#1e293b">Vlan20: 10.50.20.2/24</text><rect x="714.6" y="698.0" width="260.0" height="62.0" rx="4" fill="#d2e3fc" stroke="#1a56b0" stroke-width="1.4"/><text x="844.6" y="713.0" text-anchor="middle" dominant-baseline="central" font-size="12.5" font-weight="600" fill="#1e293b">hq-core02</text><text x="844.6" y="729.0" text-anchor="middle" dominant-baseline="central" font-size="12.5" font-weight="400" fill="#1e293b">Catalyst 9500</text><text x="844.6" y="745.0" text-anchor="middle" dominant-baseline="central" font-size="12.5" font-weight="400" fill="#1e293b">Vlan20: 10.50.20.3/24</text><rect x="74.1" y="854.0" width="205.3" height="62.0" rx="4" fill="#d2e3fc" stroke="#1a56b0" stroke-width="1.4"/><text x="176.7" y="869.0" text-anchor="middle" dominant-baseline="central" font-size="12.5" font-weight="600" fill="#1e293b">hq-dist01</text><text x="176.7" y="885.0" text-anchor="middle" dominant-baseline="central" font-size="12.5" font-weight="400" fill="#1e293b">Catalyst 9300</text><text x="176.7" y="901.0" text-anchor="middle" dominant-baseline="central" font-size="12.5" font-weight="400" fill="#1e293b">Vlan101: 10.50.11.1/24</text><rect x="325.5" y="854.0" width="205.3" height="62.0" rx="4" fill="#d2e3fc" stroke="#1a56b0" stroke-width="1.4"/><text x="428.2" y="869.0" text-anchor="middle" dominant-baseline="central" font-size="12.5" font-weight="600" fill="#1e293b">hq-dist02</text><text x="428.2" y="885.0" text-anchor="middle" dominant-baseline="central" font-size="12.5" font-weight="400" fill="#1e293b">Catalyst 9300</text><text x="428.2" y="901.0" text-anchor="middle" dominant-baseline="central" font-size="12.5" font-weight="400" fill="#1e293b">Vlan102: 10.50.12.1/24</text><rect x="576.9" y="854.0" width="205.3" height="62.0" rx="4" fill="#d2e3fc" stroke="#1a56b0" stroke-width="1.4"/><text x="679.6" y="869.0" text-anchor="middle" dominant-baseline="central" font-size="12.5" font-weight="600" fill="#1e293b">hq-dist03</text><text x="679.6" y="885.0" text-anchor="middle" dominant-baseline="central" font-size="12.5" font-weight="400" fill="#1e293b">Catalyst 9300</text><text x="679.6" y="901.0" text-anchor="middle" dominant-baseline="central" font-size="12.5" font-weight="400" fill="#1e293b">Vlan103: 10.50.13.1/24</text><rect x="828.4" y="854.0" width="205.3" height="62.0" rx="4" fill="#d2e3fc" stroke="#1a56b0" stroke-width="1.4"/><text x="931.0" y="869.0" text-anchor="middle" dominant-baseline="central" font-size="12.5" font-weight="600" fill="#1e293b">hq-dist04</text><text x="931.0" y="885.0" text-anchor="middle" dominant-baseline="central" font-size="12.5" font-weight="400" fill="#1e293b">Catalyst 9300</text><text x="931.0" y="901.0" text-anchor="middle" dominant-baseline="central" font-size="12.5" font-weight="400" fill="#1e293b">Vlan104: 10.50.14.1/24</text><rect x="1063.7" y="854.0" width="213.4" height="46.0" rx="4" fill="#e2f5f0" stroke="#0f766e" stroke-width="1.4"/><text x="1170.4" y="869.0" text-anchor="middle" dominant-baseline="central" font-size="12.5" font-weight="600" fill="#1e293b">本社サーバ</text><text x="1170.4" y="885.0" text-anchor="middle" dominant-baseline="central" font-size="12.5" font-weight="400" fill="#1e293b">VLAN 20 / 10.50.20.0/24</text><rect x="66.0" y="972.0" width="221.4" height="46.0" rx="4" fill="#e2f5f0" stroke="#0f766e" stroke-width="1.4"/><text x="176.7" y="987.0" text-anchor="middle" dominant-baseline="central" font-size="12.5" font-weight="600" fill="#1e293b">本社1Fユーザ</text><text x="176.7" y="1003.0" text-anchor="middle" dominant-baseline="central" font-size="12.5" font-weight="400" fill="#1e293b">VLAN 101 / 10.50.11.0/24</text><rect x="317.4" y="972.0" width="221.4" height="46.0" rx="4" fill="#e2f5f0" stroke="#0f766e" stroke-width="1.4"/><text x="428.2" y="987.0" text-anchor="middle" dominant-baseline="central" font-size="12.5" font-weight="600" fill="#1e293b">本社2Fユーザ</text><text x="428.2" y="1003.0" text-anchor="middle" dominant-baseline="central" font-size="12.5" font-weight="400" fill="#1e293b">VLAN 102 / 10.50.12.0/24</text><rect x="568.9" y="972.0" width="221.4" height="46.0" rx="4" fill="#e2f5f0" stroke="#0f766e" stroke-width="1.4"/><text x="679.6" y="987.0" text-anchor="middle" dominant-baseline="central" font-size="12.5" font-weight="600" fill="#1e293b">本社3Fユーザ</text><text x="679.6" y="1003.0" text-anchor="middle" dominant-baseline="central" font-size="12.5" font-weight="400" fill="#1e293b">VLAN 103 / 10.50.13.0/24</text><rect x="820.3" y="972.0" width="221.4" height="46.0" rx="4" fill="#e2f5f0" stroke="#0f766e" stroke-width="1.4"/><text x="931.0" y="987.0" text-anchor="middle" dominant-baseline="central" font-size="12.5" font-weight="600" fill="#1e293b">本社4Fユーザ</text><text x="931.0" y="1003.0" text-anchor="middle" dominant-baseline="central" font-size="12.5" font-weight="400" fill="#1e293b">VLAN 104 / 10.50.14.0/24</text><rect x="1429.4" y="338.0" width="132.8" height="46.0" rx="4" fill="#e8f0fe" stroke="#1a56b0" stroke-width="1.4"/><text x="1495.8" y="353.0" text-anchor="middle" dominant-baseline="central" font-size="12.5" font-weight="600" fill="#1e293b">osk-rt01</text><text x="1495.8" y="369.0" text-anchor="middle" dominant-baseline="central" font-size="12.5" font-weight="400" fill="#1e293b">Cisco ISR4331</text><rect x="1393.1" y="446.0" width="205.3" height="62.0" rx="4" fill="#d2e3fc" stroke="#1a56b0" stroke-width="1.4"/><text x="1495.8" y="461.0" text-anchor="middle" dominant-baseline="central" font-size="12.5" font-weight="600" fill="#1e293b">osk-core01</text><text x="1495.8" y="477.0" text-anchor="middle" dominant-baseline="central" font-size="12.5" font-weight="400" fill="#1e293b">Catalyst 9300</text><text x="1495.8" y="493.0" text-anchor="middle" dominant-baseline="central" font-size="12.5" font-weight="400" fill="#1e293b">Vlan100: 10.51.10.1/24</text><rect x="1592.2" y="338.0" width="132.8" height="46.0" rx="4" fill="#e8f0fe" stroke="#1a56b0" stroke-width="1.4"/><text x="1658.6" y="353.0" text-anchor="middle" dominant-baseline="central" font-size="12.5" font-weight="600" fill="#1e293b">osk-rt02</text><text x="1658.6" y="369.0" text-anchor="middle" dominant-baseline="central" font-size="12.5" font-weight="400" fill="#1e293b">Cisco ISR4331</text><rect x="1385.1" y="564.0" width="221.4" height="46.0" rx="4" fill="#e2f5f0" stroke="#0f766e" stroke-width="1.4"/><text x="1495.8" y="579.0" text-anchor="middle" dominant-baseline="central" font-size="12.5" font-weight="600" fill="#1e293b">大阪ユーザ</text><text x="1495.8" y="595.0" text-anchor="middle" dominant-baseline="central" font-size="12.5" font-weight="400" fill="#1e293b">VLAN 100 / 10.51.10.0/24</text><rect x="1841.0" y="338.0" width="205.3" height="62.0" rx="4" fill="#e8f0fe" stroke="#1a56b0" stroke-width="1.4"/><text x="1943.7" y="353.0" text-anchor="middle" dominant-baseline="central" font-size="12.5" font-weight="600" fill="#1e293b">ngy-rt01</text><text x="1943.7" y="369.0" text-anchor="middle" dominant-baseline="central" font-size="12.5" font-weight="400" fill="#1e293b">Cisco ISR1100</text><text x="1943.7" y="385.0" text-anchor="middle" dominant-baseline="central" font-size="12.5" font-weight="400" fill="#1e293b">Vlan100: 10.52.10.1/24</text><rect x="1833.0" y="456.0" width="221.4" height="46.0" rx="4" fill="#e2f5f0" stroke="#0f766e" stroke-width="1.4"/><text x="1943.7" y="471.0" text-anchor="middle" dominant-baseline="central" font-size="12.5" font-weight="600" fill="#1e293b">名古屋ユーザ</text><text x="1943.7" y="487.0" text-anchor="middle" dominant-baseline="central" font-size="12.5" font-weight="400" fill="#1e293b">VLAN 100 / 10.52.10.0/24</text></svg>