<svg xmlns="http://www.w3.org/2000/svg" width="2120" height="954" viewBox="0 0 2120 954" font-family="'Segoe UI','Hiragino Sans','Noto Sans JP',Meiryo,sans-serif"><defs></defs><rect width="100%" height="100%" fill="#ffffff"/><text x="24" y="30" font-size="19" font-weight="700" fill="#1e293b">全社論理構成図</text><rect x="40.0" y="152.0" width="1263.1" height="762.0" rx="6" fill="#f7f9fc" stroke="#8fa8c4"/><text x="44.0" y="144.0" font-size="14.5" font-weight="600" fill="#33475b">本社</text><rect x="1359.1" y="152.0" width="391.9" height="354.0" rx="6" fill="#f7f9fc" stroke="#8fa8c4"/><text x="1363.1" y="144.0" font-size="14.5" font-weight="600" fill="#33475b">大阪支社</text><rect x="1807.0" y="152.0" width="273.4" height="246.0" rx="6" fill="#f7f9fc" stroke="#8fa8c4"/><text x="1811.0" y="144.0" font-size="14.5" font-weight="600" fill="#33475b">名古屋営業所</text><polygon class="domain-hull" points="542.2,392.0 631.8,188.0 995.6,188.0 995.6,274.0 994.6,650.0 694.6,650.0 542.2,494.0" fill="#e8710a" fill-opacity="0.07" stroke="#e8710a" stroke-opacity="0.10" stroke-width="36" stroke-linejoin="round"/><text x="637.8" y="182.0" font-size="14" font-weight="600" fill="#e8710a" opacity="0.85">OSPF Area 0 (バックボーン)</text><polygon class="domain-hull" points="54.1,704.0 542.2,392.0 894.2,392.0 994.6,548.0 1053.7,704.0 1053.7,806.0 54.1,806.0" fill="#0b8043" fill-opacity="0.07" stroke="#0b8043" stroke-opacity="0.10" stroke-width="36" stroke-linejoin="round"/><text x="548.2" y="386.0" font-size="14" font-weight="600" fill="#0b8043" opacity="0.85">OSPF Area 1 (本社アクセス)</text><polygon class="domain-hull" points="1373.1,296.0 1409.4,188.0 1745.0,188.0 1745.0,274.0 1618.5,398.0 1373.1,398.0" fill="#8430ce" fill-opacity="0.07" stroke="#8430ce" stroke-opacity="0.10" stroke-width="36" stroke-linejoin="round"/><text x="1415.4" y="182.0" font-size="14" font-weight="600" fill="#8430ce" opacity="0.85">OSPF Area 2 (大阪)</text><polyline points="718.2,254.0 718.2,310.0" fill="none" stroke="#e8710a" stroke-width="2.0" opacity="1.0" stroke-dasharray="3 3"></polyline><polyline points="909.2,254.0 909.2,310.0" fill="none" stroke="#e8710a" stroke-width="2.0" opacity="1.0" stroke-dasharray="3 3"></polyline><polyline points="718.2,356.0 718.2,412.0" fill="none" stroke="#e8710a" stroke-width="2.0" opacity="1.0" stroke-dasharray="3 3"></polyline><polyline points="909.2,356.0 909.2,443.0 909.2,496.0 887.9,496.0 887.9,568.0" fill="none" stroke="#e8710a" stroke-width="2.0" opacity="1.0" stroke-dasharray="3 3"></polyline><polyline points="740.5,474.0 740.5,496.0 801.3,496.0 801.3,568.0" fill="none" stroke="#e8710a" stroke-width="2.0" opacity="1.0" stroke-dasharray="3 3"></polyline><polyline points="606.7,474.0 606.7,496.0 176.7,496.0 176.7,599.0 176.7,652.0 142.5,652.0 142.5,724.0" fill="none" stroke="#0b8043" stroke-width="2.0" opacity="1.0" stroke-dasharray="3 3"></polyline><polyline points="757.9,630.0 757.9,652.0 210.9,652.0 210.9,724.0" fill="none" stroke="#0b8043" stroke-width="2.0" opacity="1.0" stroke-dasharray="3 3"></polyline><polyline points="651.3,474.0 651.3,512.0 428.2,512.0 428.2,599.0 428.2,668.0 393.9,668.0 393.9,724.0" fill="none" stroke="#0b8043" stroke-width="2.0" opacity="1.0" stroke-dasharray="3 3"></polyline><polyline points="801.3,630.0 801.3,668.0 462.4,668.0 462.4,724.0" fill="none" stroke="#0b8043" stroke-width="2.0" opacity="1.0" stroke-dasharray="3 3"></polyline><polyline points="695.9,474.0 695.9,496.0 679.6,496.0 679.6,599.0 679.6,684.0 645.4,684.0 645.4,724.0" fill="none" stroke="#0b8043" stroke-width="2.0" opacity="1.0" stroke-dasharray="3 3"></polyline><polyline points="844.6,630.0 844.6,684.0 713.8,684.0 713.8,724.0" fill="none" stroke="#0b8043" stroke-width="2.0" opacity="1.0" stroke-dasharray="3 3"></polyline><polyline points="785.0,474.0 785.0,512.0 1009.6,512.0 1009.6,599.0 1009.6,652.0 965.3,652.0 965.3,724.0" fill="none" stroke="#0b8043" stroke-width="2.0" opacity="1.0" stroke-dasharray="3 3"></polyline><polyline points="887.9,630.0 887.9,652.0 896.8,652.0 896.8,724.0" fill="none" stroke="#0b8043" stroke-width="2.0" opacity="1.0" stroke-dasharray="3 3"></polyline><polyline points="829.6,474.0 829.6,528.0 1170.4,528.0 1170.4,599.0 1170.4,652.0 1206.0,652.0 1206.0,724.0" fill="none" stroke="#0f766e" stroke-width="1.5" opacity="1.0"></polyline><text x="833.6" y="487.0" font-size="10.5" font-style="italic" fill="#5f6368" opacity="1.0">Vlan20</text><polyline points="931.3,630.0 931.3,668.0 1134.8,668.0 1134.8,724.0" fill="none" stroke="#0f766e" stroke-width="1.5" opacity="1.0"></polyline><text x="935.3" y="643.0" font-size="10.5" font-style="italic" fill="#5f6368" opacity="1.0">Vlan20</text><polyline points="176.7,786.0 176.7,842.0" fill="none" stroke="#0f766e" stroke-width="1.5" opacity="1.0"></polyline><text x="180.7" y="799.0" font-size="10.5" font-style="italic" fill="#5f6368" opacity="1.0">Vlan101</text><polyline points="428.2,786.0 428.2,842.0" fill="none" stroke="#0f766e" stroke-width="1.5" opacity="1.0"></polyline><text x="432.2" y="799.0" font-size="10.5" font-style="italic" fill="#5f6368" opacity="1.0">Vlan102</text><polyline points="679.6,786.0 679.6,842.0" fill="none" stroke="#0f766e" stroke-width="1.5" opacity="1.0"></polyline><text x="683.6" y="799.0" font-size="10.5" font-style="italic" fill="#5f6368" opacity="1.0">Vlan103</text><polyline points="931.0,786.0 931.0,842.0" fill="none" stroke="#0f766e" stroke-width="1.5" opacity="1.0"></polyline><text x="935.0" y="799.0" font-size="10.5" font-style="italic" fill="#5f6368" opacity="1.0">Vlan104</text><polyline points="1495.8,254.0 1495.8,276.0 1461.6,276.0 1461.6,316.0" fill="none" stroke="#8430ce" stroke-width="2.0" opacity="1.0" stroke-dasharray="3 3"></polyline><polyline points="1658.6,254.0 1658.6,276.0 1530.0,276.0 1530.0,316.0" fill="none" stroke="#8430ce" stroke-width="2.0" opacity="1.0" stroke-dasharray="3 3"></polyline><polyline points="1495.8,378.0 1495.8,434.0" fill="none" stroke="#0f766e" stroke-width="1.5" opacity="1.0"></polyline><text x="1499.8" y="391.0" font-size="10.5" font-style="italic" fill="#5f6368" opacity="1.0">Vlan100</text><polyline points="1943.7,270.0 1943.7,326.0" fill="none" stroke="#0f766e" stroke-width="1.5" opacity="1.0"></polyline><text x="1947.7" y="283.0" font-size="10.5" font-style="italic" fill="#5f6368" opacity="1.0">Vlan100</text><polyline points="696.0,208.0 696.0,46.0 1495.8,46.0 1495.8,208.0" fill="none" stroke="#188038" stroke-width="2.0" opacity="1.0" stroke-dasharray="3 3"></polyline><rect x="1078.3" y="92.0" width="35.2" height="24.0" rx="4" fill="#ffffff" fill-opacity="0.92" opacity="1.0"/><text x="1095.9" y="105.0" text-anchor="middle" font-size="12" font-style="italic" font-weight="400" fill="#5f6368" opacity="1.0">BGP</text><polyline points="740.3,208.0 740.3,64.0 1943.7,64.0 1943.7,208.0" fill="none" stroke="#188038" stroke-width="2.0" opacity="1.0" stroke-dasharray="3 3"></polyline><rect x="1324.4" y="92.0" width="35.2" height="24.0" rx="4" fill="#ffffff" fill-opacity="0.92" opacity="1.0"/><text x="1342.0" y="105.0" text-anchor="middle" font-size="12" font-style="italic" font-weight="400" fill="#5f6368" opacity="1.0">BGP</text><rect x="1841.7" y="42.0" width="258.7" height="90" rx="8" fill="#ffffff" stroke="#c3ccd6"/><text x="1853.7" y="61.0" font-size="12" fill="#64748b">凡例</text><line x1="1853.7" y1="76.0" x2="1881.7" y2="76.0" stroke="#e8710a" stroke-width="3"/><text x="1889.7" y="80.0" font-size="12.5" fill="#1e293b">OSPF Area 0 (バックボーン)</text><line x1="1853.7" y1="96.0" x2="1881.7" y2="96.0" stroke="#0b8043" stroke-width="3"/><text x="1889.7" y="100.0" font-size="12.5" fill="#1e293b">OSPF Area 1 (本社アクセス)</text><line x1="1853.7" y1="116.0" x2="1881.7" y2="116.0" stroke="#8430ce" stroke-width="3"/><text x="1889.7" y="120.0" font-size="12.5" fill="#1e293b">OSPF Area 2 (大阪)</text><rect x="651.8" y="208.0" width="132.8" height="46.0" rx="4" fill="#e8f0fe" stroke="#1a56b0" stroke-width="1.4"/><text x="718.2" y="223.0" text-anchor="middle" dominant-baseline="central" font-size="12.5" font-weight="600" fill="#1e293b">hq-rt01</text><text x="718.2" y="239.0" text-anchor="middle" dominant-baseline="central" font-size="12.5" font-weight="400" fill="#1e293b">Cisco ISR4451</text><rect x="673.2" y="310.0" width="90.0" height="46.0" rx="4" fill="#fce8e6" stroke="#c5221f" stroke-width="1.4"/><text x="718.2" y="325.0" text-anchor="middle" dominant-baseline="central" font-size="12.5" font-weight="600" fill="#1e293b">hq-fw01</text><text x="718.2" y="341.0" text-anchor="middle" dominant-baseline="central" font-size="12.5" font-weight="400" fill="#1e293b">PA-3410</text><rect x="842.8" y="208.0" width="132.8" height="46.0" rx="4" fill="#e8f0fe" stroke="#1a56b0" stroke-width="1.4"/><text x="909.2" y="223.0" text-anchor="middle" dominant-baseline="central" font-size="12.5" font-weight="600" fill="#1e293b">hq-rt02</text><text x="909.2" y="239.0" text-anchor="middle" dominant-baseline="central" font-size="12.5" font-weight="400" fill="#1e293b">Cisco ISR4451</text><rect x="864.2" y="310.0" width="90.0" height="46.0" rx="4" fill="#fce8e6" stroke="#c5221f" stroke-width="1.4"/><text x="909.2" y="325.0" text-anchor="middle" dominant-baseline="central" font-size="12.5" font-weight="600" fill="#1e293b">hq-fw02</text><text x="909.2" y="341.0" text-anchor="middle" dominant-baseline="central" font-size="12.5" font-weight="400" fill="#1e293b">PA-3410</text><rect x="562.2" y="412.0" width="312.0" height="62.0" rx="4" fill="#d2e3fc" stroke="#1a56b0" stroke-width="1.4"/><text x="718.2" y="427.0" text-anchor="middle" dominant-baseline="central" font-size="12.5" font-weight="600" fill="#1e293b">hq-core01</text><text x="718.2" y="443.0" text-anchor="middle" dominant-baseline="central" font-size="12.5" font-weight="400" fill="#1e293b">Catalyst 9500</text><text x="718.2" y="459.0" text-anchor="middle" dominant-baseline="central" font-size="12.5" font-weight="400" fill="#1e293b">Vlan20: 10.50.20.2/24</text><rect x="714.6" y="568.0" width="260.0" height="62.0" rx="4" fill="#d2e3fc" stroke="#1a56b0" stroke-width="1.4"/><text x="844.6" y="583.0" text-anchor="middle" dominant-baseline="central" font-size="12.5" font-weight="600" fill="#1e293b">hq-core02</text><text x="844.6" y="599.0" text-anchor="middle" dominant-baseline="central" font-size="12.5" font-weight="400" fill="#1e293b">Catalyst 9500</text><text x="844.6" y="615.0" text-anchor="middle" dominant-baseline="central" font-size="12.5" font-weight="400" fill="#1e293b">Vlan20: 10.50.20.3/24</text><rect x="74.1" y="724.0" width="205.3" height="62.0" rx="4" fill="#d2e3fc" stroke="#1a56b0" stroke-width="1.4"/><text x="176.7" y="739.0" text-anchor="middle" dominant-baseline="central" font-size="12.5" font-weight="600" fill="#1e293b">hq-dist01</text><text x="176.7" y="755.0" text-anchor="middle" dominant-baseline="central" font-size="12.5" font-weight="400" fill="#1e293b">Catalyst 9300</text><text x="176.7" y="771.0" text-anchor="middle" dominant-baseline="central" font-size="12.5" font-weight="400" fill="#1e293b">Vlan101: 10.50.11.1/24</text><rect x="325.5" y="724.0" width="205.3" height="62.0" rx="4" fill="#d2e3fc" stroke="#1a56b0" stroke-width="1.4"/><text x="428.2" y="739.0" text-anchor="middle" dominant-baseline="central" font-size="12.5" font-weight="600" fill="#1e293b">hq-dist02</text><text x="428.2" y="755.0" text-anchor="middle" dominant-baseline="central" font-size="12.5" font-weight="400" fill="#1e293b">Catalyst 9300</text><text x="428.2" y="771.0" text-anchor="middle" dominant-baseline="central" font-size="12.5" font-weight="400" fill="#1e293b">Vlan102: 10.50.12.1/24</text><rect x="576.9" y="724.0" width="205.3" height="62.0" rx="4" fill="#d2e3fc" stroke="#1a56b0" stroke-width="1.4"/><text x="679.6" y="739.0" text-anchor="middle" dominant-baseline="central" font-size="12.5" font-weight="600" fill="#1e293b">hq-dist03</text><text x="679.6" y="755.0" text-anchor="middle" dominant-baseline="central" font-size="12.5" font-weight="400" fill="#1e293b">Catalyst 9300</text><text x="679.6" y="771.0" text-anchor="middle" dominant-baseline="central" font-size="12.5" font-weight="400" fill="#1e293b">Vlan103: 10.50.13.1/24</text><rect x="828.4" y="724.0" width="205.3" height="62.0" rx="4" fill="#d2e3fc" stroke="#1a56b0" stroke-width="1.4"/><text x="931.0" y="739.0" text-anchor="middle" dominant-baseline="central" font-size="12.5" font-weight="600" fill="#1e293b">hq-dist04</text><text x="931.0" y="755.0" text-anchor="middle" dominant-baseline="central" font-size="12.5" font-weight="400" fill="#1e293b">Catalyst 9300</text><text x="931.0" y="771.0" text-anchor="middle" dominant-baseline="central" font-size="12.5" font-weight="400" fill="#1e293b">Vlan104: 10.50.14.1/24</text><rect x="1063.7" y="724.0" width="213.4" height="46.0" rx="4" fill="#e2f5f0" stroke="#0f766e" stroke-width="1.4"/><text x="1170.4" y="739.0" text-anchor="middle" dominant-baseline="central" font-size="12.5" font-weight="600" fill="#1e293b">本社サーバ</text><text x="1170.4" y="755.0" text-anchor="middle" dominant-baseline="central" font-size="12.5" font-weight="400" fill="#1e293b">VLAN 20 / 10.50.20.0/24</text><rect x="66.0" y="842.0" width="221.4" height="46.0" rx="4" fill="#e2f5f0" stroke="#0f766e" stroke-width="1.4"/><text x="176.7" y="857.0" text-anchor="middle" dominant-baseline="central" font-size="12.5" font-weight="600" fill="#1e293b">本社1Fユーザ</text><text x="176.7" y="873.0" text-anchor="middle" dominant-baseline="central" font-size="12.5" font-weight="400" fill="#1e293b">VLAN 101 / 10.50.11.0/24</text><rect x="317.4" y="842.0" width="221.4" height="46.0" rx="4" fill="#e2f5f0" stroke="#0f766e" stroke-width="1.4"/><text x="428.2" y="857.0" text-anchor="middle" dominant-baseline="central" font-size="12.5" font-weight="600" fill="#1e293b">本社2Fユーザ</text><text x="428.2" y="873.0" text-anchor="middle" dominant-baseline="central" font-size="12.5" font-weight="400" fill="#1e293b">VLAN 102 / 10.50.12.0/24</text><rect x="568.9" y="842.0" width="221.4" height="46.0" rx="4" fill="#e2f5f0" stroke="#0f766e" stroke-width="1.4"/><text x="679.6" y="857.0" text-anchor="middle" dominant-baseline="central" font-size="12.5" font-weight="600" fill="#1e293b">本社3Fユーザ</text><text x="679.6" y="873.0" text-anchor="middle" dominant-baseline="central" font-size="12.5" font-weight="400" fill="#1e293b">VLAN 103 / 10.50.13.0/24</text><rect x="820.3" y="842.0" width="221.4" height="46.0" rx="4" fill="#e2f5f0" stroke="#0f766e" stroke-width="1.4"/><text x="931.0" y="857.0" text-anchor="middle" dominant-baseline="central" font-size="12.5" font-weight="600" fill="#1e293b">本社4Fユーザ</text><text x="931.0" y="873.0" text-anchor="middle" dominant-baseline="central" font-size="12.5" font-weight="400" fill="#1e293b">VLAN 104 / 10.50.14.0/24</text><rect x="1429.4" y="208.0" width="132.8" height="46.0" rx="4" fill="#e8f0fe" stroke="#1a56b0" stroke-width="1.4"/><text x="1495.8" y="223.0" text-anchor="middle" dominant-baseline="central" font-size="12.5" font-weight="600" fill="#1e293b">osk-rt01</text><text x="1495.8" y="239.0" text-anchor="middle" dominant-baseline="central" font-size="12.5" font-weight="400" fill="#1e293b">Cisco ISR4331</text><rect x="1393.1" y="316.0" width="205.3" height="62.0" rx="4" fill="#d2e3fc" stroke="#1a56b0" stroke-width="1.4"/><text x="1495.8" y="331.0" text-anchor="middle" dominant-baseline="central" font-size="12.5" font-weight="600" fill="#1e293b">osk-core01</text><text x="1495.8" y="347.0" text-anchor="middle" dominant-baseline="central" font-size="12.5" font-weight="400" fill="#1e293b">Catalyst 9300</text><text x="1495.8" y="363.0" text-anchor="middle" dominant-baseline="central" font-size="12.5" font-weight="400" fill="#1e293b">Vlan100: 10.51.10.1/24</text><rect x="1592.2" y="208.0" width="132.8" height="46.0" rx="4" fill="#e8f0fe" stroke="#1a56b0" stroke-width="1.4"/><text x="1658.6" y="223.0" text-anchor="middle" dominant-baseline="central" font-size="12.5" font-weight="600" fill="#1e293b">osk-rt02</text><text x="1658.6" y="239.0" text-anchor="middle" dominant-baseline="central" font-size="12.5" font-weight="400" fill="#1e293b">Cisco ISR4331</text><rect x="1385.1" y="434.0" width="221.4" height="46.0" rx="4" fill="#e2f5f0" stroke="#0f766e" stroke-width="1.4"/><text x="1495.8" y="449.0" text-anchor="middle" dominant-baseline="central" font-size="12.5" font-weight="600" fill="#1e293b">大阪ユーザ</text><text x="1495.8" y="465.0" text-anchor="middle" dominant-baseline="central" font-size="12.5" font-weight="400" fill="#1e293b">VLAN 100 / 10.51.10.0/24</text><rect x="1841.0" y="208.0" width="205.3" height="62.0" rx="4" fill="#e8f0fe" stroke="#1a56b0" stroke-width="1.4"/><text x="1943.7" y="223.0" text-anchor="middle" dominant-baseline="central" font-size="12.5" font-weight="600" fill="#1e293b">ngy-rt01</text><text x="1943.7" y="239.0" text-anchor="middle" dominant-baseline="central" font-size="12.5" font-weight="400" fill="#1e293b">Cisco ISR1100</text><text x="1943.7" y="255.0" text-anchor="middle" dominant-baseline="central" font-size="12.5" font-weight="400" fill="#1e293b">Vlan100: 10.52.10.1/24</text><rect x="1833.0" y="326.0" width="221.4" height="46.0" rx="4" fill="#e2f5f0" stroke="#0f766e" stroke-width="1.4"/><text x="1943.7" y="341.0" text-anchor="middle" dominant-baseline="central" font-size="12.5" font-weight="600" fill="#1e293b">名古屋ユーザ</text><text x="1943.7" y="357.0" text-anchor="middle" dominant-baseline="central" font-size="12.5" font-weight="400" fill="#1e293b">VLAN 100 / 10.52.10.0/24</text></svg>