<svg xmlns="http://www.w3.org/2000/svg" width="2120" height="1048" viewBox="0 0 2120 1048" font-family="'Segoe UI','Hiragino Sans','Noto Sans JP',Meiryo,sans-serif"><defs></defs><rect width="100%" height="100%" fill="#ffffff"/><text x="24" y="30" font-size="19" font-weight="700" fill="#1e293b">全社論理構成図</text><rect x="40.0" y="246.0" width="1263.1" height="762.0" rx="6" fill="#f7f9fc" stroke="#8fa8c4"/><text x="44.0" y="238.0" font-size="14.5" font-weight="600" fill="#33475b">本社</text><rect x="1359.1" y="246.0" width="391.9" height="354.0" rx="6" fill="#f7f9fc" stroke="#8fa8c4"/><text x="1363.1" y="238.0" font-size="14.5" font-weight="600" fill="#33475b">大阪支社</text><rect x="1807.0" y="246.0" width="273.4" height="246.0" rx="6" fill="#f7f9fc" stroke="#8fa8c4"/><text x="1811.0" y="238.0" font-size="14.5" font-weight="600" fill="#33475b">名古屋営業所</text><polygon class="domain-hull" points="542.2,486.0 631.8,282.0 995.6,282.0 995.6,470.0 994.6,744.0 694.6,744.0 542.2,588.0" fill="#e8710a" fill-opacity="0.09" stroke="#e8710a" stroke-opacity="0.35" stroke-width="1.2" stroke-linejoin="round"/><text x="637.8" y="276.0" font-size="14" font-weight="600" fill="#e8710a" opacity="0.85">OSPF Area 0 (バックボーン)</text><polygon class="domain-hull" points="54.1,798.0 542.2,486.0 894.2,486.0 994.6,642.0 1053.7,798.0 1053.7,900.0 54.1,900.0" fill="#0b8043" fill-opacity="0.09" stroke="#0b8043" stroke-opacity="0.35" stroke-width="1.2" stroke-linejoin="round"/><text x="548.2" y="480.0" font-size="14" font-weight="600" fill="#0b8043" opacity="0.85">OSPF Area 1 (本社アクセス)</text><polygon class="domain-hull" points="1373.1,390.0 1409.4,282.0 1745.0,282.0 1745.0,368.0 1618.5,492.0 1373.1,492.0" fill="#8430ce" fill-opacity="0.09" stroke="#8430ce" stroke-opacity="0.35" stroke-width="1.2" stroke-linejoin="round"/><text x="1415.4" y="276.0" font-size="14" font-weight="600" fill="#8430ce" opacity="0.85">OSPF Area 2 (大阪)</text><rect x="642.8" y="293.0" width="341.8" height="64.0" rx="6" fill="none" stroke="#64748b" stroke-width="1.3" stroke-dasharray="5 4"/><text x="646.8" y="288.0" font-size="11.5" font-weight="600" fill="#475569">冗長ペア</text><rect x="642.8" y="395.0" width="341.8" height="64.0" rx="6" fill="none" stroke="#64748b" stroke-width="1.3" stroke-dasharray="5 4"/><text x="646.8" y="390.0" font-size="11.5" font-weight="600" fill="#475569">冗長ペア</text><rect x="553.2" y="497.0" width="430.4" height="236.0" rx="6" fill="none" stroke="#64748b" stroke-width="1.3" stroke-dasharray="5 4"/><text x="557.2" y="492.0" font-size="11.5" font-weight="600" fill="#475569">HSRP grp20 VIP 10.50.20.1</text><polyline points="718.2,348.0 718.2,404.0" fill="none" stroke="#e8710a" stroke-width="2.0" opacity="1.0" stroke-dasharray="3 3"></polyline><polyline points="909.2,348.0 909.2,404.0" fill="none" stroke="#e8710a" stroke-width="2.0" opacity="1.0" stroke-dasharray="3 3"></polyline><polyline points="718.2,450.0 718.2,506.0" fill="none" stroke="#e8710a" stroke-width="2.0" opacity="1.0" stroke-dasharray="3 3"></polyline><polyline points="909.2,450.0 909.2,537.0 909.2,590.0 887.9,590.0 887.9,662.0" fill="none" stroke="#e8710a" stroke-width="2.0" opacity="1.0" stroke-dasharray="3 3"></polyline><polyline points="740.5,568.0 740.5,590.0 801.3,590.0 801.3,662.0" fill="none" stroke="#e8710a" stroke-width="2.0" opacity="1.0" stroke-dasharray="3 3"></polyline><polyline points="606.7,568.0 606.7,590.0 176.7,590.0 176.7,693.0 176.7,746.0 142.5,746.0 142.5,818.0" fill="none" stroke="#0b8043" stroke-width="2.0" opacity="1.0" stroke-dasharray="3 3"></polyline><polyline points="757.9,724.0 757.9,746.0 210.9,746.0 210.9,818.0" fill="none" stroke="#0b8043" stroke-width="2.0" opacity="1.0" stroke-dasharray="3 3"></polyline><polyline points="651.3,568.0 651.3,606.0 428.2,606.0 428.2,693.0 428.2,762.0 393.9,762.0 393.9,818.0" fill="none" stroke="#0b8043" stroke-width="2.0" opacity="1.0" stroke-dasharray="3 3"></polyline><polyline points="801.3,724.0 801.3,762.0 462.4,762.0 462.4,818.0" fill="none" stroke="#0b8043" stroke-width="2.0" opacity="1.0" stroke-dasharray="3 3"></polyline><polyline points="695.9,568.0 695.9,590.0 679.6,590.0 679.6,693.0 679.6,778.0 645.4,778.0 645.4,818.0" fill="none" stroke="#0b8043" stroke-width="2.0" opacity="1.0" stroke-dasharray="3 3"></polyline><polyline points="844.6,724.0 844.6,778.0 713.8,778.0 713.8,818.0" fill="none" stroke="#0b8043" stroke-width="2.0" opacity="1.0" stroke-dasharray="3 3"></polyline><polyline points="785.0,568.0 785.0,606.0 1009.6,606.0 1009.6,693.0 1009.6,746.0 965.3,746.0 965.3,818.0" fill="none" stroke="#0b8043" stroke-width="2.0" opacity="1.0" stroke-dasharray="3 3"></polyline><polyline points="887.9,724.0 887.9,746.0 896.8,746.0 896.8,818.0" fill="none" stroke="#0b8043" stroke-width="2.0" opacity="1.0" stroke-dasharray="3 3"></polyline><polyline points="829.6,568.0 829.6,622.0 1170.4,622.0 1170.4,693.0 1170.4,746.0 1206.0,746.0 1206.0,818.0" fill="none" stroke="#0f766e" stroke-width="1.5" opacity="1.0"></polyline><text x="833.6" y="581.0" font-size="10.5" font-style="italic" fill="#5f6368" opacity="1.0">Vlan20</text><polyline points="931.3,724.0 931.3,762.0 1134.8,762.0 1134.8,818.0" fill="none" stroke="#0f766e" stroke-width="1.5" opacity="1.0"></polyline><text x="935.3" y="737.0" font-size="10.5" font-style="italic" fill="#5f6368" opacity="1.0">Vlan20</text><polyline points="176.7,880.0 176.7,936.0" fill="none" stroke="#0f766e" stroke-width="1.5" opacity="1.0"></polyline><text x="180.7" y="893.0" font-size="10.5" font-style="italic" fill="#5f6368" opacity="1.0">Vlan101</text><polyline points="428.2,880.0 428.2,936.0" fill="none" stroke="#0f766e" stroke-width="1.5" opacity="1.0"></polyline><text x="432.2" y="893.0" font-size="10.5" font-style="italic" fill="#5f6368" opacity="1.0">Vlan102</text><polyline points="679.6,880.0 679.6,936.0" fill="none" stroke="#0f766e" stroke-width="1.5" opacity="1.0"></polyline><text x="683.6" y="893.0" font-size="10.5" font-style="italic" fill="#5f6368" opacity="1.0">Vlan103</text><polyline points="931.0,880.0 931.0,936.0" fill="none" stroke="#0f766e" stroke-width="1.5" opacity="1.0"></polyline><text x="935.0" y="893.0" font-size="10.5" font-style="italic" fill="#5f6368" opacity="1.0">Vlan104</text><polyline points="1495.8,348.0 1495.8,370.0 1461.6,370.0 1461.6,410.0" fill="none" stroke="#8430ce" stroke-width="2.0" opacity="1.0" stroke-dasharray="3 3"></polyline><polyline points="1658.6,348.0 1658.6,370.0 1530.0,370.0 1530.0,410.0" fill="none" stroke="#8430ce" stroke-width="2.0" opacity="1.0" stroke-dasharray="3 3"></polyline><polyline points="1495.8,472.0 1495.8,528.0" fill="none" stroke="#0f766e" stroke-width="1.5" opacity="1.0"></polyline><text x="1499.8" y="485.0" font-size="10.5" font-style="italic" fill="#5f6368" opacity="1.0">Vlan100</text><polyline points="1943.7,364.0 1943.7,420.0" fill="none" stroke="#0f766e" stroke-width="1.5" opacity="1.0"></polyline><text x="1947.7" y="377.0" font-size="10.5" font-style="italic" fill="#5f6368" opacity="1.0">Vlan100</text><polyline points="1348.4,122.0 1348.4,140.0 718.2,140.0 718.2,302.0" fill="none" stroke="#188038" stroke-width="2.0" opacity="1.0" stroke-dasharray="3 3"></polyline><rect x="700.6" y="186.0" width="35.2" height="24.0" rx="4" fill="#ffffff" fill-opacity="0.92" opacity="1.0"/><text x="718.2" y="199.0" text-anchor="middle" font-size="12" font-style="italic" font-weight="400" fill="#5f6368" opacity="1.0">BGP</text><polyline points="1385.9,122.0 1385.9,140.0 1495.8,140.0 1495.8,302.0" fill="none" stroke="#188038" stroke-width="2.0" opacity="1.0" stroke-dasharray="3 3"></polyline><rect x="1478.2" y="186.0" width="35.2" height="24.0" rx="4" fill="#ffffff" fill-opacity="0.92" opacity="1.0"/><text x="1495.8" y="199.0" text-anchor="middle" font-size="12" font-style="italic" font-weight="400" fill="#5f6368" opacity="1.0">BGP</text><polyline points="1423.4,122.0 1423.4,158.0 1943.7,158.0 1943.7,302.0" fill="none" stroke="#188038" stroke-width="2.0" opacity="1.0" stroke-dasharray="3 3"></polyline><rect x="1926.1" y="186.0" width="35.2" height="24.0" rx="4" fill="#ffffff" fill-opacity="0.92" opacity="1.0"/><text x="1943.7" y="199.0" text-anchor="middle" font-size="12" font-style="italic" font-weight="400" fill="#5f6368" opacity="1.0">BGP</text><rect x="1841.7" y="42.0" width="258.7" height="90" rx="8" fill="#ffffff" stroke="#c3ccd6"/><text x="1853.7" y="61.0" font-size="12" fill="#64748b">凡例</text><line x1="1853.7" y1="76.0" x2="1881.7" y2="76.0" stroke="#e8710a" stroke-width="3"/><text x="1889.7" y="80.0" font-size="12.5" fill="#1e293b">OSPF Area 0 (バックボーン)</text><line x1="1853.7" y1="96.0" x2="1881.7" y2="96.0" stroke="#0b8043" stroke-width="3"/><text x="1889.7" y="100.0" font-size="12.5" fill="#1e293b">OSPF Area 1 (本社アクセス)</text><line x1="1853.7" y1="116.0" x2="1881.7" y2="116.0" stroke="#8430ce" stroke-width="3"/><text x="1889.7" y="120.0" font-size="12.5" fill="#1e293b">OSPF Area 2 (大阪)</text><ellipse cx="1385.9" cy="84.0" rx="75.0" ry="38.0" fill="#f1f3f4" stroke="#5f6368" stroke-width="1.6"/><text x="1385.9" y="84.0" text-anchor="middle" dominant-baseline="central" font-size="12.5" font-weight="600" fill="#1e293b">IP-VPN網</text><rect x="651.8" y="302.0" width="132.8" height="46.0" rx="4" fill="#e8f0fe" stroke="#1a56b0" stroke-width="1.4"/><text x="718.2" y="317.0" text-anchor="middle" dominant-baseline="central" font-size="12.5" font-weight="600" fill="#1e293b">hq-rt01</text><text x="718.2" y="333.0" text-anchor="middle" dominant-baseline="central" font-size="12.5" font-weight="400" fill="#1e293b">Cisco ISR4451</text><rect x="651.8" y="404.0" width="132.8" height="46.0" rx="4" fill="#fce8e6" stroke="#c5221f" stroke-width="1.4"/><text x="718.2" y="419.0" text-anchor="middle" dominant-baseline="central" font-size="12.5" font-weight="600" fill="#1e293b">hq-fw01 (Act)</text><text x="718.2" y="435.0" text-anchor="middle" dominant-baseline="central" font-size="12.5" font-weight="400" fill="#1e293b">PA-3410</text><rect x="842.8" y="302.0" width="132.8" height="46.0" rx="4" fill="#e8f0fe" stroke="#1a56b0" stroke-width="1.4"/><text x="909.2" y="317.0" text-anchor="middle" dominant-baseline="central" font-size="12.5" font-weight="600" fill="#1e293b">hq-rt02</text><text x="909.2" y="333.0" text-anchor="middle" dominant-baseline="central" font-size="12.5" font-weight="400" fill="#1e293b">Cisco ISR4451</text><rect x="842.8" y="404.0" width="132.8" height="46.0" rx="4" fill="#fce8e6" stroke="#c5221f" stroke-width="1.4"/><text x="909.2" y="419.0" text-anchor="middle" dominant-baseline="central" font-size="12.5" font-weight="600" fill="#1e293b">hq-fw02 (Sby)</text><text x="909.2" y="435.0" text-anchor="middle" dominant-baseline="central" font-size="12.5" font-weight="400" fill="#1e293b">PA-3410</text><rect x="562.2" y="506.0" width="312.0" height="62.0" rx="4" fill="#d2e3fc" stroke="#1a56b0" stroke-width="1.4"/><text x="718.2" y="521.0" text-anchor="middle" dominant-baseline="central" font-size="12.5" font-weight="600" fill="#1e293b">hq-core01 (Act)</text><text x="718.2" y="537.0" text-anchor="middle" dominant-baseline="central" font-size="12.5" font-weight="400" fill="#1e293b">Catalyst 9500</text><text x="718.2" y="553.0" text-anchor="middle" dominant-baseline="central" font-size="12.5" font-weight="400" fill="#1e293b">Vlan20: 10.50.20.2/24</text><rect x="714.6" y="662.0" width="260.0" height="62.0" rx="4" fill="#d2e3fc" stroke="#1a56b0" stroke-width="1.4"/><text x="844.6" y="677.0" text-anchor="middle" dominant-baseline="central" font-size="12.5" font-weight="600" fill="#1e293b">hq-core02 (Sby)</text><text x="844.6" y="693.0" text-anchor="middle" dominant-baseline="central" font-size="12.5" font-weight="400" fill="#1e293b">Catalyst 9500</text><text x="844.6" y="709.0" text-anchor="middle" dominant-baseline="central" font-size="12.5" font-weight="400" fill="#1e293b">Vlan20: 10.50.20.3/24</text><rect x="74.1" y="818.0" width="205.3" height="62.0" rx="4" fill="#d2e3fc" stroke="#1a56b0" stroke-width="1.4"/><text x="176.7" y="833.0" text-anchor="middle" dominant-baseline="central" font-size="12.5" font-weight="600" fill="#1e293b">hq-dist01</text><text x="176.7" y="849.0" text-anchor="middle" dominant-baseline="central" font-size="12.5" font-weight="400" fill="#1e293b">Catalyst 9300</text><text x="176.7" y="865.0" text-anchor="middle" dominant-baseline="central" font-size="12.5" font-weight="400" fill="#1e293b">Vlan101: 10.50.11.1/24</text><rect x="325.5" y="818.0" width="205.3" height="62.0" rx="4" fill="#d2e3fc" stroke="#1a56b0" stroke-width="1.4"/><text x="428.2" y="833.0" text-anchor="middle" dominant-baseline="central" font-size="12.5" font-weight="600" fill="#1e293b">hq-dist02</text><text x="428.2" y="849.0" text-anchor="middle" dominant-baseline="central" font-size="12.5" font-weight="400" fill="#1e293b">Catalyst 9300</text><text x="428.2" y="865.0" text-anchor="middle" dominant-baseline="central" font-size="12.5" font-weight="400" fill="#1e293b">Vlan102: 10.50.12.1/24</text><rect x="576.9" y="818.0" width="205.3" height="62.0" rx="4" fill="#d2e3fc" stroke="#1a56b0" stroke-width="1.4"/><text x="679.6" y="833.0" text-anchor="middle" dominant-baseline="central" font-size="12.5" font-weight="600" fill="#1e293b">hq-dist03</text><text x="679.6" y="849.0" text-anchor="middle" dominant-baseline="central" font-size="12.5" font-weight="400" fill="#1e293b">Catalyst 9300</text><text x="679.6" y="865.0" text-anchor="middle" dominant-baseline="central" font-size="12.5" font-weight="400" fill="#1e293b">Vlan103: 10.50.13.1/24</text><rect x="828.4" y="818.0" width="205.3" height="62.0" rx="4" fill="#d2e3fc" stroke="#1a56b0" stroke-width="1.4"/><text x="931.0" y="833.0" text-anchor="middle" dominant-baseline="central" font-size="12.5" font-weight="600" fill="#1e293b">hq-dist04</text><text x="931.0" y="849.0" text-anchor="middle" dominant-baseline="central" font-size="12.5" font-weight="400" fill="#1e293b">Catalyst 9300</text><text x="931.0" y="865.0" text-anchor="middle" dominant-baseline="central" font-size="12.5" font-weight="400" fill="#1e293b">Vlan104: 10.50.14.1/24</text><rect x="1063.7" y="818.0" width="213.4" height="46.0" rx="4" fill="#e2f5f0" stroke="#0f766e" stroke-width="1.4"/><text x="1170.4" y="833.0" text-anchor="middle" dominant-baseline="central" font-size="12.5" font-weight="600" fill="#1e293b">本社サーバ</text><text x="1170.4" y="849.0" text-anchor="middle" dominant-baseline="central" font-size="12.5" font-weight="400" fill="#1e293b">VLAN 20 / 10.50.20.0/24</text><rect x="66.0" y="936.0" width="221.4" height="46.0" rx="4" fill="#e2f5f0" stroke="#0f766e" stroke-width="1.4"/><text x="176.7" y="951.0" text-anchor="middle" dominant-baseline="central" font-size="12.5" font-weight="600" fill="#1e293b">本社1Fユーザ</text><text x="176.7" y="967.0" text-anchor="middle" dominant-baseline="central" font-size="12.5" font-weight="400" fill="#1e293b">VLAN 101 / 10.50.11.0/24</text><rect x="317.4" y="936.0" width="221.4" height="46.0" rx="4" fill="#e2f5f0" stroke="#0f766e" stroke-width="1.4"/><text x="428.2" y="951.0" text-anchor="middle" dominant-baseline="central" font-size="12.5" font-weight="600" fill="#1e293b">本社2Fユーザ</text><text x="428.2" y="967.0" text-anchor="middle" dominant-baseline="central" font-size="12.5" font-weight="400" fill="#1e293b">VLAN 102 / 10.50.12.0/24</text><rect x="568.9" y="936.0" width="221.4" height="46.0" rx="4" fill="#e2f5f0" stroke="#0f766e" stroke-width="1.4"/><text x="679.6" y="951.0" text-anchor="middle" dominant-baseline="central" font-size="12.5" font-weight="600" fill="#1e293b">本社3Fユーザ</text><text x="679.6" y="967.0" text-anchor="middle" dominant-baseline="central" font-size="12.5" font-weight="400" fill="#1e293b">VLAN 103 / 10.50.13.0/24</text><rect x="820.3" y="936.0" width="221.4" height="46.0" rx="4" fill="#e2f5f0" stroke="#0f766e" stroke-width="1.4"/><text x="931.0" y="951.0" text-anchor="middle" dominant-baseline="central" font-size="12.5" font-weight="600" fill="#1e293b">本社4Fユーザ</text><text x="931.0" y="967.0" text-anchor="middle" dominant-baseline="central" font-size="12.5" font-weight="400" fill="#1e293b">VLAN 104 / 10.50.14.0/24</text><rect x="1429.4" y="302.0" width="132.8" height="46.0" rx="4" fill="#e8f0fe" stroke="#1a56b0" stroke-width="1.4"/><text x="1495.8" y="317.0" text-anchor="middle" dominant-baseline="central" font-size="12.5" font-weight="600" fill="#1e293b">osk-rt01</text><text x="1495.8" y="333.0" text-anchor="middle" dominant-baseline="central" font-size="12.5" font-weight="400" fill="#1e293b">Cisco ISR4331</text><rect x="1393.1" y="410.0" width="205.3" height="62.0" rx="4" fill="#d2e3fc" stroke="#1a56b0" stroke-width="1.4"/><text x="1495.8" y="425.0" text-anchor="middle" dominant-baseline="central" font-size="12.5" font-weight="600" fill="#1e293b">osk-core01</text><text x="1495.8" y="441.0" text-anchor="middle" dominant-baseline="central" font-size="12.5" font-weight="400" fill="#1e293b">Catalyst 9300</text><text x="1495.8" y="457.0" text-anchor="middle" dominant-baseline="central" font-size="12.5" font-weight="400" fill="#1e293b">Vlan100: 10.51.10.1/24</text><rect x="1592.2" y="302.0" width="132.8" height="46.0" rx="4" fill="#e8f0fe" stroke="#1a56b0" stroke-width="1.4"/><text x="1658.6" y="317.0" text-anchor="middle" dominant-baseline="central" font-size="12.5" font-weight="600" fill="#1e293b">osk-rt02</text><text x="1658.6" y="333.0" text-anchor="middle" dominant-baseline="central" font-size="12.5" font-weight="400" fill="#1e293b">Cisco ISR4331</text><rect x="1385.1" y="528.0" width="221.4" height="46.0" rx="4" fill="#e2f5f0" stroke="#0f766e" stroke-width="1.4"/><text x="1495.8" y="543.0" text-anchor="middle" dominant-baseline="central" font-size="12.5" font-weight="600" fill="#1e293b">大阪ユーザ</text><text x="1495.8" y="559.0" text-anchor="middle" dominant-baseline="central" font-size="12.5" font-weight="400" fill="#1e293b">VLAN 100 / 10.51.10.0/24</text><rect x="1841.0" y="302.0" width="205.3" height="62.0" rx="4" fill="#e8f0fe" stroke="#1a56b0" stroke-width="1.4"/><text x="1943.7" y="317.0" text-anchor="middle" dominant-baseline="central" font-size="12.5" font-weight="600" fill="#1e293b">ngy-rt01</text><text x="1943.7" y="333.0" text-anchor="middle" dominant-baseline="central" font-size="12.5" font-weight="400" fill="#1e293b">Cisco ISR1100</text><text x="1943.7" y="349.0" text-anchor="middle" dominant-baseline="central" font-size="12.5" font-weight="400" fill="#1e293b">Vlan100: 10.52.10.1/24</text><rect x="1833.0" y="420.0" width="221.4" height="46.0" rx="4" fill="#e2f5f0" stroke="#0f766e" stroke-width="1.4"/><text x="1943.7" y="435.0" text-anchor="middle" dominant-baseline="central" font-size="12.5" font-weight="600" fill="#1e293b">名古屋ユーザ</text><text x="1943.7" y="451.0" text-anchor="middle" dominant-baseline="central" font-size="12.5" font-weight="400" fill="#1e293b">VLAN 100 / 10.52.10.0/24</text></svg>