<svg xmlns="http://www.w3.org/2000/svg" width="1591" height="680" viewBox="0 0 1591 680" font-family="'Segoe UI','Hiragino Sans','Noto Sans JP',Meiryo,sans-serif"><defs></defs><rect width="100%" height="100%" fill="#ffffff"/><text x="24" y="30" font-size="19" font-weight="700" fill="#1e293b">大阪支社 物理構成図</text><rect x="40.0" y="264.0" width="1511.2" height="376.0" rx="6" fill="#f7f9fc" stroke="#8fa8c4"/><text x="44.0" y="256.0" font-size="14.5" font-weight="600" fill="#33475b">大阪支社</text><polyline points="787.5,366.0 787.5,388.0 709.5,388.0 709.5,428.0" fill="none" stroke="#4a4a4a" stroke-width="2.0" opacity="1.0"></polyline><text x="791.5" y="379.0" font-size="10.5" font-style="italic" fill="#5f6368" opacity="1.0">Gi0/1</text><text x="713.5" y="423.0" font-size="10.5" font-style="italic" fill="#5f6368" opacity="1.0">Gi0/1</text><polyline points="950.3,366.0 950.3,388.0 865.5,388.0 865.5,428.0" fill="none" stroke="#4a4a4a" stroke-width="2.0" opacity="1.0"></polyline><text x="954.3" y="379.0" font-size="10.5" font-style="italic" fill="#5f6368" opacity="1.0">Gi0/1</text><text x="869.5" y="423.0" font-size="10.5" font-style="italic" fill="#5f6368" opacity="1.0">Gi0/2</text><polyline points="600.3,474.0 600.3,496.0 132.4,496.0 132.4,568.0" fill="none" stroke="#4a4a4a" stroke-width="2.0" opacity="1.0"></polyline><text x="604.3" y="487.0" font-size="10.5" font-style="italic" fill="#5f6368" opacity="1.0">Gi0/3</text><text x="136.4" y="563.0" font-size="10.5" font-style="italic" fill="#5f6368" opacity="1.0">Gi0/1</text><polyline points="647.1,474.0 647.1,512.0 295.2,512.0 295.2,568.0" fill="none" stroke="#4a4a4a" stroke-width="2.0" opacity="1.0"></polyline><text x="651.1" y="487.0" font-size="10.5" font-style="italic" fill="#5f6368" opacity="1.0">Gi0/4</text><text x="299.2" y="563.0" font-size="10.5" font-style="italic" fill="#5f6368" opacity="1.0">Gi0/1</text><polyline points="693.9,474.0 693.9,528.0 457.9,528.0 457.9,568.0" fill="none" stroke="#4a4a4a" stroke-width="2.0" opacity="1.0"></polyline><text x="697.9" y="487.0" font-size="10.5" font-style="italic" fill="#5f6368" opacity="1.0">Gi0/5</text><text x="461.9" y="563.0" font-size="10.5" font-style="italic" fill="#5f6368" opacity="1.0">Gi0/1</text><polyline points="740.7,474.0 740.7,496.0 620.7,496.0 620.7,568.0" fill="none" stroke="#4a4a4a" stroke-width="2.0" opacity="1.0"></polyline><text x="744.7" y="487.0" font-size="10.5" font-style="italic" fill="#5f6368" opacity="1.0">Gi0/6</text><text x="624.7" y="563.0" font-size="10.5" font-style="italic" fill="#5f6368" opacity="1.0">Gi0/1</text><polyline points="787.5,474.0 787.5,496.0 783.5,496.0 783.5,568.0" fill="none" stroke="#4a4a4a" stroke-width="2.0" opacity="1.0"></polyline><text x="791.5" y="487.0" font-size="10.5" font-style="italic" fill="#5f6368" opacity="1.0">Gi0/7</text><text x="787.5" y="563.0" font-size="10.5" font-style="italic" fill="#5f6368" opacity="1.0">Gi0/1</text><polyline points="834.3,474.0 834.3,496.0 946.3,496.0 946.3,568.0" fill="none" stroke="#4a4a4a" stroke-width="2.0" opacity="1.0"></polyline><text x="838.3" y="487.0" font-size="10.5" font-style="italic" fill="#5f6368" opacity="1.0">Gi0/8</text><text x="950.3" y="563.0" font-size="10.5" font-style="italic" fill="#5f6368" opacity="1.0">Gi0/1</text><polyline points="881.1,474.0 881.1,512.0 1113.1,512.0 1113.1,568.0" fill="none" stroke="#4a4a4a" stroke-width="2.0" opacity="1.0"></polyline><text x="885.1" y="487.0" font-size="10.5" font-style="italic" fill="#5f6368" opacity="1.0">Gi0/9</text><text x="1117.1" y="563.0" font-size="10.5" font-style="italic" fill="#5f6368" opacity="1.0">Gi0/1</text><polyline points="927.9,474.0 927.9,528.0 1283.9,528.0 1283.9,568.0" fill="none" stroke="#4a4a4a" stroke-width="2.0" opacity="1.0"></polyline><text x="931.9" y="487.0" font-size="10.5" font-style="italic" fill="#5f6368" opacity="1.0">Gi0/10</text><text x="1287.9" y="563.0" font-size="10.5" font-style="italic" fill="#5f6368" opacity="1.0">Gi0/1</text><polyline points="974.7,474.0 974.7,496.0 1454.8,496.0 1454.8,568.0" fill="none" stroke="#4a4a4a" stroke-width="2.0" opacity="1.0"></polyline><text x="978.7" y="487.0" font-size="10.5" font-style="italic" fill="#5f6368" opacity="1.0">Gi0/11</text><text x="1458.8" y="563.0" font-size="10.5" font-style="italic" fill="#5f6368" opacity="1.0">Gi0/1</text><polyline points="787.5,122.0 787.5,140.0 787.5,140.0 787.5,320.0" fill="none" stroke="#1a73e8" stroke-width="3.5" opacity="1.0"></polyline><rect x="707.9" y="168.0" width="159.2" height="42.0" rx="4" fill="#ffffff" fill-opacity="0.92" opacity="1.0"/><text x="787.5" y="181.0" text-anchor="middle" font-size="12" font-style="italic" font-weight="400" fill="#5f6368" opacity="1.0">NTT Com IP-VPN 200M</text><text x="787.5" y="198.0" text-anchor="middle" font-size="12" font-style="italic" font-weight="400" fill="#5f6368" opacity="1.0">(Gi0/2)</text><polyline points="1004.3,122.0 1004.3,140.0 950.3,140.0 950.3,320.0" fill="none" stroke="#1a73e8" stroke-width="3.5" opacity="1.0"></polyline><rect x="854.6" y="204.0" width="191.5" height="42.0" rx="4" fill="#ffffff" fill-opacity="0.92" opacity="1.0"/><text x="950.3" y="217.0" text-anchor="middle" font-size="12" font-style="italic" font-weight="400" fill="#5f6368" opacity="1.0">NTT西 フレッツ光 + OCN 1G</text><text x="950.3" y="234.0" text-anchor="middle" font-size="12" font-style="italic" font-weight="400" fill="#5f6368" opacity="1.0">(Gi0/2)</text><ellipse cx="787.5" cy="84.0" rx="75.0" ry="38.0" fill="#f1f3f4" stroke="#5f6368" stroke-width="1.6"/><text x="787.5" y="84.0" text-anchor="middle" dominant-baseline="central" font-size="12.5" font-weight="600" fill="#1e293b">IP-VPN網</text><ellipse cx="1004.3" cy="84.0" rx="81.8" ry="38.0" fill="#f1f3f4" stroke="#5f6368" stroke-width="1.6"/><text x="1004.3" y="84.0" text-anchor="middle" dominant-baseline="central" font-size="12.5" font-weight="600" fill="#1e293b">インターネット</text><rect x="721.2" y="320.0" width="132.8" height="46.0" rx="4" fill="#e8f0fe" stroke="#1a56b0" stroke-width="1.4"/><text x="787.5" y="335.0" text-anchor="middle" dominant-baseline="central" font-size="12.5" font-weight="600" fill="#1e293b">osk-rt01</text><text x="787.5" y="351.0" text-anchor="middle" dominant-baseline="central" font-size="12.5" font-weight="400" fill="#1e293b">Cisco ISR4331</text><rect x="553.5" y="428.0" width="468.0" height="46.0" rx="4" fill="#d2e3fc" stroke="#1a56b0" stroke-width="1.4"/><text x="787.5" y="443.0" text-anchor="middle" dominant-baseline="central" font-size="12.5" font-weight="600" fill="#1e293b">osk-core01</text><text x="787.5" y="459.0" text-anchor="middle" dominant-baseline="central" font-size="12.5" font-weight="400" fill="#1e293b">Catalyst 9300</text><rect x="883.9" y="320.0" width="132.8" height="46.0" rx="4" fill="#e8f0fe" stroke="#1a56b0" stroke-width="1.4"/><text x="950.3" y="335.0" text-anchor="middle" dominant-baseline="central" font-size="12.5" font-weight="600" fill="#1e293b">osk-rt02</text><text x="950.3" y="351.0" text-anchor="middle" dominant-baseline="central" font-size="12.5" font-weight="400" fill="#1e293b">Cisco ISR4331</text><rect x="66.0" y="568.0" width="132.8" height="46.0" rx="4" fill="#e6f4ea" stroke="#137333" stroke-width="1.4"/><text x="132.4" y="583.0" text-anchor="middle" dominant-baseline="central" font-size="12.5" font-weight="600" fill="#1e293b">osk-acc01</text><text x="132.4" y="599.0" text-anchor="middle" dominant-baseline="central" font-size="12.5" font-weight="400" fill="#1e293b">Catalyst 1000</text><rect x="228.8" y="568.0" width="132.8" height="46.0" rx="4" fill="#e6f4ea" stroke="#137333" stroke-width="1.4"/><text x="295.2" y="583.0" text-anchor="middle" dominant-baseline="central" font-size="12.5" font-weight="600" fill="#1e293b">osk-acc02</text><text x="295.2" y="599.0" text-anchor="middle" dominant-baseline="central" font-size="12.5" font-weight="400" fill="#1e293b">Catalyst 1000</text><rect x="391.6" y="568.0" width="132.8" height="46.0" rx="4" fill="#e6f4ea" stroke="#137333" stroke-width="1.4"/><text x="457.9" y="583.0" text-anchor="middle" dominant-baseline="central" font-size="12.5" font-weight="600" fill="#1e293b">osk-acc03</text><text x="457.9" y="599.0" text-anchor="middle" dominant-baseline="central" font-size="12.5" font-weight="400" fill="#1e293b">Catalyst 1000</text><rect x="554.3" y="568.0" width="132.8" height="46.0" rx="4" fill="#e6f4ea" stroke="#137333" stroke-width="1.4"/><text x="620.7" y="583.0" text-anchor="middle" dominant-baseline="central" font-size="12.5" font-weight="600" fill="#1e293b">osk-acc04</text><text x="620.7" y="599.0" text-anchor="middle" dominant-baseline="central" font-size="12.5" font-weight="400" fill="#1e293b">Catalyst 1000</text><rect x="717.1" y="568.0" width="132.8" height="46.0" rx="4" fill="#e6f4ea" stroke="#137333" stroke-width="1.4"/><text x="783.5" y="583.0" text-anchor="middle" dominant-baseline="central" font-size="12.5" font-weight="600" fill="#1e293b">osk-acc05</text><text x="783.5" y="599.0" text-anchor="middle" dominant-baseline="central" font-size="12.5" font-weight="400" fill="#1e293b">Catalyst 1000</text><rect x="879.9" y="568.0" width="132.8" height="46.0" rx="4" fill="#e6f4ea" stroke="#137333" stroke-width="1.4"/><text x="946.3" y="583.0" text-anchor="middle" dominant-baseline="central" font-size="12.5" font-weight="600" fill="#1e293b">osk-acc06</text><text x="946.3" y="599.0" text-anchor="middle" dominant-baseline="central" font-size="12.5" font-weight="400" fill="#1e293b">Catalyst 1000</text><rect x="1042.7" y="568.0" width="140.8" height="46.0" rx="4" fill="#f1f3f4" stroke="#5f6368" stroke-width="1.4"/><text x="1113.1" y="583.0" text-anchor="middle" dominant-baseline="central" font-size="12.5" font-weight="600" fill="#1e293b">osk-srv01</text><text x="1113.1" y="599.0" text-anchor="middle" dominant-baseline="central" font-size="12.5" font-weight="400" fill="#1e293b">PowerEdge R450</text><rect x="1213.5" y="568.0" width="140.8" height="46.0" rx="4" fill="#f1f3f4" stroke="#5f6368" stroke-width="1.4"/><text x="1283.9" y="583.0" text-anchor="middle" dominant-baseline="central" font-size="12.5" font-weight="600" fill="#1e293b">osk-srv02</text><text x="1283.9" y="599.0" text-anchor="middle" dominant-baseline="central" font-size="12.5" font-weight="400" fill="#1e293b">PowerEdge R450</text><rect x="1384.4" y="568.0" width="140.8" height="46.0" rx="4" fill="#f1f3f4" stroke="#5f6368" stroke-width="1.4"/><text x="1454.8" y="583.0" text-anchor="middle" dominant-baseline="central" font-size="12.5" font-weight="600" fill="#1e293b">osk-srv03</text><text x="1454.8" y="599.0" text-anchor="middle" dominant-baseline="central" font-size="12.5" font-weight="400" fill="#1e293b">PowerEdge R450</text></svg>