<svg xmlns="http://www.w3.org/2000/svg" width="5283" height="1048" viewBox="0 0 5283 1048" font-family="'Segoe UI','Hiragino Sans','Noto Sans JP',Meiryo,sans-serif"><defs></defs><rect width="100%" height="100%" fill="#ffffff"/><text x="24" y="30" font-size="19" font-weight="700" fill="#1e293b">全社物理構成図 (50台)</text><rect x="40.0" y="282.0" width="2401.8" height="726.0" rx="6" fill="#f7f9fc" stroke="#8fa8c4"/><text x="44.0" y="274.0" font-size="14.5" font-weight="600" fill="#33475b">本社</text><rect x="2497.8" y="282.0" width="1511.2" height="376.0" rx="6" fill="#f7f9fc" stroke="#8fa8c4"/><text x="2501.8" y="274.0" font-size="14.5" font-weight="600" fill="#33475b">大阪支社</text><rect x="4065.0" y="282.0" width="1177.6" height="370.0" rx="6" fill="#f7f9fc" stroke="#8fa8c4"/><text x="4069.0" y="274.0" font-size="14.5" font-weight="600" fill="#33475b">名古屋営業所</text><polyline points="1862.6,384.0 1862.6,440.0" fill="none" stroke="#4a4a4a" stroke-width="2.0" opacity="1.0"></polyline><text x="1866.6" y="397.0" font-size="10.5" font-style="italic" fill="#5f6368" opacity="1.0">Gi0/1</text><text x="1866.6" y="435.0" font-size="10.5" font-style="italic" fill="#5f6368" opacity="1.0">Gi0/1</text><polyline points="1250.0,384.0 1250.0,440.0" fill="none" stroke="#4a4a4a" stroke-width="2.0" opacity="1.0"></polyline><text x="1254.0" y="397.0" font-size="10.5" font-style="italic" fill="#5f6368" opacity="1.0">Gi0/1</text><text x="1254.0" y="435.0" font-size="10.5" font-style="italic" fill="#5f6368" opacity="1.0">Gi0/1</text><polyline points="1845.3,486.0 1845.3,508.0 1441.0,508.0 1441.0,548.0" fill="none" stroke="#4a4a4a" stroke-width="2.0" opacity="1.0"></polyline><text x="1849.3" y="499.0" font-size="10.5" font-style="italic" fill="#5f6368" opacity="1.0">Gi0/2</text><text x="1445.0" y="543.0" font-size="10.5" font-style="italic" fill="#5f6368" opacity="1.0">Gi0/1</text><polyline points="1250.0,486.0 1250.0,571.0 1250.0,616.0 1206.7,616.0 1206.7,688.0" fill="none" stroke="#4a4a4a" stroke-width="2.0" opacity="1.0"></polyline><text x="1254.0" y="499.0" font-size="10.5" font-style="italic" fill="#5f6368" opacity="1.0">Gi0/2</text><text x="1210.7" y="683.0" font-size="10.5" font-style="italic" fill="#5f6368" opacity="1.0">Gi0/1</text><polyline points="1418.8,594.0 1418.8,616.0 1293.4,616.0 1293.4,688.0" fill="none" stroke="#4a4a4a" stroke-width="2.0" opacity="1.0"></polyline><text x="1422.8" y="607.0" font-size="10.5" font-style="italic" fill="#5f6368" opacity="1.0">Gi0/2</text><text x="1297.4" y="683.0" font-size="10.5" font-style="italic" fill="#5f6368" opacity="1.0">Gi0/2</text><polyline points="1374.2,594.0 1374.2,632.0 815.3,632.0 815.3,711.0 815.3,756.0 789.3,756.0 789.3,828.0" fill="none" stroke="#4a4a4a" stroke-width="2.0" opacity="1.0"></polyline><text x="1378.2" y="607.0" font-size="10.5" font-style="italic" fill="#5f6368" opacity="1.0">Gi0/3</text><text x="793.3" y="823.0" font-size="10.5" font-style="italic" fill="#5f6368" opacity="1.0">Gi0/1</text><polyline points="1206.7,734.0 1206.7,756.0 841.3,756.0 841.3,828.0" fill="none" stroke="#4a4a4a" stroke-width="2.0" opacity="1.0"></polyline><text x="1210.7" y="747.0" font-size="10.5" font-style="italic" fill="#5f6368" opacity="1.0">Gi0/3</text><text x="845.3" y="823.0" font-size="10.5" font-style="italic" fill="#5f6368" opacity="1.0">Gi0/2</text><polyline points="1463.3,594.0 1463.3,632.0 1415.0,632.0 1415.0,711.0 1415.0,756.0 1329.6,756.0 1329.6,828.0" fill="none" stroke="#4a4a4a" stroke-width="2.0" opacity="1.0"></polyline><text x="1467.3" y="607.0" font-size="10.5" font-style="italic" fill="#5f6368" opacity="1.0">Gi0/4</text><text x="1333.6" y="823.0" font-size="10.5" font-style="italic" fill="#5f6368" opacity="1.0">Gi0/1</text><polyline points="1250.0,734.0 1250.0,756.0 1277.6,756.0 1277.6,828.0" fill="none" stroke="#4a4a4a" stroke-width="2.0" opacity="1.0"></polyline><text x="1254.0" y="747.0" font-size="10.5" font-style="italic" fill="#5f6368" opacity="1.0">Gi0/4</text><text x="1281.6" y="823.0" font-size="10.5" font-style="italic" fill="#5f6368" opacity="1.0">Gi0/2</text><polyline points="1507.9,594.0 1507.9,616.0 1791.9,616.0 1791.9,711.0 1791.9,756.0 1817.9,756.0 1817.9,828.0" fill="none" stroke="#4a4a4a" stroke-width="2.0" opacity="1.0"></polyline><text x="1511.9" y="607.0" font-size="10.5" font-style="italic" fill="#5f6368" opacity="1.0">Gi0/5</text><text x="1821.9" y="823.0" font-size="10.5" font-style="italic" fill="#5f6368" opacity="1.0">Gi0/1</text><polyline points="1293.4,734.0 1293.4,772.0 1765.9,772.0 1765.9,828.0" fill="none" stroke="#4a4a4a" stroke-width="2.0" opacity="1.0"></polyline><text x="1297.4" y="747.0" font-size="10.5" font-style="italic" fill="#5f6368" opacity="1.0">Gi0/5</text><text x="1769.9" y="823.0" font-size="10.5" font-style="italic" fill="#5f6368" opacity="1.0">Gi0/2</text><polyline points="1552.5,594.0 1552.5,632.0 2117.5,632.0 2117.5,711.0 2117.5,756.0 2139.6,756.0 2139.6,828.0" fill="none" stroke="#4a4a4a" stroke-width="2.0" opacity="1.0"></polyline><text x="1556.5" y="607.0" font-size="10.5" font-style="italic" fill="#5f6368" opacity="1.0">Gi0/6</text><text x="2143.6" y="823.0" font-size="10.5" font-style="italic" fill="#5f6368" opacity="1.0">Gi0/1</text><polyline points="1336.7,734.0 1336.7,788.0 2095.4,788.0 2095.4,828.0" fill="none" stroke="#4a4a4a" stroke-width="2.0" opacity="1.0"></polyline><text x="1340.7" y="747.0" font-size="10.5" font-style="italic" fill="#5f6368" opacity="1.0">Gi0/6</text><text x="2099.4" y="823.0" font-size="10.5" font-style="italic" fill="#5f6368" opacity="1.0">Gi0/2</text><polyline points="776.3,874.0 776.3,896.0 652.5,896.0 652.5,936.0" fill="none" stroke="#4a4a4a" stroke-width="2.0" opacity="1.0"></polyline><text x="780.3" y="887.0" font-size="10.5" font-style="italic" fill="#5f6368" opacity="1.0">Gi0/3</text><text x="656.5" y="931.0" font-size="10.5" font-style="italic" fill="#5f6368" opacity="1.0">Gi0/1</text><polyline points="815.3,874.0 815.3,936.0" fill="none" stroke="#4a4a4a" stroke-width="2.0" opacity="1.0"></polyline><text x="819.3" y="887.0" font-size="10.5" font-style="italic" fill="#5f6368" opacity="1.0">Gi0/4</text><text x="819.3" y="931.0" font-size="10.5" font-style="italic" fill="#5f6368" opacity="1.0">Gi0/1</text><polyline points="854.3,874.0 854.3,896.0 978.0,896.0 978.0,936.0" fill="none" stroke="#4a4a4a" stroke-width="2.0" opacity="1.0"></polyline><text x="858.3" y="887.0" font-size="10.5" font-style="italic" fill="#5f6368" opacity="1.0">Gi0/5</text><text x="982.0" y="931.0" font-size="10.5" font-style="italic" fill="#5f6368" opacity="1.0">Gi0/1</text><polyline points="1264.6,874.0 1264.6,896.0 1140.8,896.0 1140.8,936.0" fill="none" stroke="#4a4a4a" stroke-width="2.0" opacity="1.0"></polyline><text x="1268.6" y="887.0" font-size="10.5" font-style="italic" fill="#5f6368" opacity="1.0">Gi0/3</text><text x="1144.8" y="931.0" font-size="10.5" font-style="italic" fill="#5f6368" opacity="1.0">Gi0/1</text><polyline points="1303.6,874.0 1303.6,936.0" fill="none" stroke="#4a4a4a" stroke-width="2.0" opacity="1.0"></polyline><text x="1307.6" y="887.0" font-size="10.5" font-style="italic" fill="#5f6368" opacity="1.0">Gi0/4</text><text x="1307.6" y="931.0" font-size="10.5" font-style="italic" fill="#5f6368" opacity="1.0">Gi0/1</text><polyline points="1342.6,874.0 1342.6,896.0 1466.4,896.0 1466.4,936.0" fill="none" stroke="#4a4a4a" stroke-width="2.0" opacity="1.0"></polyline><text x="1346.6" y="887.0" font-size="10.5" font-style="italic" fill="#5f6368" opacity="1.0">Gi0/5</text><text x="1470.4" y="931.0" font-size="10.5" font-style="italic" fill="#5f6368" opacity="1.0">Gi0/1</text><polyline points="1752.9,874.0 1752.9,896.0 1629.2,896.0 1629.2,936.0" fill="none" stroke="#4a4a4a" stroke-width="2.0" opacity="1.0"></polyline><text x="1756.9" y="887.0" font-size="10.5" font-style="italic" fill="#5f6368" opacity="1.0">Gi0/3</text><text x="1633.2" y="931.0" font-size="10.5" font-style="italic" fill="#5f6368" opacity="1.0">Gi0/1</text><polyline points="1791.9,874.0 1791.9,936.0" fill="none" stroke="#4a4a4a" stroke-width="2.0" opacity="1.0"></polyline><text x="1795.9" y="887.0" font-size="10.5" font-style="italic" fill="#5f6368" opacity="1.0">Gi0/4</text><text x="1795.9" y="931.0" font-size="10.5" font-style="italic" fill="#5f6368" opacity="1.0">Gi0/1</text><polyline points="1830.9,874.0 1830.9,896.0 1954.7,896.0 1954.7,936.0" fill="none" stroke="#4a4a4a" stroke-width="2.0" opacity="1.0"></polyline><text x="1834.9" y="887.0" font-size="10.5" font-style="italic" fill="#5f6368" opacity="1.0">Gi0/5</text><text x="1958.7" y="931.0" font-size="10.5" font-style="italic" fill="#5f6368" opacity="1.0">Gi0/1</text><polyline points="2117.5,874.0 2117.5,936.0" fill="none" stroke="#4a4a4a" stroke-width="2.0" opacity="1.0"></polyline><text x="2121.5" y="887.0" font-size="10.5" font-style="italic" fill="#5f6368" opacity="1.0">Gi0/3</text><text x="2121.5" y="931.0" font-size="10.5" font-style="italic" fill="#5f6368" opacity="1.0">Gi0/1</text><polyline points="1329.6,594.0 1329.6,648.0 390.0,648.0 390.0,688.0" fill="none" stroke="#4a4a4a" stroke-width="2.0" opacity="1.0"></polyline><text x="1333.6" y="607.0" font-size="10.5" font-style="italic" fill="#5f6368" opacity="1.0">Gi0/7</text><text x="394.0" y="683.0" font-size="10.5" font-style="italic" fill="#5f6368" opacity="1.0">Gi0/1</text><polyline points="1163.4,734.0 1163.4,772.0 244.0,772.0 244.0,828.0" fill="none" stroke="#4a4a4a" stroke-width="2.0" opacity="1.0"></polyline><text x="1167.4" y="747.0" font-size="10.5" font-style="italic" fill="#5f6368" opacity="1.0">Gi0/7</text><text x="248.0" y="823.0" font-size="10.5" font-style="italic" fill="#5f6368" opacity="1.0">Gi0/1</text><polyline points="351.0,734.0 351.0,756.0 199.7,756.0 199.7,828.0" fill="none" stroke="#4a4a4a" stroke-width="2.0" opacity="1.0"></polyline><text x="355.0" y="747.0" font-size="10.5" font-style="italic" fill="#5f6368" opacity="1.0">Gi0/2</text><text x="203.7" y="823.0" font-size="10.5" font-style="italic" fill="#5f6368" opacity="1.0">Gi0/2</text><polyline points="390.0,734.0 390.0,756.0 388.7,756.0 388.7,828.0" fill="none" stroke="#4a4a4a" stroke-width="2.0" opacity="1.0"></polyline><text x="394.0" y="747.0" font-size="10.5" font-style="italic" fill="#5f6368" opacity="1.0">Gi0/3</text><text x="392.7" y="823.0" font-size="10.5" font-style="italic" fill="#5f6368" opacity="1.0">Gi0/1</text><polyline points="429.0,734.0 429.0,756.0 559.5,756.0 559.5,828.0" fill="none" stroke="#4a4a4a" stroke-width="2.0" opacity="1.0"></polyline><text x="433.0" y="747.0" font-size="10.5" font-style="italic" fill="#5f6368" opacity="1.0">Gi0/4</text><text x="563.5" y="823.0" font-size="10.5" font-style="italic" fill="#5f6368" opacity="1.0">Gi0/1</text><polyline points="199.7,874.0 199.7,896.0 136.4,896.0 136.4,936.0" fill="none" stroke="#4a4a4a" stroke-width="2.0" opacity="1.0"></polyline><text x="203.7" y="887.0" font-size="10.5" font-style="italic" fill="#5f6368" opacity="1.0">Gi0/3</text><text x="140.4" y="931.0" font-size="10.5" font-style="italic" fill="#5f6368" opacity="1.0">Gi0/1</text><polyline points="244.0,874.0 244.0,896.0 307.3,896.0 307.3,936.0" fill="none" stroke="#4a4a4a" stroke-width="2.0" opacity="1.0"></polyline><text x="248.0" y="887.0" font-size="10.5" font-style="italic" fill="#5f6368" opacity="1.0">Gi0/4</text><text x="311.3" y="931.0" font-size="10.5" font-style="italic" fill="#5f6368" opacity="1.0">Gi0/1</text><polyline points="1879.9,486.0 1879.9,508.0 2284.2,508.0 2284.2,548.0" fill="none" stroke="#4a4a4a" stroke-width="2.0" opacity="1.0"></polyline><text x="1883.9" y="499.0" font-size="10.5" font-style="italic" fill="#5f6368" opacity="1.0">Gi0/3</text><text x="2288.2" y="543.0" font-size="10.5" font-style="italic" fill="#5f6368" opacity="1.0">Gi0/1</text><polyline points="2262.0,594.0 2262.0,616.0 2210.8,616.0 2210.8,688.0" fill="none" stroke="#4a4a4a" stroke-width="2.0" opacity="1.0"></polyline><text x="2266.0" y="607.0" font-size="10.5" font-style="italic" fill="#5f6368" opacity="1.0">Gi0/2</text><text x="2214.8" y="683.0" font-size="10.5" font-style="italic" fill="#5f6368" opacity="1.0">Gi0/1</text><polyline points="2306.3,594.0 2306.3,616.0 2357.5,616.0 2357.5,688.0" fill="none" stroke="#4a4a4a" stroke-width="2.0" opacity="1.0"></polyline><text x="2310.3" y="607.0" font-size="10.5" font-style="italic" fill="#5f6368" opacity="1.0">Gi0/3</text><text x="2361.5" y="683.0" font-size="10.5" font-style="italic" fill="#5f6368" opacity="1.0">Gi0/1</text><polyline points="3245.4,384.0 3245.4,406.0 3167.4,406.0 3167.4,446.0" fill="none" stroke="#4a4a4a" stroke-width="2.0" opacity="1.0"></polyline><text x="3249.4" y="397.0" font-size="10.5" font-style="italic" fill="#5f6368" opacity="1.0">Gi0/1</text><text x="3171.4" y="441.0" font-size="10.5" font-style="italic" fill="#5f6368" opacity="1.0">Gi0/1</text><polyline points="3408.1,384.0 3408.1,406.0 3323.4,406.0 3323.4,446.0" fill="none" stroke="#4a4a4a" stroke-width="2.0" opacity="1.0"></polyline><text x="3412.1" y="397.0" font-size="10.5" font-style="italic" fill="#5f6368" opacity="1.0">Gi0/1</text><text x="3327.4" y="441.0" font-size="10.5" font-style="italic" fill="#5f6368" opacity="1.0">Gi0/2</text><polyline points="3058.2,492.0 3058.2,514.0 2590.2,514.0 2590.2,586.0" fill="none" stroke="#4a4a4a" stroke-width="2.0" opacity="1.0"></polyline><text x="3062.2" y="505.0" font-size="10.5" font-style="italic" fill="#5f6368" opacity="1.0">Gi0/3</text><text x="2594.2" y="581.0" font-size="10.5" font-style="italic" fill="#5f6368" opacity="1.0">Gi0/1</text><polyline points="3105.0,492.0 3105.0,530.0 2753.0,530.0 2753.0,586.0" fill="none" stroke="#4a4a4a" stroke-width="2.0" opacity="1.0"></polyline><text x="3109.0" y="505.0" font-size="10.5" font-style="italic" fill="#5f6368" opacity="1.0">Gi0/4</text><text x="2757.0" y="581.0" font-size="10.5" font-style="italic" fill="#5f6368" opacity="1.0">Gi0/1</text><polyline points="3151.8,492.0 3151.8,546.0 2915.8,546.0 2915.8,586.0" fill="none" stroke="#4a4a4a" stroke-width="2.0" opacity="1.0"></polyline><text x="3155.8" y="505.0" font-size="10.5" font-style="italic" fill="#5f6368" opacity="1.0">Gi0/5</text><text x="2919.8" y="581.0" font-size="10.5" font-style="italic" fill="#5f6368" opacity="1.0">Gi0/1</text><polyline points="3198.6,492.0 3198.6,514.0 3078.6,514.0 3078.6,586.0" fill="none" stroke="#4a4a4a" stroke-width="2.0" opacity="1.0"></polyline><text x="3202.6" y="505.0" font-size="10.5" font-style="italic" fill="#5f6368" opacity="1.0">Gi0/6</text><text x="3082.6" y="581.0" font-size="10.5" font-style="italic" fill="#5f6368" opacity="1.0">Gi0/1</text><polyline points="3245.4,492.0 3245.4,514.0 3241.3,514.0 3241.3,586.0" fill="none" stroke="#4a4a4a" stroke-width="2.0" opacity="1.0"></polyline><text x="3249.4" y="505.0" font-size="10.5" font-style="italic" fill="#5f6368" opacity="1.0">Gi0/7</text><text x="3245.3" y="581.0" font-size="10.5" font-style="italic" fill="#5f6368" opacity="1.0">Gi0/1</text><polyline points="3292.2,492.0 3292.2,514.0 3404.1,514.0 3404.1,586.0" fill="none" stroke="#4a4a4a" stroke-width="2.0" opacity="1.0"></polyline><text x="3296.2" y="505.0" font-size="10.5" font-style="italic" fill="#5f6368" opacity="1.0">Gi0/8</text><text x="3408.1" y="581.0" font-size="10.5" font-style="italic" fill="#5f6368" opacity="1.0">Gi0/1</text><polyline points="3339.0,492.0 3339.0,530.0 3570.9,530.0 3570.9,586.0" fill="none" stroke="#4a4a4a" stroke-width="2.0" opacity="1.0"></polyline><text x="3343.0" y="505.0" font-size="10.5" font-style="italic" fill="#5f6368" opacity="1.0">Gi0/9</text><text x="3574.9" y="581.0" font-size="10.5" font-style="italic" fill="#5f6368" opacity="1.0">Gi0/1</text><polyline points="3385.8,492.0 3385.8,546.0 3741.8,546.0 3741.8,586.0" fill="none" stroke="#4a4a4a" stroke-width="2.0" opacity="1.0"></polyline><text x="3389.8" y="505.0" font-size="10.5" font-style="italic" fill="#5f6368" opacity="1.0">Gi0/10</text><text x="3745.8" y="581.0" font-size="10.5" font-style="italic" fill="#5f6368" opacity="1.0">Gi0/1</text><polyline points="3432.6,492.0 3432.6,514.0 3912.6,514.0 3912.6,586.0" fill="none" stroke="#4a4a4a" stroke-width="2.0" opacity="1.0"></polyline><text x="3436.6" y="505.0" font-size="10.5" font-style="italic" fill="#5f6368" opacity="1.0">Gi0/11</text><text x="3916.6" y="581.0" font-size="10.5" font-style="italic" fill="#5f6368" opacity="1.0">Gi0/1</text><polyline points="4648.1,384.0 4648.1,440.0" fill="none" stroke="#4a4a4a" stroke-width="2.0" opacity="1.0"></polyline><text x="4652.1" y="397.0" font-size="10.5" font-style="italic" fill="#5f6368" opacity="1.0">Gi0/1</text><text x="4652.1" y="435.0" font-size="10.5" font-style="italic" fill="#5f6368" opacity="1.0">Gi0/1</text><polyline points="4511.6,486.0 4511.6,508.0 4157.4,508.0 4157.4,580.0" fill="none" stroke="#4a4a4a" stroke-width="2.0" opacity="1.0"></polyline><text x="4515.6" y="499.0" font-size="10.5" font-style="italic" fill="#5f6368" opacity="1.0">Gi0/2</text><text x="4161.4" y="575.0" font-size="10.5" font-style="italic" fill="#5f6368" opacity="1.0">Gi0/1</text><polyline points="4557.1,486.0 4557.1,524.0 4320.2,524.0 4320.2,580.0" fill="none" stroke="#4a4a4a" stroke-width="2.0" opacity="1.0"></polyline><text x="4561.1" y="499.0" font-size="10.5" font-style="italic" fill="#5f6368" opacity="1.0">Gi0/3</text><text x="4324.2" y="575.0" font-size="10.5" font-style="italic" fill="#5f6368" opacity="1.0">Gi0/1</text><polyline points="4602.6,486.0 4602.6,540.0 4483.0,540.0 4483.0,580.0" fill="none" stroke="#4a4a4a" stroke-width="2.0" opacity="1.0"></polyline><text x="4606.6" y="499.0" font-size="10.5" font-style="italic" fill="#5f6368" opacity="1.0">Gi0/4</text><text x="4487.0" y="575.0" font-size="10.5" font-style="italic" fill="#5f6368" opacity="1.0">Gi0/1</text><polyline points="4648.1,486.0 4648.1,508.0 4645.8,508.0 4645.8,580.0" fill="none" stroke="#4a4a4a" stroke-width="2.0" opacity="1.0"></polyline><text x="4652.1" y="499.0" font-size="10.5" font-style="italic" fill="#5f6368" opacity="1.0">Gi0/5</text><text x="4649.8" y="575.0" font-size="10.5" font-style="italic" fill="#5f6368" opacity="1.0">Gi0/1</text><polyline points="4693.6,486.0 4693.6,508.0 4808.5,508.0 4808.5,580.0" fill="none" stroke="#4a4a4a" stroke-width="2.0" opacity="1.0"></polyline><text x="4697.6" y="499.0" font-size="10.5" font-style="italic" fill="#5f6368" opacity="1.0">Gi0/6</text><text x="4812.5" y="575.0" font-size="10.5" font-style="italic" fill="#5f6368" opacity="1.0">Gi0/1</text><polyline points="4739.1,486.0 4739.1,524.0 4975.3,524.0 4975.3,580.0" fill="none" stroke="#4a4a4a" stroke-width="2.0" opacity="1.0"></polyline><text x="4743.1" y="499.0" font-size="10.5" font-style="italic" fill="#5f6368" opacity="1.0">Gi0/7</text><text x="4979.3" y="575.0" font-size="10.5" font-style="italic" fill="#5f6368" opacity="1.0">Gi0/1</text><polyline points="4784.6,486.0 4784.6,540.0 5146.2,540.0 5146.2,580.0" fill="none" stroke="#4a4a4a" stroke-width="2.0" opacity="1.0"></polyline><text x="4788.6" y="499.0" font-size="10.5" font-style="italic" fill="#5f6368" opacity="1.0">Gi0/8</text><text x="5150.2" y="575.0" font-size="10.5" font-style="italic" fill="#5f6368" opacity="1.0">Gi0/1</text><polyline points="3214.5,122.0 3214.5,140.0 1862.6,140.0 1862.6,338.0" fill="none" stroke="#1a73e8" stroke-width="3.5" opacity="1.0"></polyline><rect x="1790.7" y="186.0" width="143.8" height="42.0" rx="4" fill="#ffffff" fill-opacity="0.92" opacity="1.0"/><text x="1862.6" y="199.0" text-anchor="middle" font-size="12" font-style="italic" font-weight="400" fill="#5f6368" opacity="1.0">NTT Com IP-VPN 1G</text><text x="1862.6" y="216.0" text-anchor="middle" font-size="12" font-style="italic" font-weight="400" fill="#5f6368" opacity="1.0">(Gi0/2)</text><polyline points="3252.0,122.0 3252.0,140.0 3245.4,140.0 3245.4,338.0" fill="none" stroke="#1a73e8" stroke-width="3.5" opacity="1.0"></polyline><rect x="3165.7" y="186.0" width="159.2" height="42.0" rx="4" fill="#ffffff" fill-opacity="0.92" opacity="1.0"/><text x="3245.4" y="199.0" text-anchor="middle" font-size="12" font-style="italic" font-weight="400" fill="#5f6368" opacity="1.0">NTT Com IP-VPN 200M</text><text x="3245.4" y="216.0" text-anchor="middle" font-size="12" font-style="italic" font-weight="400" fill="#5f6368" opacity="1.0">(Gi0/2)</text><polyline points="3289.5,122.0 3289.5,140.0 4648.1,140.0 4648.1,338.0" fill="none" stroke="#1a73e8" stroke-width="3.5" opacity="1.0"></polyline><rect x="4568.4" y="186.0" width="159.2" height="42.0" rx="4" fill="#ffffff" fill-opacity="0.92" opacity="1.0"/><text x="4648.1" y="199.0" text-anchor="middle" font-size="12" font-style="italic" font-weight="400" fill="#5f6368" opacity="1.0">NTT Com IP-VPN 100M</text><text x="4648.1" y="216.0" text-anchor="middle" font-size="12" font-style="italic" font-weight="400" fill="#5f6368" opacity="1.0">(Gi0/2)</text><polyline points="2301.8,122.0 2301.8,158.0 1250.0,158.0 1250.0,338.0" fill="none" stroke="#1a73e8" stroke-width="3.5" opacity="1.0"></polyline><rect x="1154.3" y="186.0" width="191.5" height="42.0" rx="4" fill="#ffffff" fill-opacity="0.92" opacity="1.0"/><text x="1250.0" y="199.0" text-anchor="middle" font-size="12" font-style="italic" font-weight="400" fill="#5f6368" opacity="1.0">NTT東 フレッツ光 + OCN 1G</text><text x="1250.0" y="216.0" text-anchor="middle" font-size="12" font-style="italic" font-weight="400" fill="#5f6368" opacity="1.0">(Gi0/2)</text><polyline points="2356.4,122.0 2356.4,158.0 3408.1,158.0 3408.1,338.0" fill="none" stroke="#1a73e8" stroke-width="3.5" opacity="1.0"></polyline><rect x="3312.4" y="222.0" width="191.5" height="42.0" rx="4" fill="#ffffff" fill-opacity="0.92" opacity="1.0"/><text x="3408.1" y="235.0" text-anchor="middle" font-size="12" font-style="italic" font-weight="400" fill="#5f6368" opacity="1.0">NTT西 フレッツ光 + OCN 1G</text><text x="3408.1" y="252.0" text-anchor="middle" font-size="12" font-style="italic" font-weight="400" fill="#5f6368" opacity="1.0">(Gi0/2)</text><ellipse cx="2329.1" cy="84.0" rx="81.8" ry="38.0" fill="#f1f3f4" stroke="#5f6368" stroke-width="1.6"/><text x="2329.1" y="84.0" text-anchor="middle" dominant-baseline="central" font-size="12.5" font-weight="600" fill="#1e293b">インターネット</text><ellipse cx="3252.0" cy="84.0" rx="75.0" ry="38.0" fill="#f1f3f4" stroke="#5f6368" stroke-width="1.6"/><text x="3252.0" y="84.0" text-anchor="middle" dominant-baseline="central" font-size="12.5" font-weight="600" fill="#1e293b">IP-VPN網</text><rect x="1796.2" y="338.0" width="132.8" height="46.0" rx="4" fill="#e8f0fe" stroke="#1a56b0" stroke-width="1.4"/><text x="1862.6" y="353.0" text-anchor="middle" dominant-baseline="central" font-size="12.5" font-weight="600" fill="#1e293b">hq-rt01</text><text x="1862.6" y="369.0" text-anchor="middle" dominant-baseline="central" font-size="12.5" font-weight="400" fill="#1e293b">Cisco ISR4451</text><rect x="1810.6" y="440.0" width="104.0" height="46.0" rx="4" fill="#fce8e6" stroke="#c5221f" stroke-width="1.4"/><text x="1862.6" y="455.0" text-anchor="middle" dominant-baseline="central" font-size="12.5" font-weight="600" fill="#1e293b">hq-fw01</text><text x="1862.6" y="471.0" text-anchor="middle" dominant-baseline="central" font-size="12.5" font-weight="400" fill="#1e293b">PA-3410</text><rect x="1183.6" y="338.0" width="132.8" height="46.0" rx="4" fill="#e8f0fe" stroke="#1a56b0" stroke-width="1.4"/><text x="1250.0" y="353.0" text-anchor="middle" dominant-baseline="central" font-size="12.5" font-weight="600" fill="#1e293b">hq-rt02</text><text x="1250.0" y="369.0" text-anchor="middle" dominant-baseline="central" font-size="12.5" font-weight="400" fill="#1e293b">Cisco ISR4451</text><rect x="1205.0" y="440.0" width="90.0" height="46.0" rx="4" fill="#fce8e6" stroke="#c5221f" stroke-width="1.4"/><text x="1250.0" y="455.0" text-anchor="middle" dominant-baseline="central" font-size="12.5" font-weight="600" fill="#1e293b">hq-fw02</text><text x="1250.0" y="471.0" text-anchor="middle" dominant-baseline="central" font-size="12.5" font-weight="400" fill="#1e293b">PA-3410</text><rect x="1285.0" y="548.0" width="312.0" height="46.0" rx="4" fill="#d2e3fc" stroke="#1a56b0" stroke-width="1.4"/><text x="1441.0" y="563.0" text-anchor="middle" dominant-baseline="central" font-size="12.5" font-weight="600" fill="#1e293b">hq-core01</text><text x="1441.0" y="579.0" text-anchor="middle" dominant-baseline="central" font-size="12.5" font-weight="400" fill="#1e293b">Catalyst 9500</text><rect x="1120.0" y="688.0" width="260.0" height="46.0" rx="4" fill="#d2e3fc" stroke="#1a56b0" stroke-width="1.4"/><text x="1250.0" y="703.0" text-anchor="middle" dominant-baseline="central" font-size="12.5" font-weight="600" fill="#1e293b">hq-core02</text><text x="1250.0" y="719.0" text-anchor="middle" dominant-baseline="central" font-size="12.5" font-weight="400" fill="#1e293b">Catalyst 9500</text><rect x="737.3" y="828.0" width="156.0" height="46.0" rx="4" fill="#d2e3fc" stroke="#1a56b0" stroke-width="1.4"/><text x="815.3" y="843.0" text-anchor="middle" dominant-baseline="central" font-size="12.5" font-weight="600" fill="#1e293b">hq-dist01</text><text x="815.3" y="859.0" text-anchor="middle" dominant-baseline="central" font-size="12.5" font-weight="400" fill="#1e293b">Catalyst 9300</text><rect x="1225.6" y="828.0" width="156.0" height="46.0" rx="4" fill="#d2e3fc" stroke="#1a56b0" stroke-width="1.4"/><text x="1303.6" y="843.0" text-anchor="middle" dominant-baseline="central" font-size="12.5" font-weight="600" fill="#1e293b">hq-dist02</text><text x="1303.6" y="859.0" text-anchor="middle" dominant-baseline="central" font-size="12.5" font-weight="400" fill="#1e293b">Catalyst 9300</text><rect x="1713.9" y="828.0" width="156.0" height="46.0" rx="4" fill="#d2e3fc" stroke="#1a56b0" stroke-width="1.4"/><text x="1791.9" y="843.0" text-anchor="middle" dominant-baseline="central" font-size="12.5" font-weight="600" fill="#1e293b">hq-dist03</text><text x="1791.9" y="859.0" text-anchor="middle" dominant-baseline="central" font-size="12.5" font-weight="400" fill="#1e293b">Catalyst 9300</text><rect x="2051.1" y="828.0" width="132.8" height="46.0" rx="4" fill="#d2e3fc" stroke="#1a56b0" stroke-width="1.4"/><text x="2117.5" y="843.0" text-anchor="middle" dominant-baseline="central" font-size="12.5" font-weight="600" fill="#1e293b">hq-dist04</text><text x="2117.5" y="859.0" text-anchor="middle" dominant-baseline="central" font-size="12.5" font-weight="400" fill="#1e293b">Catalyst 9300</text><rect x="586.1" y="936.0" width="132.8" height="46.0" rx="4" fill="#e6f4ea" stroke="#137333" stroke-width="1.4"/><text x="652.5" y="951.0" text-anchor="middle" dominant-baseline="central" font-size="12.5" font-weight="600" fill="#1e293b">hq-acc01</text><text x="652.5" y="967.0" text-anchor="middle" dominant-baseline="central" font-size="12.5" font-weight="400" fill="#1e293b">Catalyst 1000</text><rect x="748.9" y="936.0" width="132.8" height="46.0" rx="4" fill="#e6f4ea" stroke="#137333" stroke-width="1.4"/><text x="815.3" y="951.0" text-anchor="middle" dominant-baseline="central" font-size="12.5" font-weight="600" fill="#1e293b">hq-acc02</text><text x="815.3" y="967.0" text-anchor="middle" dominant-baseline="central" font-size="12.5" font-weight="400" fill="#1e293b">Catalyst 1000</text><rect x="911.7" y="936.0" width="132.8" height="46.0" rx="4" fill="#e6f4ea" stroke="#137333" stroke-width="1.4"/><text x="978.0" y="951.0" text-anchor="middle" dominant-baseline="central" font-size="12.5" font-weight="600" fill="#1e293b">hq-acc03</text><text x="978.0" y="967.0" text-anchor="middle" dominant-baseline="central" font-size="12.5" font-weight="400" fill="#1e293b">Catalyst 1000</text><rect x="1074.4" y="936.0" width="132.8" height="46.0" rx="4" fill="#e6f4ea" stroke="#137333" stroke-width="1.4"/><text x="1140.8" y="951.0" text-anchor="middle" dominant-baseline="central" font-size="12.5" font-weight="600" fill="#1e293b">hq-acc04</text><text x="1140.8" y="967.0" text-anchor="middle" dominant-baseline="central" font-size="12.5" font-weight="400" fill="#1e293b">Catalyst 1000</text><rect x="1237.2" y="936.0" width="132.8" height="46.0" rx="4" fill="#e6f4ea" stroke="#137333" stroke-width="1.4"/><text x="1303.6" y="951.0" text-anchor="middle" dominant-baseline="central" font-size="12.5" font-weight="600" fill="#1e293b">hq-acc05</text><text x="1303.6" y="967.0" text-anchor="middle" dominant-baseline="central" font-size="12.5" font-weight="400" fill="#1e293b">Catalyst 1000</text><rect x="1400.0" y="936.0" width="132.8" height="46.0" rx="4" fill="#e6f4ea" stroke="#137333" stroke-width="1.4"/><text x="1466.4" y="951.0" text-anchor="middle" dominant-baseline="central" font-size="12.5" font-weight="600" fill="#1e293b">hq-acc06</text><text x="1466.4" y="967.0" text-anchor="middle" dominant-baseline="central" font-size="12.5" font-weight="400" fill="#1e293b">Catalyst 1000</text><rect x="1562.8" y="936.0" width="132.8" height="46.0" rx="4" fill="#e6f4ea" stroke="#137333" stroke-width="1.4"/><text x="1629.2" y="951.0" text-anchor="middle" dominant-baseline="central" font-size="12.5" font-weight="600" fill="#1e293b">hq-acc07</text><text x="1629.2" y="967.0" text-anchor="middle" dominant-baseline="central" font-size="12.5" font-weight="400" fill="#1e293b">Catalyst 1000</text><rect x="1725.6" y="936.0" width="132.8" height="46.0" rx="4" fill="#e6f4ea" stroke="#137333" stroke-width="1.4"/><text x="1791.9" y="951.0" text-anchor="middle" dominant-baseline="central" font-size="12.5" font-weight="600" fill="#1e293b">hq-acc08</text><text x="1791.9" y="967.0" text-anchor="middle" dominant-baseline="central" font-size="12.5" font-weight="400" fill="#1e293b">Catalyst 1000</text><rect x="1888.3" y="936.0" width="132.8" height="46.0" rx="4" fill="#e6f4ea" stroke="#137333" stroke-width="1.4"/><text x="1954.7" y="951.0" text-anchor="middle" dominant-baseline="central" font-size="12.5" font-weight="600" fill="#1e293b">hq-acc09</text><text x="1954.7" y="967.0" text-anchor="middle" dominant-baseline="central" font-size="12.5" font-weight="400" fill="#1e293b">Catalyst 1000</text><rect x="2051.1" y="936.0" width="132.8" height="46.0" rx="4" fill="#e6f4ea" stroke="#137333" stroke-width="1.4"/><text x="2117.5" y="951.0" text-anchor="middle" dominant-baseline="central" font-size="12.5" font-weight="600" fill="#1e293b">hq-acc10</text><text x="2117.5" y="967.0" text-anchor="middle" dominant-baseline="central" font-size="12.5" font-weight="400" fill="#1e293b">Catalyst 1000</text><rect x="312.0" y="688.0" width="156.0" height="46.0" rx="4" fill="#e6f4ea" stroke="#137333" stroke-width="1.4"/><text x="390.0" y="703.0" text-anchor="middle" dominant-baseline="central" font-size="12.5" font-weight="600" fill="#1e293b">hq-srvsw01</text><text x="390.0" y="719.0" text-anchor="middle" dominant-baseline="central" font-size="12.5" font-weight="400" fill="#1e293b">Catalyst 9200</text><rect x="155.5" y="828.0" width="132.8" height="46.0" rx="4" fill="#e6f4ea" stroke="#137333" stroke-width="1.4"/><text x="221.8" y="843.0" text-anchor="middle" dominant-baseline="central" font-size="12.5" font-weight="600" fill="#1e293b">hq-srvsw02</text><text x="221.8" y="859.0" text-anchor="middle" dominant-baseline="central" font-size="12.5" font-weight="400" fill="#1e293b">Catalyst 9200</text><rect x="318.2" y="828.0" width="140.8" height="46.0" rx="4" fill="#f1f3f4" stroke="#5f6368" stroke-width="1.4"/><text x="388.7" y="843.0" text-anchor="middle" dominant-baseline="central" font-size="12.5" font-weight="600" fill="#1e293b">hq-srv01</text><text x="388.7" y="859.0" text-anchor="middle" dominant-baseline="central" font-size="12.5" font-weight="400" fill="#1e293b">PowerEdge R660</text><rect x="489.1" y="828.0" width="140.8" height="46.0" rx="4" fill="#f1f3f4" stroke="#5f6368" stroke-width="1.4"/><text x="559.5" y="843.0" text-anchor="middle" dominant-baseline="central" font-size="12.5" font-weight="600" fill="#1e293b">hq-srv02</text><text x="559.5" y="859.0" text-anchor="middle" dominant-baseline="central" font-size="12.5" font-weight="400" fill="#1e293b">PowerEdge R660</text><rect x="66.0" y="936.0" width="140.8" height="46.0" rx="4" fill="#f1f3f4" stroke="#5f6368" stroke-width="1.4"/><text x="136.4" y="951.0" text-anchor="middle" dominant-baseline="central" font-size="12.5" font-weight="600" fill="#1e293b">hq-srv03</text><text x="136.4" y="967.0" text-anchor="middle" dominant-baseline="central" font-size="12.5" font-weight="400" fill="#1e293b">PowerEdge R660</text><rect x="236.8" y="936.0" width="140.8" height="46.0" rx="4" fill="#f1f3f4" stroke="#5f6368" stroke-width="1.4"/><text x="307.3" y="951.0" text-anchor="middle" dominant-baseline="central" font-size="12.5" font-weight="600" fill="#1e293b">hq-srv04</text><text x="307.3" y="967.0" text-anchor="middle" dominant-baseline="central" font-size="12.5" font-weight="400" fill="#1e293b">PowerEdge R660</text><rect x="2217.8" y="548.0" width="132.8" height="46.0" rx="4" fill="#e6f4ea" stroke="#137333" stroke-width="1.4"/><text x="2284.2" y="563.0" text-anchor="middle" dominant-baseline="central" font-size="12.5" font-weight="600" fill="#1e293b">hq-dmzsw01</text><text x="2284.2" y="579.0" text-anchor="middle" dominant-baseline="central" font-size="12.5" font-weight="400" fill="#1e293b">Catalyst 1000</text><rect x="2152.5" y="688.0" width="116.7" height="46.0" rx="4" fill="#f1f3f4" stroke="#5f6368" stroke-width="1.4"/><text x="2210.8" y="703.0" text-anchor="middle" dominant-baseline="central" font-size="12.5" font-weight="600" fill="#1e293b">hq-dmzsrv01</text><text x="2210.8" y="719.0" text-anchor="middle" dominant-baseline="central" font-size="12.5" font-weight="400" fill="#1e293b">公開Web</text><rect x="2299.2" y="688.0" width="116.7" height="46.0" rx="4" fill="#f1f3f4" stroke="#5f6368" stroke-width="1.4"/><text x="2357.5" y="703.0" text-anchor="middle" dominant-baseline="central" font-size="12.5" font-weight="600" fill="#1e293b">hq-dmzsrv02</text><text x="2357.5" y="719.0" text-anchor="middle" dominant-baseline="central" font-size="12.5" font-weight="400" fill="#1e293b">公開DNS</text><rect x="3179.0" y="338.0" width="132.8" height="46.0" rx="4" fill="#e8f0fe" stroke="#1a56b0" stroke-width="1.4"/><text x="3245.4" y="353.0" text-anchor="middle" dominant-baseline="central" font-size="12.5" font-weight="600" fill="#1e293b">osk-rt01</text><text x="3245.4" y="369.0" text-anchor="middle" dominant-baseline="central" font-size="12.5" font-weight="400" fill="#1e293b">Cisco ISR4331</text><rect x="3011.4" y="446.0" width="468.0" height="46.0" rx="4" fill="#d2e3fc" stroke="#1a56b0" stroke-width="1.4"/><text x="3245.4" y="461.0" text-anchor="middle" dominant-baseline="central" font-size="12.5" font-weight="600" fill="#1e293b">osk-core01</text><text x="3245.4" y="477.0" text-anchor="middle" dominant-baseline="central" font-size="12.5" font-weight="400" fill="#1e293b">Catalyst 9300</text><rect x="3341.8" y="338.0" width="132.8" height="46.0" rx="4" fill="#e8f0fe" stroke="#1a56b0" stroke-width="1.4"/><text x="3408.1" y="353.0" text-anchor="middle" dominant-baseline="central" font-size="12.5" font-weight="600" fill="#1e293b">osk-rt02</text><text x="3408.1" y="369.0" text-anchor="middle" dominant-baseline="central" font-size="12.5" font-weight="400" fill="#1e293b">Cisco ISR4331</text><rect x="2523.8" y="586.0" width="132.8" height="46.0" rx="4" fill="#e6f4ea" stroke="#137333" stroke-width="1.4"/><text x="2590.2" y="601.0" text-anchor="middle" dominant-baseline="central" font-size="12.5" font-weight="600" fill="#1e293b">osk-acc01</text><text x="2590.2" y="617.0" text-anchor="middle" dominant-baseline="central" font-size="12.5" font-weight="400" fill="#1e293b">Catalyst 1000</text><rect x="2686.6" y="586.0" width="132.8" height="46.0" rx="4" fill="#e6f4ea" stroke="#137333" stroke-width="1.4"/><text x="2753.0" y="601.0" text-anchor="middle" dominant-baseline="central" font-size="12.5" font-weight="600" fill="#1e293b">osk-acc02</text><text x="2753.0" y="617.0" text-anchor="middle" dominant-baseline="central" font-size="12.5" font-weight="400" fill="#1e293b">Catalyst 1000</text><rect x="2849.4" y="586.0" width="132.8" height="46.0" rx="4" fill="#e6f4ea" stroke="#137333" stroke-width="1.4"/><text x="2915.8" y="601.0" text-anchor="middle" dominant-baseline="central" font-size="12.5" font-weight="600" fill="#1e293b">osk-acc03</text><text x="2915.8" y="617.0" text-anchor="middle" dominant-baseline="central" font-size="12.5" font-weight="400" fill="#1e293b">Catalyst 1000</text><rect x="3012.2" y="586.0" width="132.8" height="46.0" rx="4" fill="#e6f4ea" stroke="#137333" stroke-width="1.4"/><text x="3078.6" y="601.0" text-anchor="middle" dominant-baseline="central" font-size="12.5" font-weight="600" fill="#1e293b">osk-acc04</text><text x="3078.6" y="617.0" text-anchor="middle" dominant-baseline="central" font-size="12.5" font-weight="400" fill="#1e293b">Catalyst 1000</text><rect x="3174.9" y="586.0" width="132.8" height="46.0" rx="4" fill="#e6f4ea" stroke="#137333" stroke-width="1.4"/><text x="3241.3" y="601.0" text-anchor="middle" dominant-baseline="central" font-size="12.5" font-weight="600" fill="#1e293b">osk-acc05</text><text x="3241.3" y="617.0" text-anchor="middle" dominant-baseline="central" font-size="12.5" font-weight="400" fill="#1e293b">Catalyst 1000</text><rect x="3337.7" y="586.0" width="132.8" height="46.0" rx="4" fill="#e6f4ea" stroke="#137333" stroke-width="1.4"/><text x="3404.1" y="601.0" text-anchor="middle" dominant-baseline="central" font-size="12.5" font-weight="600" fill="#1e293b">osk-acc06</text><text x="3404.1" y="617.0" text-anchor="middle" dominant-baseline="central" font-size="12.5" font-weight="400" fill="#1e293b">Catalyst 1000</text><rect x="3500.5" y="586.0" width="140.8" height="46.0" rx="4" fill="#f1f3f4" stroke="#5f6368" stroke-width="1.4"/><text x="3570.9" y="601.0" text-anchor="middle" dominant-baseline="central" font-size="12.5" font-weight="600" fill="#1e293b">osk-srv01</text><text x="3570.9" y="617.0" text-anchor="middle" dominant-baseline="central" font-size="12.5" font-weight="400" fill="#1e293b">PowerEdge R450</text><rect x="3671.3" y="586.0" width="140.8" height="46.0" rx="4" fill="#f1f3f4" stroke="#5f6368" stroke-width="1.4"/><text x="3741.8" y="601.0" text-anchor="middle" dominant-baseline="central" font-size="12.5" font-weight="600" fill="#1e293b">osk-srv02</text><text x="3741.8" y="617.0" text-anchor="middle" dominant-baseline="central" font-size="12.5" font-weight="400" fill="#1e293b">PowerEdge R450</text><rect x="3842.2" y="586.0" width="140.8" height="46.0" rx="4" fill="#f1f3f4" stroke="#5f6368" stroke-width="1.4"/><text x="3912.6" y="601.0" text-anchor="middle" dominant-baseline="central" font-size="12.5" font-weight="600" fill="#1e293b">osk-srv03</text><text x="3912.6" y="617.0" text-anchor="middle" dominant-baseline="central" font-size="12.5" font-weight="400" fill="#1e293b">PowerEdge R450</text><rect x="4581.7" y="338.0" width="132.8" height="46.0" rx="4" fill="#e8f0fe" stroke="#1a56b0" stroke-width="1.4"/><text x="4648.1" y="353.0" text-anchor="middle" dominant-baseline="central" font-size="12.5" font-weight="600" fill="#1e293b">ngy-rt01</text><text x="4648.1" y="369.0" text-anchor="middle" dominant-baseline="central" font-size="12.5" font-weight="400" fill="#1e293b">Cisco ISR1100</text><rect x="4466.1" y="440.0" width="364.0" height="46.0" rx="4" fill="#e6f4ea" stroke="#137333" stroke-width="1.4"/><text x="4648.1" y="455.0" text-anchor="middle" dominant-baseline="central" font-size="12.5" font-weight="600" fill="#1e293b">ngy-sw01</text><text x="4648.1" y="471.0" text-anchor="middle" dominant-baseline="central" font-size="12.5" font-weight="400" fill="#1e293b">Catalyst 1000</text><rect x="4091.0" y="580.0" width="132.8" height="46.0" rx="4" fill="#e6f4ea" stroke="#137333" stroke-width="1.4"/><text x="4157.4" y="595.0" text-anchor="middle" dominant-baseline="central" font-size="12.5" font-weight="600" fill="#1e293b">ngy-acc01</text><text x="4157.4" y="611.0" text-anchor="middle" dominant-baseline="central" font-size="12.5" font-weight="400" fill="#1e293b">Catalyst 1000</text><rect x="4253.8" y="580.0" width="132.8" height="46.0" rx="4" fill="#e6f4ea" stroke="#137333" stroke-width="1.4"/><text x="4320.2" y="595.0" text-anchor="middle" dominant-baseline="central" font-size="12.5" font-weight="600" fill="#1e293b">ngy-acc02</text><text x="4320.2" y="611.0" text-anchor="middle" dominant-baseline="central" font-size="12.5" font-weight="400" fill="#1e293b">Catalyst 1000</text><rect x="4416.6" y="580.0" width="132.8" height="46.0" rx="4" fill="#e6f4ea" stroke="#137333" stroke-width="1.4"/><text x="4483.0" y="595.0" text-anchor="middle" dominant-baseline="central" font-size="12.5" font-weight="600" fill="#1e293b">ngy-acc03</text><text x="4483.0" y="611.0" text-anchor="middle" dominant-baseline="central" font-size="12.5" font-weight="400" fill="#1e293b">Catalyst 1000</text><rect x="4579.4" y="580.0" width="132.8" height="46.0" rx="4" fill="#e6f4ea" stroke="#137333" stroke-width="1.4"/><text x="4645.8" y="595.0" text-anchor="middle" dominant-baseline="central" font-size="12.5" font-weight="600" fill="#1e293b">ngy-acc04</text><text x="4645.8" y="611.0" text-anchor="middle" dominant-baseline="central" font-size="12.5" font-weight="400" fill="#1e293b">Catalyst 1000</text><rect x="4742.1" y="580.0" width="132.8" height="46.0" rx="4" fill="#e6f4ea" stroke="#137333" stroke-width="1.4"/><text x="4808.5" y="595.0" text-anchor="middle" dominant-baseline="central" font-size="12.5" font-weight="600" fill="#1e293b">ngy-acc05</text><text x="4808.5" y="611.0" text-anchor="middle" dominant-baseline="central" font-size="12.5" font-weight="400" fill="#1e293b">Catalyst 1000</text><rect x="4904.9" y="580.0" width="140.8" height="46.0" rx="4" fill="#f1f3f4" stroke="#5f6368" stroke-width="1.4"/><text x="4975.3" y="595.0" text-anchor="middle" dominant-baseline="central" font-size="12.5" font-weight="600" fill="#1e293b">ngy-srv01</text><text x="4975.3" y="611.0" text-anchor="middle" dominant-baseline="central" font-size="12.5" font-weight="400" fill="#1e293b">PowerEdge R450</text><rect x="5075.8" y="580.0" width="140.8" height="46.0" rx="4" fill="#f1f3f4" stroke="#5f6368" stroke-width="1.4"/><text x="5146.2" y="595.0" text-anchor="middle" dominant-baseline="central" font-size="12.5" font-weight="600" fill="#1e293b">ngy-srv02</text><text x="5146.2" y="611.0" text-anchor="middle" dominant-baseline="central" font-size="12.5" font-weight="400" fill="#1e293b">PowerEdge R450</text></svg>