<svg xmlns="http://www.w3.org/2000/svg" width="537" height="548" viewBox="0 0 537 548" font-family="'Segoe UI','Hiragino Sans','Noto Sans JP',Meiryo,sans-serif"><defs></defs><rect width="100%" height="100%" fill="#ffffff"/><text x="24" y="30" font-size="19" font-weight="700" fill="#1e293b">全社WAN概要図</text><polyline points="305.5,122.0 305.5,140.0 76.0,140.0 76.0,462.0" fill="none" stroke="#1a73e8" stroke-width="3.5" opacity="1.0"></polyline><rect x="4.1" y="258.0" width="143.8" height="24.0" rx="4" fill="#ffffff" fill-opacity="0.92" opacity="1.0"/><text x="76.0" y="271.0" text-anchor="middle" font-size="12" font-style="italic" font-weight="400" fill="#5f6368" opacity="1.0">NTT Com IP-VPN 1G</text><polyline points="361.8,122.0 361.8,158.0 205.0,158.0 205.0,462.0" fill="none" stroke="#1a73e8" stroke-width="3.5" opacity="1.0"></polyline><rect x="125.4" y="294.0" width="159.2" height="24.0" rx="4" fill="#ffffff" fill-opacity="0.92" opacity="1.0"/><text x="205.0" y="307.0" text-anchor="middle" font-size="12" font-style="italic" font-weight="400" fill="#5f6368" opacity="1.0">NTT Com IP-VPN 200M</text><polyline points="399.3,122.0 399.3,176.0 316.6,176.0 316.6,462.0" fill="none" stroke="#1a73e8" stroke-width="3.5" opacity="1.0"></polyline><rect x="237.0" y="258.0" width="159.2" height="24.0" rx="4" fill="#ffffff" fill-opacity="0.92" opacity="1.0"/><text x="316.6" y="271.0" text-anchor="middle" font-size="12" font-style="italic" font-weight="400" fill="#5f6368" opacity="1.0">NTT Com IP-VPN 100M</text><polyline points="117.7,122.0 117.7,158.0 58.0,158.0 58.0,462.0" fill="none" stroke="#1a73e8" stroke-width="3.5" opacity="1.0"></polyline><rect x="-37.8" y="330.0" width="191.5" height="24.0" rx="4" fill="#ffffff" fill-opacity="0.92" opacity="1.0"/><text x="58.0" y="343.0" text-anchor="middle" font-size="12" font-style="italic" font-weight="400" fill="#5f6368" opacity="1.0">NTT東 フレッツ光 + OCN 1G</text><polyline points="172.3,122.0 172.3,158.0 182.5,158.0 182.5,462.0" fill="none" stroke="#1a73e8" stroke-width="3.5" opacity="1.0"></polyline><rect x="86.8" y="366.0" width="191.5" height="24.0" rx="4" fill="#ffffff" fill-opacity="0.92" opacity="1.0"/><text x="182.5" y="379.0" text-anchor="middle" font-size="12" font-style="italic" font-weight="400" fill="#5f6368" opacity="1.0">NTT西 フレッツ光 + OCN 1G</text><polyline points="324.3,122.0 324.3,194.0 94.0,194.0 94.0,462.0" fill="none" stroke="#188038" stroke-width="2.0" opacity="1.0" stroke-dasharray="3 3"></polyline><rect x="76.4" y="294.0" width="35.2" height="24.0" rx="4" fill="#ffffff" fill-opacity="0.92" opacity="1.0"/><text x="94.0" y="307.0" text-anchor="middle" font-size="12" font-style="italic" font-weight="400" fill="#5f6368" opacity="1.0">BGP</text><polyline points="380.5,122.0 380.5,212.0 227.5,212.0 227.5,462.0" fill="none" stroke="#188038" stroke-width="2.0" opacity="1.0" stroke-dasharray="3 3"></polyline><polyline points="343.0,122.0 343.0,230.0 112.0,230.0 112.0,462.0" fill="none" stroke="#188038" stroke-width="2.0" opacity="1.0" stroke-dasharray="3 3"></polyline><rect x="94.4" y="402.0" width="35.2" height="24.0" rx="4" fill="#ffffff" fill-opacity="0.92" opacity="1.0"/><text x="112.0" y="415.0" text-anchor="middle" font-size="12" font-style="italic" font-weight="400" fill="#5f6368" opacity="1.0">BGP</text><polyline points="418.0,122.0 418.0,140.0 353.3,140.0 353.3,462.0" fill="none" stroke="#188038" stroke-width="2.0" opacity="1.0" stroke-dasharray="3 3"></polyline><ellipse cx="145.0" cy="84.0" rx="81.8" ry="38.0" fill="#f1f3f4" stroke="#5f6368" stroke-width="1.6"/><text x="145.0" y="84.0" text-anchor="middle" dominant-baseline="central" font-size="12.5" font-weight="600" fill="#1e293b">インターネット</text><ellipse cx="361.8" cy="84.0" rx="75.0" ry="38.0" fill="#f1f3f4" stroke="#5f6368" stroke-width="1.6"/><text x="361.8" y="84.0" text-anchor="middle" dominant-baseline="central" font-size="12.5" font-weight="600" fill="#1e293b">IP-VPN網</text><rect x="40.0" y="462.0" width="90.0" height="46.0" rx="4" fill="#fff8e1" stroke="#b58105" stroke-width="1.4"/><text x="85.0" y="485.0" text-anchor="middle" dominant-baseline="central" font-size="12.5" font-weight="600" fill="#1e293b">本社</text><rect x="160.0" y="462.0" width="90.0" height="46.0" rx="4" fill="#fff8e1" stroke="#b58105" stroke-width="1.4"/><text x="205.0" y="485.0" text-anchor="middle" dominant-baseline="central" font-size="12.5" font-weight="600" fill="#1e293b">大阪支社</text><rect x="280.0" y="462.0" width="109.9" height="46.0" rx="4" fill="#fff8e1" stroke="#b58105" stroke-width="1.4"/><text x="334.9" y="485.0" text-anchor="middle" dominant-baseline="central" font-size="12.5" font-weight="600" fill="#1e293b">名古屋営業所</text></svg>