<svg xmlns="http://www.w3.org/2000/svg" width="3819" height="1092" viewBox="0 0 3819 1092" font-family="'Segoe UI','Hiragino Sans','Noto Sans JP',Meiryo,sans-serif"><defs></defs><rect width="100%" height="100%" fill="#ffffff"/><text x="24" y="30" font-size="19" font-weight="700" fill="#1e293b">DCファブリック物理図 (K4x12)</text><rect x="40.0" y="228.0" width="3739.0" height="824.0" rx="6" fill="#f7f9fc" stroke="#8fa8c4"/><text x="44.0" y="220.0" font-size="14.5" font-weight="600" fill="#33475b">DC</text><polyline points="1215.0,486.0 1215.0,508.0 107.6,508.0 107.6,980.0" fill="none" stroke="#4a4a4a" stroke-width="2.0" opacity="1.0"></polyline><text x="1219.0" y="499.0" font-size="10.5" font-style="italic" fill="#5f6368" opacity="1.0">e1</text><text x="111.6" y="975.0" font-size="10.5" font-style="italic" fill="#5f6368" opacity="1.0">e1</text><polyline points="1263.0,486.0 1263.0,524.0 345.6,524.0 345.6,980.0" fill="none" stroke="#4a4a4a" stroke-width="2.0" opacity="1.0"></polyline><text x="1267.0" y="499.0" font-size="10.5" font-style="italic" fill="#5f6368" opacity="1.0">e2</text><text x="349.6" y="975.0" font-size="10.5" font-style="italic" fill="#5f6368" opacity="1.0">e1</text><polyline points="1311.0,486.0 1311.0,540.0 583.6,540.0 583.6,980.0" fill="none" stroke="#4a4a4a" stroke-width="2.0" opacity="1.0"></polyline><text x="1315.0" y="499.0" font-size="10.5" font-style="italic" fill="#5f6368" opacity="1.0">e3</text><text x="587.6" y="975.0" font-size="10.5" font-style="italic" fill="#5f6368" opacity="1.0">e1</text><polyline points="1359.0,486.0 1359.0,556.0 821.6,556.0 821.6,980.0" fill="none" stroke="#4a4a4a" stroke-width="2.0" opacity="1.0"></polyline><text x="1363.0" y="499.0" font-size="10.5" font-style="italic" fill="#5f6368" opacity="1.0">e4</text><text x="825.6" y="975.0" font-size="10.5" font-style="italic" fill="#5f6368" opacity="1.0">e1</text><polyline points="1407.0,486.0 1407.0,572.0 1059.6,572.0 1059.6,980.0" fill="none" stroke="#4a4a4a" stroke-width="2.0" opacity="1.0"></polyline><text x="1411.0" y="499.0" font-size="10.5" font-style="italic" fill="#5f6368" opacity="1.0">e5</text><text x="1063.6" y="975.0" font-size="10.5" font-style="italic" fill="#5f6368" opacity="1.0">e1</text><polyline points="1455.0,486.0 1455.0,508.0 1297.6,508.0 1297.6,980.0" fill="none" stroke="#4a4a4a" stroke-width="2.0" opacity="1.0"></polyline><text x="1459.0" y="499.0" font-size="10.5" font-style="italic" fill="#5f6368" opacity="1.0">e6</text><text x="1301.6" y="975.0" font-size="10.5" font-style="italic" fill="#5f6368" opacity="1.0">e1</text><polyline points="1503.0,486.0 1503.0,508.0 1535.6,508.0 1535.6,980.0" fill="none" stroke="#4a4a4a" stroke-width="2.0" opacity="1.0"></polyline><text x="1507.0" y="499.0" font-size="10.5" font-style="italic" fill="#5f6368" opacity="1.0">e7</text><text x="1539.6" y="975.0" font-size="10.5" font-style="italic" fill="#5f6368" opacity="1.0">e1</text><polyline points="1551.0,486.0 1551.0,524.0 1773.6,524.0 1773.6,980.0" fill="none" stroke="#4a4a4a" stroke-width="2.0" opacity="1.0"></polyline><text x="1555.0" y="499.0" font-size="10.5" font-style="italic" fill="#5f6368" opacity="1.0">e8</text><text x="1777.6" y="975.0" font-size="10.5" font-style="italic" fill="#5f6368" opacity="1.0">e1</text><polyline points="1599.0,486.0 1599.0,508.0 2011.6,508.0 2011.6,980.0" fill="none" stroke="#4a4a4a" stroke-width="2.0" opacity="1.0"></polyline><text x="1603.0" y="499.0" font-size="10.5" font-style="italic" fill="#5f6368" opacity="1.0">e9</text><text x="2015.6" y="975.0" font-size="10.5" font-style="italic" fill="#5f6368" opacity="1.0">e1</text><polyline points="1647.0,486.0 1647.0,540.0 2249.6,540.0 2249.6,980.0" fill="none" stroke="#4a4a4a" stroke-width="2.0" opacity="1.0"></polyline><text x="1651.0" y="499.0" font-size="10.5" font-style="italic" fill="#5f6368" opacity="1.0">e10</text><text x="2253.6" y="975.0" font-size="10.5" font-style="italic" fill="#5f6368" opacity="1.0">e1</text><polyline points="1695.0,486.0 1695.0,556.0 2487.6,556.0 2487.6,980.0" fill="none" stroke="#4a4a4a" stroke-width="2.0" opacity="1.0"></polyline><text x="1699.0" y="499.0" font-size="10.5" font-style="italic" fill="#5f6368" opacity="1.0">e11</text><text x="2491.6" y="975.0" font-size="10.5" font-style="italic" fill="#5f6368" opacity="1.0">e1</text><polyline points="1743.0,486.0 1743.0,572.0 2725.6,572.0 2725.6,980.0" fill="none" stroke="#4a4a4a" stroke-width="2.0" opacity="1.0"></polyline><text x="1747.0" y="499.0" font-size="10.5" font-style="italic" fill="#5f6368" opacity="1.0">e12</text><text x="2729.6" y="975.0" font-size="10.5" font-style="italic" fill="#5f6368" opacity="1.0">e1</text><polyline points="1869.0,486.0 1869.0,588.0 149.2,588.0 149.2,980.0" fill="none" stroke="#4a4a4a" stroke-width="2.0" opacity="1.0"></polyline><text x="1873.0" y="499.0" font-size="10.5" font-style="italic" fill="#5f6368" opacity="1.0">e1</text><text x="153.2" y="975.0" font-size="10.5" font-style="italic" fill="#5f6368" opacity="1.0">e2</text><polyline points="1917.0,486.0 1917.0,604.0 387.2,604.0 387.2,980.0" fill="none" stroke="#4a4a4a" stroke-width="2.0" opacity="1.0"></polyline><text x="1921.0" y="499.0" font-size="10.5" font-style="italic" fill="#5f6368" opacity="1.0">e2</text><text x="391.2" y="975.0" font-size="10.5" font-style="italic" fill="#5f6368" opacity="1.0">e2</text><polyline points="1965.0,486.0 1965.0,620.0 625.2,620.0 625.2,980.0" fill="none" stroke="#4a4a4a" stroke-width="2.0" opacity="1.0"></polyline><text x="1969.0" y="499.0" font-size="10.5" font-style="italic" fill="#5f6368" opacity="1.0">e3</text><text x="629.2" y="975.0" font-size="10.5" font-style="italic" fill="#5f6368" opacity="1.0">e2</text><polyline points="2013.0,486.0 2013.0,636.0 863.2,636.0 863.2,980.0" fill="none" stroke="#4a4a4a" stroke-width="2.0" opacity="1.0"></polyline><text x="2017.0" y="499.0" font-size="10.5" font-style="italic" fill="#5f6368" opacity="1.0">e4</text><text x="867.2" y="975.0" font-size="10.5" font-style="italic" fill="#5f6368" opacity="1.0">e2</text><polyline points="2061.0,486.0 2061.0,652.0 1101.2,652.0 1101.2,980.0" fill="none" stroke="#4a4a4a" stroke-width="2.0" opacity="1.0"></polyline><text x="2065.0" y="499.0" font-size="10.5" font-style="italic" fill="#5f6368" opacity="1.0">e5</text><text x="1105.2" y="975.0" font-size="10.5" font-style="italic" fill="#5f6368" opacity="1.0">e2</text><polyline points="2109.0,486.0 2109.0,668.0 1339.2,668.0 1339.2,980.0" fill="none" stroke="#4a4a4a" stroke-width="2.0" opacity="1.0"></polyline><text x="2113.0" y="499.0" font-size="10.5" font-style="italic" fill="#5f6368" opacity="1.0">e6</text><text x="1343.2" y="975.0" font-size="10.5" font-style="italic" fill="#5f6368" opacity="1.0">e2</text><polyline points="2157.0,486.0 2157.0,684.0 1577.2,684.0 1577.2,980.0" fill="none" stroke="#4a4a4a" stroke-width="2.0" opacity="1.0"></polyline><text x="2161.0" y="499.0" font-size="10.5" font-style="italic" fill="#5f6368" opacity="1.0">e7</text><text x="1581.2" y="975.0" font-size="10.5" font-style="italic" fill="#5f6368" opacity="1.0">e2</text><polyline points="2205.0,486.0 2205.0,524.0 1815.2,524.0 1815.2,980.0" fill="none" stroke="#4a4a4a" stroke-width="2.0" opacity="1.0"></polyline><text x="2209.0" y="499.0" font-size="10.5" font-style="italic" fill="#5f6368" opacity="1.0">e8</text><text x="1819.2" y="975.0" font-size="10.5" font-style="italic" fill="#5f6368" opacity="1.0">e2</text><polyline points="2253.0,486.0 2253.0,508.0 2053.2,508.0 2053.2,980.0" fill="none" stroke="#4a4a4a" stroke-width="2.0" opacity="1.0"></polyline><text x="2257.0" y="499.0" font-size="10.5" font-style="italic" fill="#5f6368" opacity="1.0">e9</text><text x="2057.2" y="975.0" font-size="10.5" font-style="italic" fill="#5f6368" opacity="1.0">e2</text><polyline points="2301.0,486.0 2301.0,508.0 2291.2,508.0 2291.2,980.0" fill="none" stroke="#4a4a4a" stroke-width="2.0" opacity="1.0"></polyline><text x="2305.0" y="499.0" font-size="10.5" font-style="italic" fill="#5f6368" opacity="1.0">e10</text><text x="2295.2" y="975.0" font-size="10.5" font-style="italic" fill="#5f6368" opacity="1.0">e2</text><polyline points="2349.0,486.0 2349.0,508.0 2529.2,508.0 2529.2,980.0" fill="none" stroke="#4a4a4a" stroke-width="2.0" opacity="1.0"></polyline><text x="2353.0" y="499.0" font-size="10.5" font-style="italic" fill="#5f6368" opacity="1.0">e11</text><text x="2533.2" y="975.0" font-size="10.5" font-style="italic" fill="#5f6368" opacity="1.0">e2</text><polyline points="2397.0,486.0 2397.0,524.0 2767.2,524.0 2767.2,980.0" fill="none" stroke="#4a4a4a" stroke-width="2.0" opacity="1.0"></polyline><text x="2401.0" y="499.0" font-size="10.5" font-style="italic" fill="#5f6368" opacity="1.0">e12</text><text x="2771.2" y="975.0" font-size="10.5" font-style="italic" fill="#5f6368" opacity="1.0">e2</text><polyline points="2523.0,486.0 2523.0,700.0 190.8,700.0 190.8,980.0" fill="none" stroke="#4a4a4a" stroke-width="2.0" opacity="1.0"></polyline><text x="2527.0" y="499.0" font-size="10.5" font-style="italic" fill="#5f6368" opacity="1.0">e1</text><text x="194.8" y="975.0" font-size="10.5" font-style="italic" fill="#5f6368" opacity="1.0">e3</text><polyline points="2571.0,486.0 2571.0,716.0 428.8,716.0 428.8,980.0" fill="none" stroke="#4a4a4a" stroke-width="2.0" opacity="1.0"></polyline><text x="2575.0" y="499.0" font-size="10.5" font-style="italic" fill="#5f6368" opacity="1.0">e2</text><text x="432.8" y="975.0" font-size="10.5" font-style="italic" fill="#5f6368" opacity="1.0">e3</text><polyline points="2619.0,486.0 2619.0,732.0 666.8,732.0 666.8,980.0" fill="none" stroke="#4a4a4a" stroke-width="2.0" opacity="1.0"></polyline><text x="2623.0" y="499.0" font-size="10.5" font-style="italic" fill="#5f6368" opacity="1.0">e3</text><text x="670.8" y="975.0" font-size="10.5" font-style="italic" fill="#5f6368" opacity="1.0">e3</text><polyline points="2667.0,486.0 2667.0,748.0 904.8,748.0 904.8,980.0" fill="none" stroke="#4a4a4a" stroke-width="2.0" opacity="1.0"></polyline><text x="2671.0" y="499.0" font-size="10.5" font-style="italic" fill="#5f6368" opacity="1.0">e4</text><text x="908.8" y="975.0" font-size="10.5" font-style="italic" fill="#5f6368" opacity="1.0">e3</text><polyline points="2715.0,486.0 2715.0,764.0 1142.8,764.0 1142.8,980.0" fill="none" stroke="#4a4a4a" stroke-width="2.0" opacity="1.0"></polyline><text x="2719.0" y="499.0" font-size="10.5" font-style="italic" fill="#5f6368" opacity="1.0">e5</text><text x="1146.8" y="975.0" font-size="10.5" font-style="italic" fill="#5f6368" opacity="1.0">e3</text><polyline points="2763.0,486.0 2763.0,780.0 1380.8,780.0 1380.8,980.0" fill="none" stroke="#4a4a4a" stroke-width="2.0" opacity="1.0"></polyline><text x="2767.0" y="499.0" font-size="10.5" font-style="italic" fill="#5f6368" opacity="1.0">e6</text><text x="1384.8" y="975.0" font-size="10.5" font-style="italic" fill="#5f6368" opacity="1.0">e3</text><polyline points="2811.0,486.0 2811.0,796.0 1618.8,796.0 1618.8,980.0" fill="none" stroke="#4a4a4a" stroke-width="2.0" opacity="1.0"></polyline><text x="2815.0" y="499.0" font-size="10.5" font-style="italic" fill="#5f6368" opacity="1.0">e7</text><text x="1622.8" y="975.0" font-size="10.5" font-style="italic" fill="#5f6368" opacity="1.0">e3</text><polyline points="2859.0,486.0 2859.0,812.0 1856.8,812.0 1856.8,980.0" fill="none" stroke="#4a4a4a" stroke-width="2.0" opacity="1.0"></polyline><text x="2863.0" y="499.0" font-size="10.5" font-style="italic" fill="#5f6368" opacity="1.0">e8</text><text x="1860.8" y="975.0" font-size="10.5" font-style="italic" fill="#5f6368" opacity="1.0">e3</text><polyline points="2907.0,486.0 2907.0,588.0 2094.8,588.0 2094.8,980.0" fill="none" stroke="#4a4a4a" stroke-width="2.0" opacity="1.0"></polyline><text x="2911.0" y="499.0" font-size="10.5" font-style="italic" fill="#5f6368" opacity="1.0">e9</text><text x="2098.8" y="975.0" font-size="10.5" font-style="italic" fill="#5f6368" opacity="1.0">e3</text><polyline points="2955.0,486.0 2955.0,540.0 2332.8,540.0 2332.8,980.0" fill="none" stroke="#4a4a4a" stroke-width="2.0" opacity="1.0"></polyline><text x="2959.0" y="499.0" font-size="10.5" font-style="italic" fill="#5f6368" opacity="1.0">e10</text><text x="2336.8" y="975.0" font-size="10.5" font-style="italic" fill="#5f6368" opacity="1.0">e3</text><polyline points="3003.0,486.0 3003.0,508.0 2570.8,508.0 2570.8,980.0" fill="none" stroke="#4a4a4a" stroke-width="2.0" opacity="1.0"></polyline><text x="3007.0" y="499.0" font-size="10.5" font-style="italic" fill="#5f6368" opacity="1.0">e11</text><text x="2574.8" y="975.0" font-size="10.5" font-style="italic" fill="#5f6368" opacity="1.0">e3</text><polyline points="3051.0,486.0 3051.0,524.0 2808.8,524.0 2808.8,980.0" fill="none" stroke="#4a4a4a" stroke-width="2.0" opacity="1.0"></polyline><text x="3055.0" y="499.0" font-size="10.5" font-style="italic" fill="#5f6368" opacity="1.0">e12</text><text x="2812.8" y="975.0" font-size="10.5" font-style="italic" fill="#5f6368" opacity="1.0">e3</text><polyline points="3177.0,486.0 3177.0,828.0 232.4,828.0 232.4,980.0" fill="none" stroke="#4a4a4a" stroke-width="2.0" opacity="1.0"></polyline><text x="3181.0" y="499.0" font-size="10.5" font-style="italic" fill="#5f6368" opacity="1.0">e1</text><text x="236.4" y="975.0" font-size="10.5" font-style="italic" fill="#5f6368" opacity="1.0">e4</text><polyline points="3225.0,486.0 3225.0,844.0 470.4,844.0 470.4,980.0" fill="none" stroke="#4a4a4a" stroke-width="2.0" opacity="1.0"></polyline><text x="3229.0" y="499.0" font-size="10.5" font-style="italic" fill="#5f6368" opacity="1.0">e2</text><text x="474.4" y="975.0" font-size="10.5" font-style="italic" fill="#5f6368" opacity="1.0">e4</text><polyline points="3273.0,486.0 3273.0,860.0 708.4,860.0 708.4,980.0" fill="none" stroke="#4a4a4a" stroke-width="2.0" opacity="1.0"></polyline><text x="3277.0" y="499.0" font-size="10.5" font-style="italic" fill="#5f6368" opacity="1.0">e3</text><text x="712.4" y="975.0" font-size="10.5" font-style="italic" fill="#5f6368" opacity="1.0">e4</text><polyline points="3321.0,486.0 3321.0,876.0 946.4,876.0 946.4,980.0" fill="none" stroke="#4a4a4a" stroke-width="2.0" opacity="1.0"></polyline><text x="3325.0" y="499.0" font-size="10.5" font-style="italic" fill="#5f6368" opacity="1.0">e4</text><text x="950.4" y="975.0" font-size="10.5" font-style="italic" fill="#5f6368" opacity="1.0">e4</text><polyline points="3369.0,486.0 3369.0,892.0 1184.4,892.0 1184.4,980.0" fill="none" stroke="#4a4a4a" stroke-width="2.0" opacity="1.0"></polyline><text x="3373.0" y="499.0" font-size="10.5" font-style="italic" fill="#5f6368" opacity="1.0">e5</text><text x="1188.4" y="975.0" font-size="10.5" font-style="italic" fill="#5f6368" opacity="1.0">e4</text><polyline points="3417.0,486.0 3417.0,908.0 1422.4,908.0 1422.4,980.0" fill="none" stroke="#4a4a4a" stroke-width="2.0" opacity="1.0"></polyline><text x="3421.0" y="499.0" font-size="10.5" font-style="italic" fill="#5f6368" opacity="1.0">e6</text><text x="1426.4" y="975.0" font-size="10.5" font-style="italic" fill="#5f6368" opacity="1.0">e4</text><polyline points="3465.0,486.0 3465.0,924.0 1660.4,924.0 1660.4,980.0" fill="none" stroke="#4a4a4a" stroke-width="2.0" opacity="1.0"></polyline><text x="3469.0" y="499.0" font-size="10.5" font-style="italic" fill="#5f6368" opacity="1.0">e7</text><text x="1664.4" y="975.0" font-size="10.5" font-style="italic" fill="#5f6368" opacity="1.0">e4</text><polyline points="3513.0,486.0 3513.0,940.0 1898.4,940.0 1898.4,980.0" fill="none" stroke="#4a4a4a" stroke-width="2.0" opacity="1.0"></polyline><text x="3517.0" y="499.0" font-size="10.5" font-style="italic" fill="#5f6368" opacity="1.0">e8</text><text x="1902.4" y="975.0" font-size="10.5" font-style="italic" fill="#5f6368" opacity="1.0">e4</text><polyline points="3561.0,486.0 3561.0,604.0 2136.4,604.0 2136.4,980.0" fill="none" stroke="#4a4a4a" stroke-width="2.0" opacity="1.0"></polyline><text x="3565.0" y="499.0" font-size="10.5" font-style="italic" fill="#5f6368" opacity="1.0">e9</text><text x="2140.4" y="975.0" font-size="10.5" font-style="italic" fill="#5f6368" opacity="1.0">e4</text><polyline points="3609.0,486.0 3609.0,620.0 2374.4,620.0 2374.4,980.0" fill="none" stroke="#4a4a4a" stroke-width="2.0" opacity="1.0"></polyline><text x="3613.0" y="499.0" font-size="10.5" font-style="italic" fill="#5f6368" opacity="1.0">e10</text><text x="2378.4" y="975.0" font-size="10.5" font-style="italic" fill="#5f6368" opacity="1.0">e4</text><polyline points="3657.0,486.0 3657.0,556.0 2612.4,556.0 2612.4,980.0" fill="none" stroke="#4a4a4a" stroke-width="2.0" opacity="1.0"></polyline><text x="3661.0" y="499.0" font-size="10.5" font-style="italic" fill="#5f6368" opacity="1.0">e11</text><text x="2616.4" y="975.0" font-size="10.5" font-style="italic" fill="#5f6368" opacity="1.0">e4</text><polyline points="3705.0,486.0 3705.0,572.0 2850.4,572.0 2850.4,980.0" fill="none" stroke="#4a4a4a" stroke-width="2.0" opacity="1.0"></polyline><text x="3709.0" y="499.0" font-size="10.5" font-style="italic" fill="#5f6368" opacity="1.0">e12</text><text x="2854.4" y="975.0" font-size="10.5" font-style="italic" fill="#5f6368" opacity="1.0">e4</text><polyline points="2397.6,330.0 2397.6,352.0 1375.0,352.0 1375.0,440.0" fill="none" stroke="#4a4a4a" stroke-width="2.0" opacity="1.0"></polyline><text x="2401.6" y="343.0" font-size="10.5" font-style="italic" fill="#5f6368" opacity="1.0">e1</text><text x="1379.0" y="435.0" font-size="10.5" font-style="italic" fill="#5f6368" opacity="1.0">e13</text><polyline points="2635.6,330.0 2635.6,368.0 1583.0,368.0 1583.0,440.0" fill="none" stroke="#4a4a4a" stroke-width="2.0" opacity="1.0"></polyline><text x="2639.6" y="343.0" font-size="10.5" font-style="italic" fill="#5f6368" opacity="1.0">e1</text><text x="1587.0" y="435.0" font-size="10.5" font-style="italic" fill="#5f6368" opacity="1.0">e14</text><polyline points="2439.2,330.0 2439.2,384.0 2029.0,384.0 2029.0,440.0" fill="none" stroke="#4a4a4a" stroke-width="2.0" opacity="1.0"></polyline><text x="2443.2" y="343.0" font-size="10.5" font-style="italic" fill="#5f6368" opacity="1.0">e2</text><text x="2033.0" y="435.0" font-size="10.5" font-style="italic" fill="#5f6368" opacity="1.0">e13</text><polyline points="2677.2,330.0 2677.2,400.0 2237.0,400.0 2237.0,440.0" fill="none" stroke="#4a4a4a" stroke-width="2.0" opacity="1.0"></polyline><text x="2681.2" y="343.0" font-size="10.5" font-style="italic" fill="#5f6368" opacity="1.0">e2</text><text x="2241.0" y="435.0" font-size="10.5" font-style="italic" fill="#5f6368" opacity="1.0">e14</text><polyline points="2480.8,330.0 2480.8,352.0 2683.0,352.0 2683.0,440.0" fill="none" stroke="#4a4a4a" stroke-width="2.0" opacity="1.0"></polyline><text x="2484.8" y="343.0" font-size="10.5" font-style="italic" fill="#5f6368" opacity="1.0">e3</text><text x="2687.0" y="435.0" font-size="10.5" font-style="italic" fill="#5f6368" opacity="1.0">e13</text><polyline points="2718.8,330.0 2718.8,352.0 2891.0,352.0 2891.0,440.0" fill="none" stroke="#4a4a4a" stroke-width="2.0" opacity="1.0"></polyline><text x="2722.8" y="343.0" font-size="10.5" font-style="italic" fill="#5f6368" opacity="1.0">e3</text><text x="2895.0" y="435.0" font-size="10.5" font-style="italic" fill="#5f6368" opacity="1.0">e14</text><polyline points="2522.4,330.0 2522.4,384.0 3337.0,384.0 3337.0,440.0" fill="none" stroke="#4a4a4a" stroke-width="2.0" opacity="1.0"></polyline><text x="2526.4" y="343.0" font-size="10.5" font-style="italic" fill="#5f6368" opacity="1.0">e4</text><text x="3341.0" y="435.0" font-size="10.5" font-style="italic" fill="#5f6368" opacity="1.0">e13</text><polyline points="2760.4,330.0 2760.4,368.0 3545.0,368.0 3545.0,440.0" fill="none" stroke="#4a4a4a" stroke-width="2.0" opacity="1.0"></polyline><text x="2764.4" y="343.0" font-size="10.5" font-style="italic" fill="#5f6368" opacity="1.0">e4</text><text x="3549.0" y="435.0" font-size="10.5" font-style="italic" fill="#5f6368" opacity="1.0">e14</text><polyline points="2554.0,122.0 2554.0,140.0 2460.0,140.0 2460.0,284.0" fill="none" stroke="#1a73e8" stroke-width="3.5" opacity="1.0"></polyline><rect x="2399.1" y="168.0" width="121.8" height="42.0" rx="4" fill="#ffffff" fill-opacity="0.92" opacity="1.0"/><text x="2460.0" y="181.0" text-anchor="middle" font-size="12" font-style="italic" font-weight="400" fill="#5f6368" opacity="1.0">キャリア 回線 1G</text><text x="2460.0" y="198.0" text-anchor="middle" font-size="12" font-style="italic" font-weight="400" fill="#5f6368" opacity="1.0">(e5)</text><polyline points="2604.0,122.0 2604.0,140.0 2698.0,140.0 2698.0,284.0" fill="none" stroke="#1a73e8" stroke-width="3.5" opacity="1.0"></polyline><rect x="2637.1" y="168.0" width="121.8" height="42.0" rx="4" fill="#ffffff" fill-opacity="0.92" opacity="1.0"/><text x="2698.0" y="181.0" text-anchor="middle" font-size="12" font-style="italic" font-weight="400" fill="#5f6368" opacity="1.0">キャリア 回線 1G</text><text x="2698.0" y="198.0" text-anchor="middle" font-size="12" font-style="italic" font-weight="400" fill="#5f6368" opacity="1.0">(e5)</text><ellipse cx="2579.0" cy="84.0" rx="75.0" ry="38.0" fill="#f1f3f4" stroke="#5f6368" stroke-width="1.6"/><text x="2579.0" y="84.0" text-anchor="middle" dominant-baseline="central" font-size="12.5" font-weight="600" fill="#1e293b">WAN網</text><rect x="1167.0" y="440.0" width="624.0" height="46.0" rx="4" fill="#d2e3fc" stroke="#1a56b0" stroke-width="1.4"/><text x="1479.0" y="455.0" text-anchor="middle" dominant-baseline="central" font-size="12.5" font-weight="600" fill="#1e293b">spine01</text><text x="1479.0" y="471.0" text-anchor="middle" dominant-baseline="central" font-size="12.5" font-weight="400" fill="#1e293b">9500-32C</text><rect x="66.0" y="980.0" width="208.0" height="46.0" rx="4" fill="#d2e3fc" stroke="#1a56b0" stroke-width="1.4"/><text x="170.0" y="995.0" text-anchor="middle" dominant-baseline="central" font-size="12.5" font-weight="600" fill="#1e293b">leaf01</text><text x="170.0" y="1011.0" text-anchor="middle" dominant-baseline="central" font-size="12.5" font-weight="400" fill="#1e293b">9300</text><rect x="304.0" y="980.0" width="208.0" height="46.0" rx="4" fill="#d2e3fc" stroke="#1a56b0" stroke-width="1.4"/><text x="408.0" y="995.0" text-anchor="middle" dominant-baseline="central" font-size="12.5" font-weight="600" fill="#1e293b">leaf02</text><text x="408.0" y="1011.0" text-anchor="middle" dominant-baseline="central" font-size="12.5" font-weight="400" fill="#1e293b">9300</text><rect x="542.0" y="980.0" width="208.0" height="46.0" rx="4" fill="#d2e3fc" stroke="#1a56b0" stroke-width="1.4"/><text x="646.0" y="995.0" text-anchor="middle" dominant-baseline="central" font-size="12.5" font-weight="600" fill="#1e293b">leaf03</text><text x="646.0" y="1011.0" text-anchor="middle" dominant-baseline="central" font-size="12.5" font-weight="400" fill="#1e293b">9300</text><rect x="780.0" y="980.0" width="208.0" height="46.0" rx="4" fill="#d2e3fc" stroke="#1a56b0" stroke-width="1.4"/><text x="884.0" y="995.0" text-anchor="middle" dominant-baseline="central" font-size="12.5" font-weight="600" fill="#1e293b">leaf04</text><text x="884.0" y="1011.0" text-anchor="middle" dominant-baseline="central" font-size="12.5" font-weight="400" fill="#1e293b">9300</text><rect x="1018.0" y="980.0" width="208.0" height="46.0" rx="4" fill="#d2e3fc" stroke="#1a56b0" stroke-width="1.4"/><text x="1122.0" y="995.0" text-anchor="middle" dominant-baseline="central" font-size="12.5" font-weight="600" fill="#1e293b">leaf05</text><text x="1122.0" y="1011.0" text-anchor="middle" dominant-baseline="central" font-size="12.5" font-weight="400" fill="#1e293b">9300</text><rect x="1256.0" y="980.0" width="208.0" height="46.0" rx="4" fill="#d2e3fc" stroke="#1a56b0" stroke-width="1.4"/><text x="1360.0" y="995.0" text-anchor="middle" dominant-baseline="central" font-size="12.5" font-weight="600" fill="#1e293b">leaf06</text><text x="1360.0" y="1011.0" text-anchor="middle" dominant-baseline="central" font-size="12.5" font-weight="400" fill="#1e293b">9300</text><rect x="1494.0" y="980.0" width="208.0" height="46.0" rx="4" fill="#d2e3fc" stroke="#1a56b0" stroke-width="1.4"/><text x="1598.0" y="995.0" text-anchor="middle" dominant-baseline="central" font-size="12.5" font-weight="600" fill="#1e293b">leaf07</text><text x="1598.0" y="1011.0" text-anchor="middle" dominant-baseline="central" font-size="12.5" font-weight="400" fill="#1e293b">9300</text><rect x="1732.0" y="980.0" width="208.0" height="46.0" rx="4" fill="#d2e3fc" stroke="#1a56b0" stroke-width="1.4"/><text x="1836.0" y="995.0" text-anchor="middle" dominant-baseline="central" font-size="12.5" font-weight="600" fill="#1e293b">leaf08</text><text x="1836.0" y="1011.0" text-anchor="middle" dominant-baseline="central" font-size="12.5" font-weight="400" fill="#1e293b">9300</text><rect x="1970.0" y="980.0" width="208.0" height="46.0" rx="4" fill="#d2e3fc" stroke="#1a56b0" stroke-width="1.4"/><text x="2074.0" y="995.0" text-anchor="middle" dominant-baseline="central" font-size="12.5" font-weight="600" fill="#1e293b">leaf09</text><text x="2074.0" y="1011.0" text-anchor="middle" dominant-baseline="central" font-size="12.5" font-weight="400" fill="#1e293b">9300</text><rect x="2208.0" y="980.0" width="208.0" height="46.0" rx="4" fill="#d2e3fc" stroke="#1a56b0" stroke-width="1.4"/><text x="2312.0" y="995.0" text-anchor="middle" dominant-baseline="central" font-size="12.5" font-weight="600" fill="#1e293b">leaf10</text><text x="2312.0" y="1011.0" text-anchor="middle" dominant-baseline="central" font-size="12.5" font-weight="400" fill="#1e293b">9300</text><rect x="2446.0" y="980.0" width="208.0" height="46.0" rx="4" fill="#d2e3fc" stroke="#1a56b0" stroke-width="1.4"/><text x="2550.0" y="995.0" text-anchor="middle" dominant-baseline="central" font-size="12.5" font-weight="600" fill="#1e293b">leaf11</text><text x="2550.0" y="1011.0" text-anchor="middle" dominant-baseline="central" font-size="12.5" font-weight="400" fill="#1e293b">9300</text><rect x="2684.0" y="980.0" width="208.0" height="46.0" rx="4" fill="#d2e3fc" stroke="#1a56b0" stroke-width="1.4"/><text x="2788.0" y="995.0" text-anchor="middle" dominant-baseline="central" font-size="12.5" font-weight="600" fill="#1e293b">leaf12</text><text x="2788.0" y="1011.0" text-anchor="middle" dominant-baseline="central" font-size="12.5" font-weight="400" fill="#1e293b">9300</text><rect x="1821.0" y="440.0" width="624.0" height="46.0" rx="4" fill="#d2e3fc" stroke="#1a56b0" stroke-width="1.4"/><text x="2133.0" y="455.0" text-anchor="middle" dominant-baseline="central" font-size="12.5" font-weight="600" fill="#1e293b">spine02</text><text x="2133.0" y="471.0" text-anchor="middle" dominant-baseline="central" font-size="12.5" font-weight="400" fill="#1e293b">9500-32C</text><rect x="2475.0" y="440.0" width="624.0" height="46.0" rx="4" fill="#d2e3fc" stroke="#1a56b0" stroke-width="1.4"/><text x="2787.0" y="455.0" text-anchor="middle" dominant-baseline="central" font-size="12.5" font-weight="600" fill="#1e293b">spine03</text><text x="2787.0" y="471.0" text-anchor="middle" dominant-baseline="central" font-size="12.5" font-weight="400" fill="#1e293b">9500-32C</text><rect x="3129.0" y="440.0" width="624.0" height="46.0" rx="4" fill="#d2e3fc" stroke="#1a56b0" stroke-width="1.4"/><text x="3441.0" y="455.0" text-anchor="middle" dominant-baseline="central" font-size="12.5" font-weight="600" fill="#1e293b">spine04</text><text x="3441.0" y="471.0" text-anchor="middle" dominant-baseline="central" font-size="12.5" font-weight="400" fill="#1e293b">9500-32C</text><rect x="2356.0" y="284.0" width="208.0" height="46.0" rx="4" fill="#e8f0fe" stroke="#1a56b0" stroke-width="1.4"/><text x="2460.0" y="299.0" text-anchor="middle" dominant-baseline="central" font-size="12.5" font-weight="600" fill="#1e293b">border01</text><text x="2460.0" y="315.0" text-anchor="middle" dominant-baseline="central" font-size="12.5" font-weight="400" fill="#1e293b">ASR1001</text><rect x="2594.0" y="284.0" width="208.0" height="46.0" rx="4" fill="#e8f0fe" stroke="#1a56b0" stroke-width="1.4"/><text x="2698.0" y="299.0" text-anchor="middle" dominant-baseline="central" font-size="12.5" font-weight="600" fill="#1e293b">border02</text><text x="2698.0" y="315.0" text-anchor="middle" dominant-baseline="central" font-size="12.5" font-weight="400" fill="#1e293b">ASR1001</text></svg>