<svg xmlns="http://www.w3.org/2000/svg" width="919" height="816" viewBox="0 0 919 816" font-family="'Segoe UI','Hiragino Sans','Noto Sans JP',Meiryo,sans-serif"><defs></defs><rect width="100%" height="100%" fill="#ffffff"/><text x="24" y="30" font-size="19" font-weight="700" fill="#1e293b">LAG並列リンク物理図</text><rect x="40.0" y="228.0" width="839.0" height="548.0" rx="6" fill="#f7f9fc" stroke="#8fa8c4"/><text x="44.0" y="220.0" font-size="14.5" font-weight="600" fill="#33475b">サーバ室</text><polyline points="627.9,330.0 627.9,352.0 536.7,352.0 536.7,392.0" fill="none" stroke="#4a4a4a" stroke-width="2.0" opacity="1.0"></polyline><text x="631.9" y="343.0" font-size="10.5" font-style="italic" fill="#5f6368" opacity="1.0">e2</text><text x="540.7" y="387.0" font-size="10.5" font-style="italic" fill="#5f6368" opacity="1.0">e1</text><polyline points="662.5,330.0 662.5,352.0 753.7,352.0 753.7,415.0 753.7,460.0 629.0,460.0 629.0,548.0" fill="none" stroke="#4a4a4a" stroke-width="2.0" opacity="1.0"></polyline><text x="666.5" y="343.0" font-size="10.5" font-style="italic" fill="#5f6368" opacity="1.0">e3</text><text x="633.0" y="543.0" font-size="10.5" font-style="italic" fill="#5f6368" opacity="1.0">e1</text><polyline points="536.7,438.0 536.7,460.0 525.0,460.0 525.0,548.0" fill="none" stroke="#4a4a4a" stroke-width="2.0" opacity="1.0"></polyline><rect x="517.1" y="449.0" width="27.5" height="22.0" rx="4" fill="#ffffff" fill-opacity="0.92" opacity="1.0"/><text x="530.9" y="462.0" text-anchor="middle" font-size="12" font-style="italic" font-weight="400" fill="#5f6368" opacity="1.0">×4</text><polyline points="400.2,438.0 400.2,460.0 118.0,460.0 118.0,571.0 118.0,616.0 100.7,616.0 100.7,704.0" fill="none" stroke="#4a4a4a" stroke-width="2.0" opacity="1.0"></polyline><text x="404.2" y="451.0" font-size="10.5" font-style="italic" fill="#5f6368" opacity="1.0">e6</text><text x="104.7" y="699.0" font-size="10.5" font-style="italic" fill="#5f6368" opacity="1.0">e1</text><polyline points="465.6,594.0 465.6,616.0 135.3,616.0 135.3,704.0" fill="none" stroke="#4a4a4a" stroke-width="2.0" opacity="1.0"></polyline><text x="469.6" y="607.0" font-size="10.5" font-style="italic" fill="#5f6368" opacity="1.0">e6</text><text x="139.3" y="699.0" font-size="10.5" font-style="italic" fill="#5f6368" opacity="1.0">e2</text><polyline points="445.7,438.0 445.7,476.0 252.0,476.0 252.0,571.0 252.0,632.0 234.7,632.0 234.7,704.0" fill="none" stroke="#4a4a4a" stroke-width="2.0" opacity="1.0"></polyline><text x="449.7" y="451.0" font-size="10.5" font-style="italic" fill="#5f6368" opacity="1.0">e7</text><text x="238.7" y="699.0" font-size="10.5" font-style="italic" fill="#5f6368" opacity="1.0">e1</text><polyline points="510.1,594.0 510.1,632.0 269.3,632.0 269.3,704.0" fill="none" stroke="#4a4a4a" stroke-width="2.0" opacity="1.0"></polyline><text x="514.1" y="607.0" font-size="10.5" font-style="italic" fill="#5f6368" opacity="1.0">e7</text><text x="273.3" y="699.0" font-size="10.5" font-style="italic" fill="#5f6368" opacity="1.0">e2</text><polyline points="491.2,438.0 491.2,492.0 386.0,492.0 386.0,571.0 386.0,648.0 368.7,648.0 368.7,704.0" fill="none" stroke="#4a4a4a" stroke-width="2.0" opacity="1.0"></polyline><text x="495.2" y="451.0" font-size="10.5" font-style="italic" fill="#5f6368" opacity="1.0">e8</text><text x="372.7" y="699.0" font-size="10.5" font-style="italic" fill="#5f6368" opacity="1.0">e1</text><polyline points="554.7,594.0 554.7,648.0 403.3,648.0 403.3,704.0" fill="none" stroke="#4a4a4a" stroke-width="2.0" opacity="1.0"></polyline><text x="558.7" y="607.0" font-size="10.5" font-style="italic" fill="#5f6368" opacity="1.0">e8</text><text x="407.3" y="699.0" font-size="10.5" font-style="italic" fill="#5f6368" opacity="1.0">e2</text><polyline points="582.2,438.0 582.2,476.0 768.0,476.0 768.0,571.0 768.0,616.0 537.3,616.0 537.3,704.0" fill="none" stroke="#4a4a4a" stroke-width="2.0" opacity="1.0"></polyline><text x="586.2" y="451.0" font-size="10.5" font-style="italic" fill="#5f6368" opacity="1.0">e9</text><text x="541.3" y="699.0" font-size="10.5" font-style="italic" fill="#5f6368" opacity="1.0">e1</text><polyline points="599.3,594.0 599.3,664.0 502.7,664.0 502.7,704.0" fill="none" stroke="#4a4a4a" stroke-width="2.0" opacity="1.0"></polyline><text x="603.3" y="607.0" font-size="10.5" font-style="italic" fill="#5f6368" opacity="1.0">e9</text><text x="506.7" y="699.0" font-size="10.5" font-style="italic" fill="#5f6368" opacity="1.0">e2</text><polyline points="627.7,438.0 627.7,492.0 808.0,492.0 808.0,571.0 808.0,632.0 671.3,632.0 671.3,704.0" fill="none" stroke="#4a4a4a" stroke-width="2.0" opacity="1.0"></polyline><text x="631.7" y="451.0" font-size="10.5" font-style="italic" fill="#5f6368" opacity="1.0">e10</text><text x="675.3" y="699.0" font-size="10.5" font-style="italic" fill="#5f6368" opacity="1.0">e1</text><polyline points="643.9,594.0 643.9,632.0 636.7,632.0 636.7,704.0" fill="none" stroke="#4a4a4a" stroke-width="2.0" opacity="1.0"></polyline><text x="647.9" y="607.0" font-size="10.5" font-style="italic" fill="#5f6368" opacity="1.0">e10</text><text x="640.7" y="699.0" font-size="10.5" font-style="italic" fill="#5f6368" opacity="1.0">e2</text><polyline points="673.2,438.0 673.2,508.0 848.0,508.0 848.0,571.0 848.0,616.0 805.3,616.0 805.3,704.0" fill="none" stroke="#4a4a4a" stroke-width="2.0" opacity="1.0"></polyline><text x="677.2" y="451.0" font-size="10.5" font-style="italic" fill="#5f6368" opacity="1.0">e11</text><text x="809.3" y="699.0" font-size="10.5" font-style="italic" fill="#5f6368" opacity="1.0">e1</text><polyline points="688.4,594.0 688.4,648.0 770.7,648.0 770.7,704.0" fill="none" stroke="#4a4a4a" stroke-width="2.0" opacity="1.0"></polyline><text x="692.4" y="607.0" font-size="10.5" font-style="italic" fill="#5f6368" opacity="1.0">e11</text><text x="774.7" y="699.0" font-size="10.5" font-style="italic" fill="#5f6368" opacity="1.0">e2</text><polyline points="645.2,122.0 645.2,140.0 645.2,140.0 645.2,284.0" fill="none" stroke="#1a73e8" stroke-width="3.5" opacity="1.0"></polyline><rect x="584.3" y="168.0" width="121.8" height="42.0" rx="4" fill="#ffffff" fill-opacity="0.92" opacity="1.0"/><text x="645.2" y="181.0" text-anchor="middle" font-size="12" font-style="italic" font-weight="400" fill="#5f6368" opacity="1.0">キャリア 回線 1G</text><text x="645.2" y="198.0" text-anchor="middle" font-size="12" font-style="italic" font-weight="400" fill="#5f6368" opacity="1.0">(e1)</text><ellipse cx="645.2" cy="84.0" rx="75.0" ry="38.0" fill="#f1f3f4" stroke="#5f6368" stroke-width="1.6"/><text x="645.2" y="84.0" text-anchor="middle" dominant-baseline="central" font-size="12.5" font-weight="600" fill="#1e293b">WAN網</text><rect x="593.2" y="284.0" width="104.0" height="46.0" rx="4" fill="#e8f0fe" stroke="#1a56b0" stroke-width="1.4"/><text x="645.2" y="299.0" text-anchor="middle" dominant-baseline="central" font-size="12.5" font-weight="600" fill="#1e293b">rt01</text><text x="645.2" y="315.0" text-anchor="middle" dominant-baseline="central" font-size="12.5" font-weight="400" fill="#1e293b">x</text><rect x="354.7" y="392.0" width="364.0" height="46.0" rx="4" fill="#d2e3fc" stroke="#1a56b0" stroke-width="1.4"/><text x="536.7" y="407.0" text-anchor="middle" dominant-baseline="central" font-size="12.5" font-weight="600" fill="#1e293b">core01</text><text x="536.7" y="423.0" text-anchor="middle" dominant-baseline="central" font-size="12.5" font-weight="400" fill="#1e293b">x</text><rect x="421.0" y="548.0" width="312.0" height="46.0" rx="4" fill="#d2e3fc" stroke="#1a56b0" stroke-width="1.4"/><text x="577.0" y="563.0" text-anchor="middle" dominant-baseline="central" font-size="12.5" font-weight="600" fill="#1e293b">core02</text><text x="577.0" y="579.0" text-anchor="middle" dominant-baseline="central" font-size="12.5" font-weight="400" fill="#1e293b">x</text><rect x="66.0" y="704.0" width="104.0" height="46.0" rx="4" fill="#f1f3f4" stroke="#5f6368" stroke-width="1.4"/><text x="118.0" y="719.0" text-anchor="middle" dominant-baseline="central" font-size="12.5" font-weight="600" fill="#1e293b">srv01</text><text x="118.0" y="735.0" text-anchor="middle" dominant-baseline="central" font-size="12.5" font-weight="400" fill="#1e293b">x</text><rect x="200.0" y="704.0" width="104.0" height="46.0" rx="4" fill="#f1f3f4" stroke="#5f6368" stroke-width="1.4"/><text x="252.0" y="719.0" text-anchor="middle" dominant-baseline="central" font-size="12.5" font-weight="600" fill="#1e293b">srv02</text><text x="252.0" y="735.0" text-anchor="middle" dominant-baseline="central" font-size="12.5" font-weight="400" fill="#1e293b">x</text><rect x="334.0" y="704.0" width="104.0" height="46.0" rx="4" fill="#f1f3f4" stroke="#5f6368" stroke-width="1.4"/><text x="386.0" y="719.0" text-anchor="middle" dominant-baseline="central" font-size="12.5" font-weight="600" fill="#1e293b">srv03</text><text x="386.0" y="735.0" text-anchor="middle" dominant-baseline="central" font-size="12.5" font-weight="400" fill="#1e293b">x</text><rect x="468.0" y="704.0" width="104.0" height="46.0" rx="4" fill="#f1f3f4" stroke="#5f6368" stroke-width="1.4"/><text x="520.0" y="719.0" text-anchor="middle" dominant-baseline="central" font-size="12.5" font-weight="600" fill="#1e293b">srv04</text><text x="520.0" y="735.0" text-anchor="middle" dominant-baseline="central" font-size="12.5" font-weight="400" fill="#1e293b">x</text><rect x="602.0" y="704.0" width="104.0" height="46.0" rx="4" fill="#f1f3f4" stroke="#5f6368" stroke-width="1.4"/><text x="654.0" y="719.0" text-anchor="middle" dominant-baseline="central" font-size="12.5" font-weight="600" fill="#1e293b">srv05</text><text x="654.0" y="735.0" text-anchor="middle" dominant-baseline="central" font-size="12.5" font-weight="400" fill="#1e293b">x</text><rect x="736.0" y="704.0" width="104.0" height="46.0" rx="4" fill="#f1f3f4" stroke="#5f6368" stroke-width="1.4"/><text x="788.0" y="719.0" text-anchor="middle" dominant-baseline="central" font-size="12.5" font-weight="600" fill="#1e293b">srv06</text><text x="788.0" y="735.0" text-anchor="middle" dominant-baseline="central" font-size="12.5" font-weight="400" fill="#1e293b">x</text></svg>