<svg xmlns="http://www.w3.org/2000/svg" width="906" height="702" viewBox="0 0 906 702" font-family="'Segoe UI','Hiragino Sans','Noto Sans JP',Meiryo,sans-serif"><defs></defs><rect width="100%" height="100%" fill="#ffffff"/><text x="24" y="30" font-size="19" font-weight="700" fill="#1e293b">LAG並列リンク物理図</text><rect x="40.0" y="228.0" width="826.0" height="434.0" rx="6" fill="#f7f9fc" stroke="#8fa8c4"/><text x="44.0" y="220.0" font-size="14.5" font-weight="600" fill="#33475b">サーバ室</text><polyline points="435.7,330.0 433.0,386.0" fill="none" stroke="#4a4a4a" stroke-width="2.0" opacity="1.0"></polyline><text x="439.7" y="343.0" font-size="10.5" font-style="italic" fill="#5f6368" opacity="1.0">e2</text><text x="437.0" y="381.0" font-size="10.5" font-style="italic" fill="#5f6368" opacity="1.0">e1</text><polyline points="470.3,330.0 650.0,409.0 505.0,488.0" fill="none" stroke="#4a4a4a" stroke-width="2.0" opacity="1.0"></polyline><text x="474.3" y="343.0" font-size="10.5" font-style="italic" fill="#5f6368" opacity="1.0">e3</text><text x="509.0" y="483.0" font-size="10.5" font-style="italic" fill="#5f6368" opacity="1.0">e1</text><polyline points="433.0,432.0 401.0,488.0" fill="none" stroke="#4a4a4a" stroke-width="2.0" opacity="1.0"></polyline><rect x="403.2" y="449.0" width="27.5" height="22.0" rx="4" fill="#ffffff" fill-opacity="0.92" opacity="1.0"/><text x="417.0" y="462.0" text-anchor="middle" font-size="12" font-style="italic" font-weight="400" fill="#5f6368" opacity="1.0">×4</text><polyline points="296.5,432.0 182.0,511.0 100.7,590.0" fill="none" stroke="#4a4a4a" stroke-width="2.0" opacity="1.0"></polyline><text x="300.5" y="445.0" font-size="10.5" font-style="italic" fill="#5f6368" opacity="1.0">e6</text><text x="104.7" y="585.0" font-size="10.5" font-style="italic" fill="#5f6368" opacity="1.0">e1</text><polyline points="341.6,534.0 135.3,590.0" fill="none" stroke="#4a4a4a" stroke-width="2.0" opacity="1.0"></polyline><text x="345.6" y="547.0" font-size="10.5" font-style="italic" fill="#5f6368" opacity="1.0">e6</text><text x="139.3" y="585.0" font-size="10.5" font-style="italic" fill="#5f6368" opacity="1.0">e2</text><polyline points="342.0,432.0 222.0,511.0 234.7,590.0" fill="none" stroke="#4a4a4a" stroke-width="2.0" opacity="1.0"></polyline><text x="346.0" y="445.0" font-size="10.5" font-style="italic" fill="#5f6368" opacity="1.0">e7</text><text x="238.7" y="585.0" font-size="10.5" font-style="italic" fill="#5f6368" opacity="1.0">e1</text><polyline points="386.1,534.0 269.3,590.0" fill="none" stroke="#4a4a4a" stroke-width="2.0" opacity="1.0"></polyline><text x="390.1" y="547.0" font-size="10.5" font-style="italic" fill="#5f6368" opacity="1.0">e7</text><text x="273.3" y="585.0" font-size="10.5" font-style="italic" fill="#5f6368" opacity="1.0">e2</text><polyline points="387.5,432.0 262.0,511.0 368.7,590.0" fill="none" stroke="#4a4a4a" stroke-width="2.0" opacity="1.0"></polyline><text x="391.5" y="445.0" font-size="10.5" font-style="italic" fill="#5f6368" opacity="1.0">e8</text><text x="372.7" y="585.0" font-size="10.5" font-style="italic" fill="#5f6368" opacity="1.0">e1</text><polyline points="430.7,534.0 403.3,590.0" fill="none" stroke="#4a4a4a" stroke-width="2.0" opacity="1.0"></polyline><text x="434.7" y="547.0" font-size="10.5" font-style="italic" fill="#5f6368" opacity="1.0">e8</text><text x="407.3" y="585.0" font-size="10.5" font-style="italic" fill="#5f6368" opacity="1.0">e2</text><polyline points="478.5,432.0 644.0,511.0 537.3,590.0" fill="none" stroke="#4a4a4a" stroke-width="2.0" opacity="1.0"></polyline><text x="482.5" y="445.0" font-size="10.5" font-style="italic" fill="#5f6368" opacity="1.0">e9</text><text x="541.3" y="585.0" font-size="10.5" font-style="italic" fill="#5f6368" opacity="1.0">e1</text><polyline points="475.3,534.0 502.7,590.0" fill="none" stroke="#4a4a4a" stroke-width="2.0" opacity="1.0"></polyline><text x="479.3" y="547.0" font-size="10.5" font-style="italic" fill="#5f6368" opacity="1.0">e9</text><text x="506.7" y="585.0" font-size="10.5" font-style="italic" fill="#5f6368" opacity="1.0">e2</text><polyline points="524.0,432.0 684.0,511.0 671.3,590.0" fill="none" stroke="#4a4a4a" stroke-width="2.0" opacity="1.0"></polyline><text x="528.0" y="445.0" font-size="10.5" font-style="italic" fill="#5f6368" opacity="1.0">e10</text><text x="675.3" y="585.0" font-size="10.5" font-style="italic" fill="#5f6368" opacity="1.0">e1</text><polyline points="519.9,534.0 636.7,590.0" fill="none" stroke="#4a4a4a" stroke-width="2.0" opacity="1.0"></polyline><text x="523.9" y="547.0" font-size="10.5" font-style="italic" fill="#5f6368" opacity="1.0">e10</text><text x="640.7" y="585.0" font-size="10.5" font-style="italic" fill="#5f6368" opacity="1.0">e2</text><polyline points="569.5,432.0 724.0,511.0 805.3,590.0" fill="none" stroke="#4a4a4a" stroke-width="2.0" opacity="1.0"></polyline><text x="573.5" y="445.0" font-size="10.5" font-style="italic" fill="#5f6368" opacity="1.0">e11</text><text x="809.3" y="585.0" font-size="10.5" font-style="italic" fill="#5f6368" opacity="1.0">e1</text><polyline points="564.4,534.0 770.7,590.0" fill="none" stroke="#4a4a4a" stroke-width="2.0" opacity="1.0"></polyline><text x="568.4" y="547.0" font-size="10.5" font-style="italic" fill="#5f6368" opacity="1.0">e11</text><text x="774.7" y="585.0" font-size="10.5" font-style="italic" fill="#5f6368" opacity="1.0">e2</text><polyline points="453.0,122.0 453.0,140.0 453.0,140.0 453.0,284.0" fill="none" stroke="#1a73e8" stroke-width="3.5" opacity="1.0"></polyline><rect x="392.1" y="168.0" width="121.8" height="42.0" rx="4" fill="#ffffff" fill-opacity="0.92" opacity="1.0"/><text x="453.0" y="181.0" text-anchor="middle" font-size="12" font-style="italic" font-weight="400" fill="#5f6368" opacity="1.0">キャリア 回線 1G</text><text x="453.0" y="198.0" text-anchor="middle" font-size="12" font-style="italic" font-weight="400" fill="#5f6368" opacity="1.0">(e1)</text><ellipse cx="453.0" cy="84.0" rx="75.0" ry="38.0" fill="#f1f3f4" stroke="#5f6368" stroke-width="1.6"/><text x="453.0" y="84.0" text-anchor="middle" dominant-baseline="central" font-size="12.5" font-weight="600" fill="#1e293b">WAN網</text><rect x="401.0" y="284.0" width="104.0" height="46.0" rx="4" fill="#e8f0fe" stroke="#1a56b0" stroke-width="1.4"/><text x="453.0" y="299.0" text-anchor="middle" dominant-baseline="central" font-size="12.5" font-weight="600" fill="#1e293b">rt01</text><text x="453.0" y="315.0" text-anchor="middle" dominant-baseline="central" font-size="12.5" font-weight="400" fill="#1e293b">x</text><rect x="251.0" y="386.0" width="364.0" height="46.0" rx="4" fill="#d2e3fc" stroke="#1a56b0" stroke-width="1.4"/><text x="433.0" y="401.0" text-anchor="middle" dominant-baseline="central" font-size="12.5" font-weight="600" fill="#1e293b">core01</text><text x="433.0" y="417.0" text-anchor="middle" dominant-baseline="central" font-size="12.5" font-weight="400" fill="#1e293b">x</text><rect x="297.0" y="488.0" width="312.0" height="46.0" rx="4" fill="#d2e3fc" stroke="#1a56b0" stroke-width="1.4"/><text x="453.0" y="503.0" text-anchor="middle" dominant-baseline="central" font-size="12.5" font-weight="600" fill="#1e293b">core02</text><text x="453.0" y="519.0" text-anchor="middle" dominant-baseline="central" font-size="12.5" font-weight="400" fill="#1e293b">x</text><rect x="66.0" y="590.0" width="104.0" height="46.0" rx="4" fill="#f1f3f4" stroke="#5f6368" stroke-width="1.4"/><text x="118.0" y="605.0" text-anchor="middle" dominant-baseline="central" font-size="12.5" font-weight="600" fill="#1e293b">srv01</text><text x="118.0" y="621.0" text-anchor="middle" dominant-baseline="central" font-size="12.5" font-weight="400" fill="#1e293b">x</text><rect x="200.0" y="590.0" width="104.0" height="46.0" rx="4" fill="#f1f3f4" stroke="#5f6368" stroke-width="1.4"/><text x="252.0" y="605.0" text-anchor="middle" dominant-baseline="central" font-size="12.5" font-weight="600" fill="#1e293b">srv02</text><text x="252.0" y="621.0" text-anchor="middle" dominant-baseline="central" font-size="12.5" font-weight="400" fill="#1e293b">x</text><rect x="334.0" y="590.0" width="104.0" height="46.0" rx="4" fill="#f1f3f4" stroke="#5f6368" stroke-width="1.4"/><text x="386.0" y="605.0" text-anchor="middle" dominant-baseline="central" font-size="12.5" font-weight="600" fill="#1e293b">srv03</text><text x="386.0" y="621.0" text-anchor="middle" dominant-baseline="central" font-size="12.5" font-weight="400" fill="#1e293b">x</text><rect x="468.0" y="590.0" width="104.0" height="46.0" rx="4" fill="#f1f3f4" stroke="#5f6368" stroke-width="1.4"/><text x="520.0" y="605.0" text-anchor="middle" dominant-baseline="central" font-size="12.5" font-weight="600" fill="#1e293b">srv04</text><text x="520.0" y="621.0" text-anchor="middle" dominant-baseline="central" font-size="12.5" font-weight="400" fill="#1e293b">x</text><rect x="602.0" y="590.0" width="104.0" height="46.0" rx="4" fill="#f1f3f4" stroke="#5f6368" stroke-width="1.4"/><text x="654.0" y="605.0" text-anchor="middle" dominant-baseline="central" font-size="12.5" font-weight="600" fill="#1e293b">srv05</text><text x="654.0" y="621.0" text-anchor="middle" dominant-baseline="central" font-size="12.5" font-weight="400" fill="#1e293b">x</text><rect x="736.0" y="590.0" width="104.0" height="46.0" rx="4" fill="#f1f3f4" stroke="#5f6368" stroke-width="1.4"/><text x="788.0" y="605.0" text-anchor="middle" dominant-baseline="central" font-size="12.5" font-weight="600" fill="#1e293b">srv06</text><text x="788.0" y="621.0" text-anchor="middle" dominant-baseline="central" font-size="12.5" font-weight="400" fill="#1e293b">x</text></svg>