<svg xmlns="http://www.w3.org/2000/svg" width="3165" height="750" viewBox="0 0 3165 750" font-family="'Segoe UI','Hiragino Sans','Noto Sans JP',Meiryo,sans-serif"><defs></defs><rect width="100%" height="100%" fill="#ffffff"/><text x="24" y="30" font-size="19" font-weight="700" fill="#1e293b">12拠点 全社物理図</text><rect x="40.0" y="480.0" width="267.0" height="230.0" rx="6" fill="#f7f9fc" stroke="#8fa8c4"/><text x="44.0" y="472.0" font-size="14.5" font-weight="600" fill="#33475b">拠点01</text><rect x="363.0" y="480.0" width="267.0" height="230.0" rx="6" fill="#f7f9fc" stroke="#8fa8c4"/><text x="367.0" y="472.0" font-size="14.5" font-weight="600" fill="#33475b">拠点02</text><rect x="685.9" y="480.0" width="267.0" height="230.0" rx="6" fill="#f7f9fc" stroke="#8fa8c4"/><text x="689.9" y="472.0" font-size="14.5" font-weight="600" fill="#33475b">拠点03</text><rect x="1008.9" y="480.0" width="267.0" height="230.0" rx="6" fill="#f7f9fc" stroke="#8fa8c4"/><text x="1012.9" y="472.0" font-size="14.5" font-weight="600" fill="#33475b">拠点04</text><rect x="1331.8" y="480.0" width="267.0" height="230.0" rx="6" fill="#f7f9fc" stroke="#8fa8c4"/><text x="1335.8" y="472.0" font-size="14.5" font-weight="600" fill="#33475b">拠点05</text><rect x="1654.8" y="480.0" width="267.0" height="230.0" rx="6" fill="#f7f9fc" stroke="#8fa8c4"/><text x="1658.8" y="472.0" font-size="14.5" font-weight="600" fill="#33475b">拠点06</text><rect x="1977.8" y="480.0" width="144.5" height="230.0" rx="6" fill="#f7f9fc" stroke="#8fa8c4"/><text x="1981.8" y="472.0" font-size="14.5" font-weight="600" fill="#33475b">拠点07</text><rect x="2178.2" y="480.0" width="144.5" height="230.0" rx="6" fill="#f7f9fc" stroke="#8fa8c4"/><text x="2182.2" y="472.0" font-size="14.5" font-weight="600" fill="#33475b">拠点08</text><rect x="2378.7" y="480.0" width="144.5" height="230.0" rx="6" fill="#f7f9fc" stroke="#8fa8c4"/><text x="2382.7" y="472.0" font-size="14.5" font-weight="600" fill="#33475b">拠点09</text><rect x="2579.2" y="480.0" width="144.5" height="230.0" rx="6" fill="#f7f9fc" stroke="#8fa8c4"/><text x="2583.2" y="472.0" font-size="14.5" font-weight="600" fill="#33475b">拠点10</text><rect x="2779.7" y="480.0" width="144.5" height="230.0" rx="6" fill="#f7f9fc" stroke="#8fa8c4"/><text x="2783.7" y="472.0" font-size="14.5" font-weight="600" fill="#33475b">拠点11</text><rect x="2980.2" y="480.0" width="144.5" height="230.0" rx="6" fill="#f7f9fc" stroke="#8fa8c4"/><text x="2984.2" y="472.0" font-size="14.5" font-weight="600" fill="#33475b">拠点12</text><polyline points="112.2,582.0 156.1,638.0" fill="none" stroke="#4a4a4a" stroke-width="2.0" opacity="1.0"></polyline><text x="116.2" y="595.0" font-size="10.5" font-style="italic" fill="#5f6368" opacity="1.0">e1</text><text x="160.1" y="633.0" font-size="10.5" font-style="italic" fill="#5f6368" opacity="1.0">e1</text><polyline points="234.7,582.0 190.8,638.0" fill="none" stroke="#4a4a4a" stroke-width="2.0" opacity="1.0"></polyline><text x="238.7" y="595.0" font-size="10.5" font-style="italic" fill="#5f6368" opacity="1.0">e1</text><text x="194.8" y="633.0" font-size="10.5" font-style="italic" fill="#5f6368" opacity="1.0">e2</text><polyline points="435.2,582.0 479.1,638.0" fill="none" stroke="#4a4a4a" stroke-width="2.0" opacity="1.0"></polyline><text x="439.2" y="595.0" font-size="10.5" font-style="italic" fill="#5f6368" opacity="1.0">e1</text><text x="483.1" y="633.0" font-size="10.5" font-style="italic" fill="#5f6368" opacity="1.0">e1</text><polyline points="557.7,582.0 513.8,638.0" fill="none" stroke="#4a4a4a" stroke-width="2.0" opacity="1.0"></polyline><text x="561.7" y="595.0" font-size="10.5" font-style="italic" fill="#5f6368" opacity="1.0">e1</text><text x="517.8" y="633.0" font-size="10.5" font-style="italic" fill="#5f6368" opacity="1.0">e2</text><polyline points="758.2,582.0 802.1,638.0" fill="none" stroke="#4a4a4a" stroke-width="2.0" opacity="1.0"></polyline><text x="762.2" y="595.0" font-size="10.5" font-style="italic" fill="#5f6368" opacity="1.0">e1</text><text x="806.1" y="633.0" font-size="10.5" font-style="italic" fill="#5f6368" opacity="1.0">e1</text><polyline points="880.6,582.0 836.7,638.0" fill="none" stroke="#4a4a4a" stroke-width="2.0" opacity="1.0"></polyline><text x="884.6" y="595.0" font-size="10.5" font-style="italic" fill="#5f6368" opacity="1.0">e1</text><text x="840.7" y="633.0" font-size="10.5" font-style="italic" fill="#5f6368" opacity="1.0">e2</text><polyline points="1081.1,582.0 1125.0,638.0" fill="none" stroke="#4a4a4a" stroke-width="2.0" opacity="1.0"></polyline><text x="1085.1" y="595.0" font-size="10.5" font-style="italic" fill="#5f6368" opacity="1.0">e1</text><text x="1129.0" y="633.0" font-size="10.5" font-style="italic" fill="#5f6368" opacity="1.0">e1</text><polyline points="1203.6,582.0 1159.7,638.0" fill="none" stroke="#4a4a4a" stroke-width="2.0" opacity="1.0"></polyline><text x="1207.6" y="595.0" font-size="10.5" font-style="italic" fill="#5f6368" opacity="1.0">e1</text><text x="1163.7" y="633.0" font-size="10.5" font-style="italic" fill="#5f6368" opacity="1.0">e2</text><polyline points="1404.1,582.0 1448.0,638.0" fill="none" stroke="#4a4a4a" stroke-width="2.0" opacity="1.0"></polyline><text x="1408.1" y="595.0" font-size="10.5" font-style="italic" fill="#5f6368" opacity="1.0">e1</text><text x="1452.0" y="633.0" font-size="10.5" font-style="italic" fill="#5f6368" opacity="1.0">e1</text><polyline points="1526.6,582.0 1482.7,638.0" fill="none" stroke="#4a4a4a" stroke-width="2.0" opacity="1.0"></polyline><text x="1530.6" y="595.0" font-size="10.5" font-style="italic" fill="#5f6368" opacity="1.0">e1</text><text x="1486.7" y="633.0" font-size="10.5" font-style="italic" fill="#5f6368" opacity="1.0">e2</text><polyline points="1727.0,582.0 1770.9,638.0" fill="none" stroke="#4a4a4a" stroke-width="2.0" opacity="1.0"></polyline><text x="1731.0" y="595.0" font-size="10.5" font-style="italic" fill="#5f6368" opacity="1.0">e1</text><text x="1774.9" y="633.0" font-size="10.5" font-style="italic" fill="#5f6368" opacity="1.0">e1</text><polyline points="1849.5,582.0 1805.6,638.0" fill="none" stroke="#4a4a4a" stroke-width="2.0" opacity="1.0"></polyline><text x="1853.5" y="595.0" font-size="10.5" font-style="italic" fill="#5f6368" opacity="1.0">e1</text><text x="1809.6" y="633.0" font-size="10.5" font-style="italic" fill="#5f6368" opacity="1.0">e2</text><polyline points="2050.0,582.0 2050.0,638.0" fill="none" stroke="#4a4a4a" stroke-width="2.0" opacity="1.0"></polyline><text x="2054.0" y="595.0" font-size="10.5" font-style="italic" fill="#5f6368" opacity="1.0">e1</text><text x="2054.0" y="633.0" font-size="10.5" font-style="italic" fill="#5f6368" opacity="1.0">e1</text><polyline points="2250.5,582.0 2250.5,638.0" fill="none" stroke="#4a4a4a" stroke-width="2.0" opacity="1.0"></polyline><text x="2254.5" y="595.0" font-size="10.5" font-style="italic" fill="#5f6368" opacity="1.0">e1</text><text x="2254.5" y="633.0" font-size="10.5" font-style="italic" fill="#5f6368" opacity="1.0">e1</text><polyline points="2451.0,582.0 2451.0,638.0" fill="none" stroke="#4a4a4a" stroke-width="2.0" opacity="1.0"></polyline><text x="2455.0" y="595.0" font-size="10.5" font-style="italic" fill="#5f6368" opacity="1.0">e1</text><text x="2455.0" y="633.0" font-size="10.5" font-style="italic" fill="#5f6368" opacity="1.0">e1</text><polyline points="2651.4,582.0 2651.4,638.0" fill="none" stroke="#4a4a4a" stroke-width="2.0" opacity="1.0"></polyline><text x="2655.4" y="595.0" font-size="10.5" font-style="italic" fill="#5f6368" opacity="1.0">e1</text><text x="2655.4" y="633.0" font-size="10.5" font-style="italic" fill="#5f6368" opacity="1.0">e1</text><polyline points="2851.9,582.0 2851.9,638.0" fill="none" stroke="#4a4a4a" stroke-width="2.0" opacity="1.0"></polyline><text x="2855.9" y="595.0" font-size="10.5" font-style="italic" fill="#5f6368" opacity="1.0">e1</text><text x="2855.9" y="633.0" font-size="10.5" font-style="italic" fill="#5f6368" opacity="1.0">e1</text><polyline points="3052.4,582.0 3052.4,638.0" fill="none" stroke="#4a4a4a" stroke-width="2.0" opacity="1.0"></polyline><text x="3056.4" y="595.0" font-size="10.5" font-style="italic" fill="#5f6368" opacity="1.0">e1</text><text x="3056.4" y="633.0" font-size="10.5" font-style="italic" fill="#5f6368" opacity="1.0">e1</text><polyline points="1672.0,122.0 1672.0,140.0 112.2,140.0 112.2,536.0" fill="none" stroke="#1a73e8" stroke-width="3.5" opacity="1.0"></polyline><rect x="41.2" y="276.0" width="142.0" height="42.0" rx="4" fill="#ffffff" fill-opacity="0.92" opacity="1.0"/><text x="112.2" y="289.0" text-anchor="middle" font-size="12" font-style="italic" font-weight="400" fill="#5f6368" opacity="1.0">キャリア IP-VPN 1G</text><text x="112.2" y="306.0" text-anchor="middle" font-size="12" font-style="italic" font-weight="400" fill="#5f6368" opacity="1.0">(e2)</text><polyline points="983.7,122.0 983.7,158.0 234.7,158.0 234.7,536.0" fill="none" stroke="#1a73e8" stroke-width="3.5" opacity="1.0"></polyline><rect x="154.2" y="312.0" width="161.1" height="42.0" rx="4" fill="#ffffff" fill-opacity="0.92" opacity="1.0"/><text x="234.7" y="325.0" text-anchor="middle" font-size="12" font-style="italic" font-weight="400" fill="#5f6368" opacity="1.0">キャリア フレッツ光 1G</text><text x="234.7" y="342.0" text-anchor="middle" font-size="12" font-style="italic" font-weight="400" fill="#5f6368" opacity="1.0">(e2)</text><polyline points="1683.5,122.0 1683.5,176.0 435.2,176.0 435.2,536.0" fill="none" stroke="#1a73e8" stroke-width="3.5" opacity="1.0"></polyline><rect x="364.2" y="276.0" width="142.0" height="42.0" rx="4" fill="#ffffff" fill-opacity="0.92" opacity="1.0"/><text x="435.2" y="289.0" text-anchor="middle" font-size="12" font-style="italic" font-weight="400" fill="#5f6368" opacity="1.0">キャリア IP-VPN 1G</text><text x="435.2" y="306.0" text-anchor="middle" font-size="12" font-style="italic" font-weight="400" fill="#5f6368" opacity="1.0">(e2)</text><polyline points="1007.1,122.0 1007.1,194.0 557.7,194.0 557.7,536.0" fill="none" stroke="#1a73e8" stroke-width="3.5" opacity="1.0"></polyline><rect x="477.1" y="312.0" width="161.1" height="42.0" rx="4" fill="#ffffff" fill-opacity="0.92" opacity="1.0"/><text x="557.7" y="325.0" text-anchor="middle" font-size="12" font-style="italic" font-weight="400" fill="#5f6368" opacity="1.0">キャリア フレッツ光 1G</text><text x="557.7" y="342.0" text-anchor="middle" font-size="12" font-style="italic" font-weight="400" fill="#5f6368" opacity="1.0">(e2)</text><polyline points="1695.0,122.0 1695.0,212.0 758.2,212.0 758.2,536.0" fill="none" stroke="#1a73e8" stroke-width="3.5" opacity="1.0"></polyline><rect x="687.2" y="276.0" width="142.0" height="42.0" rx="4" fill="#ffffff" fill-opacity="0.92" opacity="1.0"/><text x="758.2" y="289.0" text-anchor="middle" font-size="12" font-style="italic" font-weight="400" fill="#5f6368" opacity="1.0">キャリア IP-VPN 1G</text><text x="758.2" y="306.0" text-anchor="middle" font-size="12" font-style="italic" font-weight="400" fill="#5f6368" opacity="1.0">(e2)</text><polyline points="1030.4,122.0 1030.4,230.0 880.6,230.0 880.6,536.0" fill="none" stroke="#1a73e8" stroke-width="3.5" opacity="1.0"></polyline><rect x="800.1" y="312.0" width="161.1" height="42.0" rx="4" fill="#ffffff" fill-opacity="0.92" opacity="1.0"/><text x="880.6" y="325.0" text-anchor="middle" font-size="12" font-style="italic" font-weight="400" fill="#5f6368" opacity="1.0">キャリア フレッツ光 1G</text><text x="880.6" y="342.0" text-anchor="middle" font-size="12" font-style="italic" font-weight="400" fill="#5f6368" opacity="1.0">(e2)</text><polyline points="1706.6,122.0 1706.6,158.0 1081.1,158.0 1081.1,536.0" fill="none" stroke="#1a73e8" stroke-width="3.5" opacity="1.0"></polyline><rect x="1010.1" y="348.0" width="142.0" height="42.0" rx="4" fill="#ffffff" fill-opacity="0.92" opacity="1.0"/><text x="1081.1" y="361.0" text-anchor="middle" font-size="12" font-style="italic" font-weight="400" fill="#5f6368" opacity="1.0">キャリア IP-VPN 1G</text><text x="1081.1" y="378.0" text-anchor="middle" font-size="12" font-style="italic" font-weight="400" fill="#5f6368" opacity="1.0">(e2)</text><polyline points="1053.8,122.0 1053.8,194.0 1203.6,194.0 1203.6,536.0" fill="none" stroke="#1a73e8" stroke-width="3.5" opacity="1.0"></polyline><rect x="1123.0" y="276.0" width="161.1" height="42.0" rx="4" fill="#ffffff" fill-opacity="0.92" opacity="1.0"/><text x="1203.6" y="289.0" text-anchor="middle" font-size="12" font-style="italic" font-weight="400" fill="#5f6368" opacity="1.0">キャリア フレッツ光 1G</text><text x="1203.6" y="306.0" text-anchor="middle" font-size="12" font-style="italic" font-weight="400" fill="#5f6368" opacity="1.0">(e2)</text><polyline points="1718.1,122.0 1718.1,194.0 1404.1,194.0 1404.1,536.0" fill="none" stroke="#1a73e8" stroke-width="3.5" opacity="1.0"></polyline><rect x="1333.1" y="276.0" width="142.0" height="42.0" rx="4" fill="#ffffff" fill-opacity="0.92" opacity="1.0"/><text x="1404.1" y="289.0" text-anchor="middle" font-size="12" font-style="italic" font-weight="400" fill="#5f6368" opacity="1.0">キャリア IP-VPN 1G</text><text x="1404.1" y="306.0" text-anchor="middle" font-size="12" font-style="italic" font-weight="400" fill="#5f6368" opacity="1.0">(e2)</text><polyline points="1077.2,122.0 1077.2,230.0 1526.6,230.0 1526.6,536.0" fill="none" stroke="#1a73e8" stroke-width="3.5" opacity="1.0"></polyline><rect x="1446.0" y="312.0" width="161.1" height="42.0" rx="4" fill="#ffffff" fill-opacity="0.92" opacity="1.0"/><text x="1526.6" y="325.0" text-anchor="middle" font-size="12" font-style="italic" font-weight="400" fill="#5f6368" opacity="1.0">キャリア フレッツ光 1G</text><text x="1526.6" y="342.0" text-anchor="middle" font-size="12" font-style="italic" font-weight="400" fill="#5f6368" opacity="1.0">(e2)</text><polyline points="1729.7,122.0 1729.7,140.0 1727.0,140.0 1727.0,536.0" fill="none" stroke="#1a73e8" stroke-width="3.5" opacity="1.0"></polyline><rect x="1656.0" y="384.0" width="142.0" height="42.0" rx="4" fill="#ffffff" fill-opacity="0.92" opacity="1.0"/><text x="1727.0" y="397.0" text-anchor="middle" font-size="12" font-style="italic" font-weight="400" fill="#5f6368" opacity="1.0">キャリア IP-VPN 1G</text><text x="1727.0" y="414.0" text-anchor="middle" font-size="12" font-style="italic" font-weight="400" fill="#5f6368" opacity="1.0">(e2)</text><polyline points="1100.5,122.0 1100.5,248.0 1849.5,248.0 1849.5,536.0" fill="none" stroke="#1a73e8" stroke-width="3.5" opacity="1.0"></polyline><rect x="1769.0" y="420.0" width="161.1" height="42.0" rx="4" fill="#ffffff" fill-opacity="0.92" opacity="1.0"/><text x="1849.5" y="433.0" text-anchor="middle" font-size="12" font-style="italic" font-weight="400" fill="#5f6368" opacity="1.0">キャリア フレッツ光 1G</text><text x="1849.5" y="450.0" text-anchor="middle" font-size="12" font-style="italic" font-weight="400" fill="#5f6368" opacity="1.0">(e2)</text><polyline points="1741.2,122.0 1741.2,158.0 2050.0,158.0 2050.0,536.0" fill="none" stroke="#1a73e8" stroke-width="3.5" opacity="1.0"></polyline><rect x="1979.0" y="276.0" width="142.0" height="42.0" rx="4" fill="#ffffff" fill-opacity="0.92" opacity="1.0"/><text x="2050.0" y="289.0" text-anchor="middle" font-size="12" font-style="italic" font-weight="400" fill="#5f6368" opacity="1.0">キャリア IP-VPN 1G</text><text x="2050.0" y="306.0" text-anchor="middle" font-size="12" font-style="italic" font-weight="400" fill="#5f6368" opacity="1.0">(e2)</text><polyline points="1752.7,122.0 1752.7,140.0 2250.5,140.0 2250.5,536.0" fill="none" stroke="#1a73e8" stroke-width="3.5" opacity="1.0"></polyline><rect x="2179.5" y="276.0" width="142.0" height="42.0" rx="4" fill="#ffffff" fill-opacity="0.92" opacity="1.0"/><text x="2250.5" y="289.0" text-anchor="middle" font-size="12" font-style="italic" font-weight="400" fill="#5f6368" opacity="1.0">キャリア IP-VPN 1G</text><text x="2250.5" y="306.0" text-anchor="middle" font-size="12" font-style="italic" font-weight="400" fill="#5f6368" opacity="1.0">(e2)</text><polyline points="1764.3,122.0 1764.3,176.0 2451.0,176.0 2451.0,536.0" fill="none" stroke="#1a73e8" stroke-width="3.5" opacity="1.0"></polyline><rect x="2380.0" y="276.0" width="142.0" height="42.0" rx="4" fill="#ffffff" fill-opacity="0.92" opacity="1.0"/><text x="2451.0" y="289.0" text-anchor="middle" font-size="12" font-style="italic" font-weight="400" fill="#5f6368" opacity="1.0">キャリア IP-VPN 1G</text><text x="2451.0" y="306.0" text-anchor="middle" font-size="12" font-style="italic" font-weight="400" fill="#5f6368" opacity="1.0">(e2)</text><polyline points="1775.8,122.0 1775.8,194.0 2651.4,194.0 2651.4,536.0" fill="none" stroke="#1a73e8" stroke-width="3.5" opacity="1.0"></polyline><rect x="2580.4" y="276.0" width="142.0" height="42.0" rx="4" fill="#ffffff" fill-opacity="0.92" opacity="1.0"/><text x="2651.4" y="289.0" text-anchor="middle" font-size="12" font-style="italic" font-weight="400" fill="#5f6368" opacity="1.0">キャリア IP-VPN 1G</text><text x="2651.4" y="306.0" text-anchor="middle" font-size="12" font-style="italic" font-weight="400" fill="#5f6368" opacity="1.0">(e2)</text><polyline points="1787.3,122.0 1787.3,212.0 2851.9,212.0 2851.9,536.0" fill="none" stroke="#1a73e8" stroke-width="3.5" opacity="1.0"></polyline><rect x="2780.9" y="276.0" width="142.0" height="42.0" rx="4" fill="#ffffff" fill-opacity="0.92" opacity="1.0"/><text x="2851.9" y="289.0" text-anchor="middle" font-size="12" font-style="italic" font-weight="400" fill="#5f6368" opacity="1.0">キャリア IP-VPN 1G</text><text x="2851.9" y="306.0" text-anchor="middle" font-size="12" font-style="italic" font-weight="400" fill="#5f6368" opacity="1.0">(e2)</text><polyline points="1798.9,122.0 1798.9,230.0 3052.4,230.0 3052.4,536.0" fill="none" stroke="#1a73e8" stroke-width="3.5" opacity="1.0"></polyline><rect x="2981.4" y="276.0" width="142.0" height="42.0" rx="4" fill="#ffffff" fill-opacity="0.92" opacity="1.0"/><text x="3052.4" y="289.0" text-anchor="middle" font-size="12" font-style="italic" font-weight="400" fill="#5f6368" opacity="1.0">キャリア IP-VPN 1G</text><text x="3052.4" y="306.0" text-anchor="middle" font-size="12" font-style="italic" font-weight="400" fill="#5f6368" opacity="1.0">(e2)</text><ellipse cx="1042.1" cy="84.0" rx="81.8" ry="38.0" fill="#f1f3f4" stroke="#5f6368" stroke-width="1.6"/><text x="1042.1" y="84.0" text-anchor="middle" dominant-baseline="central" font-size="12.5" font-weight="600" fill="#1e293b">インターネット</text><ellipse cx="1735.4" cy="84.0" rx="75.0" ry="38.0" fill="#f1f3f4" stroke="#5f6368" stroke-width="1.6"/><text x="1735.4" y="84.0" text-anchor="middle" dominant-baseline="central" font-size="12.5" font-weight="600" fill="#1e293b">IP-VPN網</text><rect x="66.0" y="536.0" width="92.5" height="46.0" rx="4" fill="#e8f0fe" stroke="#1a56b0" stroke-width="1.4"/><text x="112.2" y="551.0" text-anchor="middle" dominant-baseline="central" font-size="12.5" font-weight="600" fill="#1e293b">s01-rt01</text><text x="112.2" y="567.0" text-anchor="middle" dominant-baseline="central" font-size="12.5" font-weight="400" fill="#1e293b">x</text><rect x="121.5" y="638.0" width="104.0" height="46.0" rx="4" fill="#e6f4ea" stroke="#137333" stroke-width="1.4"/><text x="173.5" y="653.0" text-anchor="middle" dominant-baseline="central" font-size="12.5" font-weight="600" fill="#1e293b">s01-sw01</text><text x="173.5" y="669.0" text-anchor="middle" dominant-baseline="central" font-size="12.5" font-weight="400" fill="#1e293b">x</text><rect x="188.5" y="536.0" width="92.5" height="46.0" rx="4" fill="#e8f0fe" stroke="#1a56b0" stroke-width="1.4"/><text x="234.7" y="551.0" text-anchor="middle" dominant-baseline="central" font-size="12.5" font-weight="600" fill="#1e293b">s01-rt02</text><text x="234.7" y="567.0" text-anchor="middle" dominant-baseline="central" font-size="12.5" font-weight="400" fill="#1e293b">x</text><rect x="389.0" y="536.0" width="92.5" height="46.0" rx="4" fill="#e8f0fe" stroke="#1a56b0" stroke-width="1.4"/><text x="435.2" y="551.0" text-anchor="middle" dominant-baseline="central" font-size="12.5" font-weight="600" fill="#1e293b">s02-rt01</text><text x="435.2" y="567.0" text-anchor="middle" dominant-baseline="central" font-size="12.5" font-weight="400" fill="#1e293b">x</text><rect x="444.4" y="638.0" width="104.0" height="46.0" rx="4" fill="#e6f4ea" stroke="#137333" stroke-width="1.4"/><text x="496.4" y="653.0" text-anchor="middle" dominant-baseline="central" font-size="12.5" font-weight="600" fill="#1e293b">s02-sw01</text><text x="496.4" y="669.0" text-anchor="middle" dominant-baseline="central" font-size="12.5" font-weight="400" fill="#1e293b">x</text><rect x="511.4" y="536.0" width="92.5" height="46.0" rx="4" fill="#e8f0fe" stroke="#1a56b0" stroke-width="1.4"/><text x="557.7" y="551.0" text-anchor="middle" dominant-baseline="central" font-size="12.5" font-weight="600" fill="#1e293b">s02-rt02</text><text x="557.7" y="567.0" text-anchor="middle" dominant-baseline="central" font-size="12.5" font-weight="400" fill="#1e293b">x</text><rect x="711.9" y="536.0" width="92.5" height="46.0" rx="4" fill="#e8f0fe" stroke="#1a56b0" stroke-width="1.4"/><text x="758.2" y="551.0" text-anchor="middle" dominant-baseline="central" font-size="12.5" font-weight="600" fill="#1e293b">s03-rt01</text><text x="758.2" y="567.0" text-anchor="middle" dominant-baseline="central" font-size="12.5" font-weight="400" fill="#1e293b">x</text><rect x="767.4" y="638.0" width="104.0" height="46.0" rx="4" fill="#e6f4ea" stroke="#137333" stroke-width="1.4"/><text x="819.4" y="653.0" text-anchor="middle" dominant-baseline="central" font-size="12.5" font-weight="600" fill="#1e293b">s03-sw01</text><text x="819.4" y="669.0" text-anchor="middle" dominant-baseline="central" font-size="12.5" font-weight="400" fill="#1e293b">x</text><rect x="834.4" y="536.0" width="92.5" height="46.0" rx="4" fill="#e8f0fe" stroke="#1a56b0" stroke-width="1.4"/><text x="880.6" y="551.0" text-anchor="middle" dominant-baseline="central" font-size="12.5" font-weight="600" fill="#1e293b">s03-rt02</text><text x="880.6" y="567.0" text-anchor="middle" dominant-baseline="central" font-size="12.5" font-weight="400" fill="#1e293b">x</text><rect x="1034.9" y="536.0" width="92.5" height="46.0" rx="4" fill="#e8f0fe" stroke="#1a56b0" stroke-width="1.4"/><text x="1081.1" y="551.0" text-anchor="middle" dominant-baseline="central" font-size="12.5" font-weight="600" fill="#1e293b">s04-rt01</text><text x="1081.1" y="567.0" text-anchor="middle" dominant-baseline="central" font-size="12.5" font-weight="400" fill="#1e293b">x</text><rect x="1090.4" y="638.0" width="104.0" height="46.0" rx="4" fill="#e6f4ea" stroke="#137333" stroke-width="1.4"/><text x="1142.4" y="653.0" text-anchor="middle" dominant-baseline="central" font-size="12.5" font-weight="600" fill="#1e293b">s04-sw01</text><text x="1142.4" y="669.0" text-anchor="middle" dominant-baseline="central" font-size="12.5" font-weight="400" fill="#1e293b">x</text><rect x="1157.4" y="536.0" width="92.5" height="46.0" rx="4" fill="#e8f0fe" stroke="#1a56b0" stroke-width="1.4"/><text x="1203.6" y="551.0" text-anchor="middle" dominant-baseline="central" font-size="12.5" font-weight="600" fill="#1e293b">s04-rt02</text><text x="1203.6" y="567.0" text-anchor="middle" dominant-baseline="central" font-size="12.5" font-weight="400" fill="#1e293b">x</text><rect x="1357.8" y="536.0" width="92.5" height="46.0" rx="4" fill="#e8f0fe" stroke="#1a56b0" stroke-width="1.4"/><text x="1404.1" y="551.0" text-anchor="middle" dominant-baseline="central" font-size="12.5" font-weight="600" fill="#1e293b">s05-rt01</text><text x="1404.1" y="567.0" text-anchor="middle" dominant-baseline="central" font-size="12.5" font-weight="400" fill="#1e293b">x</text><rect x="1413.3" y="638.0" width="104.0" height="46.0" rx="4" fill="#e6f4ea" stroke="#137333" stroke-width="1.4"/><text x="1465.3" y="653.0" text-anchor="middle" dominant-baseline="central" font-size="12.5" font-weight="600" fill="#1e293b">s05-sw01</text><text x="1465.3" y="669.0" text-anchor="middle" dominant-baseline="central" font-size="12.5" font-weight="400" fill="#1e293b">x</text><rect x="1480.3" y="536.0" width="92.5" height="46.0" rx="4" fill="#e8f0fe" stroke="#1a56b0" stroke-width="1.4"/><text x="1526.6" y="551.0" text-anchor="middle" dominant-baseline="central" font-size="12.5" font-weight="600" fill="#1e293b">s05-rt02</text><text x="1526.6" y="567.0" text-anchor="middle" dominant-baseline="central" font-size="12.5" font-weight="400" fill="#1e293b">x</text><rect x="1680.8" y="536.0" width="92.5" height="46.0" rx="4" fill="#e8f0fe" stroke="#1a56b0" stroke-width="1.4"/><text x="1727.0" y="551.0" text-anchor="middle" dominant-baseline="central" font-size="12.5" font-weight="600" fill="#1e293b">s06-rt01</text><text x="1727.0" y="567.0" text-anchor="middle" dominant-baseline="central" font-size="12.5" font-weight="400" fill="#1e293b">x</text><rect x="1736.3" y="638.0" width="104.0" height="46.0" rx="4" fill="#e6f4ea" stroke="#137333" stroke-width="1.4"/><text x="1788.3" y="653.0" text-anchor="middle" dominant-baseline="central" font-size="12.5" font-weight="600" fill="#1e293b">s06-sw01</text><text x="1788.3" y="669.0" text-anchor="middle" dominant-baseline="central" font-size="12.5" font-weight="400" fill="#1e293b">x</text><rect x="1803.3" y="536.0" width="92.5" height="46.0" rx="4" fill="#e8f0fe" stroke="#1a56b0" stroke-width="1.4"/><text x="1849.5" y="551.0" text-anchor="middle" dominant-baseline="central" font-size="12.5" font-weight="600" fill="#1e293b">s06-rt02</text><text x="1849.5" y="567.0" text-anchor="middle" dominant-baseline="central" font-size="12.5" font-weight="400" fill="#1e293b">x</text><rect x="2003.8" y="536.0" width="92.5" height="46.0" rx="4" fill="#e8f0fe" stroke="#1a56b0" stroke-width="1.4"/><text x="2050.0" y="551.0" text-anchor="middle" dominant-baseline="central" font-size="12.5" font-weight="600" fill="#1e293b">s07-rt01</text><text x="2050.0" y="567.0" text-anchor="middle" dominant-baseline="central" font-size="12.5" font-weight="400" fill="#1e293b">x</text><rect x="2003.8" y="638.0" width="92.5" height="46.0" rx="4" fill="#e6f4ea" stroke="#137333" stroke-width="1.4"/><text x="2050.0" y="653.0" text-anchor="middle" dominant-baseline="central" font-size="12.5" font-weight="600" fill="#1e293b">s07-sw01</text><text x="2050.0" y="669.0" text-anchor="middle" dominant-baseline="central" font-size="12.5" font-weight="400" fill="#1e293b">x</text><rect x="2204.2" y="536.0" width="92.5" height="46.0" rx="4" fill="#e8f0fe" stroke="#1a56b0" stroke-width="1.4"/><text x="2250.5" y="551.0" text-anchor="middle" dominant-baseline="central" font-size="12.5" font-weight="600" fill="#1e293b">s08-rt01</text><text x="2250.5" y="567.0" text-anchor="middle" dominant-baseline="central" font-size="12.5" font-weight="400" fill="#1e293b">x</text><rect x="2204.2" y="638.0" width="92.5" height="46.0" rx="4" fill="#e6f4ea" stroke="#137333" stroke-width="1.4"/><text x="2250.5" y="653.0" text-anchor="middle" dominant-baseline="central" font-size="12.5" font-weight="600" fill="#1e293b">s08-sw01</text><text x="2250.5" y="669.0" text-anchor="middle" dominant-baseline="central" font-size="12.5" font-weight="400" fill="#1e293b">x</text><rect x="2404.7" y="536.0" width="92.5" height="46.0" rx="4" fill="#e8f0fe" stroke="#1a56b0" stroke-width="1.4"/><text x="2451.0" y="551.0" text-anchor="middle" dominant-baseline="central" font-size="12.5" font-weight="600" fill="#1e293b">s09-rt01</text><text x="2451.0" y="567.0" text-anchor="middle" dominant-baseline="central" font-size="12.5" font-weight="400" fill="#1e293b">x</text><rect x="2404.7" y="638.0" width="92.5" height="46.0" rx="4" fill="#e6f4ea" stroke="#137333" stroke-width="1.4"/><text x="2451.0" y="653.0" text-anchor="middle" dominant-baseline="central" font-size="12.5" font-weight="600" fill="#1e293b">s09-sw01</text><text x="2451.0" y="669.0" text-anchor="middle" dominant-baseline="central" font-size="12.5" font-weight="400" fill="#1e293b">x</text><rect x="2605.2" y="536.0" width="92.5" height="46.0" rx="4" fill="#e8f0fe" stroke="#1a56b0" stroke-width="1.4"/><text x="2651.4" y="551.0" text-anchor="middle" dominant-baseline="central" font-size="12.5" font-weight="600" fill="#1e293b">s10-rt01</text><text x="2651.4" y="567.0" text-anchor="middle" dominant-baseline="central" font-size="12.5" font-weight="400" fill="#1e293b">x</text><rect x="2605.2" y="638.0" width="92.5" height="46.0" rx="4" fill="#e6f4ea" stroke="#137333" stroke-width="1.4"/><text x="2651.4" y="653.0" text-anchor="middle" dominant-baseline="central" font-size="12.5" font-weight="600" fill="#1e293b">s10-sw01</text><text x="2651.4" y="669.0" text-anchor="middle" dominant-baseline="central" font-size="12.5" font-weight="400" fill="#1e293b">x</text><rect x="2805.7" y="536.0" width="92.5" height="46.0" rx="4" fill="#e8f0fe" stroke="#1a56b0" stroke-width="1.4"/><text x="2851.9" y="551.0" text-anchor="middle" dominant-baseline="central" font-size="12.5" font-weight="600" fill="#1e293b">s11-rt01</text><text x="2851.9" y="567.0" text-anchor="middle" dominant-baseline="central" font-size="12.5" font-weight="400" fill="#1e293b">x</text><rect x="2805.7" y="638.0" width="92.5" height="46.0" rx="4" fill="#e6f4ea" stroke="#137333" stroke-width="1.4"/><text x="2851.9" y="653.0" text-anchor="middle" dominant-baseline="central" font-size="12.5" font-weight="600" fill="#1e293b">s11-sw01</text><text x="2851.9" y="669.0" text-anchor="middle" dominant-baseline="central" font-size="12.5" font-weight="400" fill="#1e293b">x</text><rect x="3006.2" y="536.0" width="92.5" height="46.0" rx="4" fill="#e8f0fe" stroke="#1a56b0" stroke-width="1.4"/><text x="3052.4" y="551.0" text-anchor="middle" dominant-baseline="central" font-size="12.5" font-weight="600" fill="#1e293b">s12-rt01</text><text x="3052.4" y="567.0" text-anchor="middle" dominant-baseline="central" font-size="12.5" font-weight="400" fill="#1e293b">x</text><rect x="3006.2" y="638.0" width="92.5" height="46.0" rx="4" fill="#e6f4ea" stroke="#137333" stroke-width="1.4"/><text x="3052.4" y="653.0" text-anchor="middle" dominant-baseline="central" font-size="12.5" font-weight="600" fill="#1e293b">s12-sw01</text><text x="3052.4" y="669.0" text-anchor="middle" dominant-baseline="central" font-size="12.5" font-weight="400" fill="#1e293b">x</text></svg>