<svg xmlns="http://www.w3.org/2000/svg" width="3199" height="756" viewBox="0 0 3199 756" font-family="'Segoe UI','Hiragino Sans','Noto Sans JP',Meiryo,sans-serif"><defs></defs><rect width="100%" height="100%" fill="#ffffff"/><text x="24" y="30" font-size="19" font-weight="700" fill="#1e293b">12拠点 全社物理図</text><rect x="40.0" y="480.0" width="272.7" height="236.0" rx="6" fill="#f7f9fc" stroke="#8fa8c4"/><text x="44.0" y="472.0" font-size="14.5" font-weight="600" fill="#33475b">拠点01</text><rect x="368.7" y="480.0" width="272.7" height="236.0" rx="6" fill="#f7f9fc" stroke="#8fa8c4"/><text x="372.7" y="472.0" font-size="14.5" font-weight="600" fill="#33475b">拠点02</text><rect x="697.4" y="480.0" width="272.7" height="236.0" rx="6" fill="#f7f9fc" stroke="#8fa8c4"/><text x="701.4" y="472.0" font-size="14.5" font-weight="600" fill="#33475b">拠点03</text><rect x="1026.2" y="480.0" width="272.7" height="236.0" rx="6" fill="#f7f9fc" stroke="#8fa8c4"/><text x="1030.2" y="472.0" font-size="14.5" font-weight="600" fill="#33475b">拠点04</text><rect x="1354.9" y="480.0" width="272.7" height="236.0" rx="6" fill="#f7f9fc" stroke="#8fa8c4"/><text x="1358.9" y="472.0" font-size="14.5" font-weight="600" fill="#33475b">拠点05</text><rect x="1683.6" y="480.0" width="272.7" height="236.0" rx="6" fill="#f7f9fc" stroke="#8fa8c4"/><text x="1687.6" y="472.0" font-size="14.5" font-weight="600" fill="#33475b">拠点06</text><rect x="2012.3" y="480.0" width="144.5" height="230.0" rx="6" fill="#f7f9fc" stroke="#8fa8c4"/><text x="2016.3" y="472.0" font-size="14.5" font-weight="600" fill="#33475b">拠点07</text><rect x="2212.8" y="480.0" width="144.5" height="230.0" rx="6" fill="#f7f9fc" stroke="#8fa8c4"/><text x="2216.8" y="472.0" font-size="14.5" font-weight="600" fill="#33475b">拠点08</text><rect x="2413.3" y="480.0" width="144.5" height="230.0" rx="6" fill="#f7f9fc" stroke="#8fa8c4"/><text x="2417.3" y="472.0" font-size="14.5" font-weight="600" fill="#33475b">拠点09</text><rect x="2613.8" y="480.0" width="144.5" height="230.0" rx="6" fill="#f7f9fc" stroke="#8fa8c4"/><text x="2617.8" y="472.0" font-size="14.5" font-weight="600" fill="#33475b">拠点10</text><rect x="2814.2" y="480.0" width="144.5" height="230.0" rx="6" fill="#f7f9fc" stroke="#8fa8c4"/><text x="2818.2" y="472.0" font-size="14.5" font-weight="600" fill="#33475b">拠点11</text><rect x="3014.7" y="480.0" width="144.5" height="230.0" rx="6" fill="#f7f9fc" stroke="#8fa8c4"/><text x="3018.7" y="472.0" font-size="14.5" font-weight="600" fill="#33475b">拠点12</text><polyline points="118.0,582.0 118.0,604.0 100.7,604.0 100.7,644.0" fill="none" stroke="#4a4a4a" stroke-width="2.0" opacity="1.0"></polyline><text x="122.0" y="595.0" font-size="10.5" font-style="italic" fill="#5f6368" opacity="1.0">e1</text><text x="104.7" y="639.0" font-size="10.5" font-style="italic" fill="#5f6368" opacity="1.0">e1</text><polyline points="240.5,582.0 240.5,604.0 135.3,604.0 135.3,644.0" fill="none" stroke="#4a4a4a" stroke-width="2.0" opacity="1.0"></polyline><text x="244.5" y="595.0" font-size="10.5" font-style="italic" fill="#5f6368" opacity="1.0">e1</text><text x="139.3" y="639.0" font-size="10.5" font-style="italic" fill="#5f6368" opacity="1.0">e2</text><polyline points="446.7,582.0 446.7,604.0 429.4,604.0 429.4,644.0" fill="none" stroke="#4a4a4a" stroke-width="2.0" opacity="1.0"></polyline><text x="450.7" y="595.0" font-size="10.5" font-style="italic" fill="#5f6368" opacity="1.0">e1</text><text x="433.4" y="639.0" font-size="10.5" font-style="italic" fill="#5f6368" opacity="1.0">e1</text><polyline points="569.2,582.0 569.2,604.0 464.1,604.0 464.1,644.0" fill="none" stroke="#4a4a4a" stroke-width="2.0" opacity="1.0"></polyline><text x="573.2" y="595.0" font-size="10.5" font-style="italic" fill="#5f6368" opacity="1.0">e1</text><text x="468.1" y="639.0" font-size="10.5" font-style="italic" fill="#5f6368" opacity="1.0">e2</text><polyline points="775.4,582.0 775.4,604.0 758.1,604.0 758.1,644.0" fill="none" stroke="#4a4a4a" stroke-width="2.0" opacity="1.0"></polyline><text x="779.4" y="595.0" font-size="10.5" font-style="italic" fill="#5f6368" opacity="1.0">e1</text><text x="762.1" y="639.0" font-size="10.5" font-style="italic" fill="#5f6368" opacity="1.0">e1</text><polyline points="897.9,582.0 897.9,604.0 792.8,604.0 792.8,644.0" fill="none" stroke="#4a4a4a" stroke-width="2.0" opacity="1.0"></polyline><text x="901.9" y="595.0" font-size="10.5" font-style="italic" fill="#5f6368" opacity="1.0">e1</text><text x="796.8" y="639.0" font-size="10.5" font-style="italic" fill="#5f6368" opacity="1.0">e2</text><polyline points="1104.2,582.0 1104.2,604.0 1086.8,604.0 1086.8,644.0" fill="none" stroke="#4a4a4a" stroke-width="2.0" opacity="1.0"></polyline><text x="1108.2" y="595.0" font-size="10.5" font-style="italic" fill="#5f6368" opacity="1.0">e1</text><text x="1090.8" y="639.0" font-size="10.5" font-style="italic" fill="#5f6368" opacity="1.0">e1</text><polyline points="1226.6,582.0 1226.6,604.0 1121.5,604.0 1121.5,644.0" fill="none" stroke="#4a4a4a" stroke-width="2.0" opacity="1.0"></polyline><text x="1230.6" y="595.0" font-size="10.5" font-style="italic" fill="#5f6368" opacity="1.0">e1</text><text x="1125.5" y="639.0" font-size="10.5" font-style="italic" fill="#5f6368" opacity="1.0">e2</text><polyline points="1432.9,582.0 1432.9,604.0 1415.5,604.0 1415.5,644.0" fill="none" stroke="#4a4a4a" stroke-width="2.0" opacity="1.0"></polyline><text x="1436.9" y="595.0" font-size="10.5" font-style="italic" fill="#5f6368" opacity="1.0">e1</text><text x="1419.5" y="639.0" font-size="10.5" font-style="italic" fill="#5f6368" opacity="1.0">e1</text><polyline points="1555.4,582.0 1555.4,604.0 1450.2,604.0 1450.2,644.0" fill="none" stroke="#4a4a4a" stroke-width="2.0" opacity="1.0"></polyline><text x="1559.4" y="595.0" font-size="10.5" font-style="italic" fill="#5f6368" opacity="1.0">e1</text><text x="1454.2" y="639.0" font-size="10.5" font-style="italic" fill="#5f6368" opacity="1.0">e2</text><polyline points="1761.6,582.0 1761.6,604.0 1744.3,604.0 1744.3,644.0" fill="none" stroke="#4a4a4a" stroke-width="2.0" opacity="1.0"></polyline><text x="1765.6" y="595.0" font-size="10.5" font-style="italic" fill="#5f6368" opacity="1.0">e1</text><text x="1748.3" y="639.0" font-size="10.5" font-style="italic" fill="#5f6368" opacity="1.0">e1</text><polyline points="1884.1,582.0 1884.1,604.0 1778.9,604.0 1778.9,644.0" fill="none" stroke="#4a4a4a" stroke-width="2.0" opacity="1.0"></polyline><text x="1888.1" y="595.0" font-size="10.5" font-style="italic" fill="#5f6368" opacity="1.0">e1</text><text x="1782.9" y="639.0" font-size="10.5" font-style="italic" fill="#5f6368" opacity="1.0">e2</text><polyline points="2084.6,582.0 2084.6,638.0" fill="none" stroke="#4a4a4a" stroke-width="2.0" opacity="1.0"></polyline><text x="2088.6" y="595.0" font-size="10.5" font-style="italic" fill="#5f6368" opacity="1.0">e1</text><text x="2088.6" y="633.0" font-size="10.5" font-style="italic" fill="#5f6368" opacity="1.0">e1</text><polyline points="2285.0,582.0 2285.0,638.0" fill="none" stroke="#4a4a4a" stroke-width="2.0" opacity="1.0"></polyline><text x="2289.0" y="595.0" font-size="10.5" font-style="italic" fill="#5f6368" opacity="1.0">e1</text><text x="2289.0" y="633.0" font-size="10.5" font-style="italic" fill="#5f6368" opacity="1.0">e1</text><polyline points="2485.5,582.0 2485.5,638.0" fill="none" stroke="#4a4a4a" stroke-width="2.0" opacity="1.0"></polyline><text x="2489.5" y="595.0" font-size="10.5" font-style="italic" fill="#5f6368" opacity="1.0">e1</text><text x="2489.5" y="633.0" font-size="10.5" font-style="italic" fill="#5f6368" opacity="1.0">e1</text><polyline points="2686.0,582.0 2686.0,638.0" fill="none" stroke="#4a4a4a" stroke-width="2.0" opacity="1.0"></polyline><text x="2690.0" y="595.0" font-size="10.5" font-style="italic" fill="#5f6368" opacity="1.0">e1</text><text x="2690.0" y="633.0" font-size="10.5" font-style="italic" fill="#5f6368" opacity="1.0">e1</text><polyline points="2886.5,582.0 2886.5,638.0" fill="none" stroke="#4a4a4a" stroke-width="2.0" opacity="1.0"></polyline><text x="2890.5" y="595.0" font-size="10.5" font-style="italic" fill="#5f6368" opacity="1.0">e1</text><text x="2890.5" y="633.0" font-size="10.5" font-style="italic" fill="#5f6368" opacity="1.0">e1</text><polyline points="3087.0,582.0 3087.0,638.0" fill="none" stroke="#4a4a4a" stroke-width="2.0" opacity="1.0"></polyline><text x="3091.0" y="595.0" font-size="10.5" font-style="italic" fill="#5f6368" opacity="1.0">e1</text><text x="3091.0" y="633.0" font-size="10.5" font-style="italic" fill="#5f6368" opacity="1.0">e1</text><polyline points="1699.3,122.0 1699.3,140.0 118.0,140.0 118.0,536.0" fill="none" stroke="#1a73e8" stroke-width="3.5" opacity="1.0"></polyline><rect x="47.0" y="276.0" width="142.0" height="42.0" rx="4" fill="#ffffff" fill-opacity="0.92" opacity="1.0"/><text x="118.0" y="289.0" text-anchor="middle" font-size="12" font-style="italic" font-weight="400" fill="#5f6368" opacity="1.0">キャリア IP-VPN 1G</text><text x="118.0" y="306.0" text-anchor="middle" font-size="12" font-style="italic" font-weight="400" fill="#5f6368" opacity="1.0">(e2)</text><polyline points="1003.9,122.0 1003.9,158.0 240.5,158.0 240.5,536.0" fill="none" stroke="#1a73e8" stroke-width="3.5" opacity="1.0"></polyline><rect x="159.9" y="312.0" width="161.1" height="42.0" rx="4" fill="#ffffff" fill-opacity="0.92" opacity="1.0"/><text x="240.5" y="325.0" text-anchor="middle" font-size="12" font-style="italic" font-weight="400" fill="#5f6368" opacity="1.0">キャリア フレッツ光 1G</text><text x="240.5" y="342.0" text-anchor="middle" font-size="12" font-style="italic" font-weight="400" fill="#5f6368" opacity="1.0">(e2)</text><polyline points="1710.9,122.0 1710.9,176.0 446.7,176.0 446.7,536.0" fill="none" stroke="#1a73e8" stroke-width="3.5" opacity="1.0"></polyline><rect x="375.7" y="276.0" width="142.0" height="42.0" rx="4" fill="#ffffff" fill-opacity="0.92" opacity="1.0"/><text x="446.7" y="289.0" text-anchor="middle" font-size="12" font-style="italic" font-weight="400" fill="#5f6368" opacity="1.0">キャリア IP-VPN 1G</text><text x="446.7" y="306.0" text-anchor="middle" font-size="12" font-style="italic" font-weight="400" fill="#5f6368" opacity="1.0">(e2)</text><polyline points="1027.2,122.0 1027.2,194.0 569.2,194.0 569.2,536.0" fill="none" stroke="#1a73e8" stroke-width="3.5" opacity="1.0"></polyline><rect x="488.6" y="312.0" width="161.1" height="42.0" rx="4" fill="#ffffff" fill-opacity="0.92" opacity="1.0"/><text x="569.2" y="325.0" text-anchor="middle" font-size="12" font-style="italic" font-weight="400" fill="#5f6368" opacity="1.0">キャリア フレッツ光 1G</text><text x="569.2" y="342.0" text-anchor="middle" font-size="12" font-style="italic" font-weight="400" fill="#5f6368" opacity="1.0">(e2)</text><polyline points="1722.4,122.0 1722.4,212.0 775.4,212.0 775.4,536.0" fill="none" stroke="#1a73e8" stroke-width="3.5" opacity="1.0"></polyline><rect x="704.4" y="276.0" width="142.0" height="42.0" rx="4" fill="#ffffff" fill-opacity="0.92" opacity="1.0"/><text x="775.4" y="289.0" text-anchor="middle" font-size="12" font-style="italic" font-weight="400" fill="#5f6368" opacity="1.0">キャリア IP-VPN 1G</text><text x="775.4" y="306.0" text-anchor="middle" font-size="12" font-style="italic" font-weight="400" fill="#5f6368" opacity="1.0">(e2)</text><polyline points="1050.6,122.0 1050.6,230.0 897.9,230.0 897.9,536.0" fill="none" stroke="#1a73e8" stroke-width="3.5" opacity="1.0"></polyline><rect x="817.4" y="312.0" width="161.1" height="42.0" rx="4" fill="#ffffff" fill-opacity="0.92" opacity="1.0"/><text x="897.9" y="325.0" text-anchor="middle" font-size="12" font-style="italic" font-weight="400" fill="#5f6368" opacity="1.0">キャリア フレッツ光 1G</text><text x="897.9" y="342.0" text-anchor="middle" font-size="12" font-style="italic" font-weight="400" fill="#5f6368" opacity="1.0">(e2)</text><polyline points="1733.9,122.0 1733.9,158.0 1104.2,158.0 1104.2,536.0" fill="none" stroke="#1a73e8" stroke-width="3.5" opacity="1.0"></polyline><rect x="1033.2" y="348.0" width="142.0" height="42.0" rx="4" fill="#ffffff" fill-opacity="0.92" opacity="1.0"/><text x="1104.2" y="361.0" text-anchor="middle" font-size="12" font-style="italic" font-weight="400" fill="#5f6368" opacity="1.0">キャリア IP-VPN 1G</text><text x="1104.2" y="378.0" text-anchor="middle" font-size="12" font-style="italic" font-weight="400" fill="#5f6368" opacity="1.0">(e2)</text><polyline points="1074.0,122.0 1074.0,194.0 1226.6,194.0 1226.6,536.0" fill="none" stroke="#1a73e8" stroke-width="3.5" opacity="1.0"></polyline><rect x="1146.1" y="276.0" width="161.1" height="42.0" rx="4" fill="#ffffff" fill-opacity="0.92" opacity="1.0"/><text x="1226.6" y="289.0" text-anchor="middle" font-size="12" font-style="italic" font-weight="400" fill="#5f6368" opacity="1.0">キャリア フレッツ光 1G</text><text x="1226.6" y="306.0" text-anchor="middle" font-size="12" font-style="italic" font-weight="400" fill="#5f6368" opacity="1.0">(e2)</text><polyline points="1745.5,122.0 1745.5,194.0 1432.9,194.0 1432.9,536.0" fill="none" stroke="#1a73e8" stroke-width="3.5" opacity="1.0"></polyline><rect x="1361.9" y="276.0" width="142.0" height="42.0" rx="4" fill="#ffffff" fill-opacity="0.92" opacity="1.0"/><text x="1432.9" y="289.0" text-anchor="middle" font-size="12" font-style="italic" font-weight="400" fill="#5f6368" opacity="1.0">キャリア IP-VPN 1G</text><text x="1432.9" y="306.0" text-anchor="middle" font-size="12" font-style="italic" font-weight="400" fill="#5f6368" opacity="1.0">(e2)</text><polyline points="1097.3,122.0 1097.3,230.0 1555.4,230.0 1555.4,536.0" fill="none" stroke="#1a73e8" stroke-width="3.5" opacity="1.0"></polyline><rect x="1474.8" y="312.0" width="161.1" height="42.0" rx="4" fill="#ffffff" fill-opacity="0.92" opacity="1.0"/><text x="1555.4" y="325.0" text-anchor="middle" font-size="12" font-style="italic" font-weight="400" fill="#5f6368" opacity="1.0">キャリア フレッツ光 1G</text><text x="1555.4" y="342.0" text-anchor="middle" font-size="12" font-style="italic" font-weight="400" fill="#5f6368" opacity="1.0">(e2)</text><polyline points="1757.0,122.0 1757.0,140.0 1761.6,140.0 1761.6,536.0" fill="none" stroke="#1a73e8" stroke-width="3.5" opacity="1.0"></polyline><rect x="1690.6" y="384.0" width="142.0" height="42.0" rx="4" fill="#ffffff" fill-opacity="0.92" opacity="1.0"/><text x="1761.6" y="397.0" text-anchor="middle" font-size="12" font-style="italic" font-weight="400" fill="#5f6368" opacity="1.0">キャリア IP-VPN 1G</text><text x="1761.6" y="414.0" text-anchor="middle" font-size="12" font-style="italic" font-weight="400" fill="#5f6368" opacity="1.0">(e2)</text><polyline points="1120.7,122.0 1120.7,248.0 1884.1,248.0 1884.1,536.0" fill="none" stroke="#1a73e8" stroke-width="3.5" opacity="1.0"></polyline><rect x="1803.5" y="420.0" width="161.1" height="42.0" rx="4" fill="#ffffff" fill-opacity="0.92" opacity="1.0"/><text x="1884.1" y="433.0" text-anchor="middle" font-size="12" font-style="italic" font-weight="400" fill="#5f6368" opacity="1.0">キャリア フレッツ光 1G</text><text x="1884.1" y="450.0" text-anchor="middle" font-size="12" font-style="italic" font-weight="400" fill="#5f6368" opacity="1.0">(e2)</text><polyline points="1768.5,122.0 1768.5,158.0 2084.6,158.0 2084.6,536.0" fill="none" stroke="#1a73e8" stroke-width="3.5" opacity="1.0"></polyline><rect x="2013.6" y="276.0" width="142.0" height="42.0" rx="4" fill="#ffffff" fill-opacity="0.92" opacity="1.0"/><text x="2084.6" y="289.0" text-anchor="middle" font-size="12" font-style="italic" font-weight="400" fill="#5f6368" opacity="1.0">キャリア IP-VPN 1G</text><text x="2084.6" y="306.0" text-anchor="middle" font-size="12" font-style="italic" font-weight="400" fill="#5f6368" opacity="1.0">(e2)</text><polyline points="1780.1,122.0 1780.1,140.0 2285.0,140.0 2285.0,536.0" fill="none" stroke="#1a73e8" stroke-width="3.5" opacity="1.0"></polyline><rect x="2214.0" y="276.0" width="142.0" height="42.0" rx="4" fill="#ffffff" fill-opacity="0.92" opacity="1.0"/><text x="2285.0" y="289.0" text-anchor="middle" font-size="12" font-style="italic" font-weight="400" fill="#5f6368" opacity="1.0">キャリア IP-VPN 1G</text><text x="2285.0" y="306.0" text-anchor="middle" font-size="12" font-style="italic" font-weight="400" fill="#5f6368" opacity="1.0">(e2)</text><polyline points="1791.6,122.0 1791.6,176.0 2485.5,176.0 2485.5,536.0" fill="none" stroke="#1a73e8" stroke-width="3.5" opacity="1.0"></polyline><rect x="2414.5" y="276.0" width="142.0" height="42.0" rx="4" fill="#ffffff" fill-opacity="0.92" opacity="1.0"/><text x="2485.5" y="289.0" text-anchor="middle" font-size="12" font-style="italic" font-weight="400" fill="#5f6368" opacity="1.0">キャリア IP-VPN 1G</text><text x="2485.5" y="306.0" text-anchor="middle" font-size="12" font-style="italic" font-weight="400" fill="#5f6368" opacity="1.0">(e2)</text><polyline points="1803.2,122.0 1803.2,194.0 2686.0,194.0 2686.0,536.0" fill="none" stroke="#1a73e8" stroke-width="3.5" opacity="1.0"></polyline><rect x="2615.0" y="276.0" width="142.0" height="42.0" rx="4" fill="#ffffff" fill-opacity="0.92" opacity="1.0"/><text x="2686.0" y="289.0" text-anchor="middle" font-size="12" font-style="italic" font-weight="400" fill="#5f6368" opacity="1.0">キャリア IP-VPN 1G</text><text x="2686.0" y="306.0" text-anchor="middle" font-size="12" font-style="italic" font-weight="400" fill="#5f6368" opacity="1.0">(e2)</text><polyline points="1814.7,122.0 1814.7,212.0 2886.5,212.0 2886.5,536.0" fill="none" stroke="#1a73e8" stroke-width="3.5" opacity="1.0"></polyline><rect x="2815.5" y="276.0" width="142.0" height="42.0" rx="4" fill="#ffffff" fill-opacity="0.92" opacity="1.0"/><text x="2886.5" y="289.0" text-anchor="middle" font-size="12" font-style="italic" font-weight="400" fill="#5f6368" opacity="1.0">キャリア IP-VPN 1G</text><text x="2886.5" y="306.0" text-anchor="middle" font-size="12" font-style="italic" font-weight="400" fill="#5f6368" opacity="1.0">(e2)</text><polyline points="1826.2,122.0 1826.2,230.0 3087.0,230.0 3087.0,536.0" fill="none" stroke="#1a73e8" stroke-width="3.5" opacity="1.0"></polyline><rect x="3016.0" y="276.0" width="142.0" height="42.0" rx="4" fill="#ffffff" fill-opacity="0.92" opacity="1.0"/><text x="3087.0" y="289.0" text-anchor="middle" font-size="12" font-style="italic" font-weight="400" fill="#5f6368" opacity="1.0">キャリア IP-VPN 1G</text><text x="3087.0" y="306.0" text-anchor="middle" font-size="12" font-style="italic" font-weight="400" fill="#5f6368" opacity="1.0">(e2)</text><ellipse cx="1062.3" cy="84.0" rx="81.8" ry="38.0" fill="#f1f3f4" stroke="#5f6368" stroke-width="1.6"/><text x="1062.3" y="84.0" text-anchor="middle" dominant-baseline="central" font-size="12.5" font-weight="600" fill="#1e293b">インターネット</text><ellipse cx="1762.8" cy="84.0" rx="75.0" ry="38.0" fill="#f1f3f4" stroke="#5f6368" stroke-width="1.6"/><text x="1762.8" y="84.0" text-anchor="middle" dominant-baseline="central" font-size="12.5" font-weight="600" fill="#1e293b">IP-VPN網</text><rect x="71.8" y="536.0" width="92.5" height="46.0" rx="4" fill="#e8f0fe" stroke="#1a56b0" stroke-width="1.4"/><text x="118.0" y="551.0" text-anchor="middle" dominant-baseline="central" font-size="12.5" font-weight="600" fill="#1e293b">s01-rt01</text><text x="118.0" y="567.0" text-anchor="middle" dominant-baseline="central" font-size="12.5" font-weight="400" fill="#1e293b">x</text><rect x="66.0" y="644.0" width="104.0" height="46.0" rx="4" fill="#e6f4ea" stroke="#137333" stroke-width="1.4"/><text x="118.0" y="659.0" text-anchor="middle" dominant-baseline="central" font-size="12.5" font-weight="600" fill="#1e293b">s01-sw01</text><text x="118.0" y="675.0" text-anchor="middle" dominant-baseline="central" font-size="12.5" font-weight="400" fill="#1e293b">x</text><rect x="194.2" y="536.0" width="92.5" height="46.0" rx="4" fill="#e8f0fe" stroke="#1a56b0" stroke-width="1.4"/><text x="240.5" y="551.0" text-anchor="middle" dominant-baseline="central" font-size="12.5" font-weight="600" fill="#1e293b">s01-rt02</text><text x="240.5" y="567.0" text-anchor="middle" dominant-baseline="central" font-size="12.5" font-weight="400" fill="#1e293b">x</text><rect x="400.5" y="536.0" width="92.5" height="46.0" rx="4" fill="#e8f0fe" stroke="#1a56b0" stroke-width="1.4"/><text x="446.7" y="551.0" text-anchor="middle" dominant-baseline="central" font-size="12.5" font-weight="600" fill="#1e293b">s02-rt01</text><text x="446.7" y="567.0" text-anchor="middle" dominant-baseline="central" font-size="12.5" font-weight="400" fill="#1e293b">x</text><rect x="394.7" y="644.0" width="104.0" height="46.0" rx="4" fill="#e6f4ea" stroke="#137333" stroke-width="1.4"/><text x="446.7" y="659.0" text-anchor="middle" dominant-baseline="central" font-size="12.5" font-weight="600" fill="#1e293b">s02-sw01</text><text x="446.7" y="675.0" text-anchor="middle" dominant-baseline="central" font-size="12.5" font-weight="400" fill="#1e293b">x</text><rect x="523.0" y="536.0" width="92.5" height="46.0" rx="4" fill="#e8f0fe" stroke="#1a56b0" stroke-width="1.4"/><text x="569.2" y="551.0" text-anchor="middle" dominant-baseline="central" font-size="12.5" font-weight="600" fill="#1e293b">s02-rt02</text><text x="569.2" y="567.0" text-anchor="middle" dominant-baseline="central" font-size="12.5" font-weight="400" fill="#1e293b">x</text><rect x="729.2" y="536.0" width="92.5" height="46.0" rx="4" fill="#e8f0fe" stroke="#1a56b0" stroke-width="1.4"/><text x="775.4" y="551.0" text-anchor="middle" dominant-baseline="central" font-size="12.5" font-weight="600" fill="#1e293b">s03-rt01</text><text x="775.4" y="567.0" text-anchor="middle" dominant-baseline="central" font-size="12.5" font-weight="400" fill="#1e293b">x</text><rect x="723.4" y="644.0" width="104.0" height="46.0" rx="4" fill="#e6f4ea" stroke="#137333" stroke-width="1.4"/><text x="775.4" y="659.0" text-anchor="middle" dominant-baseline="central" font-size="12.5" font-weight="600" fill="#1e293b">s03-sw01</text><text x="775.4" y="675.0" text-anchor="middle" dominant-baseline="central" font-size="12.5" font-weight="400" fill="#1e293b">x</text><rect x="851.7" y="536.0" width="92.5" height="46.0" rx="4" fill="#e8f0fe" stroke="#1a56b0" stroke-width="1.4"/><text x="897.9" y="551.0" text-anchor="middle" dominant-baseline="central" font-size="12.5" font-weight="600" fill="#1e293b">s03-rt02</text><text x="897.9" y="567.0" text-anchor="middle" dominant-baseline="central" font-size="12.5" font-weight="400" fill="#1e293b">x</text><rect x="1057.9" y="536.0" width="92.5" height="46.0" rx="4" fill="#e8f0fe" stroke="#1a56b0" stroke-width="1.4"/><text x="1104.2" y="551.0" text-anchor="middle" dominant-baseline="central" font-size="12.5" font-weight="600" fill="#1e293b">s04-rt01</text><text x="1104.2" y="567.0" text-anchor="middle" dominant-baseline="central" font-size="12.5" font-weight="400" fill="#1e293b">x</text><rect x="1052.2" y="644.0" width="104.0" height="46.0" rx="4" fill="#e6f4ea" stroke="#137333" stroke-width="1.4"/><text x="1104.2" y="659.0" text-anchor="middle" dominant-baseline="central" font-size="12.5" font-weight="600" fill="#1e293b">s04-sw01</text><text x="1104.2" y="675.0" text-anchor="middle" dominant-baseline="central" font-size="12.5" font-weight="400" fill="#1e293b">x</text><rect x="1180.4" y="536.0" width="92.5" height="46.0" rx="4" fill="#e8f0fe" stroke="#1a56b0" stroke-width="1.4"/><text x="1226.6" y="551.0" text-anchor="middle" dominant-baseline="central" font-size="12.5" font-weight="600" fill="#1e293b">s04-rt02</text><text x="1226.6" y="567.0" text-anchor="middle" dominant-baseline="central" font-size="12.5" font-weight="400" fill="#1e293b">x</text><rect x="1386.6" y="536.0" width="92.5" height="46.0" rx="4" fill="#e8f0fe" stroke="#1a56b0" stroke-width="1.4"/><text x="1432.9" y="551.0" text-anchor="middle" dominant-baseline="central" font-size="12.5" font-weight="600" fill="#1e293b">s05-rt01</text><text x="1432.9" y="567.0" text-anchor="middle" dominant-baseline="central" font-size="12.5" font-weight="400" fill="#1e293b">x</text><rect x="1380.9" y="644.0" width="104.0" height="46.0" rx="4" fill="#e6f4ea" stroke="#137333" stroke-width="1.4"/><text x="1432.9" y="659.0" text-anchor="middle" dominant-baseline="central" font-size="12.5" font-weight="600" fill="#1e293b">s05-sw01</text><text x="1432.9" y="675.0" text-anchor="middle" dominant-baseline="central" font-size="12.5" font-weight="400" fill="#1e293b">x</text><rect x="1509.1" y="536.0" width="92.5" height="46.0" rx="4" fill="#e8f0fe" stroke="#1a56b0" stroke-width="1.4"/><text x="1555.4" y="551.0" text-anchor="middle" dominant-baseline="central" font-size="12.5" font-weight="600" fill="#1e293b">s05-rt02</text><text x="1555.4" y="567.0" text-anchor="middle" dominant-baseline="central" font-size="12.5" font-weight="400" fill="#1e293b">x</text><rect x="1715.4" y="536.0" width="92.5" height="46.0" rx="4" fill="#e8f0fe" stroke="#1a56b0" stroke-width="1.4"/><text x="1761.6" y="551.0" text-anchor="middle" dominant-baseline="central" font-size="12.5" font-weight="600" fill="#1e293b">s06-rt01</text><text x="1761.6" y="567.0" text-anchor="middle" dominant-baseline="central" font-size="12.5" font-weight="400" fill="#1e293b">x</text><rect x="1709.6" y="644.0" width="104.0" height="46.0" rx="4" fill="#e6f4ea" stroke="#137333" stroke-width="1.4"/><text x="1761.6" y="659.0" text-anchor="middle" dominant-baseline="central" font-size="12.5" font-weight="600" fill="#1e293b">s06-sw01</text><text x="1761.6" y="675.0" text-anchor="middle" dominant-baseline="central" font-size="12.5" font-weight="400" fill="#1e293b">x</text><rect x="1837.8" y="536.0" width="92.5" height="46.0" rx="4" fill="#e8f0fe" stroke="#1a56b0" stroke-width="1.4"/><text x="1884.1" y="551.0" text-anchor="middle" dominant-baseline="central" font-size="12.5" font-weight="600" fill="#1e293b">s06-rt02</text><text x="1884.1" y="567.0" text-anchor="middle" dominant-baseline="central" font-size="12.5" font-weight="400" fill="#1e293b">x</text><rect x="2038.3" y="536.0" width="92.5" height="46.0" rx="4" fill="#e8f0fe" stroke="#1a56b0" stroke-width="1.4"/><text x="2084.6" y="551.0" text-anchor="middle" dominant-baseline="central" font-size="12.5" font-weight="600" fill="#1e293b">s07-rt01</text><text x="2084.6" y="567.0" text-anchor="middle" dominant-baseline="central" font-size="12.5" font-weight="400" fill="#1e293b">x</text><rect x="2038.3" y="638.0" width="92.5" height="46.0" rx="4" fill="#e6f4ea" stroke="#137333" stroke-width="1.4"/><text x="2084.6" y="653.0" text-anchor="middle" dominant-baseline="central" font-size="12.5" font-weight="600" fill="#1e293b">s07-sw01</text><text x="2084.6" y="669.0" text-anchor="middle" dominant-baseline="central" font-size="12.5" font-weight="400" fill="#1e293b">x</text><rect x="2238.8" y="536.0" width="92.5" height="46.0" rx="4" fill="#e8f0fe" stroke="#1a56b0" stroke-width="1.4"/><text x="2285.0" y="551.0" text-anchor="middle" dominant-baseline="central" font-size="12.5" font-weight="600" fill="#1e293b">s08-rt01</text><text x="2285.0" y="567.0" text-anchor="middle" dominant-baseline="central" font-size="12.5" font-weight="400" fill="#1e293b">x</text><rect x="2238.8" y="638.0" width="92.5" height="46.0" rx="4" fill="#e6f4ea" stroke="#137333" stroke-width="1.4"/><text x="2285.0" y="653.0" text-anchor="middle" dominant-baseline="central" font-size="12.5" font-weight="600" fill="#1e293b">s08-sw01</text><text x="2285.0" y="669.0" text-anchor="middle" dominant-baseline="central" font-size="12.5" font-weight="400" fill="#1e293b">x</text><rect x="2439.3" y="536.0" width="92.5" height="46.0" rx="4" fill="#e8f0fe" stroke="#1a56b0" stroke-width="1.4"/><text x="2485.5" y="551.0" text-anchor="middle" dominant-baseline="central" font-size="12.5" font-weight="600" fill="#1e293b">s09-rt01</text><text x="2485.5" y="567.0" text-anchor="middle" dominant-baseline="central" font-size="12.5" font-weight="400" fill="#1e293b">x</text><rect x="2439.3" y="638.0" width="92.5" height="46.0" rx="4" fill="#e6f4ea" stroke="#137333" stroke-width="1.4"/><text x="2485.5" y="653.0" text-anchor="middle" dominant-baseline="central" font-size="12.5" font-weight="600" fill="#1e293b">s09-sw01</text><text x="2485.5" y="669.0" text-anchor="middle" dominant-baseline="central" font-size="12.5" font-weight="400" fill="#1e293b">x</text><rect x="2639.8" y="536.0" width="92.5" height="46.0" rx="4" fill="#e8f0fe" stroke="#1a56b0" stroke-width="1.4"/><text x="2686.0" y="551.0" text-anchor="middle" dominant-baseline="central" font-size="12.5" font-weight="600" fill="#1e293b">s10-rt01</text><text x="2686.0" y="567.0" text-anchor="middle" dominant-baseline="central" font-size="12.5" font-weight="400" fill="#1e293b">x</text><rect x="2639.8" y="638.0" width="92.5" height="46.0" rx="4" fill="#e6f4ea" stroke="#137333" stroke-width="1.4"/><text x="2686.0" y="653.0" text-anchor="middle" dominant-baseline="central" font-size="12.5" font-weight="600" fill="#1e293b">s10-sw01</text><text x="2686.0" y="669.0" text-anchor="middle" dominant-baseline="central" font-size="12.5" font-weight="400" fill="#1e293b">x</text><rect x="2840.2" y="536.0" width="92.5" height="46.0" rx="4" fill="#e8f0fe" stroke="#1a56b0" stroke-width="1.4"/><text x="2886.5" y="551.0" text-anchor="middle" dominant-baseline="central" font-size="12.5" font-weight="600" fill="#1e293b">s11-rt01</text><text x="2886.5" y="567.0" text-anchor="middle" dominant-baseline="central" font-size="12.5" font-weight="400" fill="#1e293b">x</text><rect x="2840.2" y="638.0" width="92.5" height="46.0" rx="4" fill="#e6f4ea" stroke="#137333" stroke-width="1.4"/><text x="2886.5" y="653.0" text-anchor="middle" dominant-baseline="central" font-size="12.5" font-weight="600" fill="#1e293b">s11-sw01</text><text x="2886.5" y="669.0" text-anchor="middle" dominant-baseline="central" font-size="12.5" font-weight="400" fill="#1e293b">x</text><rect x="3040.7" y="536.0" width="92.5" height="46.0" rx="4" fill="#e8f0fe" stroke="#1a56b0" stroke-width="1.4"/><text x="3087.0" y="551.0" text-anchor="middle" dominant-baseline="central" font-size="12.5" font-weight="600" fill="#1e293b">s12-rt01</text><text x="3087.0" y="567.0" text-anchor="middle" dominant-baseline="central" font-size="12.5" font-weight="400" fill="#1e293b">x</text><rect x="3040.7" y="638.0" width="92.5" height="46.0" rx="4" fill="#e6f4ea" stroke="#137333" stroke-width="1.4"/><text x="3087.0" y="653.0" text-anchor="middle" dominant-baseline="central" font-size="12.5" font-weight="600" fill="#1e293b">s12-sw01</text><text x="3087.0" y="669.0" text-anchor="middle" dominant-baseline="central" font-size="12.5" font-weight="400" fill="#1e293b">x</text></svg>