<svg xmlns="http://www.w3.org/2000/svg" width="894" height="855" viewBox="0 0 894 855" font-family="'Segoe UI','Hiragino Sans','Noto Sans JP',Meiryo,sans-serif"><defs></defs><rect width="100%" height="100%" fill="#ffffff"/><text x="24" y="30" font-size="19" font-weight="700" fill="#1e293b">リング概要図</text><polyline points="499.0,124.6 631.3,179.4" fill="none" stroke="#1a73e8" stroke-width="3.5" opacity="1.0"></polyline><rect x="506.6" y="40.2" width="199.9" height="24.0" rx="4" fill="#ffffff" fill-opacity="0.92" opacity="1.0"/><text x="606.5" y="53.2" text-anchor="middle" font-size="12" font-style="italic" font-weight="400" fill="#5f6368" opacity="1.0">キャリア 広域Ether専用線 1G</text><polyline points="693.0,224.0 772.0,414.7" fill="none" stroke="#1a73e8" stroke-width="3.5" opacity="1.0"></polyline><rect x="675.1" y="289.7" width="199.9" height="24.0" rx="4" fill="#ffffff" fill-opacity="0.92" opacity="1.0"/><text x="775.0" y="302.7" text-anchor="middle" font-size="12" font-style="italic" font-weight="400" fill="#5f6368" opacity="1.0">キャリア 広域Ether専用線 1G</text><polyline points="772.0,460.7 693.0,651.3" fill="none" stroke="#1a73e8" stroke-width="3.5" opacity="1.0"></polyline><rect x="675.1" y="561.6" width="199.9" height="24.0" rx="4" fill="#ffffff" fill-opacity="0.92" opacity="1.0"/><text x="775.0" y="574.6" text-anchor="middle" font-size="12" font-style="italic" font-weight="400" fill="#5f6368" opacity="1.0">キャリア 広域Ether専用線 1G</text><polyline points="631.3,695.9 499.0,750.8" fill="none" stroke="#1a73e8" stroke-width="3.5" opacity="1.0"></polyline><rect x="506.6" y="811.1" width="199.9" height="24.0" rx="4" fill="#ffffff" fill-opacity="0.92" opacity="1.0"/><text x="606.5" y="824.1" text-anchor="middle" font-size="12" font-style="italic" font-weight="400" fill="#5f6368" opacity="1.0">キャリア 広域Ether専用線 1G</text><polyline points="394.7,750.8 262.3,695.9" fill="none" stroke="#1a73e8" stroke-width="3.5" opacity="1.0"></polyline><rect x="187.2" y="811.1" width="199.9" height="24.0" rx="4" fill="#ffffff" fill-opacity="0.92" opacity="1.0"/><text x="287.2" y="824.1" text-anchor="middle" font-size="12" font-style="italic" font-weight="400" fill="#5f6368" opacity="1.0">キャリア 広域Ether専用線 1G</text><polyline points="200.7,651.3 121.7,460.7" fill="none" stroke="#1a73e8" stroke-width="3.5" opacity="1.0"></polyline><rect x="18.7" y="561.6" width="199.9" height="24.0" rx="4" fill="#ffffff" fill-opacity="0.92" opacity="1.0"/><text x="118.7" y="574.6" text-anchor="middle" font-size="12" font-style="italic" font-weight="400" fill="#5f6368" opacity="1.0">キャリア 広域Ether専用線 1G</text><polyline points="121.7,414.7 200.7,224.0" fill="none" stroke="#1a73e8" stroke-width="3.5" opacity="1.0"></polyline><rect x="18.7" y="289.7" width="199.9" height="24.0" rx="4" fill="#ffffff" fill-opacity="0.92" opacity="1.0"/><text x="118.7" y="302.7" text-anchor="middle" font-size="12" font-style="italic" font-weight="400" fill="#5f6368" opacity="1.0">キャリア 広域Ether専用線 1G</text><polyline points="262.3,179.4 394.7,124.6" fill="none" stroke="#1a73e8" stroke-width="3.5" opacity="1.0"></polyline><rect x="187.2" y="40.2" width="199.9" height="24.0" rx="4" fill="#ffffff" fill-opacity="0.92" opacity="1.0"/><text x="287.2" y="53.2" text-anchor="middle" font-size="12" font-style="italic" font-weight="400" fill="#5f6368" opacity="1.0">キャリア 広域Ether専用線 1G</text><rect x="394.7" y="80.0" width="104.3" height="46.0" rx="4" fill="#fff8e1" stroke="#b58105" stroke-width="1.4"/><text x="446.8" y="103.0" text-anchor="middle" dominant-baseline="central" font-size="12.5" font-weight="600" fill="#1e293b">リング拠点1</text><rect x="631.3" y="178.0" width="104.3" height="46.0" rx="4" fill="#fff8e1" stroke="#b58105" stroke-width="1.4"/><text x="683.5" y="201.0" text-anchor="middle" dominant-baseline="central" font-size="12.5" font-weight="600" fill="#1e293b">リング拠点2</text><rect x="729.4" y="414.7" width="104.3" height="46.0" rx="4" fill="#fff8e1" stroke="#b58105" stroke-width="1.4"/><text x="781.5" y="437.7" text-anchor="middle" dominant-baseline="central" font-size="12.5" font-weight="600" fill="#1e293b">リング拠点3</text><rect x="631.3" y="651.3" width="104.3" height="46.0" rx="4" fill="#fff8e1" stroke="#b58105" stroke-width="1.4"/><text x="683.5" y="674.3" text-anchor="middle" dominant-baseline="central" font-size="12.5" font-weight="600" fill="#1e293b">リング拠点4</text><rect x="394.7" y="749.4" width="104.3" height="46.0" rx="4" fill="#fff8e1" stroke="#b58105" stroke-width="1.4"/><text x="446.8" y="772.4" text-anchor="middle" dominant-baseline="central" font-size="12.5" font-weight="600" fill="#1e293b">リング拠点5</text><rect x="158.0" y="651.3" width="104.3" height="46.0" rx="4" fill="#fff8e1" stroke="#b58105" stroke-width="1.4"/><text x="210.2" y="674.3" text-anchor="middle" dominant-baseline="central" font-size="12.5" font-weight="600" fill="#1e293b">リング拠点6</text><rect x="60.0" y="414.7" width="104.3" height="46.0" rx="4" fill="#fff8e1" stroke="#b58105" stroke-width="1.4"/><text x="112.2" y="437.7" text-anchor="middle" dominant-baseline="central" font-size="12.5" font-weight="600" fill="#1e293b">リング拠点7</text><rect x="158.0" y="178.0" width="104.3" height="46.0" rx="4" fill="#fff8e1" stroke="#b58105" stroke-width="1.4"/><text x="210.2" y="201.0" text-anchor="middle" dominant-baseline="central" font-size="12.5" font-weight="600" fill="#1e293b">リング拠点8</text></svg>