<svg xmlns="http://www.w3.org/2000/svg" width="1581" height="1689" viewBox="0 0 1581 1689" font-family="'Segoe UI','Hiragino Sans','Noto Sans JP',Meiryo,sans-serif"><defs></defs><rect width="100%" height="100%" fill="#ffffff"/><text x="24" y="30" font-size="19" font-weight="700" fill="#1e293b">リング物理図</text><rect x="719.3" y="80.0" width="142.0" height="230.0" rx="6" fill="#f7f9fc" stroke="#8fa8c4"/><text x="723.3" y="72.0" font-size="14.5" font-weight="600" fill="#33475b">リング拠点1</text><rect x="1185.5" y="273.1" width="142.0" height="230.0" rx="6" fill="#f7f9fc" stroke="#8fa8c4"/><text x="1189.5" y="265.1" font-size="14.5" font-weight="600" fill="#33475b">リング拠点2</text><rect x="1378.6" y="739.3" width="142.0" height="230.0" rx="6" fill="#f7f9fc" stroke="#8fa8c4"/><text x="1382.6" y="731.3" font-size="14.5" font-weight="600" fill="#33475b">リング拠点3</text><rect x="1185.5" y="1205.5" width="142.0" height="230.0" rx="6" fill="#f7f9fc" stroke="#8fa8c4"/><text x="1189.5" y="1197.5" font-size="14.5" font-weight="600" fill="#33475b">リング拠点4</text><rect x="719.3" y="1398.6" width="142.0" height="230.0" rx="6" fill="#f7f9fc" stroke="#8fa8c4"/><text x="723.3" y="1390.6" font-size="14.5" font-weight="600" fill="#33475b">リング拠点5</text><rect x="253.1" y="1205.5" width="142.0" height="230.0" rx="6" fill="#f7f9fc" stroke="#8fa8c4"/><text x="257.1" y="1197.5" font-size="14.5" font-weight="600" fill="#33475b">リング拠点6</text><rect x="60.0" y="739.3" width="142.0" height="230.0" rx="6" fill="#f7f9fc" stroke="#8fa8c4"/><text x="64.0" y="731.3" font-size="14.5" font-weight="600" fill="#33475b">リング拠点7</text><rect x="253.1" y="273.1" width="142.0" height="230.0" rx="6" fill="#f7f9fc" stroke="#8fa8c4"/><text x="257.1" y="265.1" font-size="14.5" font-weight="600" fill="#33475b">リング拠点8</text><polyline points="790.3,182.0 790.3,238.0" fill="none" stroke="#4a4a4a" stroke-width="2.0" opacity="1.0"></polyline><text x="794.3" y="195.0" font-size="10.5" font-style="italic" fill="#5f6368" opacity="1.0">e1</text><text x="794.3" y="233.0" font-size="10.5" font-style="italic" fill="#5f6368" opacity="1.0">e1</text><polyline points="1256.5,375.1 1256.5,431.1" fill="none" stroke="#4a4a4a" stroke-width="2.0" opacity="1.0"></polyline><text x="1260.5" y="388.1" font-size="10.5" font-style="italic" fill="#5f6368" opacity="1.0">e1</text><text x="1260.5" y="426.1" font-size="10.5" font-style="italic" fill="#5f6368" opacity="1.0">e1</text><polyline points="1449.6,841.3 1449.6,897.3" fill="none" stroke="#4a4a4a" stroke-width="2.0" opacity="1.0"></polyline><text x="1453.6" y="854.3" font-size="10.5" font-style="italic" fill="#5f6368" opacity="1.0">e1</text><text x="1453.6" y="892.3" font-size="10.5" font-style="italic" fill="#5f6368" opacity="1.0">e1</text><polyline points="1256.5,1307.5 1256.5,1363.5" fill="none" stroke="#4a4a4a" stroke-width="2.0" opacity="1.0"></polyline><text x="1260.5" y="1320.5" font-size="10.5" font-style="italic" fill="#5f6368" opacity="1.0">e1</text><text x="1260.5" y="1358.5" font-size="10.5" font-style="italic" fill="#5f6368" opacity="1.0">e1</text><polyline points="790.3,1500.6 790.3,1556.6" fill="none" stroke="#4a4a4a" stroke-width="2.0" opacity="1.0"></polyline><text x="794.3" y="1513.6" font-size="10.5" font-style="italic" fill="#5f6368" opacity="1.0">e1</text><text x="794.3" y="1551.6" font-size="10.5" font-style="italic" fill="#5f6368" opacity="1.0">e1</text><polyline points="324.1,1307.5 324.1,1363.5" fill="none" stroke="#4a4a4a" stroke-width="2.0" opacity="1.0"></polyline><text x="328.1" y="1320.5" font-size="10.5" font-style="italic" fill="#5f6368" opacity="1.0">e1</text><text x="328.1" y="1358.5" font-size="10.5" font-style="italic" fill="#5f6368" opacity="1.0">e1</text><polyline points="131.0,841.3 131.0,897.3" fill="none" stroke="#4a4a4a" stroke-width="2.0" opacity="1.0"></polyline><text x="135.0" y="854.3" font-size="10.5" font-style="italic" fill="#5f6368" opacity="1.0">e1</text><text x="135.0" y="892.3" font-size="10.5" font-style="italic" fill="#5f6368" opacity="1.0">e1</text><polyline points="324.1,375.1 324.1,431.1" fill="none" stroke="#4a4a4a" stroke-width="2.0" opacity="1.0"></polyline><text x="328.1" y="388.1" font-size="10.5" font-style="italic" fill="#5f6368" opacity="1.0">e1</text><text x="328.1" y="426.1" font-size="10.5" font-style="italic" fill="#5f6368" opacity="1.0">e1</text><polyline points="861.3,224.4 1185.5,358.7" fill="none" stroke="#1a73e8" stroke-width="3.5" opacity="1.0"></polyline><rect x="941.0" y="228.1" width="199.9" height="42.0" rx="4" fill="#ffffff" fill-opacity="0.92" opacity="1.0"/><text x="1041.0" y="241.1" text-anchor="middle" font-size="12" font-style="italic" font-weight="400" fill="#5f6368" opacity="1.0">キャリア 広域Ether専用線 1G</text><text x="1041.0" y="258.1" text-anchor="middle" font-size="12" font-style="italic" font-weight="400" fill="#5f6368" opacity="1.0">(e2 - e2)</text><polyline points="1304.1,503.1 1401.9,739.3" fill="none" stroke="#1a73e8" stroke-width="3.5" opacity="1.0"></polyline><rect x="1295.6" y="582.6" width="199.9" height="42.0" rx="4" fill="#ffffff" fill-opacity="0.92" opacity="1.0"/><text x="1395.5" y="595.6" text-anchor="middle" font-size="12" font-style="italic" font-weight="400" fill="#5f6368" opacity="1.0">キャリア 広域Ether専用線 1G</text><text x="1395.5" y="612.6" text-anchor="middle" font-size="12" font-style="italic" font-weight="400" fill="#5f6368" opacity="1.0">(e3 - e2)</text><polyline points="1401.9,969.3 1304.1,1205.5" fill="none" stroke="#1a73e8" stroke-width="3.5" opacity="1.0"></polyline><rect x="1295.6" y="1084.0" width="199.9" height="42.0" rx="4" fill="#ffffff" fill-opacity="0.92" opacity="1.0"/><text x="1395.5" y="1097.0" text-anchor="middle" font-size="12" font-style="italic" font-weight="400" fill="#5f6368" opacity="1.0">キャリア 広域Ether専用線 1G</text><text x="1395.5" y="1114.0" text-anchor="middle" font-size="12" font-style="italic" font-weight="400" fill="#5f6368" opacity="1.0">(e3 - e2)</text><polyline points="1185.5,1349.9 861.3,1484.2" fill="none" stroke="#1a73e8" stroke-width="3.5" opacity="1.0"></polyline><rect x="941.0" y="1438.5" width="199.9" height="42.0" rx="4" fill="#ffffff" fill-opacity="0.92" opacity="1.0"/><text x="1041.0" y="1451.5" text-anchor="middle" font-size="12" font-style="italic" font-weight="400" fill="#5f6368" opacity="1.0">キャリア 広域Ether専用線 1G</text><text x="1041.0" y="1468.5" text-anchor="middle" font-size="12" font-style="italic" font-weight="400" fill="#5f6368" opacity="1.0">(e3 - e2)</text><polyline points="719.3,1484.2 395.1,1349.9" fill="none" stroke="#1a73e8" stroke-width="3.5" opacity="1.0"></polyline><rect x="439.7" y="1438.5" width="199.9" height="42.0" rx="4" fill="#ffffff" fill-opacity="0.92" opacity="1.0"/><text x="539.6" y="1451.5" text-anchor="middle" font-size="12" font-style="italic" font-weight="400" fill="#5f6368" opacity="1.0">キャリア 広域Ether専用線 1G</text><text x="539.6" y="1468.5" text-anchor="middle" font-size="12" font-style="italic" font-weight="400" fill="#5f6368" opacity="1.0">(e3 - e2)</text><polyline points="276.5,1205.5 178.6,969.3" fill="none" stroke="#1a73e8" stroke-width="3.5" opacity="1.0"></polyline><rect x="85.1" y="1084.0" width="199.9" height="42.0" rx="4" fill="#ffffff" fill-opacity="0.92" opacity="1.0"/><text x="185.1" y="1097.0" text-anchor="middle" font-size="12" font-style="italic" font-weight="400" fill="#5f6368" opacity="1.0">キャリア 広域Ether専用線 1G</text><text x="185.1" y="1114.0" text-anchor="middle" font-size="12" font-style="italic" font-weight="400" fill="#5f6368" opacity="1.0">(e3 - e2)</text><polyline points="178.6,739.3 276.5,503.1" fill="none" stroke="#1a73e8" stroke-width="3.5" opacity="1.0"></polyline><rect x="85.1" y="582.6" width="199.9" height="42.0" rx="4" fill="#ffffff" fill-opacity="0.92" opacity="1.0"/><text x="185.1" y="595.6" text-anchor="middle" font-size="12" font-style="italic" font-weight="400" fill="#5f6368" opacity="1.0">キャリア 広域Ether専用線 1G</text><text x="185.1" y="612.6" text-anchor="middle" font-size="12" font-style="italic" font-weight="400" fill="#5f6368" opacity="1.0">(e3 - e2)</text><polyline points="395.1,358.7 719.3,224.4" fill="none" stroke="#1a73e8" stroke-width="3.5" opacity="1.0"></polyline><rect x="439.7" y="228.1" width="199.9" height="42.0" rx="4" fill="#ffffff" fill-opacity="0.92" opacity="1.0"/><text x="539.6" y="241.1" text-anchor="middle" font-size="12" font-style="italic" font-weight="400" fill="#5f6368" opacity="1.0">キャリア 広域Ether専用線 1G</text><text x="539.6" y="258.1" text-anchor="middle" font-size="12" font-style="italic" font-weight="400" fill="#5f6368" opacity="1.0">(e3 - e3)</text><rect x="745.3" y="136.0" width="90.0" height="46.0" rx="4" fill="#e8f0fe" stroke="#1a56b0" stroke-width="1.4"/><text x="790.3" y="151.0" text-anchor="middle" dominant-baseline="central" font-size="12.5" font-weight="600" fill="#1e293b">r1-rt</text><text x="790.3" y="167.0" text-anchor="middle" dominant-baseline="central" font-size="12.5" font-weight="400" fill="#1e293b">x</text><rect x="745.3" y="238.0" width="90.0" height="46.0" rx="4" fill="#e6f4ea" stroke="#137333" stroke-width="1.4"/><text x="790.3" y="253.0" text-anchor="middle" dominant-baseline="central" font-size="12.5" font-weight="600" fill="#1e293b">r1-sw</text><text x="790.3" y="269.0" text-anchor="middle" dominant-baseline="central" font-size="12.5" font-weight="400" fill="#1e293b">x</text><rect x="1211.5" y="329.1" width="90.0" height="46.0" rx="4" fill="#e8f0fe" stroke="#1a56b0" stroke-width="1.4"/><text x="1256.5" y="344.1" text-anchor="middle" dominant-baseline="central" font-size="12.5" font-weight="600" fill="#1e293b">r2-rt</text><text x="1256.5" y="360.1" text-anchor="middle" dominant-baseline="central" font-size="12.5" font-weight="400" fill="#1e293b">x</text><rect x="1211.5" y="431.1" width="90.0" height="46.0" rx="4" fill="#e6f4ea" stroke="#137333" stroke-width="1.4"/><text x="1256.5" y="446.1" text-anchor="middle" dominant-baseline="central" font-size="12.5" font-weight="600" fill="#1e293b">r2-sw</text><text x="1256.5" y="462.1" text-anchor="middle" dominant-baseline="central" font-size="12.5" font-weight="400" fill="#1e293b">x</text><rect x="1404.6" y="795.3" width="90.0" height="46.0" rx="4" fill="#e8f0fe" stroke="#1a56b0" stroke-width="1.4"/><text x="1449.6" y="810.3" text-anchor="middle" dominant-baseline="central" font-size="12.5" font-weight="600" fill="#1e293b">r3-rt</text><text x="1449.6" y="826.3" text-anchor="middle" dominant-baseline="central" font-size="12.5" font-weight="400" fill="#1e293b">x</text><rect x="1404.6" y="897.3" width="90.0" height="46.0" rx="4" fill="#e6f4ea" stroke="#137333" stroke-width="1.4"/><text x="1449.6" y="912.3" text-anchor="middle" dominant-baseline="central" font-size="12.5" font-weight="600" fill="#1e293b">r3-sw</text><text x="1449.6" y="928.3" text-anchor="middle" dominant-baseline="central" font-size="12.5" font-weight="400" fill="#1e293b">x</text><rect x="1211.5" y="1261.5" width="90.0" height="46.0" rx="4" fill="#e8f0fe" stroke="#1a56b0" stroke-width="1.4"/><text x="1256.5" y="1276.5" text-anchor="middle" dominant-baseline="central" font-size="12.5" font-weight="600" fill="#1e293b">r4-rt</text><text x="1256.5" y="1292.5" text-anchor="middle" dominant-baseline="central" font-size="12.5" font-weight="400" fill="#1e293b">x</text><rect x="1211.5" y="1363.5" width="90.0" height="46.0" rx="4" fill="#e6f4ea" stroke="#137333" stroke-width="1.4"/><text x="1256.5" y="1378.5" text-anchor="middle" dominant-baseline="central" font-size="12.5" font-weight="600" fill="#1e293b">r4-sw</text><text x="1256.5" y="1394.5" text-anchor="middle" dominant-baseline="central" font-size="12.5" font-weight="400" fill="#1e293b">x</text><rect x="745.3" y="1454.6" width="90.0" height="46.0" rx="4" fill="#e8f0fe" stroke="#1a56b0" stroke-width="1.4"/><text x="790.3" y="1469.6" text-anchor="middle" dominant-baseline="central" font-size="12.5" font-weight="600" fill="#1e293b">r5-rt</text><text x="790.3" y="1485.6" text-anchor="middle" dominant-baseline="central" font-size="12.5" font-weight="400" fill="#1e293b">x</text><rect x="745.3" y="1556.6" width="90.0" height="46.0" rx="4" fill="#e6f4ea" stroke="#137333" stroke-width="1.4"/><text x="790.3" y="1571.6" text-anchor="middle" dominant-baseline="central" font-size="12.5" font-weight="600" fill="#1e293b">r5-sw</text><text x="790.3" y="1587.6" text-anchor="middle" dominant-baseline="central" font-size="12.5" font-weight="400" fill="#1e293b">x</text><rect x="279.1" y="1261.5" width="90.0" height="46.0" rx="4" fill="#e8f0fe" stroke="#1a56b0" stroke-width="1.4"/><text x="324.1" y="1276.5" text-anchor="middle" dominant-baseline="central" font-size="12.5" font-weight="600" fill="#1e293b">r6-rt</text><text x="324.1" y="1292.5" text-anchor="middle" dominant-baseline="central" font-size="12.5" font-weight="400" fill="#1e293b">x</text><rect x="279.1" y="1363.5" width="90.0" height="46.0" rx="4" fill="#e6f4ea" stroke="#137333" stroke-width="1.4"/><text x="324.1" y="1378.5" text-anchor="middle" dominant-baseline="central" font-size="12.5" font-weight="600" fill="#1e293b">r6-sw</text><text x="324.1" y="1394.5" text-anchor="middle" dominant-baseline="central" font-size="12.5" font-weight="400" fill="#1e293b">x</text><rect x="86.0" y="795.3" width="90.0" height="46.0" rx="4" fill="#e8f0fe" stroke="#1a56b0" stroke-width="1.4"/><text x="131.0" y="810.3" text-anchor="middle" dominant-baseline="central" font-size="12.5" font-weight="600" fill="#1e293b">r7-rt</text><text x="131.0" y="826.3" text-anchor="middle" dominant-baseline="central" font-size="12.5" font-weight="400" fill="#1e293b">x</text><rect x="86.0" y="897.3" width="90.0" height="46.0" rx="4" fill="#e6f4ea" stroke="#137333" stroke-width="1.4"/><text x="131.0" y="912.3" text-anchor="middle" dominant-baseline="central" font-size="12.5" font-weight="600" fill="#1e293b">r7-sw</text><text x="131.0" y="928.3" text-anchor="middle" dominant-baseline="central" font-size="12.5" font-weight="400" fill="#1e293b">x</text><rect x="279.1" y="329.1" width="90.0" height="46.0" rx="4" fill="#e8f0fe" stroke="#1a56b0" stroke-width="1.4"/><text x="324.1" y="344.1" text-anchor="middle" dominant-baseline="central" font-size="12.5" font-weight="600" fill="#1e293b">r8-rt</text><text x="324.1" y="360.1" text-anchor="middle" dominant-baseline="central" font-size="12.5" font-weight="400" fill="#1e293b">x</text><rect x="279.1" y="431.1" width="90.0" height="46.0" rx="4" fill="#e6f4ea" stroke="#137333" stroke-width="1.4"/><text x="324.1" y="446.1" text-anchor="middle" dominant-baseline="central" font-size="12.5" font-weight="600" fill="#1e293b">r8-sw</text><text x="324.1" y="462.1" text-anchor="middle" dominant-baseline="central" font-size="12.5" font-weight="400" fill="#1e293b">x</text></svg>