<svg xmlns="http://www.w3.org/2000/svg" width="1060" height="1100" viewBox="0 0 1060 1100" font-family="'Segoe UI','Hiragino Sans','Noto Sans JP',Meiryo,sans-serif"><defs></defs><rect width="100%" height="100%" fill="#ffffff"/><text x="24" y="30" font-size="19" font-weight="700" fill="#1e293b">12拠点 WAN概要図</text><polyline points="203.3,958.0 290.0,1014.0" fill="none" stroke="#7b1fa2" stroke-width="2.0" opacity="1.0" stroke-dasharray="7 4"></polyline><rect x="190.3" y="975.0" width="112.8" height="22.0" rx="4" fill="#ffffff" fill-opacity="0.92" opacity="1.0"/><text x="246.7" y="988.0" text-anchor="middle" font-size="12" font-style="italic" font-weight="400" fill="#5f6368" opacity="1.0">IPsec s01-s02</text><polyline points="246.7,958.0 410.0,1014.0" fill="none" stroke="#7b1fa2" stroke-width="2.0" opacity="1.0" stroke-dasharray="7 4"></polyline><rect x="272.0" y="1063.0" width="112.8" height="22.0" rx="4" fill="#ffffff" fill-opacity="0.92" opacity="1.0"/><text x="328.3" y="1076.0" text-anchor="middle" font-size="12" font-style="italic" font-weight="400" fill="#5f6368" opacity="1.0">IPsec s01-s03</text><polyline points="290.0,958.0 530.0,1014.0" fill="none" stroke="#7b1fa2" stroke-width="2.0" opacity="1.0" stroke-dasharray="7 4"></polyline><rect x="353.6" y="975.0" width="112.8" height="22.0" rx="4" fill="#ffffff" fill-opacity="0.92" opacity="1.0"/><text x="410.0" y="988.0" text-anchor="middle" font-size="12" font-style="italic" font-weight="400" fill="#5f6368" opacity="1.0">IPsec s01-s04</text><polyline points="333.3,958.0 650.0,1014.0" fill="none" stroke="#7b1fa2" stroke-width="2.0" opacity="1.0" stroke-dasharray="7 4"></polyline><rect x="435.3" y="1063.0" width="112.8" height="22.0" rx="4" fill="#ffffff" fill-opacity="0.92" opacity="1.0"/><text x="491.7" y="1076.0" text-anchor="middle" font-size="12" font-style="italic" font-weight="400" fill="#5f6368" opacity="1.0">IPsec s01-s05</text><polyline points="376.7,958.0 770.0,1014.0" fill="none" stroke="#7b1fa2" stroke-width="2.0" opacity="1.0" stroke-dasharray="7 4"></polyline><rect x="517.0" y="975.0" width="112.8" height="22.0" rx="4" fill="#ffffff" fill-opacity="0.92" opacity="1.0"/><text x="573.3" y="988.0" text-anchor="middle" font-size="12" font-style="italic" font-weight="400" fill="#5f6368" opacity="1.0">IPsec s01-s06</text><polyline points="654.9,122.0 654.9,140.0 333.3,140.0 333.3,912.0" fill="none" stroke="#1a73e8" stroke-width="3.5" opacity="1.0"></polyline><rect x="262.3" y="312.0" width="142.0" height="24.0" rx="4" fill="#ffffff" fill-opacity="0.92" opacity="1.0"/><text x="333.3" y="325.0" text-anchor="middle" font-size="12" font-style="italic" font-weight="400" fill="#5f6368" opacity="1.0">キャリア IP-VPN 1G</text><polyline points="431.6,122.0 431.6,158.0 246.7,158.0 246.7,912.0" fill="none" stroke="#1a73e8" stroke-width="3.5" opacity="1.0"></polyline><rect x="166.1" y="348.0" width="161.1" height="24.0" rx="4" fill="#ffffff" fill-opacity="0.92" opacity="1.0"/><text x="246.7" y="361.0" text-anchor="middle" font-size="12" font-style="italic" font-weight="400" fill="#5f6368" opacity="1.0">キャリア フレッツ光 1G</text><polyline points="666.4,122.0 666.4,176.0 305.0,176.0 305.0,1014.0" fill="none" stroke="#1a73e8" stroke-width="3.5" opacity="1.0"></polyline><rect x="234.0" y="384.0" width="142.0" height="24.0" rx="4" fill="#ffffff" fill-opacity="0.92" opacity="1.0"/><text x="305.0" y="397.0" text-anchor="middle" font-size="12" font-style="italic" font-weight="400" fill="#5f6368" opacity="1.0">キャリア IP-VPN 1G</text><polyline points="455.0,122.0 455.0,194.0 275.0,194.0 275.0,1014.0" fill="none" stroke="#1a73e8" stroke-width="3.5" opacity="1.0"></polyline><rect x="194.4" y="420.0" width="161.1" height="24.0" rx="4" fill="#ffffff" fill-opacity="0.92" opacity="1.0"/><text x="275.0" y="433.0" text-anchor="middle" font-size="12" font-style="italic" font-weight="400" fill="#5f6368" opacity="1.0">キャリア フレッツ光 1G</text><polyline points="677.9,122.0 677.9,212.0 425.0,212.0 425.0,1014.0" fill="none" stroke="#1a73e8" stroke-width="3.5" opacity="1.0"></polyline><rect x="354.0" y="456.0" width="142.0" height="24.0" rx="4" fill="#ffffff" fill-opacity="0.92" opacity="1.0"/><text x="425.0" y="469.0" text-anchor="middle" font-size="12" font-style="italic" font-weight="400" fill="#5f6368" opacity="1.0">キャリア IP-VPN 1G</text><polyline points="478.3,122.0 478.3,230.0 395.0,230.0 395.0,1014.0" fill="none" stroke="#1a73e8" stroke-width="3.5" opacity="1.0"></polyline><rect x="314.4" y="492.0" width="161.1" height="24.0" rx="4" fill="#ffffff" fill-opacity="0.92" opacity="1.0"/><text x="395.0" y="505.0" text-anchor="middle" font-size="12" font-style="italic" font-weight="400" fill="#5f6368" opacity="1.0">キャリア フレッツ光 1G</text><polyline points="701.0,122.0 701.0,158.0 545.0,158.0 545.0,1014.0" fill="none" stroke="#1a73e8" stroke-width="3.5" opacity="1.0"></polyline><rect x="474.0" y="528.0" width="142.0" height="24.0" rx="4" fill="#ffffff" fill-opacity="0.92" opacity="1.0"/><text x="545.0" y="541.0" text-anchor="middle" font-size="12" font-style="italic" font-weight="400" fill="#5f6368" opacity="1.0">キャリア IP-VPN 1G</text><polyline points="501.7,122.0 501.7,158.0 515.0,158.0 515.0,1014.0" fill="none" stroke="#1a73e8" stroke-width="3.5" opacity="1.0"></polyline><rect x="434.4" y="564.0" width="161.1" height="24.0" rx="4" fill="#ffffff" fill-opacity="0.92" opacity="1.0"/><text x="515.0" y="577.0" text-anchor="middle" font-size="12" font-style="italic" font-weight="400" fill="#5f6368" opacity="1.0">キャリア フレッツ光 1G</text><polyline points="724.1,122.0 724.1,194.0 665.0,194.0 665.0,1014.0" fill="none" stroke="#1a73e8" stroke-width="3.5" opacity="1.0"></polyline><rect x="594.0" y="600.0" width="142.0" height="24.0" rx="4" fill="#ffffff" fill-opacity="0.92" opacity="1.0"/><text x="665.0" y="613.0" text-anchor="middle" font-size="12" font-style="italic" font-weight="400" fill="#5f6368" opacity="1.0">キャリア IP-VPN 1G</text><polyline points="525.0,122.0 525.0,194.0 635.0,194.0 635.0,1014.0" fill="none" stroke="#1a73e8" stroke-width="3.5" opacity="1.0"></polyline><rect x="554.4" y="636.0" width="161.1" height="24.0" rx="4" fill="#ffffff" fill-opacity="0.92" opacity="1.0"/><text x="635.0" y="649.0" text-anchor="middle" font-size="12" font-style="italic" font-weight="400" fill="#5f6368" opacity="1.0">キャリア フレッツ光 1G</text><polyline points="747.2,122.0 747.2,140.0 785.0,140.0 785.0,1014.0" fill="none" stroke="#1a73e8" stroke-width="3.5" opacity="1.0"></polyline><rect x="714.0" y="672.0" width="142.0" height="24.0" rx="4" fill="#ffffff" fill-opacity="0.92" opacity="1.0"/><text x="785.0" y="685.0" text-anchor="middle" font-size="12" font-style="italic" font-weight="400" fill="#5f6368" opacity="1.0">キャリア IP-VPN 1G</text><polyline points="548.4,122.0 548.4,230.0 755.0,230.0 755.0,1014.0" fill="none" stroke="#1a73e8" stroke-width="3.5" opacity="1.0"></polyline><rect x="674.4" y="708.0" width="161.1" height="24.0" rx="4" fill="#ffffff" fill-opacity="0.92" opacity="1.0"/><text x="755.0" y="721.0" text-anchor="middle" font-size="12" font-style="italic" font-weight="400" fill="#5f6368" opacity="1.0">キャリア フレッツ光 1G</text><polyline points="643.3,122.0 643.3,248.0 85.0,248.0 85.0,912.0" fill="none" stroke="#1a73e8" stroke-width="3.5" opacity="1.0"></polyline><rect x="14.0" y="312.0" width="142.0" height="24.0" rx="4" fill="#ffffff" fill-opacity="0.92" opacity="1.0"/><text x="85.0" y="325.0" text-anchor="middle" font-size="12" font-style="italic" font-weight="400" fill="#5f6368" opacity="1.0">キャリア IP-VPN 1G</text><polyline points="689.5,122.0 689.5,266.0 495.0,266.0 495.0,912.0" fill="none" stroke="#1a73e8" stroke-width="3.5" opacity="1.0"></polyline><rect x="424.0" y="744.0" width="142.0" height="24.0" rx="4" fill="#ffffff" fill-opacity="0.92" opacity="1.0"/><text x="495.0" y="757.0" text-anchor="middle" font-size="12" font-style="italic" font-weight="400" fill="#5f6368" opacity="1.0">キャリア IP-VPN 1G</text><polyline points="712.5,122.0 712.5,284.0 615.0,284.0 615.0,912.0" fill="none" stroke="#1a73e8" stroke-width="3.5" opacity="1.0"></polyline><rect x="544.0" y="780.0" width="142.0" height="24.0" rx="4" fill="#ffffff" fill-opacity="0.92" opacity="1.0"/><text x="615.0" y="793.0" text-anchor="middle" font-size="12" font-style="italic" font-weight="400" fill="#5f6368" opacity="1.0">キャリア IP-VPN 1G</text><polyline points="735.6,122.0 735.6,158.0 735.0,158.0 735.0,912.0" fill="none" stroke="#1a73e8" stroke-width="3.5" opacity="1.0"></polyline><rect x="664.0" y="816.0" width="142.0" height="24.0" rx="4" fill="#ffffff" fill-opacity="0.92" opacity="1.0"/><text x="735.0" y="829.0" text-anchor="middle" font-size="12" font-style="italic" font-weight="400" fill="#5f6368" opacity="1.0">キャリア IP-VPN 1G</text><polyline points="758.7,122.0 758.7,158.0 855.0,158.0 855.0,912.0" fill="none" stroke="#1a73e8" stroke-width="3.5" opacity="1.0"></polyline><rect x="784.0" y="852.0" width="142.0" height="24.0" rx="4" fill="#ffffff" fill-opacity="0.92" opacity="1.0"/><text x="855.0" y="865.0" text-anchor="middle" font-size="12" font-style="italic" font-weight="400" fill="#5f6368" opacity="1.0">キャリア IP-VPN 1G</text><polyline points="770.2,122.0 770.2,176.0 975.0,176.0 975.0,912.0" fill="none" stroke="#1a73e8" stroke-width="3.5" opacity="1.0"></polyline><rect x="904.0" y="312.0" width="142.0" height="24.0" rx="4" fill="#ffffff" fill-opacity="0.92" opacity="1.0"/><text x="975.0" y="325.0" text-anchor="middle" font-size="12" font-style="italic" font-weight="400" fill="#5f6368" opacity="1.0">キャリア IP-VPN 1G</text><ellipse cx="490.0" cy="84.0" rx="81.8" ry="38.0" fill="#f1f3f4" stroke="#5f6368" stroke-width="1.6"/><text x="490.0" y="84.0" text-anchor="middle" dominant-baseline="central" font-size="12.5" font-weight="600" fill="#1e293b">インターネット</text><ellipse cx="706.8" cy="84.0" rx="75.0" ry="38.0" fill="#f1f3f4" stroke="#5f6368" stroke-width="1.6"/><text x="706.8" y="84.0" text-anchor="middle" dominant-baseline="central" font-size="12.5" font-weight="600" fill="#1e293b">IP-VPN網</text><rect x="160.0" y="912.0" width="260.0" height="46.0" rx="4" fill="#fff8e1" stroke="#b58105" stroke-width="1.4"/><text x="290.0" y="935.0" text-anchor="middle" dominant-baseline="central" font-size="12.5" font-weight="600" fill="#1e293b">拠点01</text><rect x="245.0" y="1014.0" width="90.0" height="46.0" rx="4" fill="#fff8e1" stroke="#b58105" stroke-width="1.4"/><text x="290.0" y="1037.0" text-anchor="middle" dominant-baseline="central" font-size="12.5" font-weight="600" fill="#1e293b">拠点02</text><rect x="365.0" y="1014.0" width="90.0" height="46.0" rx="4" fill="#fff8e1" stroke="#b58105" stroke-width="1.4"/><text x="410.0" y="1037.0" text-anchor="middle" dominant-baseline="central" font-size="12.5" font-weight="600" fill="#1e293b">拠点03</text><rect x="485.0" y="1014.0" width="90.0" height="46.0" rx="4" fill="#fff8e1" stroke="#b58105" stroke-width="1.4"/><text x="530.0" y="1037.0" text-anchor="middle" dominant-baseline="central" font-size="12.5" font-weight="600" fill="#1e293b">拠点04</text><rect x="605.0" y="1014.0" width="90.0" height="46.0" rx="4" fill="#fff8e1" stroke="#b58105" stroke-width="1.4"/><text x="650.0" y="1037.0" text-anchor="middle" dominant-baseline="central" font-size="12.5" font-weight="600" fill="#1e293b">拠点05</text><rect x="725.0" y="1014.0" width="90.0" height="46.0" rx="4" fill="#fff8e1" stroke="#b58105" stroke-width="1.4"/><text x="770.0" y="1037.0" text-anchor="middle" dominant-baseline="central" font-size="12.5" font-weight="600" fill="#1e293b">拠点06</text><rect x="40.0" y="912.0" width="90.0" height="46.0" rx="4" fill="#fff8e1" stroke="#b58105" stroke-width="1.4"/><text x="85.0" y="935.0" text-anchor="middle" dominant-baseline="central" font-size="12.5" font-weight="600" fill="#1e293b">拠点07</text><rect x="450.0" y="912.0" width="90.0" height="46.0" rx="4" fill="#fff8e1" stroke="#b58105" stroke-width="1.4"/><text x="495.0" y="935.0" text-anchor="middle" dominant-baseline="central" font-size="12.5" font-weight="600" fill="#1e293b">拠点08</text><rect x="570.0" y="912.0" width="90.0" height="46.0" rx="4" fill="#fff8e1" stroke="#b58105" stroke-width="1.4"/><text x="615.0" y="935.0" text-anchor="middle" dominant-baseline="central" font-size="12.5" font-weight="600" fill="#1e293b">拠点09</text><rect x="690.0" y="912.0" width="90.0" height="46.0" rx="4" fill="#fff8e1" stroke="#b58105" stroke-width="1.4"/><text x="735.0" y="935.0" text-anchor="middle" dominant-baseline="central" font-size="12.5" font-weight="600" fill="#1e293b">拠点10</text><rect x="810.0" y="912.0" width="90.0" height="46.0" rx="4" fill="#fff8e1" stroke="#b58105" stroke-width="1.4"/><text x="855.0" y="935.0" text-anchor="middle" dominant-baseline="central" font-size="12.5" font-weight="600" fill="#1e293b">拠点11</text><rect x="930.0" y="912.0" width="90.0" height="46.0" rx="4" fill="#fff8e1" stroke="#b58105" stroke-width="1.4"/><text x="975.0" y="935.0" text-anchor="middle" dominant-baseline="central" font-size="12.5" font-weight="600" fill="#1e293b">拠点12</text></svg>