<svg xmlns="http://www.w3.org/2000/svg" width="1439" height="714" viewBox="0 0 1439 714" font-family="'Segoe UI','Hiragino Sans','Noto Sans JP',Meiryo,sans-serif"><defs></defs><rect width="100%" height="100%" fill="#ffffff"/><text x="24" y="30" font-size="19" font-weight="700" fill="#1e293b">全社論理構成図</text><rect x="40.0" y="282.0" width="740.8" height="392.0" rx="6" fill="#f7f9fc" stroke="#8fa8c4"/><text x="44.0" y="274.0" font-size="14.5" font-weight="600" fill="#33475b">本社</text><rect x="836.8" y="282.0" width="257.3" height="262.0" rx="6" fill="#f7f9fc" stroke="#8fa8c4"/><text x="840.8" y="274.0" font-size="14.5" font-weight="600" fill="#33475b">大阪支店</text><rect x="1150.2" y="282.0" width="249.3" height="246.0" rx="6" fill="#f7f9fc" stroke="#8fa8c4"/><text x="1154.2" y="274.0" font-size="14.5" font-weight="600" fill="#33475b">名古屋営業所</text><polyline points="485.4,384.0 485.4,422.0 317.9,422.0 317.9,462.0" fill="none" stroke="#4a4a4a" stroke-width="2.0" opacity="1.0"></polyline><text x="489.4" y="397.0" font-size="10.5" font-style="italic" fill="#5f6368" opacity="1.0">Gi0/0/1</text><text x="321.9" y="457.0" font-size="10.5" font-style="italic" fill="#5f6368" opacity="1.0">Gi1/0/1</text><polyline points="286.3,400.0 286.3,422.0 254.8,422.0 254.8,462.0" fill="none" stroke="#4a4a4a" stroke-width="2.0" opacity="1.0"></polyline><text x="290.3" y="413.0" font-size="10.5" font-style="italic" fill="#5f6368" opacity="1.0">Gi0/0/1</text><text x="258.8" y="457.0" font-size="10.5" font-style="italic" fill="#5f6368" opacity="1.0">Gi1/0/2</text><polyline points="254.8,540.0 254.8,562.0 168.7,562.0 168.7,602.0" fill="none" stroke="#0f766e" stroke-width="1.5" opacity="1.0"></polyline><text x="258.8" y="553.0" font-size="10.5" font-style="italic" fill="#5f6368" opacity="1.0">Vlan10</text><polyline points="317.9,540.0 317.9,562.0 404.0,562.0 404.0,602.0" fill="none" stroke="#0f766e" stroke-width="1.5" opacity="1.0"></polyline><text x="321.9" y="553.0" font-size="10.5" font-style="italic" fill="#5f6368" opacity="1.0">Vlan20</text><polyline points="965.5,416.0 965.5,472.0" fill="none" stroke="#0f766e" stroke-width="1.5" opacity="1.0"></polyline><text x="969.5" y="429.0" font-size="10.5" font-style="italic" fill="#5f6368" opacity="1.0">Gi0/1/0</text><polyline points="1274.8,400.0 1274.8,456.0" fill="none" stroke="#0f766e" stroke-width="1.5" opacity="1.0"></polyline><text x="1278.8" y="413.0" font-size="10.5" font-style="italic" fill="#5f6368" opacity="1.0">Gi0/1/0</text><polyline points="598.7,122.0 598.7,140.0 286.3,140.0 286.3,338.0" fill="none" stroke="#7b1fa2" stroke-width="2.0" opacity="1.0" stroke-dasharray="7 4"></polyline><rect x="206.1" y="186.0" width="160.5" height="24.0" rx="4" fill="#ffffff" fill-opacity="0.92" opacity="1.0"/><text x="286.3" y="199.0" text-anchor="middle" font-size="12" font-style="italic" font-weight="400" fill="#5f6368" opacity="1.0">IPsec バックアップVPN</text><polyline points="653.2,122.0 653.2,140.0 931.3,140.0 931.3,338.0" fill="none" stroke="#7b1fa2" stroke-width="2.0" opacity="1.0" stroke-dasharray="7 4"></polyline><rect x="851.0" y="186.0" width="160.5" height="24.0" rx="4" fill="#ffffff" fill-opacity="0.92" opacity="1.0"/><text x="931.3" y="199.0" text-anchor="middle" font-size="12" font-style="italic" font-weight="400" fill="#5f6368" opacity="1.0">IPsec バックアップVPN</text><polyline points="859.9,122.0 859.9,158.0 485.4,158.0 485.4,338.0" fill="none" stroke="#188038" stroke-width="2.0" opacity="1.0" stroke-dasharray="3 3"></polyline><rect x="467.7" y="186.0" width="35.2" height="24.0" rx="4" fill="#ffffff" fill-opacity="0.92" opacity="1.0"/><text x="485.4" y="199.0" text-anchor="middle" font-size="12" font-style="italic" font-weight="400" fill="#5f6368" opacity="1.0">BGP</text><polyline points="908.6,122.0 908.6,158.0 999.7,158.0 999.7,338.0" fill="none" stroke="#188038" stroke-width="2.0" opacity="1.0" stroke-dasharray="3 3"></polyline><rect x="982.1" y="222.0" width="35.2" height="24.0" rx="4" fill="#ffffff" fill-opacity="0.92" opacity="1.0"/><text x="999.7" y="235.0" text-anchor="middle" font-size="12" font-style="italic" font-weight="400" fill="#5f6368" opacity="1.0">BGP</text><polyline points="957.2,122.0 957.2,140.0 1274.8,140.0 1274.8,338.0" fill="none" stroke="#188038" stroke-width="2.0" opacity="1.0" stroke-dasharray="3 3"></polyline><rect x="1257.2" y="186.0" width="35.2" height="24.0" rx="4" fill="#ffffff" fill-opacity="0.92" opacity="1.0"/><text x="1274.8" y="199.0" text-anchor="middle" font-size="12" font-style="italic" font-weight="400" fill="#5f6368" opacity="1.0">BGP</text><ellipse cx="625.9" cy="84.0" rx="81.8" ry="38.0" fill="#f1f3f4" stroke="#5f6368" stroke-width="1.6"/><text x="625.9" y="84.0" text-anchor="middle" dominant-baseline="central" font-size="12.5" font-weight="600" fill="#1e293b">インターネット</text><ellipse cx="908.6" cy="84.0" rx="97.2" ry="38.0" fill="#f1f3f4" stroke="#5f6368" stroke-width="1.6"/><text x="908.6" y="84.0" text-anchor="middle" dominant-baseline="central" font-size="12.5" font-weight="600" fill="#1e293b">NTT Com IP-VPN網</text><rect x="183.7" y="338.0" width="205.3" height="62.0" rx="4" fill="#e8f0fe" stroke="#1a56b0" stroke-width="1.4"/><text x="286.3" y="353.0" text-anchor="middle" dominant-baseline="central" font-size="12.5" font-weight="600" fill="#1e293b">hq-rt02</text><text x="286.3" y="369.0" text-anchor="middle" dominant-baseline="central" font-size="12.5" font-weight="400" fill="#1e293b">Cisco ISR4331</text><text x="286.3" y="385.0" text-anchor="middle" dominant-baseline="central" font-size="12.5" font-weight="400" fill="#1e293b">Tunnel0: 172.31.0.1/30</text><rect x="419.0" y="338.0" width="132.8" height="46.0" rx="4" fill="#e8f0fe" stroke="#1a56b0" stroke-width="1.4"/><text x="485.4" y="353.0" text-anchor="middle" dominant-baseline="central" font-size="12.5" font-weight="600" fill="#1e293b">hq-rt01</text><text x="485.4" y="369.0" text-anchor="middle" dominant-baseline="central" font-size="12.5" font-weight="400" fill="#1e293b">Cisco ISR4331</text><rect x="191.7" y="462.0" width="189.2" height="78.0" rx="4" fill="#d2e3fc" stroke="#1a56b0" stroke-width="1.4"/><text x="286.3" y="477.0" text-anchor="middle" dominant-baseline="central" font-size="12.5" font-weight="600" fill="#1e293b">hq-sw01</text><text x="286.3" y="493.0" text-anchor="middle" dominant-baseline="central" font-size="12.5" font-weight="400" fill="#1e293b">Cisco Catalyst 9300</text><text x="286.3" y="509.0" text-anchor="middle" dominant-baseline="central" font-size="12.5" font-weight="400" fill="#1e293b">Vlan10: 10.1.10.1/24</text><text x="286.3" y="525.0" text-anchor="middle" dominant-baseline="central" font-size="12.5" font-weight="400" fill="#1e293b">Vlan20: 10.1.20.1/24</text><rect x="581.8" y="338.0" width="173.1" height="62.0" rx="4" fill="#f1f3f4" stroke="#5f6368" stroke-width="1.4"/><text x="668.3" y="353.0" text-anchor="middle" dominant-baseline="central" font-size="12.5" font-weight="600" fill="#1e293b">hq-srv01</text><text x="668.3" y="369.0" text-anchor="middle" dominant-baseline="central" font-size="12.5" font-weight="400" fill="#1e293b">PowerEdge R760</text><text x="668.3" y="385.0" text-anchor="middle" dominant-baseline="central" font-size="12.5" font-weight="400" fill="#1e293b">eno1: 10.1.10.5/24</text><rect x="66.0" y="602.0" width="205.3" height="46.0" rx="4" fill="#e2f5f0" stroke="#0f766e" stroke-width="1.4"/><text x="168.7" y="617.0" text-anchor="middle" dominant-baseline="central" font-size="12.5" font-weight="600" fill="#1e293b">本社サーバ</text><text x="168.7" y="633.0" text-anchor="middle" dominant-baseline="central" font-size="12.5" font-weight="400" fill="#1e293b">VLAN 10 / 10.1.10.0/24</text><rect x="301.3" y="602.0" width="205.3" height="46.0" rx="4" fill="#e2f5f0" stroke="#0f766e" stroke-width="1.4"/><text x="404.0" y="617.0" text-anchor="middle" dominant-baseline="central" font-size="12.5" font-weight="600" fill="#1e293b">本社クライアント</text><text x="404.0" y="633.0" text-anchor="middle" dominant-baseline="central" font-size="12.5" font-weight="400" fill="#1e293b">VLAN 20 / 10.1.20.0/24</text><rect x="862.8" y="338.0" width="205.3" height="78.0" rx="4" fill="#e8f0fe" stroke="#1a56b0" stroke-width="1.4"/><text x="965.5" y="353.0" text-anchor="middle" dominant-baseline="central" font-size="12.5" font-weight="600" fill="#1e293b">osk-rt01</text><text x="965.5" y="369.0" text-anchor="middle" dominant-baseline="central" font-size="12.5" font-weight="400" fill="#1e293b">Cisco ISR1100</text><text x="965.5" y="385.0" text-anchor="middle" dominant-baseline="central" font-size="12.5" font-weight="400" fill="#1e293b">Gi0/1/0: 10.2.10.1/24</text><text x="965.5" y="401.0" text-anchor="middle" dominant-baseline="central" font-size="12.5" font-weight="400" fill="#1e293b">Tunnel0: 172.31.0.2/30</text><rect x="866.9" y="472.0" width="197.3" height="46.0" rx="4" fill="#e2f5f0" stroke="#0f766e" stroke-width="1.4"/><text x="965.5" y="487.0" text-anchor="middle" dominant-baseline="central" font-size="12.5" font-weight="600" fill="#1e293b">大阪LAN</text><text x="965.5" y="503.0" text-anchor="middle" dominant-baseline="central" font-size="12.5" font-weight="400" fill="#1e293b">VLAN 1 / 10.2.10.0/24</text><rect x="1176.2" y="338.0" width="197.3" height="62.0" rx="4" fill="#e8f0fe" stroke="#1a56b0" stroke-width="1.4"/><text x="1274.8" y="353.0" text-anchor="middle" dominant-baseline="central" font-size="12.5" font-weight="600" fill="#1e293b">ngy-rt01</text><text x="1274.8" y="369.0" text-anchor="middle" dominant-baseline="central" font-size="12.5" font-weight="400" fill="#1e293b">Cisco ISR1100</text><text x="1274.8" y="385.0" text-anchor="middle" dominant-baseline="central" font-size="12.5" font-weight="400" fill="#1e293b">Gi0/1/0: 10.3.10.1/24</text><rect x="1176.2" y="456.0" width="197.3" height="46.0" rx="4" fill="#e2f5f0" stroke="#0f766e" stroke-width="1.4"/><text x="1274.8" y="471.0" text-anchor="middle" dominant-baseline="central" font-size="12.5" font-weight="600" fill="#1e293b">名古屋LAN</text><text x="1274.8" y="487.0" text-anchor="middle" dominant-baseline="central" font-size="12.5" font-weight="400" fill="#1e293b">VLAN 1 / 10.3.10.0/24</text></svg>