<svg xmlns="http://www.w3.org/2000/svg" width="1846" height="732" viewBox="0 0 1846 732" font-family="'Segoe UI','Hiragino Sans','Noto Sans JP',Meiryo,sans-serif"><defs></defs><rect width="100%" height="100%" fill="#ffffff"/><text x="24" y="30" font-size="19" font-weight="700" fill="#1e293b">全社論理構成図</text><rect x="40.0" y="300.0" width="1147.0" height="392.0" rx="6" fill="#f7f9fc" stroke="#8fa8c4"/><text x="44.0" y="292.0" font-size="14.5" font-weight="600" fill="#33475b">本社</text><rect x="1243.0" y="300.0" width="257.3" height="262.0" rx="6" fill="#f7f9fc" stroke="#8fa8c4"/><text x="1247.0" y="292.0" font-size="14.5" font-weight="600" fill="#33475b">大阪支店</text><rect x="1556.3" y="300.0" width="249.3" height="246.0" rx="6" fill="#f7f9fc" stroke="#8fa8c4"/><text x="1560.3" y="292.0" font-size="14.5" font-weight="600" fill="#33475b">名古屋営業所</text><polyline points="485.4,402.0 485.4,440.0 317.9,440.0 317.9,480.0" fill="none" stroke="#4a4a4a" stroke-width="2.0" opacity="1.0"></polyline><text x="489.4" y="415.0" font-size="10.5" font-style="italic" fill="#5f6368" opacity="1.0">Gi0/0/1</text><text x="321.9" y="475.0" font-size="10.5" font-style="italic" fill="#5f6368" opacity="1.0">Gi1/0/1</text><polyline points="286.3,418.0 286.3,440.0 254.8,440.0 254.8,480.0" fill="none" stroke="#4a4a4a" stroke-width="2.0" opacity="1.0"></polyline><text x="290.3" y="431.0" font-size="10.5" font-style="italic" fill="#5f6368" opacity="1.0">Gi0/0/1</text><text x="258.8" y="475.0" font-size="10.5" font-style="italic" fill="#5f6368" opacity="1.0">Gi1/0/2</text><polyline points="254.8,558.0 254.8,580.0 168.7,580.0 168.7,620.0" fill="none" stroke="#0f766e" stroke-width="1.5" opacity="1.0"></polyline><text x="258.8" y="571.0" font-size="10.5" font-style="italic" fill="#5f6368" opacity="1.0">Vlan10</text><polyline points="317.9,558.0 317.9,580.0 404.0,580.0 404.0,620.0" fill="none" stroke="#0f766e" stroke-width="1.5" opacity="1.0"></polyline><text x="321.9" y="571.0" font-size="10.5" font-style="italic" fill="#5f6368" opacity="1.0">Vlan20</text><polyline points="1371.7,434.0 1371.7,490.0" fill="none" stroke="#0f766e" stroke-width="1.5" opacity="1.0"></polyline><text x="1375.7" y="447.0" font-size="10.5" font-style="italic" fill="#5f6368" opacity="1.0">Gi0/1/0</text><polyline points="1681.0,418.0 1681.0,474.0" fill="none" stroke="#0f766e" stroke-width="1.5" opacity="1.0"></polyline><text x="1685.0" y="431.0" font-size="10.5" font-style="italic" fill="#5f6368" opacity="1.0">Gi0/1/0</text><polyline points="801.7,122.0 801.7,140.0 286.3,140.0 286.3,356.0" fill="none" stroke="#7b1fa2" stroke-width="2.0" opacity="1.0" stroke-dasharray="7 4"></polyline><rect x="206.1" y="204.0" width="160.5" height="24.0" rx="4" fill="#ffffff" fill-opacity="0.92" opacity="1.0"/><text x="286.3" y="217.0" text-anchor="middle" font-size="12" font-style="italic" font-weight="400" fill="#5f6368" opacity="1.0">IPsec バックアップVPN</text><polyline points="856.2,122.0 856.2,140.0 1337.4,140.0 1337.4,356.0" fill="none" stroke="#7b1fa2" stroke-width="2.0" opacity="1.0" stroke-dasharray="7 4"></polyline><rect x="1257.2" y="204.0" width="160.5" height="24.0" rx="4" fill="#ffffff" fill-opacity="0.92" opacity="1.0"/><text x="1337.4" y="217.0" text-anchor="middle" font-size="12" font-style="italic" font-weight="400" fill="#5f6368" opacity="1.0">IPsec バックアップVPN</text><polyline points="1130.7,122.0 1130.7,158.0 485.4,158.0 485.4,356.0" fill="none" stroke="#188038" stroke-width="2.0" opacity="1.0" stroke-dasharray="3 3"></polyline><rect x="467.7" y="204.0" width="35.2" height="24.0" rx="4" fill="#ffffff" fill-opacity="0.92" opacity="1.0"/><text x="485.4" y="217.0" text-anchor="middle" font-size="12" font-style="italic" font-weight="400" fill="#5f6368" opacity="1.0">BGP</text><polyline points="1179.3,122.0 1179.3,158.0 1405.9,158.0 1405.9,356.0" fill="none" stroke="#188038" stroke-width="2.0" opacity="1.0" stroke-dasharray="3 3"></polyline><rect x="1388.3" y="240.0" width="35.2" height="24.0" rx="4" fill="#ffffff" fill-opacity="0.92" opacity="1.0"/><text x="1405.9" y="253.0" text-anchor="middle" font-size="12" font-style="italic" font-weight="400" fill="#5f6368" opacity="1.0">BGP</text><polyline points="1227.9,122.0 1227.9,176.0 1681.0,176.0 1681.0,356.0" fill="none" stroke="#188038" stroke-width="2.0" opacity="1.0" stroke-dasharray="3 3"></polyline><rect x="1663.3" y="204.0" width="35.2" height="24.0" rx="4" fill="#ffffff" fill-opacity="0.92" opacity="1.0"/><text x="1681.0" y="217.0" text-anchor="middle" font-size="12" font-style="italic" font-weight="400" fill="#5f6368" opacity="1.0">BGP</text><ellipse cx="829.0" cy="84.0" rx="81.8" ry="38.0" fill="#f1f3f4" stroke="#5f6368" stroke-width="1.6"/><text x="829.0" y="84.0" text-anchor="middle" dominant-baseline="central" font-size="12.5" font-weight="600" fill="#1e293b">インターネット</text><ellipse cx="1179.3" cy="84.0" rx="97.2" ry="38.0" fill="#f1f3f4" stroke="#5f6368" stroke-width="1.6"/><text x="1179.3" y="84.0" text-anchor="middle" dominant-baseline="central" font-size="12.5" font-weight="600" fill="#1e293b">NTT Com IP-VPN網</text><rect x="183.7" y="356.0" width="205.3" height="62.0" rx="4" fill="#e8f0fe" stroke="#1a56b0" stroke-width="1.4"/><text x="286.3" y="371.0" text-anchor="middle" dominant-baseline="central" font-size="12.5" font-weight="600" fill="#1e293b">hq-rt02</text><text x="286.3" y="387.0" text-anchor="middle" dominant-baseline="central" font-size="12.5" font-weight="400" fill="#1e293b">Cisco ISR4331</text><text x="286.3" y="403.0" text-anchor="middle" dominant-baseline="central" font-size="12.5" font-weight="400" fill="#1e293b">Tunnel0: 172.31.0.1/30</text><rect x="419.0" y="356.0" width="132.8" height="46.0" rx="4" fill="#e8f0fe" stroke="#1a56b0" stroke-width="1.4"/><text x="485.4" y="371.0" text-anchor="middle" dominant-baseline="central" font-size="12.5" font-weight="600" fill="#1e293b">hq-rt01</text><text x="485.4" y="387.0" text-anchor="middle" dominant-baseline="central" font-size="12.5" font-weight="400" fill="#1e293b">Cisco ISR4331</text><rect x="191.7" y="480.0" width="189.2" height="78.0" rx="4" fill="#d2e3fc" stroke="#1a56b0" stroke-width="1.4"/><text x="286.3" y="495.0" text-anchor="middle" dominant-baseline="central" font-size="12.5" font-weight="600" fill="#1e293b">hq-sw01</text><text x="286.3" y="511.0" text-anchor="middle" dominant-baseline="central" font-size="12.5" font-weight="400" fill="#1e293b">Cisco Catalyst 9300</text><text x="286.3" y="527.0" text-anchor="middle" dominant-baseline="central" font-size="12.5" font-weight="400" fill="#1e293b">Vlan10: 10.1.10.1/24</text><text x="286.3" y="543.0" text-anchor="middle" dominant-baseline="central" font-size="12.5" font-weight="400" fill="#1e293b">Vlan20: 10.1.20.1/24</text><rect x="581.8" y="356.0" width="173.1" height="62.0" rx="4" fill="#f1f3f4" stroke="#5f6368" stroke-width="1.4"/><text x="668.3" y="371.0" text-anchor="middle" dominant-baseline="central" font-size="12.5" font-weight="600" fill="#1e293b">hq-srv01</text><text x="668.3" y="387.0" text-anchor="middle" dominant-baseline="central" font-size="12.5" font-weight="400" fill="#1e293b">PowerEdge R760</text><text x="668.3" y="403.0" text-anchor="middle" dominant-baseline="central" font-size="12.5" font-weight="400" fill="#1e293b">eno1: 10.1.10.5/24</text><rect x="784.8" y="356.0" width="173.1" height="62.0" rx="4" fill="#f1f3f4" stroke="#5f6368" stroke-width="1.4"/><text x="871.4" y="371.0" text-anchor="middle" dominant-baseline="central" font-size="12.5" font-weight="600" fill="#1e293b">hq-srv02</text><text x="871.4" y="387.0" text-anchor="middle" dominant-baseline="central" font-size="12.5" font-weight="400" fill="#1e293b">PowerEdge R760</text><text x="871.4" y="403.0" text-anchor="middle" dominant-baseline="central" font-size="12.5" font-weight="400" fill="#1e293b">eno1: 10.1.10.6/24</text><rect x="987.9" y="356.0" width="173.1" height="62.0" rx="4" fill="#f1f3f4" stroke="#5f6368" stroke-width="1.4"/><text x="1074.5" y="371.0" text-anchor="middle" dominant-baseline="central" font-size="12.5" font-weight="600" fill="#1e293b">hq-srv03</text><text x="1074.5" y="387.0" text-anchor="middle" dominant-baseline="central" font-size="12.5" font-weight="400" fill="#1e293b">PowerEdge R760</text><text x="1074.5" y="403.0" text-anchor="middle" dominant-baseline="central" font-size="12.5" font-weight="400" fill="#1e293b">eno1: 10.1.10.7/24</text><rect x="66.0" y="620.0" width="205.3" height="46.0" rx="4" fill="#e2f5f0" stroke="#0f766e" stroke-width="1.4"/><text x="168.7" y="635.0" text-anchor="middle" dominant-baseline="central" font-size="12.5" font-weight="600" fill="#1e293b">本社サーバ</text><text x="168.7" y="651.0" text-anchor="middle" dominant-baseline="central" font-size="12.5" font-weight="400" fill="#1e293b">VLAN 10 / 10.1.10.0/24</text><rect x="301.3" y="620.0" width="205.3" height="46.0" rx="4" fill="#e2f5f0" stroke="#0f766e" stroke-width="1.4"/><text x="404.0" y="635.0" text-anchor="middle" dominant-baseline="central" font-size="12.5" font-weight="600" fill="#1e293b">本社クライアント</text><text x="404.0" y="651.0" text-anchor="middle" dominant-baseline="central" font-size="12.5" font-weight="400" fill="#1e293b">VLAN 20 / 10.1.20.0/24</text><rect x="1269.0" y="356.0" width="205.3" height="78.0" rx="4" fill="#e8f0fe" stroke="#1a56b0" stroke-width="1.4"/><text x="1371.7" y="371.0" text-anchor="middle" dominant-baseline="central" font-size="12.5" font-weight="600" fill="#1e293b">osk-rt01</text><text x="1371.7" y="387.0" text-anchor="middle" dominant-baseline="central" font-size="12.5" font-weight="400" fill="#1e293b">Cisco ISR1100</text><text x="1371.7" y="403.0" text-anchor="middle" dominant-baseline="central" font-size="12.5" font-weight="400" fill="#1e293b">Gi0/1/0: 10.2.10.1/24</text><text x="1371.7" y="419.0" text-anchor="middle" dominant-baseline="central" font-size="12.5" font-weight="400" fill="#1e293b">Tunnel0: 172.31.0.2/30</text><rect x="1273.0" y="490.0" width="197.3" height="46.0" rx="4" fill="#e2f5f0" stroke="#0f766e" stroke-width="1.4"/><text x="1371.7" y="505.0" text-anchor="middle" dominant-baseline="central" font-size="12.5" font-weight="600" fill="#1e293b">大阪LAN</text><text x="1371.7" y="521.0" text-anchor="middle" dominant-baseline="central" font-size="12.5" font-weight="400" fill="#1e293b">VLAN 1 / 10.2.10.0/24</text><rect x="1582.3" y="356.0" width="197.3" height="62.0" rx="4" fill="#e8f0fe" stroke="#1a56b0" stroke-width="1.4"/><text x="1681.0" y="371.0" text-anchor="middle" dominant-baseline="central" font-size="12.5" font-weight="600" fill="#1e293b">ngy-rt01</text><text x="1681.0" y="387.0" text-anchor="middle" dominant-baseline="central" font-size="12.5" font-weight="400" fill="#1e293b">Cisco ISR1100</text><text x="1681.0" y="403.0" text-anchor="middle" dominant-baseline="central" font-size="12.5" font-weight="400" fill="#1e293b">Gi0/1/0: 10.3.10.1/24</text><rect x="1582.3" y="474.0" width="197.3" height="46.0" rx="4" fill="#e2f5f0" stroke="#0f766e" stroke-width="1.4"/><text x="1681.0" y="489.0" text-anchor="middle" dominant-baseline="central" font-size="12.5" font-weight="600" fill="#1e293b">名古屋LAN</text><text x="1681.0" y="505.0" text-anchor="middle" dominant-baseline="central" font-size="12.5" font-weight="400" fill="#1e293b">VLAN 1 / 10.3.10.0/24</text></svg>