<svg xmlns="http://www.w3.org/2000/svg" width="1504" height="834" viewBox="0 0 1504 834" font-family="'Segoe UI','Hiragino Sans','Noto Sans JP',Meiryo,sans-serif"><defs><marker id="arrow-c5221f" viewBox="0 0 10 10" refX="9" refY="5" markerWidth="7" markerHeight="7" orient="auto-start-reverse"><path d="M 0 0 L 10 5 L 0 10 z" fill="#c5221f"/></marker></defs><rect width="100%" height="100%" fill="#ffffff"/><text x="24" y="30" font-size="19" font-weight="700" fill="#1e293b">通信経路 本社→大阪 (正常時)</text><rect x="40.0" y="354.0" width="725.3" height="440.0" rx="6" fill="#f7f9fc" stroke="#8fa8c4"/><text x="44.0" y="346.0" font-size="14.5" font-weight="600" fill="#33475b">本社</text><rect x="821.3" y="354.0" width="460.4" height="300.0" rx="6" fill="#f7f9fc" stroke="#8fa8c4"/><text x="825.3" y="346.0" font-size="14.5" font-weight="600" fill="#33475b">大阪支店</text><polyline points="628.6,504.0 628.6,526.0 408.6,526.0 408.6,566.0" fill="none" stroke="#4a4a4a" stroke-width="2.0" opacity="0.15"></polyline><text x="632.6" y="517.0" font-size="10.5" font-style="italic" fill="#5f6368" opacity="0.15">Gi0/0/1</text><text x="412.6" y="561.0" font-size="10.5" font-style="italic" fill="#5f6368" opacity="0.15">Gi1/0/2</text><polyline points="329.8,644.0 329.8,666.0 152.5,666.0 152.5,706.0" fill="none" stroke="#4a4a4a" stroke-width="2.0" opacity="0.15"></polyline><text x="333.8" y="657.0" font-size="10.5" font-style="italic" fill="#5f6368" opacity="0.15">Gi1/0/3</text><text x="156.5" y="701.0" font-size="10.5" font-style="italic" fill="#5f6368" opacity="0.15">eno1</text><polyline points="377.1,644.0 377.1,666.0 371.7,666.0 371.7,706.0" fill="none" stroke="#0f766e" stroke-width="1.5" opacity="0.15"></polyline><text x="381.1" y="657.0" font-size="10.5" font-style="italic" fill="#5f6368" opacity="0.15">Vlan10</text><polyline points="424.4,644.0 424.4,666.0 607.1,666.0 607.1,706.0" fill="none" stroke="#0f766e" stroke-width="1.5" opacity="0.15"></polyline><text x="428.4" y="657.0" font-size="10.5" font-style="italic" fill="#5f6368" opacity="0.15">Vlan20</text><polyline points="1085.7,520.0 1085.7,542.0 1157.0,542.0 1157.0,582.0" fill="none" stroke="#0f766e" stroke-width="1.5" opacity="0.15"></polyline><text x="1089.7" y="533.0" font-size="10.5" font-style="italic" fill="#5f6368" opacity="0.15">Gi0/1/0</text><polyline points="788.9,122.0 788.9,158.0 591.6,158.0 591.6,410.0" fill="none" stroke="#1a73e8" stroke-width="3.5" opacity="0.15"></polyline><rect x="456.5" y="222.0" width="270.2" height="42.0" rx="4" fill="#ffffff" fill-opacity="0.92" opacity="0.15"/><text x="591.6" y="235.0" text-anchor="middle" font-size="12" font-style="italic" font-weight="400" fill="#5f6368" opacity="0.15">NTT東日本 フレッツ光ネクスト + OCN 1G</text><text x="591.6" y="252.0" text-anchor="middle" font-size="12" font-style="italic" font-weight="400" fill="#5f6368" opacity="0.15">(Gi0/0/0)</text><polyline points="854.4,122.0 854.4,158.0 978.6,158.0 978.6,410.0" fill="none" stroke="#1a73e8" stroke-width="3.5" opacity="0.15"></polyline><rect x="843.5" y="258.0" width="270.2" height="42.0" rx="4" fill="#ffffff" fill-opacity="0.92" opacity="0.15"/><text x="978.6" y="271.0" text-anchor="middle" font-size="12" font-style="italic" font-weight="400" fill="#5f6368" opacity="0.15">NTT西日本 フレッツ光ネクスト + OCN 1G</text><text x="978.6" y="288.0" text-anchor="middle" font-size="12" font-style="italic" font-weight="400" fill="#5f6368" opacity="0.15">(Gi0/0/1)</text><polyline points="821.6,122.0 821.6,176.0 665.5,176.0 665.5,410.0" fill="none" stroke="#7b1fa2" stroke-width="2.0" opacity="0.15" stroke-dasharray="7 4"></polyline><rect x="585.2" y="258.0" width="160.5" height="24.0" rx="4" fill="#ffffff" fill-opacity="0.92" opacity="0.15"/><text x="665.5" y="271.0" text-anchor="middle" font-size="12" font-style="italic" font-weight="400" fill="#5f6368" opacity="0.15">IPsec バックアップVPN</text><polyline points="887.1,122.0 887.1,176.0 1024.5,176.0 1024.5,410.0" fill="none" stroke="#7b1fa2" stroke-width="2.0" opacity="0.15" stroke-dasharray="7 4"></polyline><rect x="944.2" y="294.0" width="160.5" height="24.0" rx="4" fill="#ffffff" fill-opacity="0.92" opacity="0.15"/><text x="1024.5" y="307.0" text-anchor="middle" font-size="12" font-style="italic" font-weight="400" fill="#5f6368" opacity="0.15">IPsec バックアップVPN</text><polyline points="1044.6,122.0 1044.6,194.0 414.0,194.0 414.0,410.0" fill="none" stroke="#188038" stroke-width="2.0" opacity="0.15" stroke-dasharray="3 3"></polyline><rect x="396.4" y="258.0" width="35.2" height="24.0" rx="4" fill="#ffffff" fill-opacity="0.92" opacity="0.15"/><text x="414.0" y="271.0" text-anchor="middle" font-size="12" font-style="italic" font-weight="400" fill="#5f6368" opacity="0.15">BGP</text><polyline points="1109.4,122.0 1109.4,140.0 1116.3,140.0 1116.3,410.0" fill="none" stroke="#188038" stroke-width="2.0" opacity="0.15" stroke-dasharray="3 3"></polyline><rect x="1098.7" y="222.0" width="35.2" height="24.0" rx="4" fill="#ffffff" fill-opacity="0.92" opacity="0.15"/><text x="1116.3" y="235.0" text-anchor="middle" font-size="12" font-style="italic" font-weight="400" fill="#5f6368" opacity="0.15">BGP</text><polyline points="1141.8,122.0 1141.8,140.0 1400.7,140.0 1400.7,354.0" fill="none" stroke="#188038" stroke-width="2.0" opacity="0.15" stroke-dasharray="3 3"></polyline><rect x="1383.1" y="222.0" width="35.2" height="24.0" rx="4" fill="#ffffff" fill-opacity="0.92" opacity="0.15"/><text x="1400.7" y="235.0" text-anchor="middle" font-size="12" font-style="italic" font-weight="400" fill="#5f6368" opacity="0.15">BGP</text><polyline points="377.1,488.0 377.1,526.0 345.6,526.0 345.6,566.0" fill="none" stroke="#c5221f" stroke-width="4.0" opacity="1.0" stroke-dasharray="10 6" marker-end="url(#arrow-c5221f)"><animate attributeName="stroke-dashoffset" from="32" to="0" dur="1.2s" repeatCount="indefinite"/></polyline><text x="381.1" y="501.0" font-size="10.5" font-style="italic" fill="#5f6368" opacity="1.0">Gi0/0/1</text><text x="349.6" y="561.0" font-size="10.5" font-style="italic" fill="#5f6368" opacity="1.0">Gi1/0/1</text><rect x="290.7" y="515.0" width="141.4" height="22.0" rx="4" fill="#ffffff" fill-opacity="0.92" opacity="1.0"/><text x="361.3" y="528.0" text-anchor="middle" font-size="12" font-style="italic" font-weight="600" fill="#c5221f" opacity="1.0">① HSRP active側GW</text><polyline points="1009.2,520.0 1009.2,542.0 937.8,542.0 937.8,582.0" fill="none" stroke="#c5221f" stroke-width="4.0" opacity="1.0" stroke-dasharray="10 6" marker-end="url(#arrow-c5221f)"><animate attributeName="stroke-dashoffset" from="32" to="0" dur="1.2s" repeatCount="indefinite"/></polyline><text x="1013.2" y="533.0" font-size="10.5" font-style="italic" fill="#5f6368" opacity="1.0">Gi0/1/0</text><text x="941.8" y="577.0" font-size="10.5" font-style="italic" fill="#5f6368" opacity="1.0">Gi1/0/1</text><rect x="963.6" y="531.0" width="19.8" height="22.0" rx="4" fill="#ffffff" fill-opacity="0.92" opacity="1.0"/><text x="973.5" y="544.0" text-anchor="middle" font-size="12" font-style="italic" font-weight="600" fill="#c5221f" opacity="1.0">④</text><polyline points="1012.2,122.0 1012.2,140.0 340.2,140.0 340.2,410.0" fill="none" stroke="#c5221f" stroke-width="4.0" opacity="1.0" stroke-dasharray="10 6" marker-end="url(#arrow-c5221f)"><animate attributeName="stroke-dashoffset" from="32" to="0" dur="1.2s" repeatCount="indefinite"/></polyline><rect x="268.0" y="222.0" width="144.4" height="24.0" rx="4" fill="#ffffff" fill-opacity="0.92" opacity="1.0"/><text x="340.2" y="235.0" text-anchor="middle" font-size="12" font-style="italic" font-weight="600" fill="#c5221f" opacity="1.0">② BGP IP-VPN網経由</text><polyline points="1077.0,122.0 1077.0,140.0 1070.4,140.0 1070.4,410.0" fill="none" stroke="#c5221f" stroke-width="4.0" opacity="1.0" stroke-dasharray="10 6" marker-end="url(#arrow-c5221f)"><animate attributeName="stroke-dashoffset" from="32" to="0" dur="1.2s" repeatCount="indefinite"/></polyline><rect x="1060.5" y="222.0" width="19.8" height="24.0" rx="4" fill="#ffffff" fill-opacity="0.92" opacity="1.0"/><text x="1070.4" y="235.0" text-anchor="middle" font-size="12" font-style="italic" font-weight="600" fill="#c5221f" opacity="1.0">③</text><ellipse cx="838.0" cy="84.0" rx="81.8" ry="38.0" fill="#f1f3f4" stroke="#5f6368" stroke-width="1.6" opacity="0.3"/><text x="838.0" y="84.0" text-anchor="middle" dominant-baseline="central" font-size="12.5" font-weight="600" fill="#1e293b" opacity="0.3">インターネット</text><ellipse cx="1077.0" cy="84.0" rx="97.2" ry="38.0" fill="#f1f3f4" stroke="#5f6368" stroke-width="1.6"/><text x="1077.0" y="84.0" text-anchor="middle" dominant-baseline="central" font-size="12.5" font-weight="600" fill="#1e293b">NTT Com IP-VPN網</text><rect x="266.4" y="410.0" width="221.4" height="78.0" rx="4" fill="#e8f0fe" stroke="#1a56b0" stroke-width="1.4"/><text x="377.1" y="425.0" text-anchor="middle" dominant-baseline="central" font-size="12.5" font-weight="600" fill="#1e293b">hq-rt01</text><text x="377.1" y="441.0" text-anchor="middle" dominant-baseline="central" font-size="12.5" font-weight="400" fill="#1e293b">Cisco ISR4331</text><text x="377.1" y="457.0" text-anchor="middle" dominant-baseline="central" font-size="12.5" font-weight="400" fill="#1e293b">Gi0/0/0: 172.16.255.1/30</text><text x="377.1" y="473.0" text-anchor="middle" dominant-baseline="central" font-size="12.5" font-weight="400" fill="#1e293b">Gi0/0/1: 10.1.0.2/24</text><rect x="282.5" y="566.0" width="189.2" height="78.0" rx="4" fill="#d2e3fc" stroke="#1a56b0" stroke-width="1.4"/><text x="377.1" y="581.0" text-anchor="middle" dominant-baseline="central" font-size="12.5" font-weight="600" fill="#1e293b">hq-sw01</text><text x="377.1" y="597.0" text-anchor="middle" dominant-baseline="central" font-size="12.5" font-weight="400" fill="#1e293b">Cisco Catalyst 9300</text><text x="377.1" y="613.0" text-anchor="middle" dominant-baseline="central" font-size="12.5" font-weight="400" fill="#1e293b">Vlan10: 10.1.10.1/24</text><text x="377.1" y="629.0" text-anchor="middle" dominant-baseline="central" font-size="12.5" font-weight="400" fill="#1e293b">Vlan20: 10.1.20.1/24</text><rect x="517.8" y="410.0" width="221.4" height="94.0" rx="4" fill="#e8f0fe" stroke="#1a56b0" stroke-width="1.4" opacity="0.3"/><text x="628.6" y="425.0" text-anchor="middle" dominant-baseline="central" font-size="12.5" font-weight="600" fill="#1e293b" opacity="0.3">hq-rt02</text><text x="628.6" y="441.0" text-anchor="middle" dominant-baseline="central" font-size="12.5" font-weight="400" fill="#1e293b" opacity="0.3">Cisco ISR4331</text><text x="628.6" y="457.0" text-anchor="middle" dominant-baseline="central" font-size="12.5" font-weight="400" fill="#1e293b" opacity="0.3">Gi0/0/0: 203.0.113.10/29</text><text x="628.6" y="473.0" text-anchor="middle" dominant-baseline="central" font-size="12.5" font-weight="400" fill="#1e293b" opacity="0.3">Gi0/0/1: 10.1.0.3/24</text><text x="628.6" y="489.0" text-anchor="middle" dominant-baseline="central" font-size="12.5" font-weight="400" fill="#1e293b" opacity="0.3">Tunnel0: 172.31.0.1/30</text><rect x="66.0" y="706.0" width="173.1" height="62.0" rx="4" fill="#f1f3f4" stroke="#5f6368" stroke-width="1.4" opacity="0.3"/><text x="152.5" y="721.0" text-anchor="middle" dominant-baseline="central" font-size="12.5" font-weight="600" fill="#1e293b" opacity="0.3">hq-srv01</text><text x="152.5" y="737.0" text-anchor="middle" dominant-baseline="central" font-size="12.5" font-weight="400" fill="#1e293b" opacity="0.3">PowerEdge R760</text><text x="152.5" y="753.0" text-anchor="middle" dominant-baseline="central" font-size="12.5" font-weight="400" fill="#1e293b" opacity="0.3">eno1: 10.1.10.5/24</text><rect x="269.1" y="706.0" width="205.3" height="46.0" rx="4" fill="#e2f5f0" stroke="#0f766e" stroke-width="1.4" opacity="0.3"/><text x="371.7" y="721.0" text-anchor="middle" dominant-baseline="central" font-size="12.5" font-weight="600" fill="#1e293b" opacity="0.3">本社サーバ</text><text x="371.7" y="737.0" text-anchor="middle" dominant-baseline="central" font-size="12.5" font-weight="400" fill="#1e293b" opacity="0.3">VLAN 10 / 10.1.10.0/24</text><rect x="504.4" y="706.0" width="205.3" height="46.0" rx="4" fill="#e2f5f0" stroke="#0f766e" stroke-width="1.4" opacity="0.3"/><text x="607.1" y="721.0" text-anchor="middle" dominant-baseline="central" font-size="12.5" font-weight="600" fill="#1e293b" opacity="0.3">本社クライアント</text><text x="607.1" y="737.0" text-anchor="middle" dominant-baseline="central" font-size="12.5" font-weight="400" fill="#1e293b" opacity="0.3">VLAN 20 / 10.1.20.0/24</text><rect x="932.7" y="410.0" width="229.5" height="110.0" rx="4" fill="#e8f0fe" stroke="#1a56b0" stroke-width="1.4"/><text x="1047.4" y="425.0" text-anchor="middle" dominant-baseline="central" font-size="12.5" font-weight="600" fill="#1e293b">osk-rt01</text><text x="1047.4" y="441.0" text-anchor="middle" dominant-baseline="central" font-size="12.5" font-weight="400" fill="#1e293b">Cisco ISR1100</text><text x="1047.4" y="457.0" text-anchor="middle" dominant-baseline="central" font-size="12.5" font-weight="400" fill="#1e293b">Gi0/0/0: 172.16.255.5/30</text><text x="1047.4" y="473.0" text-anchor="middle" dominant-baseline="central" font-size="12.5" font-weight="400" fill="#1e293b">Gi0/0/1: 198.51.100.10/30</text><text x="1047.4" y="489.0" text-anchor="middle" dominant-baseline="central" font-size="12.5" font-weight="400" fill="#1e293b">Gi0/1/0: 10.2.10.1/24</text><text x="1047.4" y="505.0" text-anchor="middle" dominant-baseline="central" font-size="12.5" font-weight="400" fill="#1e293b">Tunnel0: 172.31.0.2/30</text><rect x="847.3" y="582.0" width="181.1" height="46.0" rx="4" fill="#e6f4ea" stroke="#137333" stroke-width="1.4"/><text x="937.8" y="597.0" text-anchor="middle" dominant-baseline="central" font-size="12.5" font-weight="600" fill="#1e293b">osk-sw01</text><text x="937.8" y="613.0" text-anchor="middle" dominant-baseline="central" font-size="12.5" font-weight="400" fill="#1e293b">Cisco Catalyst 1000</text><rect x="1058.4" y="582.0" width="197.3" height="46.0" rx="4" fill="#e2f5f0" stroke="#0f766e" stroke-width="1.4" opacity="0.3"/><text x="1157.0" y="597.0" text-anchor="middle" dominant-baseline="central" font-size="12.5" font-weight="600" fill="#1e293b" opacity="0.3">大阪LAN</text><text x="1157.0" y="613.0" text-anchor="middle" dominant-baseline="central" font-size="12.5" font-weight="400" fill="#1e293b" opacity="0.3">VLAN 1 / 10.2.10.0/24</text><rect x="1337.7" y="354.0" width="126.0" height="46.0" rx="4" fill="#ffffff" stroke="#9aa0a6" stroke-width="1.4" stroke-dasharray="4 3" opacity="0.3"/><text x="1400.7" y="369.0" text-anchor="middle" dominant-baseline="central" font-size="12.5" font-weight="600" fill="#1e293b" opacity="0.3">ngy-rt01</text><text x="1400.7" y="385.0" text-anchor="middle" dominant-baseline="central" font-size="12.5" font-weight="400" fill="#1e293b" opacity="0.3">(名古屋営業所)</text></svg>