<svg xmlns="http://www.w3.org/2000/svg" width="1413" height="818" viewBox="0 0 1413 818" font-family="'Segoe UI','Hiragino Sans','Noto Sans JP',Meiryo,sans-serif"><defs><marker id="arrow-c5221f" viewBox="0 0 10 10" refX="9" refY="5" markerWidth="7" markerHeight="7" orient="auto-start-reverse"><path d="M 0 0 L 10 5 L 0 10 z" fill="#c5221f"/></marker></defs><rect width="100%" height="100%" fill="#ffffff"/><text x="24" y="30" font-size="19" font-weight="700" fill="#1e293b">通信経路 本社→大阪 (IP-VPN障害時)</text><rect x="40.0" y="354.0" width="634.5" height="424.0" rx="6" fill="#f7f9fc" stroke="#8fa8c4"/><text x="44.0" y="346.0" font-size="14.5" font-weight="600" fill="#33475b">本社</text><rect x="730.5" y="354.0" width="460.4" height="300.0" rx="6" fill="#f7f9fc" stroke="#8fa8c4"/><text x="734.5" y="346.0" font-size="14.5" font-weight="600" fill="#33475b">大阪支店</text><polyline points="286.3,488.0 286.3,526.0 254.8,526.0 254.8,566.0" fill="none" stroke="#9aa0a6" stroke-width="2.0" opacity="0.55" stroke-dasharray="5 5"></polyline><text x="290.3" y="501.0" font-size="10.5" font-style="italic" fill="#5f6368" opacity="0.55">Gi0/0/1</text><text x="258.8" y="561.0" font-size="10.5" font-style="italic" fill="#5f6368" opacity="0.55">Gi1/0/1</text><polyline points="254.8,644.0 254.8,666.0 168.7,666.0 168.7,706.0" fill="none" stroke="#0f766e" stroke-width="1.5" opacity="0.15"></polyline><text x="258.8" y="657.0" font-size="10.5" font-style="italic" fill="#5f6368" opacity="0.15">Vlan10</text><polyline points="317.9,644.0 317.9,666.0 404.0,666.0 404.0,706.0" fill="none" stroke="#0f766e" stroke-width="1.5" opacity="0.15"></polyline><text x="321.9" y="657.0" font-size="10.5" font-style="italic" fill="#5f6368" opacity="0.15">Vlan20</text><polyline points="994.9,520.0 994.9,542.0 1066.3,542.0 1066.3,582.0" fill="none" stroke="#0f766e" stroke-width="1.5" opacity="0.15"></polyline><text x="998.9" y="533.0" font-size="10.5" font-style="italic" fill="#5f6368" opacity="0.15">Gi0/1/0</text><polyline points="921.4,122.0 921.4,140.0 249.4,140.0 249.4,410.0" fill="none" stroke="#c5221f" stroke-width="3.5" opacity="0.55" stroke-dasharray="5 4"></polyline><rect x="119.7" y="222.0" width="259.5" height="42.0" rx="4" fill="#ffffff" fill-opacity="0.92" opacity="0.55"/><text x="249.4" y="235.0" text-anchor="middle" font-size="12" font-style="italic" font-weight="400" fill="#5f6368" opacity="0.55">NTTコミュニケーションズ IP-VPN 100M</text><text x="249.4" y="252.0" text-anchor="middle" font-size="12" font-style="italic" font-weight="400" fill="#5f6368" opacity="0.55">(Gi0/0/0)</text><polyline points="986.2,122.0 986.2,140.0 979.6,140.0 979.6,410.0" fill="none" stroke="#c5221f" stroke-width="3.5" opacity="0.55" stroke-dasharray="5 4"></polyline><rect x="853.7" y="222.0" width="251.8" height="42.0" rx="4" fill="#ffffff" fill-opacity="0.92" opacity="0.55"/><text x="979.6" y="235.0" text-anchor="middle" font-size="12" font-style="italic" font-weight="400" fill="#5f6368" opacity="0.55">NTTコミュニケーションズ IP-VPN 50M</text><text x="979.6" y="252.0" text-anchor="middle" font-size="12" font-style="italic" font-weight="400" fill="#5f6368" opacity="0.55">(Gi0/0/0)</text><polyline points="730.9,122.0 730.9,176.0 574.7,176.0 574.7,410.0" fill="none" stroke="#7b1fa2" stroke-width="2.0" opacity="0.15" stroke-dasharray="7 4"></polyline><rect x="494.4" y="258.0" width="160.5" height="24.0" rx="4" fill="#ffffff" fill-opacity="0.92" opacity="0.15"/><text x="574.7" y="271.0" text-anchor="middle" font-size="12" font-style="italic" font-weight="400" fill="#5f6368" opacity="0.15">IPsec バックアップVPN</text><polyline points="796.3,122.0 796.3,176.0 933.7,176.0 933.7,410.0" fill="none" stroke="#7b1fa2" stroke-width="2.0" opacity="0.15" stroke-dasharray="7 4"></polyline><rect x="853.5" y="294.0" width="160.5" height="24.0" rx="4" fill="#ffffff" fill-opacity="0.92" opacity="0.15"/><text x="933.7" y="307.0" text-anchor="middle" font-size="12" font-style="italic" font-weight="400" fill="#5f6368" opacity="0.15">IPsec バックアップVPN</text><polyline points="953.8,122.0 953.8,194.0 323.2,194.0 323.2,410.0" fill="none" stroke="#c5221f" stroke-width="2.0" opacity="0.55" stroke-dasharray="5 4"></polyline><rect x="305.6" y="258.0" width="35.2" height="24.0" rx="4" fill="#ffffff" fill-opacity="0.92" opacity="0.55"/><text x="323.2" y="271.0" text-anchor="middle" font-size="12" font-style="italic" font-weight="400" fill="#5f6368" opacity="0.55">BGP</text><polyline points="1018.6,122.0 1018.6,140.0 1025.5,140.0 1025.5,410.0" fill="none" stroke="#c5221f" stroke-width="2.0" opacity="0.55" stroke-dasharray="5 4"></polyline><rect x="1007.9" y="258.0" width="35.2" height="24.0" rx="4" fill="#ffffff" fill-opacity="0.92" opacity="0.55"/><text x="1025.5" y="271.0" text-anchor="middle" font-size="12" font-style="italic" font-weight="400" fill="#5f6368" opacity="0.55">BGP</text><polyline points="1051.1,122.0 1051.1,140.0 1309.9,140.0 1309.9,354.0" fill="none" stroke="#c5221f" stroke-width="2.0" opacity="0.55" stroke-dasharray="5 4"></polyline><rect x="1292.3" y="222.0" width="35.2" height="24.0" rx="4" fill="#ffffff" fill-opacity="0.92" opacity="0.55"/><text x="1309.9" y="235.0" text-anchor="middle" font-size="12" font-style="italic" font-weight="400" fill="#5f6368" opacity="0.55">BGP</text><polyline points="537.8,504.0 537.8,526.0 317.9,526.0 317.9,566.0" fill="none" stroke="#c5221f" stroke-width="4.0" opacity="1.0" stroke-dasharray="10 6" marker-end="url(#arrow-c5221f)"><animate attributeName="stroke-dashoffset" from="32" to="0" dur="1.2s" repeatCount="indefinite"/></polyline><text x="541.8" y="517.0" font-size="10.5" font-style="italic" fill="#5f6368" opacity="1.0">Gi0/0/1</text><text x="321.9" y="561.0" font-size="10.5" font-style="italic" fill="#5f6368" opacity="1.0">Gi1/0/2</text><rect x="324.6" y="515.0" width="206.4" height="22.0" rx="4" fill="#ffffff" fill-opacity="0.92" opacity="1.0"/><text x="427.8" y="528.0" text-anchor="middle" font-size="12" font-style="italic" font-weight="600" fill="#c5221f" opacity="1.0">① HSRP standbyがactive昇格</text><polyline points="918.4,520.0 918.4,542.0 847.1,542.0 847.1,582.0" fill="none" stroke="#c5221f" stroke-width="4.0" opacity="1.0" stroke-dasharray="10 6" marker-end="url(#arrow-c5221f)"><animate attributeName="stroke-dashoffset" from="32" to="0" dur="1.2s" repeatCount="indefinite"/></polyline><text x="922.4" y="533.0" font-size="10.5" font-style="italic" fill="#5f6368" opacity="1.0">Gi0/1/0</text><text x="851.1" y="577.0" font-size="10.5" font-style="italic" fill="#5f6368" opacity="1.0">Gi1/0/1</text><rect x="872.9" y="531.0" width="19.8" height="22.0" rx="4" fill="#ffffff" fill-opacity="0.92" opacity="1.0"/><text x="882.7" y="544.0" text-anchor="middle" font-size="12" font-style="italic" font-weight="600" fill="#c5221f" opacity="1.0">④</text><polyline points="698.1,122.0 698.1,158.0 500.9,158.0 500.9,410.0" fill="none" stroke="#c5221f" stroke-width="4.0" opacity="1.0" stroke-dasharray="10 6" marker-end="url(#arrow-c5221f)"><animate attributeName="stroke-dashoffset" from="32" to="0" dur="1.2s" repeatCount="indefinite"/></polyline><rect x="398.2" y="222.0" width="205.2" height="24.0" rx="4" fill="#ffffff" fill-opacity="0.92" opacity="1.0"/><text x="500.9" y="235.0" text-anchor="middle" font-size="12" font-style="italic" font-weight="600" fill="#c5221f" opacity="1.0">② IPsec インターネット網経由</text><polyline points="763.6,122.0 763.6,158.0 887.8,158.0 887.8,410.0" fill="none" stroke="#c5221f" stroke-width="4.0" opacity="1.0" stroke-dasharray="10 6" marker-end="url(#arrow-c5221f)"><animate attributeName="stroke-dashoffset" from="32" to="0" dur="1.2s" repeatCount="indefinite"/></polyline><rect x="780.1" y="258.0" width="215.4" height="24.0" rx="4" fill="#ffffff" fill-opacity="0.92" opacity="1.0"/><text x="887.8" y="271.0" text-anchor="middle" font-size="12" font-style="italic" font-weight="600" fill="#c5221f" opacity="1.0">③ BGP IPsecトンネルへ経路切替</text><ellipse cx="747.2" cy="84.0" rx="81.8" ry="38.0" fill="#f1f3f4" stroke="#5f6368" stroke-width="1.6"/><text x="747.2" y="84.0" text-anchor="middle" dominant-baseline="central" font-size="12.5" font-weight="600" fill="#1e293b">インターネット</text><ellipse cx="986.2" cy="84.0" rx="97.2" ry="38.0" fill="#fce8e6" stroke="#c5221f" stroke-width="3"/><text x="986.2" y="76.0" text-anchor="middle" dominant-baseline="central" font-size="12.5" font-weight="600" fill="#1e293b">✕障害</text><text x="986.2" y="92.0" text-anchor="middle" dominant-baseline="central" font-size="12.5" font-weight="400" fill="#1e293b">NTT Com IP-VPN網</text><rect x="175.6" y="410.0" width="221.4" height="78.0" rx="4" fill="#e8f0fe" stroke="#1a56b0" stroke-width="1.4"/><text x="286.3" y="425.0" text-anchor="middle" dominant-baseline="central" font-size="12.5" font-weight="600" fill="#1e293b">hq-rt01</text><text x="286.3" y="441.0" text-anchor="middle" dominant-baseline="central" font-size="12.5" font-weight="400" fill="#1e293b">Cisco ISR4331</text><text x="286.3" y="457.0" text-anchor="middle" dominant-baseline="central" font-size="12.5" font-weight="400" fill="#1e293b">Gi0/0/0: 172.16.255.1/30</text><text x="286.3" y="473.0" text-anchor="middle" dominant-baseline="central" font-size="12.5" font-weight="400" fill="#1e293b">Gi0/0/1: 10.1.0.2/24</text><rect x="191.7" y="566.0" width="189.2" height="78.0" rx="4" fill="#d2e3fc" stroke="#1a56b0" stroke-width="1.4"/><text x="286.3" y="581.0" text-anchor="middle" dominant-baseline="central" font-size="12.5" font-weight="600" fill="#1e293b">hq-sw01</text><text x="286.3" y="597.0" text-anchor="middle" dominant-baseline="central" font-size="12.5" font-weight="400" fill="#1e293b">Cisco Catalyst 9300</text><text x="286.3" y="613.0" text-anchor="middle" dominant-baseline="central" font-size="12.5" font-weight="400" fill="#1e293b">Vlan10: 10.1.10.1/24</text><text x="286.3" y="629.0" text-anchor="middle" dominant-baseline="central" font-size="12.5" font-weight="400" fill="#1e293b">Vlan20: 10.1.20.1/24</text><rect x="427.0" y="410.0" width="221.4" height="94.0" rx="4" fill="#e8f0fe" stroke="#1a56b0" stroke-width="1.4"/><text x="537.8" y="425.0" text-anchor="middle" dominant-baseline="central" font-size="12.5" font-weight="600" fill="#1e293b">hq-rt02</text><text x="537.8" y="441.0" text-anchor="middle" dominant-baseline="central" font-size="12.5" font-weight="400" fill="#1e293b">Cisco ISR4331</text><text x="537.8" y="457.0" text-anchor="middle" dominant-baseline="central" font-size="12.5" font-weight="400" fill="#1e293b">Gi0/0/0: 203.0.113.10/29</text><text x="537.8" y="473.0" text-anchor="middle" dominant-baseline="central" font-size="12.5" font-weight="400" fill="#1e293b">Gi0/0/1: 10.1.0.3/24</text><text x="537.8" y="489.0" text-anchor="middle" dominant-baseline="central" font-size="12.5" font-weight="400" fill="#1e293b">Tunnel0: 172.31.0.1/30</text><rect x="66.0" y="706.0" width="205.3" height="46.0" rx="4" fill="#e2f5f0" stroke="#0f766e" stroke-width="1.4" opacity="0.3"/><text x="168.7" y="721.0" text-anchor="middle" dominant-baseline="central" font-size="12.5" font-weight="600" fill="#1e293b" opacity="0.3">本社サーバ</text><text x="168.7" y="737.0" text-anchor="middle" dominant-baseline="central" font-size="12.5" font-weight="400" fill="#1e293b" opacity="0.3">VLAN 10 / 10.1.10.0/24</text><rect x="301.3" y="706.0" width="205.3" height="46.0" rx="4" fill="#e2f5f0" stroke="#0f766e" stroke-width="1.4" opacity="0.3"/><text x="404.0" y="721.0" text-anchor="middle" dominant-baseline="central" font-size="12.5" font-weight="600" fill="#1e293b" opacity="0.3">本社クライアント</text><text x="404.0" y="737.0" text-anchor="middle" dominant-baseline="central" font-size="12.5" font-weight="400" fill="#1e293b" opacity="0.3">VLAN 20 / 10.1.20.0/24</text><rect x="841.9" y="410.0" width="229.5" height="110.0" rx="4" fill="#e8f0fe" stroke="#1a56b0" stroke-width="1.4"/><text x="956.7" y="425.0" text-anchor="middle" dominant-baseline="central" font-size="12.5" font-weight="600" fill="#1e293b">osk-rt01</text><text x="956.7" y="441.0" text-anchor="middle" dominant-baseline="central" font-size="12.5" font-weight="400" fill="#1e293b">Cisco ISR1100</text><text x="956.7" y="457.0" text-anchor="middle" dominant-baseline="central" font-size="12.5" font-weight="400" fill="#1e293b">Gi0/0/0: 172.16.255.5/30</text><text x="956.7" y="473.0" text-anchor="middle" dominant-baseline="central" font-size="12.5" font-weight="400" fill="#1e293b">Gi0/0/1: 198.51.100.10/30</text><text x="956.7" y="489.0" text-anchor="middle" dominant-baseline="central" font-size="12.5" font-weight="400" fill="#1e293b">Gi0/1/0: 10.2.10.1/24</text><text x="956.7" y="505.0" text-anchor="middle" dominant-baseline="central" font-size="12.5" font-weight="400" fill="#1e293b">Tunnel0: 172.31.0.2/30</text><rect x="756.5" y="582.0" width="181.1" height="46.0" rx="4" fill="#e6f4ea" stroke="#137333" stroke-width="1.4"/><text x="847.1" y="597.0" text-anchor="middle" dominant-baseline="central" font-size="12.5" font-weight="600" fill="#1e293b">osk-sw01</text><text x="847.1" y="613.0" text-anchor="middle" dominant-baseline="central" font-size="12.5" font-weight="400" fill="#1e293b">Cisco Catalyst 1000</text><rect x="967.6" y="582.0" width="197.3" height="46.0" rx="4" fill="#e2f5f0" stroke="#0f766e" stroke-width="1.4" opacity="0.3"/><text x="1066.3" y="597.0" text-anchor="middle" dominant-baseline="central" font-size="12.5" font-weight="600" fill="#1e293b" opacity="0.3">大阪LAN</text><text x="1066.3" y="613.0" text-anchor="middle" dominant-baseline="central" font-size="12.5" font-weight="400" fill="#1e293b" opacity="0.3">VLAN 1 / 10.2.10.0/24</text><rect x="1246.9" y="354.0" width="126.0" height="46.0" rx="4" fill="#ffffff" stroke="#9aa0a6" stroke-width="1.4" stroke-dasharray="4 3" opacity="0.3"/><text x="1309.9" y="369.0" text-anchor="middle" dominant-baseline="central" font-size="12.5" font-weight="600" fill="#1e293b" opacity="0.3">ngy-rt01</text><text x="1309.9" y="385.0" text-anchor="middle" dominant-baseline="central" font-size="12.5" font-weight="400" fill="#1e293b" opacity="0.3">(名古屋営業所)</text></svg>