<svg xmlns="http://www.w3.org/2000/svg" width="1880" height="850" viewBox="0 0 1880 850" font-family="'Segoe UI','Hiragino Sans','Noto Sans JP',Meiryo,sans-serif"><defs><marker id="arrow-c5221f" viewBox="0 0 10 10" refX="9" refY="5" markerWidth="7" markerHeight="7" orient="auto-start-reverse"><path d="M 0 0 L 10 5 L 0 10 z" fill="#c5221f"/></marker></defs><rect width="100%" height="100%" fill="#ffffff"/><text x="24" y="30" font-size="19" font-weight="700" fill="#1e293b">通信経路 本社→大阪 (正常時)</text><rect x="40.0" y="354.0" width="1101.9" height="456.0" rx="6" fill="#f7f9fc" stroke="#8fa8c4"/><text x="44.0" y="346.0" font-size="14.5" font-weight="600" fill="#33475b">本社</text><rect x="1197.9" y="354.0" width="460.4" height="300.0" rx="6" fill="#f7f9fc" stroke="#8fa8c4"/><text x="1201.9" y="346.0" font-size="14.5" font-weight="600" fill="#33475b">大阪支店</text><polyline points="823.0,504.0 823.0,526.0 614.9,526.0 614.9,566.0" fill="none" stroke="#4a4a4a" stroke-width="2.0" opacity="0.15"></polyline><text x="827.0" y="517.0" font-size="10.5" font-style="italic" fill="#5f6368" opacity="0.15">Gi0/0/1</text><text x="618.9" y="561.0" font-size="10.5" font-style="italic" fill="#5f6368" opacity="0.15">Gi1/0/2</text><polyline points="484.9,644.0 484.9,666.0 152.5,666.0 152.5,722.0" fill="none" stroke="#4a4a4a" stroke-width="2.0" opacity="0.15"></polyline><text x="488.9" y="657.0" font-size="10.5" font-style="italic" fill="#5f6368" opacity="0.15">Gi1/0/3</text><text x="156.5" y="717.0" font-size="10.5" font-style="italic" fill="#5f6368" opacity="0.15">eno1</text><polyline points="528.3,644.0 528.3,682.0 355.6,682.0 355.6,722.0" fill="none" stroke="#4a4a4a" stroke-width="2.0" opacity="0.15"></polyline><text x="532.3" y="657.0" font-size="10.5" font-style="italic" fill="#5f6368" opacity="0.15">Gi1/0/4</text><text x="359.6" y="717.0" font-size="10.5" font-style="italic" fill="#5f6368" opacity="0.15">eno1</text><polyline points="571.6,644.0 571.6,666.0 558.7,666.0 558.7,722.0" fill="none" stroke="#4a4a4a" stroke-width="2.0" opacity="0.15"></polyline><text x="575.6" y="657.0" font-size="10.5" font-style="italic" fill="#5f6368" opacity="0.15">Gi1/0/5</text><text x="562.7" y="717.0" font-size="10.5" font-style="italic" fill="#5f6368" opacity="0.15">eno1</text><polyline points="614.9,644.0 614.9,666.0 777.9,666.0 777.9,722.0" fill="none" stroke="#0f766e" stroke-width="1.5" opacity="0.15"></polyline><text x="618.9" y="657.0" font-size="10.5" font-style="italic" fill="#5f6368" opacity="0.15">Vlan10</text><polyline points="658.3,644.0 658.3,682.0 1013.2,682.0 1013.2,722.0" fill="none" stroke="#0f766e" stroke-width="1.5" opacity="0.15"></polyline><text x="662.3" y="657.0" font-size="10.5" font-style="italic" fill="#5f6368" opacity="0.15">Vlan20</text><polyline points="1462.3,520.0 1462.3,542.0 1533.6,542.0 1533.6,582.0" fill="none" stroke="#0f766e" stroke-width="1.5" opacity="0.15"></polyline><text x="1466.3" y="533.0" font-size="10.5" font-style="italic" fill="#5f6368" opacity="0.15">Gi0/1/0</text><polyline points="1074.5,122.0 1074.5,158.0 786.1,158.0 786.1,410.0" fill="none" stroke="#1a73e8" stroke-width="3.5" opacity="0.15"></polyline><rect x="651.0" y="222.0" width="270.2" height="42.0" rx="4" fill="#ffffff" fill-opacity="0.92" opacity="0.15"/><text x="786.1" y="235.0" text-anchor="middle" font-size="12" font-style="italic" font-weight="400" fill="#5f6368" opacity="0.15">NTT東日本 フレッツ光ネクスト + OCN 1G</text><text x="786.1" y="252.0" text-anchor="middle" font-size="12" font-style="italic" font-weight="400" fill="#5f6368" opacity="0.15">(Gi0/0/0)</text><polyline points="1139.9,122.0 1139.9,158.0 1355.2,158.0 1355.2,410.0" fill="none" stroke="#1a73e8" stroke-width="3.5" opacity="0.15"></polyline><rect x="1220.1" y="258.0" width="270.2" height="42.0" rx="4" fill="#ffffff" fill-opacity="0.92" opacity="0.15"/><text x="1355.2" y="271.0" text-anchor="middle" font-size="12" font-style="italic" font-weight="400" fill="#5f6368" opacity="0.15">NTT西日本 フレッツ光ネクスト + OCN 1G</text><text x="1355.2" y="288.0" text-anchor="middle" font-size="12" font-style="italic" font-weight="400" fill="#5f6368" opacity="0.15">(Gi0/0/1)</text><polyline points="1107.2,122.0 1107.2,176.0 859.9,176.0 859.9,410.0" fill="none" stroke="#7b1fa2" stroke-width="2.0" opacity="0.15" stroke-dasharray="7 4"></polyline><rect x="779.7" y="258.0" width="160.5" height="24.0" rx="4" fill="#ffffff" fill-opacity="0.92" opacity="0.15"/><text x="859.9" y="271.0" text-anchor="middle" font-size="12" font-style="italic" font-weight="400" fill="#5f6368" opacity="0.15">IPsec バックアップVPN</text><polyline points="1172.6,122.0 1172.6,176.0 1401.1,176.0 1401.1,410.0" fill="none" stroke="#7b1fa2" stroke-width="2.0" opacity="0.15" stroke-dasharray="7 4"></polyline><rect x="1320.8" y="294.0" width="160.5" height="24.0" rx="4" fill="#ffffff" fill-opacity="0.92" opacity="0.15"/><text x="1401.1" y="307.0" text-anchor="middle" font-size="12" font-style="italic" font-weight="400" fill="#5f6368" opacity="0.15">IPsec バックアップVPN</text><polyline points="1330.1,122.0 1330.1,194.0 608.5,194.0 608.5,410.0" fill="none" stroke="#188038" stroke-width="2.0" opacity="0.15" stroke-dasharray="3 3"></polyline><rect x="590.9" y="258.0" width="35.2" height="24.0" rx="4" fill="#ffffff" fill-opacity="0.92" opacity="0.15"/><text x="608.5" y="271.0" text-anchor="middle" font-size="12" font-style="italic" font-weight="400" fill="#5f6368" opacity="0.15">BGP</text><polyline points="1395.0,122.0 1395.0,158.0 1492.9,158.0 1492.9,410.0" fill="none" stroke="#188038" stroke-width="2.0" opacity="0.15" stroke-dasharray="3 3"></polyline><rect x="1475.3" y="222.0" width="35.2" height="24.0" rx="4" fill="#ffffff" fill-opacity="0.92" opacity="0.15"/><text x="1492.9" y="235.0" text-anchor="middle" font-size="12" font-style="italic" font-weight="400" fill="#5f6368" opacity="0.15">BGP</text><polyline points="1427.4,122.0 1427.4,176.0 1777.3,176.0 1777.3,354.0" fill="none" stroke="#188038" stroke-width="2.0" opacity="0.15" stroke-dasharray="3 3"></polyline><rect x="1759.7" y="222.0" width="35.2" height="24.0" rx="4" fill="#ffffff" fill-opacity="0.92" opacity="0.15"/><text x="1777.3" y="235.0" text-anchor="middle" font-size="12" font-style="italic" font-weight="400" fill="#5f6368" opacity="0.15">BGP</text><polyline points="571.6,488.0 571.6,526.0 528.3,526.0 528.3,566.0" fill="none" stroke="#c5221f" stroke-width="4.0" opacity="1.0" stroke-dasharray="10 6" marker-end="url(#arrow-c5221f)"><animate attributeName="stroke-dashoffset" from="32" to="0" dur="1.2s" repeatCount="indefinite"/></polyline><text x="575.6" y="501.0" font-size="10.5" font-style="italic" fill="#5f6368" opacity="1.0">Gi0/0/1</text><text x="532.3" y="561.0" font-size="10.5" font-style="italic" fill="#5f6368" opacity="1.0">Gi1/0/1</text><rect x="479.2" y="515.0" width="141.4" height="22.0" rx="4" fill="#ffffff" fill-opacity="0.92" opacity="1.0"/><text x="549.9" y="528.0" text-anchor="middle" font-size="12" font-style="italic" font-weight="600" fill="#c5221f" opacity="1.0">① HSRP active側GW</text><polyline points="1385.8,520.0 1385.8,542.0 1314.4,542.0 1314.4,582.0" fill="none" stroke="#c5221f" stroke-width="4.0" opacity="1.0" stroke-dasharray="10 6" marker-end="url(#arrow-c5221f)"><animate attributeName="stroke-dashoffset" from="32" to="0" dur="1.2s" repeatCount="indefinite"/></polyline><text x="1389.8" y="533.0" font-size="10.5" font-style="italic" fill="#5f6368" opacity="1.0">Gi0/1/0</text><text x="1318.4" y="577.0" font-size="10.5" font-style="italic" fill="#5f6368" opacity="1.0">Gi1/0/1</text><rect x="1340.2" y="531.0" width="19.8" height="22.0" rx="4" fill="#ffffff" fill-opacity="0.92" opacity="1.0"/><text x="1350.1" y="544.0" text-anchor="middle" font-size="12" font-style="italic" font-weight="600" fill="#c5221f" opacity="1.0">④</text><polyline points="1297.7,122.0 1297.7,140.0 534.7,140.0 534.7,410.0" fill="none" stroke="#c5221f" stroke-width="4.0" opacity="1.0" stroke-dasharray="10 6" marker-end="url(#arrow-c5221f)"><animate attributeName="stroke-dashoffset" from="32" to="0" dur="1.2s" repeatCount="indefinite"/></polyline><rect x="462.5" y="222.0" width="144.4" height="24.0" rx="4" fill="#ffffff" fill-opacity="0.92" opacity="1.0"/><text x="534.7" y="235.0" text-anchor="middle" font-size="12" font-style="italic" font-weight="600" fill="#c5221f" opacity="1.0">② BGP IP-VPN網経由</text><polyline points="1362.6,122.0 1362.6,140.0 1447.0,140.0 1447.0,410.0" fill="none" stroke="#c5221f" stroke-width="4.0" opacity="1.0" stroke-dasharray="10 6" marker-end="url(#arrow-c5221f)"><animate attributeName="stroke-dashoffset" from="32" to="0" dur="1.2s" repeatCount="indefinite"/></polyline><rect x="1437.1" y="222.0" width="19.8" height="24.0" rx="4" fill="#ffffff" fill-opacity="0.92" opacity="1.0"/><text x="1447.0" y="235.0" text-anchor="middle" font-size="12" font-style="italic" font-weight="600" fill="#c5221f" opacity="1.0">③</text><ellipse cx="1123.5" cy="84.0" rx="81.8" ry="38.0" fill="#f1f3f4" stroke="#5f6368" stroke-width="1.6" opacity="0.3"/><text x="1123.5" y="84.0" text-anchor="middle" dominant-baseline="central" font-size="12.5" font-weight="600" fill="#1e293b" opacity="0.3">インターネット</text><ellipse cx="1362.6" cy="84.0" rx="97.2" ry="38.0" fill="#f1f3f4" stroke="#5f6368" stroke-width="1.6"/><text x="1362.6" y="84.0" text-anchor="middle" dominant-baseline="central" font-size="12.5" font-weight="600" fill="#1e293b">NTT Com IP-VPN網</text><rect x="460.9" y="410.0" width="221.4" height="78.0" rx="4" fill="#e8f0fe" stroke="#1a56b0" stroke-width="1.4"/><text x="571.6" y="425.0" text-anchor="middle" dominant-baseline="central" font-size="12.5" font-weight="600" fill="#1e293b">hq-rt01</text><text x="571.6" y="441.0" text-anchor="middle" dominant-baseline="central" font-size="12.5" font-weight="400" fill="#1e293b">Cisco ISR4331</text><text x="571.6" y="457.0" text-anchor="middle" dominant-baseline="central" font-size="12.5" font-weight="400" fill="#1e293b">Gi0/0/0: 172.16.255.1/30</text><text x="571.6" y="473.0" text-anchor="middle" dominant-baseline="central" font-size="12.5" font-weight="400" fill="#1e293b">Gi0/0/1: 10.1.0.2/24</text><rect x="441.6" y="566.0" width="260.0" height="78.0" rx="4" fill="#d2e3fc" stroke="#1a56b0" stroke-width="1.4"/><text x="571.6" y="581.0" text-anchor="middle" dominant-baseline="central" font-size="12.5" font-weight="600" fill="#1e293b">hq-sw01</text><text x="571.6" y="597.0" text-anchor="middle" dominant-baseline="central" font-size="12.5" font-weight="400" fill="#1e293b">Cisco Catalyst 9300</text><text x="571.6" y="613.0" text-anchor="middle" dominant-baseline="central" font-size="12.5" font-weight="400" fill="#1e293b">Vlan10: 10.1.10.1/24</text><text x="571.6" y="629.0" text-anchor="middle" dominant-baseline="central" font-size="12.5" font-weight="400" fill="#1e293b">Vlan20: 10.1.20.1/24</text><rect x="712.3" y="410.0" width="221.4" height="94.0" rx="4" fill="#e8f0fe" stroke="#1a56b0" stroke-width="1.4" opacity="0.3"/><text x="823.0" y="425.0" text-anchor="middle" dominant-baseline="central" font-size="12.5" font-weight="600" fill="#1e293b" opacity="0.3">hq-rt02</text><text x="823.0" y="441.0" text-anchor="middle" dominant-baseline="central" font-size="12.5" font-weight="400" fill="#1e293b" opacity="0.3">Cisco ISR4331</text><text x="823.0" y="457.0" text-anchor="middle" dominant-baseline="central" font-size="12.5" font-weight="400" fill="#1e293b" opacity="0.3">Gi0/0/0: 203.0.113.10/29</text><text x="823.0" y="473.0" text-anchor="middle" dominant-baseline="central" font-size="12.5" font-weight="400" fill="#1e293b" opacity="0.3">Gi0/0/1: 10.1.0.3/24</text><text x="823.0" y="489.0" text-anchor="middle" dominant-baseline="central" font-size="12.5" font-weight="400" fill="#1e293b" opacity="0.3">Tunnel0: 172.31.0.1/30</text><rect x="66.0" y="722.0" width="173.1" height="62.0" rx="4" fill="#f1f3f4" stroke="#5f6368" stroke-width="1.4" opacity="0.3"/><text x="152.5" y="737.0" text-anchor="middle" dominant-baseline="central" font-size="12.5" font-weight="600" fill="#1e293b" opacity="0.3">hq-srv01</text><text x="152.5" y="753.0" text-anchor="middle" dominant-baseline="central" font-size="12.5" font-weight="400" fill="#1e293b" opacity="0.3">PowerEdge R760</text><text x="152.5" y="769.0" text-anchor="middle" dominant-baseline="central" font-size="12.5" font-weight="400" fill="#1e293b" opacity="0.3">eno1: 10.1.10.5/24</text><rect x="269.1" y="722.0" width="173.1" height="62.0" rx="4" fill="#f1f3f4" stroke="#5f6368" stroke-width="1.4" opacity="0.3"/><text x="355.6" y="737.0" text-anchor="middle" dominant-baseline="central" font-size="12.5" font-weight="600" fill="#1e293b" opacity="0.3">hq-srv02</text><text x="355.6" y="753.0" text-anchor="middle" dominant-baseline="central" font-size="12.5" font-weight="400" fill="#1e293b" opacity="0.3">PowerEdge R760</text><text x="355.6" y="769.0" text-anchor="middle" dominant-baseline="central" font-size="12.5" font-weight="400" fill="#1e293b" opacity="0.3">eno1: 10.1.10.6/24</text><rect x="472.2" y="722.0" width="173.1" height="62.0" rx="4" fill="#f1f3f4" stroke="#5f6368" stroke-width="1.4" opacity="0.3"/><text x="558.7" y="737.0" text-anchor="middle" dominant-baseline="central" font-size="12.5" font-weight="600" fill="#1e293b" opacity="0.3">hq-srv03</text><text x="558.7" y="753.0" text-anchor="middle" dominant-baseline="central" font-size="12.5" font-weight="400" fill="#1e293b" opacity="0.3">PowerEdge R760</text><text x="558.7" y="769.0" text-anchor="middle" dominant-baseline="central" font-size="12.5" font-weight="400" fill="#1e293b" opacity="0.3">eno1: 10.1.10.7/24</text><rect x="675.2" y="722.0" width="205.3" height="46.0" rx="4" fill="#e2f5f0" stroke="#0f766e" stroke-width="1.4" opacity="0.3"/><text x="777.9" y="737.0" text-anchor="middle" dominant-baseline="central" font-size="12.5" font-weight="600" fill="#1e293b" opacity="0.3">本社サーバ</text><text x="777.9" y="753.0" text-anchor="middle" dominant-baseline="central" font-size="12.5" font-weight="400" fill="#1e293b" opacity="0.3">VLAN 10 / 10.1.10.0/24</text><rect x="910.6" y="722.0" width="205.3" height="46.0" rx="4" fill="#e2f5f0" stroke="#0f766e" stroke-width="1.4" opacity="0.3"/><text x="1013.2" y="737.0" text-anchor="middle" dominant-baseline="central" font-size="12.5" font-weight="600" fill="#1e293b" opacity="0.3">本社クライアント</text><text x="1013.2" y="753.0" text-anchor="middle" dominant-baseline="central" font-size="12.5" font-weight="400" fill="#1e293b" opacity="0.3">VLAN 20 / 10.1.20.0/24</text><rect x="1309.3" y="410.0" width="229.5" height="110.0" rx="4" fill="#e8f0fe" stroke="#1a56b0" stroke-width="1.4"/><text x="1424.0" y="425.0" text-anchor="middle" dominant-baseline="central" font-size="12.5" font-weight="600" fill="#1e293b">osk-rt01</text><text x="1424.0" y="441.0" text-anchor="middle" dominant-baseline="central" font-size="12.5" font-weight="400" fill="#1e293b">Cisco ISR1100</text><text x="1424.0" y="457.0" text-anchor="middle" dominant-baseline="central" font-size="12.5" font-weight="400" fill="#1e293b">Gi0/0/0: 172.16.255.5/30</text><text x="1424.0" y="473.0" text-anchor="middle" dominant-baseline="central" font-size="12.5" font-weight="400" fill="#1e293b">Gi0/0/1: 198.51.100.10/30</text><text x="1424.0" y="489.0" text-anchor="middle" dominant-baseline="central" font-size="12.5" font-weight="400" fill="#1e293b">Gi0/1/0: 10.2.10.1/24</text><text x="1424.0" y="505.0" text-anchor="middle" dominant-baseline="central" font-size="12.5" font-weight="400" fill="#1e293b">Tunnel0: 172.31.0.2/30</text><rect x="1223.9" y="582.0" width="181.1" height="46.0" rx="4" fill="#e6f4ea" stroke="#137333" stroke-width="1.4"/><text x="1314.4" y="597.0" text-anchor="middle" dominant-baseline="central" font-size="12.5" font-weight="600" fill="#1e293b">osk-sw01</text><text x="1314.4" y="613.0" text-anchor="middle" dominant-baseline="central" font-size="12.5" font-weight="400" fill="#1e293b">Cisco Catalyst 1000</text><rect x="1435.0" y="582.0" width="197.3" height="46.0" rx="4" fill="#e2f5f0" stroke="#0f766e" stroke-width="1.4" opacity="0.3"/><text x="1533.7" y="597.0" text-anchor="middle" dominant-baseline="central" font-size="12.5" font-weight="600" fill="#1e293b" opacity="0.3">大阪LAN</text><text x="1533.7" y="613.0" text-anchor="middle" dominant-baseline="central" font-size="12.5" font-weight="400" fill="#1e293b" opacity="0.3">VLAN 1 / 10.2.10.0/24</text><rect x="1714.3" y="354.0" width="126.0" height="46.0" rx="4" fill="#ffffff" stroke="#9aa0a6" stroke-width="1.4" stroke-dasharray="4 3" opacity="0.3"/><text x="1777.3" y="369.0" text-anchor="middle" dominant-baseline="central" font-size="12.5" font-weight="600" fill="#1e293b" opacity="0.3">ngy-rt01</text><text x="1777.3" y="385.0" text-anchor="middle" dominant-baseline="central" font-size="12.5" font-weight="400" fill="#1e293b" opacity="0.3">(名古屋営業所)</text></svg>