<svg xmlns="http://www.w3.org/2000/svg" width="1413" height="800" viewBox="0 0 1413 800" font-family="'Segoe UI','Hiragino Sans','Noto Sans JP',Meiryo,sans-serif"><defs><marker id="arrow-c5221f" viewBox="0 0 10 10" refX="9" refY="5" markerWidth="7" markerHeight="7" orient="auto-start-reverse"><path d="M 0 0 L 10 5 L 0 10 z" fill="#c5221f"/></marker></defs><rect width="100%" height="100%" fill="#ffffff"/><text x="24" y="30" font-size="19" font-weight="700" fill="#1e293b">通信経路 本社→大阪 (IP-VPN障害時)</text><rect x="40.0" y="336.0" width="634.5" height="424.0" rx="6" fill="#f7f9fc" stroke="#8fa8c4"/><text x="44.0" y="328.0" font-size="14.5" font-weight="600" fill="#33475b">本社</text><rect x="730.5" y="336.0" width="460.4" height="300.0" rx="6" fill="#f7f9fc" stroke="#8fa8c4"/><text x="734.5" y="328.0" font-size="14.5" font-weight="600" fill="#33475b">大阪支店</text><polyline points="286.3,470.0 286.3,508.0 254.8,508.0 254.8,548.0" fill="none" stroke="#9aa0a6" stroke-width="2.0" opacity="0.55" stroke-dasharray="5 5"></polyline><text x="290.3" y="483.0" font-size="10.5" font-style="italic" fill="#5f6368" opacity="0.55">Gi0/0/1</text><text x="258.8" y="543.0" font-size="10.5" font-style="italic" fill="#5f6368" opacity="0.55">Gi1/0/1</text><polyline points="254.8,626.0 254.8,648.0 168.7,648.0 168.7,688.0" fill="none" stroke="#0f766e" stroke-width="1.5" opacity="0.15"></polyline><text x="258.8" y="639.0" font-size="10.5" font-style="italic" fill="#5f6368" opacity="0.15">Vlan10</text><polyline points="317.9,626.0 317.9,648.0 404.0,648.0 404.0,688.0" fill="none" stroke="#0f766e" stroke-width="1.5" opacity="0.15"></polyline><text x="321.9" y="639.0" font-size="10.5" font-style="italic" fill="#5f6368" opacity="0.15">Vlan20</text><polyline points="994.9,502.0 994.9,524.0 1066.3,524.0 1066.3,564.0" fill="none" stroke="#0f766e" stroke-width="1.5" opacity="0.15"></polyline><text x="998.9" y="515.0" font-size="10.5" font-style="italic" fill="#5f6368" opacity="0.15">Gi0/1/0</text><polyline points="610.9,122.0 610.9,140.0 231.0,140.0 231.0,392.0" fill="none" stroke="#c5221f" stroke-width="3.5" opacity="0.55" stroke-dasharray="5 4"></polyline><rect x="101.2" y="240.0" width="259.5" height="42.0" rx="4" fill="#ffffff" fill-opacity="0.92" opacity="0.55"/><text x="231.0" y="253.0" text-anchor="middle" font-size="12" font-style="italic" font-weight="400" fill="#5f6368" opacity="0.55">NTTコミュニケーションズ IP-VPN 100M</text><text x="231.0" y="270.0" text-anchor="middle" font-size="12" font-style="italic" font-weight="400" fill="#5f6368" opacity="0.55">(Gi0/0/0)</text><polyline points="694.3,122.0 694.3,140.0 887.8,140.0 887.8,392.0" fill="none" stroke="#c5221f" stroke-width="3.5" opacity="0.55" stroke-dasharray="5 4"></polyline><rect x="761.9" y="240.0" width="251.8" height="42.0" rx="4" fill="#ffffff" fill-opacity="0.92" opacity="0.55"/><text x="887.8" y="253.0" text-anchor="middle" font-size="12" font-style="italic" font-weight="400" fill="#5f6368" opacity="0.55">NTTコミュニケーションズ IP-VPN 50M</text><text x="887.8" y="270.0" text-anchor="middle" font-size="12" font-style="italic" font-weight="400" fill="#5f6368" opacity="0.55">(Gi0/0/0)</text><polyline points="903.0,122.0 903.0,176.0 574.7,176.0 574.7,392.0" fill="none" stroke="#7b1fa2" stroke-width="2.0" opacity="0.15" stroke-dasharray="7 4"></polyline><rect x="494.4" y="276.0" width="160.5" height="24.0" rx="4" fill="#ffffff" fill-opacity="0.92" opacity="0.15"/><text x="574.7" y="289.0" text-anchor="middle" font-size="12" font-style="italic" font-weight="400" fill="#5f6368" opacity="0.15">IPsec バックアップVPN</text><polyline points="968.4,122.0 968.4,158.0 1025.5,158.0 1025.5,392.0" fill="none" stroke="#7b1fa2" stroke-width="2.0" opacity="0.15" stroke-dasharray="7 4"></polyline><polyline points="638.7,122.0 638.7,194.0 286.3,194.0 286.3,392.0" fill="none" stroke="#c5221f" stroke-width="2.0" opacity="0.55" stroke-dasharray="5 4"></polyline><rect x="268.7" y="276.0" width="35.2" height="24.0" rx="4" fill="#ffffff" fill-opacity="0.92" opacity="0.55"/><text x="286.3" y="289.0" text-anchor="middle" font-size="12" font-style="italic" font-weight="400" fill="#5f6368" opacity="0.55">BGP</text><polyline points="722.0,122.0 722.0,194.0 933.7,194.0 933.7,392.0" fill="none" stroke="#c5221f" stroke-width="2.0" opacity="0.55" stroke-dasharray="5 4"></polyline><polyline points="666.5,122.0 666.5,212.0 341.7,212.0 341.7,392.0" fill="none" stroke="#c5221f" stroke-width="2.0" opacity="0.55" stroke-dasharray="5 4"></polyline><rect x="324.1" y="276.0" width="35.2" height="24.0" rx="4" fill="#ffffff" fill-opacity="0.92" opacity="0.55"/><text x="341.7" y="289.0" text-anchor="middle" font-size="12" font-style="italic" font-weight="400" fill="#5f6368" opacity="0.55">BGP</text><polyline points="749.8,122.0 749.8,212.0 1309.9,212.0 1309.9,336.0" fill="none" stroke="#c5221f" stroke-width="2.0" opacity="0.55" stroke-dasharray="5 4"></polyline><polyline points="537.8,486.0 537.8,508.0 317.9,508.0 317.9,548.0" fill="none" stroke="#c5221f" stroke-width="4.0" opacity="1.0" stroke-dasharray="10 6" marker-end="url(#arrow-c5221f)"><animate attributeName="stroke-dashoffset" from="32" to="0" dur="1.2s" repeatCount="indefinite"/></polyline><text x="541.8" y="499.0" font-size="10.5" font-style="italic" fill="#5f6368" opacity="1.0">Gi0/0/1</text><text x="321.9" y="543.0" font-size="10.5" font-style="italic" fill="#5f6368" opacity="1.0">Gi1/0/2</text><rect x="324.6" y="497.0" width="206.4" height="22.0" rx="4" fill="#ffffff" fill-opacity="0.92" opacity="1.0"/><text x="427.8" y="510.0" text-anchor="middle" font-size="12" font-style="italic" font-weight="600" fill="#c5221f" opacity="1.0">① HSRP standbyがactive昇格</text><polyline points="918.4,502.0 918.4,524.0 847.1,524.0 847.1,564.0" fill="none" stroke="#c5221f" stroke-width="4.0" opacity="1.0" stroke-dasharray="10 6" marker-end="url(#arrow-c5221f)"><animate attributeName="stroke-dashoffset" from="32" to="0" dur="1.2s" repeatCount="indefinite"/></polyline><text x="922.4" y="515.0" font-size="10.5" font-style="italic" fill="#5f6368" opacity="1.0">Gi0/1/0</text><text x="851.1" y="559.0" font-size="10.5" font-style="italic" fill="#5f6368" opacity="1.0">Gi1/0/1</text><rect x="872.9" y="513.0" width="19.8" height="22.0" rx="4" fill="#ffffff" fill-opacity="0.92" opacity="1.0"/><text x="882.7" y="526.0" text-anchor="middle" font-size="12" font-style="italic" font-weight="600" fill="#c5221f" opacity="1.0">④</text><polyline points="870.3,122.0 870.3,158.0 500.9,158.0 500.9,392.0" fill="none" stroke="#c5221f" stroke-width="4.0" opacity="1.0" stroke-dasharray="10 6" marker-end="url(#arrow-c5221f)"><animate attributeName="stroke-dashoffset" from="32" to="0" dur="1.2s" repeatCount="indefinite"/></polyline><rect x="398.2" y="240.0" width="205.2" height="24.0" rx="4" fill="#ffffff" fill-opacity="0.92" opacity="1.0"/><text x="500.9" y="253.0" text-anchor="middle" font-size="12" font-style="italic" font-weight="600" fill="#c5221f" opacity="1.0">② IPsec インターネット網経由</text><polyline points="935.7,122.0 935.7,140.0 979.6,140.0 979.6,392.0" fill="none" stroke="#c5221f" stroke-width="4.0" opacity="1.0" stroke-dasharray="10 6" marker-end="url(#arrow-c5221f)"><animate attributeName="stroke-dashoffset" from="32" to="0" dur="1.2s" repeatCount="indefinite"/></polyline><rect x="871.9" y="276.0" width="215.4" height="24.0" rx="4" fill="#ffffff" fill-opacity="0.92" opacity="1.0"/><text x="979.6" y="289.0" text-anchor="middle" font-size="12" font-style="italic" font-weight="600" fill="#c5221f" opacity="1.0">③ BGP IPsecトンネルへ経路切替</text><ellipse cx="680.4" cy="84.0" rx="97.2" ry="38.0" fill="#fce8e6" stroke="#c5221f" stroke-width="3"/><text x="680.4" y="76.0" text-anchor="middle" dominant-baseline="central" font-size="12.5" font-weight="600" fill="#1e293b">✕障害</text><text x="680.4" y="92.0" text-anchor="middle" dominant-baseline="central" font-size="12.5" font-weight="400" fill="#1e293b">NTT Com IP-VPN網</text><ellipse cx="919.4" cy="84.0" rx="81.8" ry="38.0" fill="#f1f3f4" stroke="#5f6368" stroke-width="1.6"/><text x="919.4" y="84.0" text-anchor="middle" dominant-baseline="central" font-size="12.5" font-weight="600" fill="#1e293b">インターネット</text><rect x="175.6" y="392.0" width="221.4" height="78.0" rx="4" fill="#e8f0fe" stroke="#1a56b0" stroke-width="1.4"/><text x="286.3" y="407.0" text-anchor="middle" dominant-baseline="central" font-size="12.5" font-weight="600" fill="#1e293b">hq-rt01</text><text x="286.3" y="423.0" text-anchor="middle" dominant-baseline="central" font-size="12.5" font-weight="400" fill="#1e293b">Cisco ISR4331</text><text x="286.3" y="439.0" text-anchor="middle" dominant-baseline="central" font-size="12.5" font-weight="400" fill="#1e293b">Gi0/0/0: 172.16.255.1/30</text><text x="286.3" y="455.0" text-anchor="middle" dominant-baseline="central" font-size="12.5" font-weight="400" fill="#1e293b">Gi0/0/1: 10.1.0.2/24</text><rect x="191.7" y="548.0" width="189.2" height="78.0" rx="4" fill="#d2e3fc" stroke="#1a56b0" stroke-width="1.4"/><text x="286.3" y="563.0" text-anchor="middle" dominant-baseline="central" font-size="12.5" font-weight="600" fill="#1e293b">hq-sw01</text><text x="286.3" y="579.0" text-anchor="middle" dominant-baseline="central" font-size="12.5" font-weight="400" fill="#1e293b">Cisco Catalyst 9300</text><text x="286.3" y="595.0" text-anchor="middle" dominant-baseline="central" font-size="12.5" font-weight="400" fill="#1e293b">Vlan10: 10.1.10.1/24</text><text x="286.3" y="611.0" text-anchor="middle" dominant-baseline="central" font-size="12.5" font-weight="400" fill="#1e293b">Vlan20: 10.1.20.1/24</text><rect x="427.0" y="392.0" width="221.4" height="94.0" rx="4" fill="#e8f0fe" stroke="#1a56b0" stroke-width="1.4"/><text x="537.8" y="407.0" text-anchor="middle" dominant-baseline="central" font-size="12.5" font-weight="600" fill="#1e293b">hq-rt02</text><text x="537.8" y="423.0" text-anchor="middle" dominant-baseline="central" font-size="12.5" font-weight="400" fill="#1e293b">Cisco ISR4331</text><text x="537.8" y="439.0" text-anchor="middle" dominant-baseline="central" font-size="12.5" font-weight="400" fill="#1e293b">Gi0/0/0: 203.0.113.10/29</text><text x="537.8" y="455.0" text-anchor="middle" dominant-baseline="central" font-size="12.5" font-weight="400" fill="#1e293b">Gi0/0/1: 10.1.0.3/24</text><text x="537.8" y="471.0" text-anchor="middle" dominant-baseline="central" font-size="12.5" font-weight="400" fill="#1e293b">Tunnel0: 172.31.0.1/30</text><rect x="66.0" y="688.0" width="205.3" height="46.0" rx="4" fill="#e2f5f0" stroke="#0f766e" stroke-width="1.4" opacity="0.3"/><text x="168.7" y="703.0" text-anchor="middle" dominant-baseline="central" font-size="12.5" font-weight="600" fill="#1e293b" opacity="0.3">本社サーバ</text><text x="168.7" y="719.0" text-anchor="middle" dominant-baseline="central" font-size="12.5" font-weight="400" fill="#1e293b" opacity="0.3">VLAN 10 / 10.1.10.0/24</text><rect x="301.3" y="688.0" width="205.3" height="46.0" rx="4" fill="#e2f5f0" stroke="#0f766e" stroke-width="1.4" opacity="0.3"/><text x="404.0" y="703.0" text-anchor="middle" dominant-baseline="central" font-size="12.5" font-weight="600" fill="#1e293b" opacity="0.3">本社クライアント</text><text x="404.0" y="719.0" text-anchor="middle" dominant-baseline="central" font-size="12.5" font-weight="400" fill="#1e293b" opacity="0.3">VLAN 20 / 10.1.20.0/24</text><rect x="841.9" y="392.0" width="229.5" height="110.0" rx="4" fill="#e8f0fe" stroke="#1a56b0" stroke-width="1.4"/><text x="956.7" y="407.0" text-anchor="middle" dominant-baseline="central" font-size="12.5" font-weight="600" fill="#1e293b">osk-rt01</text><text x="956.7" y="423.0" text-anchor="middle" dominant-baseline="central" font-size="12.5" font-weight="400" fill="#1e293b">Cisco ISR1100</text><text x="956.7" y="439.0" text-anchor="middle" dominant-baseline="central" font-size="12.5" font-weight="400" fill="#1e293b">Gi0/0/0: 172.16.255.5/30</text><text x="956.7" y="455.0" text-anchor="middle" dominant-baseline="central" font-size="12.5" font-weight="400" fill="#1e293b">Gi0/0/1: 198.51.100.10/30</text><text x="956.7" y="471.0" text-anchor="middle" dominant-baseline="central" font-size="12.5" font-weight="400" fill="#1e293b">Gi0/1/0: 10.2.10.1/24</text><text x="956.7" y="487.0" text-anchor="middle" dominant-baseline="central" font-size="12.5" font-weight="400" fill="#1e293b">Tunnel0: 172.31.0.2/30</text><rect x="756.5" y="564.0" width="181.1" height="46.0" rx="4" fill="#e6f4ea" stroke="#137333" stroke-width="1.4"/><text x="847.1" y="579.0" text-anchor="middle" dominant-baseline="central" font-size="12.5" font-weight="600" fill="#1e293b">osk-sw01</text><text x="847.1" y="595.0" text-anchor="middle" dominant-baseline="central" font-size="12.5" font-weight="400" fill="#1e293b">Cisco Catalyst 1000</text><rect x="967.6" y="564.0" width="197.3" height="46.0" rx="4" fill="#e2f5f0" stroke="#0f766e" stroke-width="1.4" opacity="0.3"/><text x="1066.3" y="579.0" text-anchor="middle" dominant-baseline="central" font-size="12.5" font-weight="600" fill="#1e293b" opacity="0.3">大阪LAN</text><text x="1066.3" y="595.0" text-anchor="middle" dominant-baseline="central" font-size="12.5" font-weight="400" fill="#1e293b" opacity="0.3">VLAN 1 / 10.2.10.0/24</text><rect x="1246.9" y="336.0" width="126.0" height="46.0" rx="4" fill="#ffffff" stroke="#9aa0a6" stroke-width="1.4" stroke-dasharray="4 3" opacity="0.3"/><text x="1309.9" y="351.0" text-anchor="middle" dominant-baseline="central" font-size="12.5" font-weight="600" fill="#1e293b" opacity="0.3">ngy-rt01</text><text x="1309.9" y="367.0" text-anchor="middle" dominant-baseline="central" font-size="12.5" font-weight="400" fill="#1e293b" opacity="0.3">(名古屋営業所)</text></svg>