<svg xmlns="http://www.w3.org/2000/svg" width="1523" height="862" viewBox="0 0 1523 862" font-family="'Segoe UI','Hiragino Sans','Noto Sans JP',Meiryo,sans-serif"><defs><marker id="arrow-c5221f" viewBox="0 0 10 10" refX="9" refY="5" markerWidth="7" markerHeight="7" orient="auto-start-reverse"><path d="M 0 0 L 10 5 L 0 10 z" fill="#c5221f"/></marker></defs><rect width="100%" height="100%" fill="#ffffff"/><text x="24" y="30" font-size="19" font-weight="700" fill="#1e293b">通信経路 本社→大阪 (IP-VPN障害時)</text><rect x="40.0" y="372.0" width="744.1" height="450.0" rx="6" fill="#f7f9fc" stroke="#8fa8c4"/><text x="44.0" y="364.0" font-size="14.5" font-weight="600" fill="#33475b">本社</text><rect x="840.1" y="372.0" width="460.4" height="300.0" rx="6" fill="#f7f9fc" stroke="#8fa8c4"/><text x="844.1" y="364.0" font-size="14.5" font-weight="600" fill="#33475b">大阪支店</text><polyline points="417.4,506.0 417.4,562.0" fill="none" stroke="#9aa0a6" stroke-width="2.0" opacity="0.55" stroke-dasharray="5 5"></polyline><text x="421.4" y="519.0" font-size="10.5" font-style="italic" fill="#5f6368" opacity="0.55">Gi0/0/1</text><text x="421.4" y="557.0" font-size="10.5" font-style="italic" fill="#5f6368" opacity="0.55">Gi1/0/1</text><polyline points="417.4,640.0 417.4,662.0 420.1,662.0 420.1,702.0" fill="none" stroke="#0f766e" stroke-width="1.5" opacity="0.15"></polyline><text x="421.4" y="653.0" font-size="10.5" font-style="italic" fill="#5f6368" opacity="0.15">Vlan10</text><polyline points="464.7,640.0 464.7,662.0 655.4,662.0 655.4,702.0" fill="none" stroke="#0f766e" stroke-width="1.5" opacity="0.15"></polyline><text x="468.7" y="653.0" font-size="10.5" font-style="italic" fill="#5f6368" opacity="0.15">Vlan20</text><polyline points="1104.5,538.0 1104.5,560.0 1175.9,560.0 1175.9,600.0" fill="none" stroke="#0f766e" stroke-width="1.5" opacity="0.15"></polyline><text x="1108.5" y="551.0" font-size="10.5" font-style="italic" fill="#5f6368" opacity="0.15">Gi0/1/0</text><polyline points="791.0,122.0 791.0,140.0 362.1,140.0 362.1,428.0" fill="none" stroke="#c5221f" stroke-width="3.5" opacity="0.55" stroke-dasharray="5 4"></polyline><rect x="232.3" y="240.0" width="259.5" height="42.0" rx="4" fill="#ffffff" fill-opacity="0.92" opacity="0.55"/><text x="362.1" y="253.0" text-anchor="middle" font-size="12" font-style="italic" font-weight="400" fill="#5f6368" opacity="0.55">NTTコミュニケーションズ IP-VPN 100M</text><text x="362.1" y="270.0" text-anchor="middle" font-size="12" font-style="italic" font-weight="400" fill="#5f6368" opacity="0.55">(Gi0/0/0)</text><polyline points="874.4,122.0 874.4,140.0 1089.2,140.0 1089.2,428.0" fill="none" stroke="#c5221f" stroke-width="3.5" opacity="0.55" stroke-dasharray="5 4"></polyline><rect x="963.3" y="240.0" width="251.8" height="42.0" rx="4" fill="#ffffff" fill-opacity="0.92" opacity="0.55"/><text x="1089.2" y="253.0" text-anchor="middle" font-size="12" font-style="italic" font-weight="400" fill="#5f6368" opacity="0.55">NTTコミュニケーションズ IP-VPN 50M</text><text x="1089.2" y="270.0" text-anchor="middle" font-size="12" font-style="italic" font-weight="400" fill="#5f6368" opacity="0.55">(Gi0/0/0)</text><polyline points="605.1,122.0 605.1,176.0 50.0,176.0 50.0,688.0 213.6,688.0 213.6,702.0" fill="none" stroke="#7b1fa2" stroke-width="2.0" opacity="0.15" stroke-dasharray="7 4"></polyline><rect x="133.4" y="312.0" width="160.5" height="24.0" rx="4" fill="#ffffff" fill-opacity="0.92" opacity="0.15"/><text x="213.6" y="325.0" text-anchor="middle" font-size="12" font-style="italic" font-weight="400" fill="#5f6368" opacity="0.15">IPsec バックアップVPN</text><polyline points="670.6,122.0 670.6,176.0 1043.3,176.0 1043.3,428.0" fill="none" stroke="#7b1fa2" stroke-width="2.0" opacity="0.15" stroke-dasharray="7 4"></polyline><polyline points="818.8,122.0 818.8,194.0 417.4,194.0 417.4,428.0" fill="none" stroke="#c5221f" stroke-width="2.0" opacity="0.55" stroke-dasharray="5 4"></polyline><rect x="399.8" y="276.0" width="35.2" height="24.0" rx="4" fill="#ffffff" fill-opacity="0.92" opacity="0.55"/><text x="417.4" y="289.0" text-anchor="middle" font-size="12" font-style="italic" font-weight="400" fill="#5f6368" opacity="0.55">BGP</text><polyline points="902.2,122.0 902.2,194.0 1135.1,194.0 1135.1,428.0" fill="none" stroke="#c5221f" stroke-width="2.0" opacity="0.55" stroke-dasharray="5 4"></polyline><polyline points="846.6,122.0 846.6,212.0 472.8,212.0 472.8,428.0" fill="none" stroke="#c5221f" stroke-width="2.0" opacity="0.55" stroke-dasharray="5 4"></polyline><rect x="455.1" y="276.0" width="35.2" height="24.0" rx="4" fill="#ffffff" fill-opacity="0.92" opacity="0.55"/><text x="472.8" y="289.0" text-anchor="middle" font-size="12" font-style="italic" font-weight="400" fill="#5f6368" opacity="0.55">BGP</text><polyline points="930.0,122.0 930.0,212.0 1419.5,212.0 1419.5,372.0" fill="none" stroke="#c5221f" stroke-width="2.0" opacity="0.55" stroke-dasharray="5 4"></polyline><polyline points="370.1,640.0 370.1,662.0 176.7,662.0 176.7,702.0" fill="none" stroke="#c5221f" stroke-width="4.0" opacity="1.0" stroke-dasharray="10 6" marker-end="url(#arrow-c5221f)"><animate attributeName="stroke-dashoffset" from="32" to="0" dur="1.2s" repeatCount="indefinite"/></polyline><text x="374.1" y="653.0" font-size="10.5" font-style="italic" fill="#5f6368" opacity="1.0">Gi1/0/2</text><text x="180.7" y="697.0" font-size="10.5" font-style="italic" fill="#5f6368" opacity="1.0">Gi0/0/1</text><rect x="170.2" y="651.0" width="206.4" height="22.0" rx="4" fill="#ffffff" fill-opacity="0.92" opacity="1.0"/><text x="273.4" y="664.0" text-anchor="middle" font-size="12" font-style="italic" font-weight="600" fill="#c5221f" opacity="1.0">① HSRP standbyがactive昇格</text><polyline points="1028.0,538.0 1028.0,560.0 956.7,560.0 956.7,600.0" fill="none" stroke="#c5221f" stroke-width="4.0" opacity="1.0" stroke-dasharray="10 6" marker-end="url(#arrow-c5221f)"><animate attributeName="stroke-dashoffset" from="32" to="0" dur="1.2s" repeatCount="indefinite"/></polyline><text x="1032.0" y="551.0" font-size="10.5" font-style="italic" fill="#5f6368" opacity="1.0">Gi0/1/0</text><text x="960.7" y="595.0" font-size="10.5" font-style="italic" fill="#5f6368" opacity="1.0">Gi1/0/1</text><rect x="982.5" y="549.0" width="19.8" height="22.0" rx="4" fill="#ffffff" fill-opacity="0.92" opacity="1.0"/><text x="992.3" y="562.0" text-anchor="middle" font-size="12" font-style="italic" font-weight="600" fill="#c5221f" opacity="1.0">④</text><polyline points="139.8,702.0 139.8,688.0 50.0,688.0 50.0,158.0 572.4,158.0 572.4,122.0" fill="none" stroke="#c5221f" stroke-width="4.0" opacity="1.0" stroke-dasharray="10 6" marker-end="url(#arrow-c5221f)"><animate attributeName="stroke-dashoffset" from="32" to="0" dur="1.2s" repeatCount="indefinite"/></polyline><rect x="37.2" y="276.0" width="205.2" height="24.0" rx="4" fill="#ffffff" fill-opacity="0.92" opacity="1.0"/><text x="139.8" y="289.0" text-anchor="middle" font-size="12" font-style="italic" font-weight="600" fill="#c5221f" opacity="1.0">② IPsec インターネット網経由</text><polyline points="637.8,122.0 637.8,158.0 997.4,158.0 997.4,428.0" fill="none" stroke="#c5221f" stroke-width="4.0" opacity="1.0" stroke-dasharray="10 6" marker-end="url(#arrow-c5221f)"><animate attributeName="stroke-dashoffset" from="32" to="0" dur="1.2s" repeatCount="indefinite"/></polyline><rect x="889.7" y="276.0" width="215.4" height="24.0" rx="4" fill="#ffffff" fill-opacity="0.92" opacity="1.0"/><text x="997.4" y="289.0" text-anchor="middle" font-size="12" font-style="italic" font-weight="600" fill="#c5221f" opacity="1.0">③ BGP IPsecトンネルへ経路切替</text><ellipse cx="621.5" cy="84.0" rx="81.8" ry="38.0" fill="#f1f3f4" stroke="#5f6368" stroke-width="1.6"/><text x="621.5" y="84.0" text-anchor="middle" dominant-baseline="central" font-size="12.5" font-weight="600" fill="#1e293b">インターネット</text><ellipse cx="860.5" cy="84.0" rx="97.2" ry="38.0" fill="#fce8e6" stroke="#c5221f" stroke-width="3"/><text x="860.5" y="76.0" text-anchor="middle" dominant-baseline="central" font-size="12.5" font-weight="600" fill="#1e293b">✕障害</text><text x="860.5" y="92.0" text-anchor="middle" dominant-baseline="central" font-size="12.5" font-weight="400" fill="#1e293b">NTT Com IP-VPN網</text><rect x="306.7" y="428.0" width="221.4" height="78.0" rx="4" fill="#e8f0fe" stroke="#1a56b0" stroke-width="1.4"/><text x="417.4" y="443.0" text-anchor="middle" dominant-baseline="central" font-size="12.5" font-weight="600" fill="#1e293b">hq-rt01</text><text x="417.4" y="459.0" text-anchor="middle" dominant-baseline="central" font-size="12.5" font-weight="400" fill="#1e293b">Cisco ISR4331</text><text x="417.4" y="475.0" text-anchor="middle" dominant-baseline="central" font-size="12.5" font-weight="400" fill="#1e293b">Gi0/0/0: 172.16.255.1/30</text><text x="417.4" y="491.0" text-anchor="middle" dominant-baseline="central" font-size="12.5" font-weight="400" fill="#1e293b">Gi0/0/1: 10.1.0.2/24</text><rect x="322.8" y="562.0" width="189.2" height="78.0" rx="4" fill="#d2e3fc" stroke="#1a56b0" stroke-width="1.4"/><text x="417.4" y="577.0" text-anchor="middle" dominant-baseline="central" font-size="12.5" font-weight="600" fill="#1e293b">hq-sw01</text><text x="417.4" y="593.0" text-anchor="middle" dominant-baseline="central" font-size="12.5" font-weight="400" fill="#1e293b">Cisco Catalyst 9300</text><text x="417.4" y="609.0" text-anchor="middle" dominant-baseline="central" font-size="12.5" font-weight="400" fill="#1e293b">Vlan10: 10.1.10.1/24</text><text x="417.4" y="625.0" text-anchor="middle" dominant-baseline="central" font-size="12.5" font-weight="400" fill="#1e293b">Vlan20: 10.1.20.1/24</text><rect x="66.0" y="702.0" width="221.4" height="94.0" rx="4" fill="#e8f0fe" stroke="#1a56b0" stroke-width="1.4"/><text x="176.7" y="717.0" text-anchor="middle" dominant-baseline="central" font-size="12.5" font-weight="600" fill="#1e293b">hq-rt02</text><text x="176.7" y="733.0" text-anchor="middle" dominant-baseline="central" font-size="12.5" font-weight="400" fill="#1e293b">Cisco ISR4331</text><text x="176.7" y="749.0" text-anchor="middle" dominant-baseline="central" font-size="12.5" font-weight="400" fill="#1e293b">Gi0/0/0: 203.0.113.10/29</text><text x="176.7" y="765.0" text-anchor="middle" dominant-baseline="central" font-size="12.5" font-weight="400" fill="#1e293b">Gi0/0/1: 10.1.0.3/24</text><text x="176.7" y="781.0" text-anchor="middle" dominant-baseline="central" font-size="12.5" font-weight="400" fill="#1e293b">Tunnel0: 172.31.0.1/30</text><rect x="317.4" y="702.0" width="205.3" height="46.0" rx="4" fill="#e2f5f0" stroke="#0f766e" stroke-width="1.4" opacity="0.3"/><text x="420.1" y="717.0" text-anchor="middle" dominant-baseline="central" font-size="12.5" font-weight="600" fill="#1e293b" opacity="0.3">本社サーバ</text><text x="420.1" y="733.0" text-anchor="middle" dominant-baseline="central" font-size="12.5" font-weight="400" fill="#1e293b" opacity="0.3">VLAN 10 / 10.1.10.0/24</text><rect x="552.8" y="702.0" width="205.3" height="46.0" rx="4" fill="#e2f5f0" stroke="#0f766e" stroke-width="1.4" opacity="0.3"/><text x="655.4" y="717.0" text-anchor="middle" dominant-baseline="central" font-size="12.5" font-weight="600" fill="#1e293b" opacity="0.3">本社クライアント</text><text x="655.4" y="733.0" text-anchor="middle" dominant-baseline="central" font-size="12.5" font-weight="400" fill="#1e293b" opacity="0.3">VLAN 20 / 10.1.20.0/24</text><rect x="951.5" y="428.0" width="229.5" height="110.0" rx="4" fill="#e8f0fe" stroke="#1a56b0" stroke-width="1.4"/><text x="1066.3" y="443.0" text-anchor="middle" dominant-baseline="central" font-size="12.5" font-weight="600" fill="#1e293b">osk-rt01</text><text x="1066.3" y="459.0" text-anchor="middle" dominant-baseline="central" font-size="12.5" font-weight="400" fill="#1e293b">Cisco ISR1100</text><text x="1066.3" y="475.0" text-anchor="middle" dominant-baseline="central" font-size="12.5" font-weight="400" fill="#1e293b">Gi0/0/0: 172.16.255.5/30</text><text x="1066.3" y="491.0" text-anchor="middle" dominant-baseline="central" font-size="12.5" font-weight="400" fill="#1e293b">Gi0/0/1: 198.51.100.10/30</text><text x="1066.3" y="507.0" text-anchor="middle" dominant-baseline="central" font-size="12.5" font-weight="400" fill="#1e293b">Gi0/1/0: 10.2.10.1/24</text><text x="1066.3" y="523.0" text-anchor="middle" dominant-baseline="central" font-size="12.5" font-weight="400" fill="#1e293b">Tunnel0: 172.31.0.2/30</text><rect x="866.1" y="600.0" width="181.1" height="46.0" rx="4" fill="#e6f4ea" stroke="#137333" stroke-width="1.4"/><text x="956.7" y="615.0" text-anchor="middle" dominant-baseline="central" font-size="12.5" font-weight="600" fill="#1e293b">osk-sw01</text><text x="956.7" y="631.0" text-anchor="middle" dominant-baseline="central" font-size="12.5" font-weight="400" fill="#1e293b">Cisco Catalyst 1000</text><rect x="1077.2" y="600.0" width="197.3" height="46.0" rx="4" fill="#e2f5f0" stroke="#0f766e" stroke-width="1.4" opacity="0.3"/><text x="1175.9" y="615.0" text-anchor="middle" dominant-baseline="central" font-size="12.5" font-weight="600" fill="#1e293b" opacity="0.3">大阪LAN</text><text x="1175.9" y="631.0" text-anchor="middle" dominant-baseline="central" font-size="12.5" font-weight="400" fill="#1e293b" opacity="0.3">VLAN 1 / 10.2.10.0/24</text><rect x="1356.5" y="372.0" width="126.0" height="46.0" rx="4" fill="#ffffff" stroke="#9aa0a6" stroke-width="1.4" stroke-dasharray="4 3" opacity="0.3"/><text x="1419.5" y="387.0" text-anchor="middle" dominant-baseline="central" font-size="12.5" font-weight="600" fill="#1e293b" opacity="0.3">ngy-rt01</text><text x="1419.5" y="403.0" text-anchor="middle" dominant-baseline="central" font-size="12.5" font-weight="400" fill="#1e293b" opacity="0.3">(名古屋営業所)</text></svg>