<svg xmlns="http://www.w3.org/2000/svg" width="1030" height="594" viewBox="0 0 1030 594" font-family="'Segoe UI','Hiragino Sans','Noto Sans JP',Meiryo,sans-serif"><defs></defs><rect width="100%" height="100%" fill="#ffffff"/><text x="24" y="30" font-size="19" font-weight="700" fill="#1e293b">全社物理構成図</text><rect x="40.0" y="318.0" width="371.7" height="236.0" rx="6" fill="#f7f9fc" stroke="#8fa8c4"/><text x="44.0" y="310.0" font-size="14.5" font-weight="600" fill="#33475b">本社</text><rect x="467.7" y="318.0" width="233.1" height="230.0" rx="6" fill="#f7f9fc" stroke="#8fa8c4"/><text x="471.7" y="310.0" font-size="14.5" font-weight="600" fill="#33475b">大阪支店</text><rect x="756.9" y="318.0" width="233.1" height="230.0" rx="6" fill="#f7f9fc" stroke="#8fa8c4"/><text x="760.9" y="310.0" font-size="14.5" font-weight="600" fill="#33475b">名古屋営業所</text><polyline points="156.6,420.0 156.6,442.0 126.4,442.0 126.4,482.0" fill="none" stroke="#4a4a4a" stroke-width="2.0" opacity="1.0"></polyline><text x="160.6" y="433.0" font-size="10.5" font-style="italic" fill="#5f6368" opacity="1.0">Gi0/0/1</text><text x="130.4" y="477.0" font-size="10.5" font-style="italic" fill="#5f6368" opacity="1.0">Gi1/0/1</text><polyline points="319.4,420.0 319.4,442.0 186.8,442.0 186.8,482.0" fill="none" stroke="#4a4a4a" stroke-width="2.0" opacity="1.0"></polyline><text x="323.4" y="433.0" font-size="10.5" font-style="italic" fill="#5f6368" opacity="1.0">Gi0/0/1</text><text x="190.8" y="477.0" font-size="10.5" font-style="italic" fill="#5f6368" opacity="1.0">Gi1/0/2</text><polyline points="584.3,420.0 584.3,476.0" fill="none" stroke="#4a4a4a" stroke-width="2.0" opacity="1.0"></polyline><text x="588.3" y="433.0" font-size="10.5" font-style="italic" fill="#5f6368" opacity="1.0">Gi0/1/0</text><text x="588.3" y="471.0" font-size="10.5" font-style="italic" fill="#5f6368" opacity="1.0">Gi1/0/1</text><polyline points="873.5,420.0 873.5,476.0" fill="none" stroke="#4a4a4a" stroke-width="2.0" opacity="1.0"></polyline><text x="877.5" y="433.0" font-size="10.5" font-style="italic" fill="#5f6368" opacity="1.0">Gi0/1/0</text><text x="877.5" y="471.0" font-size="10.5" font-style="italic" fill="#5f6368" opacity="1.0">Gi1/0/1</text><polyline points="642.2,122.0 642.2,140.0 156.6,140.0 156.6,374.0" fill="none" stroke="#1a73e8" stroke-width="3.5" opacity="1.0"></polyline><rect x="26.8" y="186.0" width="259.5" height="42.0" rx="4" fill="#ffffff" fill-opacity="0.92" opacity="1.0"/><text x="156.6" y="199.0" text-anchor="middle" font-size="12" font-style="italic" font-weight="400" fill="#5f6368" opacity="1.0">NTTコミュニケーションズ IP-VPN 100M</text><text x="156.6" y="216.0" text-anchor="middle" font-size="12" font-style="italic" font-weight="400" fill="#5f6368" opacity="1.0">(Gi0/0/0)</text><polyline points="690.9,122.0 690.9,158.0 606.4,158.0 606.4,374.0" fill="none" stroke="#1a73e8" stroke-width="3.5" opacity="1.0"></polyline><rect x="480.6" y="186.0" width="251.8" height="42.0" rx="4" fill="#ffffff" fill-opacity="0.92" opacity="1.0"/><text x="606.4" y="199.0" text-anchor="middle" font-size="12" font-style="italic" font-weight="400" fill="#5f6368" opacity="1.0">NTTコミュニケーションズ IP-VPN 50M</text><text x="606.4" y="216.0" text-anchor="middle" font-size="12" font-style="italic" font-weight="400" fill="#5f6368" opacity="1.0">(Gi0/0/0)</text><polyline points="739.5,122.0 739.5,140.0 873.5,140.0 873.5,374.0" fill="none" stroke="#1a73e8" stroke-width="3.5" opacity="1.0"></polyline><rect x="747.6" y="186.0" width="251.8" height="42.0" rx="4" fill="#ffffff" fill-opacity="0.92" opacity="1.0"/><text x="873.5" y="199.0" text-anchor="middle" font-size="12" font-style="italic" font-weight="400" fill="#5f6368" opacity="1.0">NTTコミュニケーションズ IP-VPN 50M</text><text x="873.5" y="216.0" text-anchor="middle" font-size="12" font-style="italic" font-weight="400" fill="#5f6368" opacity="1.0">(Gi0/0/0)</text><polyline points="424.6,122.0 424.6,158.0 319.4,158.0 319.4,374.0" fill="none" stroke="#1a73e8" stroke-width="3.5" opacity="1.0"></polyline><rect x="184.2" y="222.0" width="270.2" height="42.0" rx="4" fill="#ffffff" fill-opacity="0.92" opacity="1.0"/><text x="319.4" y="235.0" text-anchor="middle" font-size="12" font-style="italic" font-weight="400" fill="#5f6368" opacity="1.0">NTT東日本 フレッツ光ネクスト + OCN 1G</text><text x="319.4" y="252.0" text-anchor="middle" font-size="12" font-style="italic" font-weight="400" fill="#5f6368" opacity="1.0">(Gi0/0/0)</text><polyline points="479.1,122.0 479.1,158.0 562.2,158.0 562.2,374.0" fill="none" stroke="#1a73e8" stroke-width="3.5" opacity="1.0"></polyline><rect x="427.1" y="258.0" width="270.2" height="42.0" rx="4" fill="#ffffff" fill-opacity="0.92" opacity="1.0"/><text x="562.2" y="271.0" text-anchor="middle" font-size="12" font-style="italic" font-weight="400" fill="#5f6368" opacity="1.0">NTT西日本 フレッツ光ネクスト + OCN 1G</text><text x="562.2" y="288.0" text-anchor="middle" font-size="12" font-style="italic" font-weight="400" fill="#5f6368" opacity="1.0">(Gi0/0/1)</text><ellipse cx="451.8" cy="84.0" rx="81.8" ry="38.0" fill="#f1f3f4" stroke="#5f6368" stroke-width="1.6"/><text x="451.8" y="84.0" text-anchor="middle" dominant-baseline="central" font-size="12.5" font-weight="600" fill="#1e293b">インターネット</text><ellipse cx="690.9" cy="84.0" rx="97.2" ry="38.0" fill="#f1f3f4" stroke="#5f6368" stroke-width="1.6"/><text x="690.9" y="84.0" text-anchor="middle" dominant-baseline="central" font-size="12.5" font-weight="600" fill="#1e293b">NTT Com IP-VPN網</text><rect x="90.2" y="374.0" width="132.8" height="46.0" rx="4" fill="#e8f0fe" stroke="#1a56b0" stroke-width="1.4"/><text x="156.6" y="389.0" text-anchor="middle" dominant-baseline="central" font-size="12.5" font-weight="600" fill="#1e293b">hq-rt01</text><text x="156.6" y="405.0" text-anchor="middle" dominant-baseline="central" font-size="12.5" font-weight="400" fill="#1e293b">Cisco ISR4331</text><rect x="66.0" y="482.0" width="181.1" height="46.0" rx="4" fill="#d2e3fc" stroke="#1a56b0" stroke-width="1.4"/><text x="156.6" y="497.0" text-anchor="middle" dominant-baseline="central" font-size="12.5" font-weight="600" fill="#1e293b">hq-sw01</text><text x="156.6" y="513.0" text-anchor="middle" dominant-baseline="central" font-size="12.5" font-weight="400" fill="#1e293b">Cisco Catalyst 9300</text><rect x="253.0" y="374.0" width="132.8" height="46.0" rx="4" fill="#e8f0fe" stroke="#1a56b0" stroke-width="1.4"/><text x="319.4" y="389.0" text-anchor="middle" dominant-baseline="central" font-size="12.5" font-weight="600" fill="#1e293b">hq-rt02</text><text x="319.4" y="405.0" text-anchor="middle" dominant-baseline="central" font-size="12.5" font-weight="400" fill="#1e293b">Cisco ISR4331</text><rect x="517.9" y="374.0" width="132.8" height="46.0" rx="4" fill="#e8f0fe" stroke="#1a56b0" stroke-width="1.4"/><text x="584.3" y="389.0" text-anchor="middle" dominant-baseline="central" font-size="12.5" font-weight="600" fill="#1e293b">osk-rt01</text><text x="584.3" y="405.0" text-anchor="middle" dominant-baseline="central" font-size="12.5" font-weight="400" fill="#1e293b">Cisco ISR1100</text><rect x="493.7" y="476.0" width="181.1" height="46.0" rx="4" fill="#e6f4ea" stroke="#137333" stroke-width="1.4"/><text x="584.3" y="491.0" text-anchor="middle" dominant-baseline="central" font-size="12.5" font-weight="600" fill="#1e293b">osk-sw01</text><text x="584.3" y="507.0" text-anchor="middle" dominant-baseline="central" font-size="12.5" font-weight="400" fill="#1e293b">Cisco Catalyst 1000</text><rect x="807.1" y="374.0" width="132.8" height="46.0" rx="4" fill="#e8f0fe" stroke="#1a56b0" stroke-width="1.4"/><text x="873.5" y="389.0" text-anchor="middle" dominant-baseline="central" font-size="12.5" font-weight="600" fill="#1e293b">ngy-rt01</text><text x="873.5" y="405.0" text-anchor="middle" dominant-baseline="central" font-size="12.5" font-weight="400" fill="#1e293b">Cisco ISR1100</text><rect x="782.9" y="476.0" width="181.1" height="46.0" rx="4" fill="#e6f4ea" stroke="#137333" stroke-width="1.4"/><text x="873.5" y="491.0" text-anchor="middle" dominant-baseline="central" font-size="12.5" font-weight="600" fill="#1e293b">ngy-sw01</text><text x="873.5" y="507.0" text-anchor="middle" dominant-baseline="central" font-size="12.5" font-weight="400" fill="#1e293b">Cisco Catalyst 1000</text></svg>