<svg xmlns="http://www.w3.org/2000/svg" width="1193" height="702" viewBox="0 0 1193 702" font-family="'Segoe UI','Hiragino Sans','Noto Sans JP',Meiryo,sans-serif"><defs></defs><rect width="100%" height="100%" fill="#ffffff"/><text x="24" y="30" font-size="19" font-weight="700" fill="#1e293b">全社物理構成図</text><rect x="40.0" y="318.0" width="534.5" height="344.0" rx="6" fill="#f7f9fc" stroke="#8fa8c4"/><text x="44.0" y="310.0" font-size="14.5" font-weight="600" fill="#33475b">本社</text><rect x="630.5" y="318.0" width="233.1" height="230.0" rx="6" fill="#f7f9fc" stroke="#8fa8c4"/><text x="634.5" y="310.0" font-size="14.5" font-weight="600" fill="#33475b">大阪支店</text><rect x="919.7" y="318.0" width="233.1" height="230.0" rx="6" fill="#f7f9fc" stroke="#8fa8c4"/><text x="923.7" y="310.0" font-size="14.5" font-weight="600" fill="#33475b">名古屋営業所</text><polyline points="307.3,420.0 307.3,442.0 277.1,442.0 277.1,482.0" fill="none" stroke="#4a4a4a" stroke-width="2.0" opacity="1.0"></polyline><text x="311.3" y="433.0" font-size="10.5" font-style="italic" fill="#5f6368" opacity="1.0">Gi0/0/1</text><text x="281.1" y="477.0" font-size="10.5" font-style="italic" fill="#5f6368" opacity="1.0">Gi1/0/1</text><polyline points="470.0,420.0 470.0,442.0 337.5,442.0 337.5,482.0" fill="none" stroke="#4a4a4a" stroke-width="2.0" opacity="1.0"></polyline><text x="474.0" y="433.0" font-size="10.5" font-style="italic" fill="#5f6368" opacity="1.0">Gi0/0/1</text><text x="341.5" y="477.0" font-size="10.5" font-style="italic" fill="#5f6368" opacity="1.0">Gi1/0/2</text><polyline points="262.0,528.0 262.0,550.0 136.4,550.0 136.4,590.0" fill="none" stroke="#4a4a4a" stroke-width="2.0" opacity="1.0"></polyline><text x="266.0" y="541.0" font-size="10.5" font-style="italic" fill="#5f6368" opacity="1.0">Gi1/0/3</text><text x="140.4" y="585.0" font-size="10.5" font-style="italic" fill="#5f6368" opacity="1.0">eno1</text><polyline points="307.3,528.0 307.3,590.0" fill="none" stroke="#4a4a4a" stroke-width="2.0" opacity="1.0"></polyline><text x="311.3" y="541.0" font-size="10.5" font-style="italic" fill="#5f6368" opacity="1.0">Gi1/0/4</text><text x="311.3" y="585.0" font-size="10.5" font-style="italic" fill="#5f6368" opacity="1.0">eno1</text><polyline points="352.5,528.0 352.5,550.0 478.1,550.0 478.1,590.0" fill="none" stroke="#4a4a4a" stroke-width="2.0" opacity="1.0"></polyline><text x="356.5" y="541.0" font-size="10.5" font-style="italic" fill="#5f6368" opacity="1.0">Gi1/0/5</text><text x="482.1" y="585.0" font-size="10.5" font-style="italic" fill="#5f6368" opacity="1.0">eno1</text><polyline points="747.1,420.0 747.1,476.0" fill="none" stroke="#4a4a4a" stroke-width="2.0" opacity="1.0"></polyline><text x="751.1" y="433.0" font-size="10.5" font-style="italic" fill="#5f6368" opacity="1.0">Gi0/1/0</text><text x="751.1" y="471.0" font-size="10.5" font-style="italic" fill="#5f6368" opacity="1.0">Gi1/0/1</text><polyline points="1036.2,420.0 1036.2,476.0" fill="none" stroke="#4a4a4a" stroke-width="2.0" opacity="1.0"></polyline><text x="1040.2" y="433.0" font-size="10.5" font-style="italic" fill="#5f6368" opacity="1.0">Gi0/1/0</text><text x="1040.2" y="471.0" font-size="10.5" font-style="italic" fill="#5f6368" opacity="1.0">Gi1/0/1</text><polyline points="799.0,122.0 799.0,140.0 307.3,140.0 307.3,374.0" fill="none" stroke="#1a73e8" stroke-width="3.5" opacity="1.0"></polyline><rect x="177.5" y="186.0" width="259.5" height="42.0" rx="4" fill="#ffffff" fill-opacity="0.92" opacity="1.0"/><text x="307.3" y="199.0" text-anchor="middle" font-size="12" font-style="italic" font-weight="400" fill="#5f6368" opacity="1.0">NTTコミュニケーションズ IP-VPN 100M</text><text x="307.3" y="216.0" text-anchor="middle" font-size="12" font-style="italic" font-weight="400" fill="#5f6368" opacity="1.0">(Gi0/0/0)</text><polyline points="847.6,122.0 847.6,158.0 769.2,158.0 769.2,374.0" fill="none" stroke="#1a73e8" stroke-width="3.5" opacity="1.0"></polyline><rect x="643.3" y="186.0" width="251.8" height="42.0" rx="4" fill="#ffffff" fill-opacity="0.92" opacity="1.0"/><text x="769.2" y="199.0" text-anchor="middle" font-size="12" font-style="italic" font-weight="400" fill="#5f6368" opacity="1.0">NTTコミュニケーションズ IP-VPN 50M</text><text x="769.2" y="216.0" text-anchor="middle" font-size="12" font-style="italic" font-weight="400" fill="#5f6368" opacity="1.0">(Gi0/0/0)</text><polyline points="896.2,122.0 896.2,140.0 1036.2,140.0 1036.2,374.0" fill="none" stroke="#1a73e8" stroke-width="3.5" opacity="1.0"></polyline><rect x="910.4" y="186.0" width="251.8" height="42.0" rx="4" fill="#ffffff" fill-opacity="0.92" opacity="1.0"/><text x="1036.2" y="199.0" text-anchor="middle" font-size="12" font-style="italic" font-weight="400" fill="#5f6368" opacity="1.0">NTTコミュニケーションズ IP-VPN 50M</text><text x="1036.2" y="216.0" text-anchor="middle" font-size="12" font-style="italic" font-weight="400" fill="#5f6368" opacity="1.0">(Gi0/0/0)</text><polyline points="581.3,122.0 581.3,158.0 470.0,158.0 470.0,374.0" fill="none" stroke="#1a73e8" stroke-width="3.5" opacity="1.0"></polyline><rect x="334.9" y="222.0" width="270.2" height="42.0" rx="4" fill="#ffffff" fill-opacity="0.92" opacity="1.0"/><text x="470.0" y="235.0" text-anchor="middle" font-size="12" font-style="italic" font-weight="400" fill="#5f6368" opacity="1.0">NTT東日本 フレッツ光ネクスト + OCN 1G</text><text x="470.0" y="252.0" text-anchor="middle" font-size="12" font-style="italic" font-weight="400" fill="#5f6368" opacity="1.0">(Gi0/0/0)</text><polyline points="635.8,122.0 635.8,158.0 725.0,158.0 725.0,374.0" fill="none" stroke="#1a73e8" stroke-width="3.5" opacity="1.0"></polyline><rect x="589.8" y="258.0" width="270.2" height="42.0" rx="4" fill="#ffffff" fill-opacity="0.92" opacity="1.0"/><text x="725.0" y="271.0" text-anchor="middle" font-size="12" font-style="italic" font-weight="400" fill="#5f6368" opacity="1.0">NTT西日本 フレッツ光ネクスト + OCN 1G</text><text x="725.0" y="288.0" text-anchor="middle" font-size="12" font-style="italic" font-weight="400" fill="#5f6368" opacity="1.0">(Gi0/0/1)</text><ellipse cx="608.6" cy="84.0" rx="81.8" ry="38.0" fill="#f1f3f4" stroke="#5f6368" stroke-width="1.6"/><text x="608.6" y="84.0" text-anchor="middle" dominant-baseline="central" font-size="12.5" font-weight="600" fill="#1e293b">インターネット</text><ellipse cx="847.6" cy="84.0" rx="97.2" ry="38.0" fill="#f1f3f4" stroke="#5f6368" stroke-width="1.6"/><text x="847.6" y="84.0" text-anchor="middle" dominant-baseline="central" font-size="12.5" font-weight="600" fill="#1e293b">NTT Com IP-VPN網</text><rect x="240.9" y="374.0" width="132.8" height="46.0" rx="4" fill="#e8f0fe" stroke="#1a56b0" stroke-width="1.4"/><text x="307.3" y="389.0" text-anchor="middle" dominant-baseline="central" font-size="12.5" font-weight="600" fill="#1e293b">hq-rt01</text><text x="307.3" y="405.0" text-anchor="middle" dominant-baseline="central" font-size="12.5" font-weight="400" fill="#1e293b">Cisco ISR4331</text><rect x="216.7" y="482.0" width="181.1" height="46.0" rx="4" fill="#d2e3fc" stroke="#1a56b0" stroke-width="1.4"/><text x="307.3" y="497.0" text-anchor="middle" dominant-baseline="central" font-size="12.5" font-weight="600" fill="#1e293b">hq-sw01</text><text x="307.3" y="513.0" text-anchor="middle" dominant-baseline="central" font-size="12.5" font-weight="400" fill="#1e293b">Cisco Catalyst 9300</text><rect x="403.7" y="374.0" width="132.8" height="46.0" rx="4" fill="#e8f0fe" stroke="#1a56b0" stroke-width="1.4"/><text x="470.0" y="389.0" text-anchor="middle" dominant-baseline="central" font-size="12.5" font-weight="600" fill="#1e293b">hq-rt02</text><text x="470.0" y="405.0" text-anchor="middle" dominant-baseline="central" font-size="12.5" font-weight="400" fill="#1e293b">Cisco ISR4331</text><rect x="66.0" y="590.0" width="140.8" height="46.0" rx="4" fill="#f1f3f4" stroke="#5f6368" stroke-width="1.4"/><text x="136.4" y="605.0" text-anchor="middle" dominant-baseline="central" font-size="12.5" font-weight="600" fill="#1e293b">hq-srv01</text><text x="136.4" y="621.0" text-anchor="middle" dominant-baseline="central" font-size="12.5" font-weight="400" fill="#1e293b">PowerEdge R760</text><rect x="236.8" y="590.0" width="140.8" height="46.0" rx="4" fill="#f1f3f4" stroke="#5f6368" stroke-width="1.4"/><text x="307.3" y="605.0" text-anchor="middle" dominant-baseline="central" font-size="12.5" font-weight="600" fill="#1e293b">hq-srv02</text><text x="307.3" y="621.0" text-anchor="middle" dominant-baseline="central" font-size="12.5" font-weight="400" fill="#1e293b">PowerEdge R760</text><rect x="407.7" y="590.0" width="140.8" height="46.0" rx="4" fill="#f1f3f4" stroke="#5f6368" stroke-width="1.4"/><text x="478.1" y="605.0" text-anchor="middle" dominant-baseline="central" font-size="12.5" font-weight="600" fill="#1e293b">hq-srv03</text><text x="478.1" y="621.0" text-anchor="middle" dominant-baseline="central" font-size="12.5" font-weight="400" fill="#1e293b">PowerEdge R760</text><rect x="680.7" y="374.0" width="132.8" height="46.0" rx="4" fill="#e8f0fe" stroke="#1a56b0" stroke-width="1.4"/><text x="747.1" y="389.0" text-anchor="middle" dominant-baseline="central" font-size="12.5" font-weight="600" fill="#1e293b">osk-rt01</text><text x="747.1" y="405.0" text-anchor="middle" dominant-baseline="central" font-size="12.5" font-weight="400" fill="#1e293b">Cisco ISR1100</text><rect x="656.5" y="476.0" width="181.1" height="46.0" rx="4" fill="#e6f4ea" stroke="#137333" stroke-width="1.4"/><text x="747.1" y="491.0" text-anchor="middle" dominant-baseline="central" font-size="12.5" font-weight="600" fill="#1e293b">osk-sw01</text><text x="747.1" y="507.0" text-anchor="middle" dominant-baseline="central" font-size="12.5" font-weight="400" fill="#1e293b">Cisco Catalyst 1000</text><rect x="969.8" y="374.0" width="132.8" height="46.0" rx="4" fill="#e8f0fe" stroke="#1a56b0" stroke-width="1.4"/><text x="1036.2" y="389.0" text-anchor="middle" dominant-baseline="central" font-size="12.5" font-weight="600" fill="#1e293b">ngy-rt01</text><text x="1036.2" y="405.0" text-anchor="middle" dominant-baseline="central" font-size="12.5" font-weight="400" fill="#1e293b">Cisco ISR1100</text><rect x="945.7" y="476.0" width="181.1" height="46.0" rx="4" fill="#e6f4ea" stroke="#137333" stroke-width="1.4"/><text x="1036.2" y="491.0" text-anchor="middle" dominant-baseline="central" font-size="12.5" font-weight="600" fill="#1e293b">ngy-sw01</text><text x="1036.2" y="507.0" text-anchor="middle" dominant-baseline="central" font-size="12.5" font-weight="400" fill="#1e293b">Cisco Catalyst 1000</text></svg>