<svg xmlns="http://www.w3.org/2000/svg" width="604" height="678" viewBox="0 0 604 678" font-family="'Segoe UI','Hiragino Sans','Noto Sans JP',Meiryo,sans-serif"><defs></defs><rect width="100%" height="100%" fill="#ffffff"/><text x="24" y="30" font-size="19" font-weight="700" fill="#1e293b">東日本ハブ 物理構成図</text><rect x="40.0" y="300.0" width="323.4" height="338.0" rx="6" fill="#f7f9fc" stroke="#8fa8c4"/><text x="44.0" y="292.0" font-size="14.5" font-weight="600" fill="#33475b">東日本ハブ</text><rect x="65.1" y="347.0" width="281.3" height="64.0" rx="6" fill="none" stroke="#64748b" stroke-width="1.3" stroke-dasharray="5 4"/><text x="69.1" y="342.0" font-size="11.5" font-weight="600" fill="#475569">冗長ペア</text><polyline points="132.4,402.0 132.4,424.0 110.3,424.0 110.3,464.0" fill="none" stroke="#4a4a4a" stroke-width="2.0" opacity="1.0"></polyline><text x="136.4" y="415.0" font-size="10.5" font-style="italic" fill="#5f6368" opacity="1.0">Gi0/1</text><text x="114.3" y="459.0" font-size="10.5" font-style="italic" fill="#5f6368" opacity="1.0">Gi0/1</text><polyline points="279.1,402.0 279.1,424.0 154.5,424.0 154.5,464.0" fill="none" stroke="#4a4a4a" stroke-width="2.0" opacity="1.0"></polyline><text x="283.1" y="415.0" font-size="10.5" font-style="italic" fill="#5f6368" opacity="1.0">Gi0/1</text><text x="158.5" y="459.0" font-size="10.5" font-style="italic" fill="#5f6368" opacity="1.0">Gi0/2</text><polyline points="132.4,510.0 132.4,566.0" fill="none" stroke="#4a4a4a" stroke-width="2.0" opacity="1.0"></polyline><text x="136.4" y="523.0" font-size="10.5" font-style="italic" fill="#5f6368" opacity="1.0">Gi0/3</text><text x="136.4" y="561.0" font-size="10.5" font-style="italic" fill="#5f6368" opacity="1.0">Gi0/1</text><polyline points="180.7,122.0 180.7,140.0 132.4,140.0 132.4,356.0" fill="none" stroke="#1a73e8" stroke-width="3.5" opacity="1.0"></polyline><rect x="60.5" y="168.0" width="143.8" height="42.0" rx="4" fill="#ffffff" fill-opacity="0.92" opacity="1.0"/><text x="132.4" y="181.0" text-anchor="middle" font-size="12" font-style="italic" font-weight="400" fill="#5f6368" opacity="1.0">NTT Com IP-VPN 1G</text><text x="132.4" y="198.0" text-anchor="middle" font-size="12" font-style="italic" font-weight="400" fill="#5f6368" opacity="1.0">(Gi0/2)</text><polyline points="230.7,122.0 230.7,140.0 259.6,140.0 259.6,356.0" fill="none" stroke="#1a73e8" stroke-width="3.5" opacity="1.0"></polyline><rect x="187.7" y="204.0" width="143.8" height="42.0" rx="4" fill="#ffffff" fill-opacity="0.92" opacity="1.0"/><text x="259.6" y="217.0" text-anchor="middle" font-size="12" font-style="italic" font-weight="400" fill="#5f6368" opacity="1.0">NTT Com IP-VPN 1G</text><text x="259.6" y="234.0" text-anchor="middle" font-size="12" font-style="italic" font-weight="400" fill="#5f6368" opacity="1.0">(Gi0/2)</text><polyline points="422.5,122.0 422.5,140.0 298.5,140.0 298.5,356.0" fill="none" stroke="#1a73e8" stroke-width="3.5" opacity="1.0"></polyline><rect x="215.6" y="240.0" width="165.9" height="42.0" rx="4" fill="#ffffff" fill-opacity="0.92" opacity="1.0"/><text x="298.5" y="253.0" text-anchor="middle" font-size="12" font-style="italic" font-weight="400" fill="#5f6368" opacity="1.0">SB モバイル閉域網 100M</text><text x="298.5" y="270.0" text-anchor="middle" font-size="12" font-style="italic" font-weight="400" fill="#5f6368" opacity="1.0">(Gi0/3)</text><ellipse cx="205.7" cy="84.0" rx="75.0" ry="38.0" fill="#f1f3f4" stroke="#5f6368" stroke-width="1.6"/><text x="205.7" y="84.0" text-anchor="middle" dominant-baseline="central" font-size="12.5" font-weight="600" fill="#1e293b">IP-VPN網</text><ellipse cx="422.5" cy="84.0" rx="81.8" ry="38.0" fill="#f1f3f4" stroke="#5f6368" stroke-width="1.6"/><text x="422.5" y="84.0" text-anchor="middle" dominant-baseline="central" font-size="12.5" font-weight="600" fill="#1e293b">モバイル閉域網</text><rect x="74.1" y="356.0" width="116.7" height="46.0" rx="4" fill="#e8f0fe" stroke="#1a56b0" stroke-width="1.4"/><text x="132.4" y="371.0" text-anchor="middle" dominant-baseline="central" font-size="12.5" font-weight="600" fill="#1e293b">hube-rt01</text><text x="132.4" y="387.0" text-anchor="middle" dominant-baseline="central" font-size="12.5" font-weight="400" fill="#1e293b">Cisco C8300</text><rect x="66.0" y="464.0" width="132.8" height="46.0" rx="4" fill="#d2e3fc" stroke="#1a56b0" stroke-width="1.4"/><text x="132.4" y="479.0" text-anchor="middle" dominant-baseline="central" font-size="12.5" font-weight="600" fill="#1e293b">hube-core01</text><text x="132.4" y="495.0" text-anchor="middle" dominant-baseline="central" font-size="12.5" font-weight="400" fill="#1e293b">Catalyst 9500</text><rect x="220.7" y="356.0" width="116.7" height="46.0" rx="4" fill="#e8f0fe" stroke="#1a56b0" stroke-width="1.4"/><text x="279.1" y="371.0" text-anchor="middle" dominant-baseline="central" font-size="12.5" font-weight="600" fill="#1e293b">hube-rt02</text><text x="279.1" y="387.0" text-anchor="middle" dominant-baseline="central" font-size="12.5" font-weight="400" fill="#1e293b">Cisco C8300</text><rect x="78.1" y="566.0" width="108.6" height="46.0" rx="4" fill="#f1f3f4" stroke="#5f6368" stroke-width="1.4"/><text x="132.4" y="581.0" text-anchor="middle" dominant-baseline="central" font-size="12.5" font-weight="600" fill="#1e293b">hube-srv01</text><text x="132.4" y="597.0" text-anchor="middle" dominant-baseline="central" font-size="12.5" font-weight="400" fill="#1e293b">基幹サーバ</text></svg>