<svg xmlns="http://www.w3.org/2000/svg" width="2462" height="476" viewBox="0 0 2462 476" font-family="'Segoe UI','Hiragino Sans','Noto Sans JP',Meiryo,sans-serif"><defs></defs><rect width="100%" height="100%" fill="#ffffff"/><text x="24" y="30" font-size="19" font-weight="700" fill="#1e293b">BGP論理概要図 (ハブ&amp;スポーク)</text><polyline points="1168.7,122.0 1168.7,140.0 88.1,140.0 88.1,390.0" fill="none" stroke="#188038" stroke-width="2.0" opacity="1.0" stroke-dasharray="3 3"></polyline><rect x="70.5" y="330.0" width="35.2" height="24.0" rx="4" fill="#ffffff" fill-opacity="0.92" opacity="1.0"/><text x="88.1" y="343.0" text-anchor="middle" font-size="12" font-style="italic" font-weight="400" fill="#5f6368" opacity="1.0">BGP</text><polyline points="1175.8,122.0 1175.8,158.0 211.2,158.0 211.2,390.0" fill="none" stroke="#188038" stroke-width="2.0" opacity="1.0" stroke-dasharray="3 3"></polyline><rect x="193.6" y="330.0" width="35.2" height="24.0" rx="4" fill="#ffffff" fill-opacity="0.92" opacity="1.0"/><text x="211.2" y="343.0" text-anchor="middle" font-size="12" font-style="italic" font-weight="400" fill="#5f6368" opacity="1.0">BGP</text><polyline points="1183.0,122.0 1183.0,176.0 334.4,176.0 334.4,390.0" fill="none" stroke="#188038" stroke-width="2.0" opacity="1.0" stroke-dasharray="3 3"></polyline><rect x="316.8" y="330.0" width="35.2" height="24.0" rx="4" fill="#ffffff" fill-opacity="0.92" opacity="1.0"/><text x="334.4" y="343.0" text-anchor="middle" font-size="12" font-style="italic" font-weight="400" fill="#5f6368" opacity="1.0">BGP</text><polyline points="1190.1,122.0 1190.1,194.0 457.5,194.0 457.5,390.0" fill="none" stroke="#188038" stroke-width="2.0" opacity="1.0" stroke-dasharray="3 3"></polyline><rect x="439.9" y="330.0" width="35.2" height="24.0" rx="4" fill="#ffffff" fill-opacity="0.92" opacity="1.0"/><text x="457.5" y="343.0" text-anchor="middle" font-size="12" font-style="italic" font-weight="400" fill="#5f6368" opacity="1.0">BGP</text><polyline points="1197.3,122.0 1197.3,212.0 577.5,212.0 577.5,390.0" fill="none" stroke="#188038" stroke-width="2.0" opacity="1.0" stroke-dasharray="3 3"></polyline><rect x="559.9" y="330.0" width="35.2" height="24.0" rx="4" fill="#ffffff" fill-opacity="0.92" opacity="1.0"/><text x="577.5" y="343.0" text-anchor="middle" font-size="12" font-style="italic" font-weight="400" fill="#5f6368" opacity="1.0">BGP</text><polyline points="1204.4,122.0 1204.4,230.0 697.5,230.0 697.5,390.0" fill="none" stroke="#188038" stroke-width="2.0" opacity="1.0" stroke-dasharray="3 3"></polyline><rect x="679.9" y="330.0" width="35.2" height="24.0" rx="4" fill="#ffffff" fill-opacity="0.92" opacity="1.0"/><text x="697.5" y="343.0" text-anchor="middle" font-size="12" font-style="italic" font-weight="400" fill="#5f6368" opacity="1.0">BGP</text><polyline points="1211.6,122.0 1211.6,248.0 817.5,248.0 817.5,390.0" fill="none" stroke="#188038" stroke-width="2.0" opacity="1.0" stroke-dasharray="3 3"></polyline><rect x="799.9" y="330.0" width="35.2" height="24.0" rx="4" fill="#ffffff" fill-opacity="0.92" opacity="1.0"/><text x="817.5" y="343.0" text-anchor="middle" font-size="12" font-style="italic" font-weight="400" fill="#5f6368" opacity="1.0">BGP</text><polyline points="1218.7,122.0 1218.7,266.0 937.5,266.0 937.5,390.0" fill="none" stroke="#188038" stroke-width="2.0" opacity="1.0" stroke-dasharray="3 3"></polyline><rect x="919.9" y="330.0" width="35.2" height="24.0" rx="4" fill="#ffffff" fill-opacity="0.92" opacity="1.0"/><text x="937.5" y="343.0" text-anchor="middle" font-size="12" font-style="italic" font-weight="400" fill="#5f6368" opacity="1.0">BGP</text><polyline points="1225.8,122.0 1225.8,284.0 1057.5,284.0 1057.5,390.0" fill="none" stroke="#188038" stroke-width="2.0" opacity="1.0" stroke-dasharray="3 3"></polyline><rect x="1039.9" y="330.0" width="35.2" height="24.0" rx="4" fill="#ffffff" fill-opacity="0.92" opacity="1.0"/><text x="1057.5" y="343.0" text-anchor="middle" font-size="12" font-style="italic" font-weight="400" fill="#5f6368" opacity="1.0">BGP</text><polyline points="1233.0,122.0 1233.0,302.0 1177.5,302.0 1177.5,390.0" fill="none" stroke="#188038" stroke-width="2.0" opacity="1.0" stroke-dasharray="3 3"></polyline><rect x="1159.9" y="330.0" width="35.2" height="24.0" rx="4" fill="#ffffff" fill-opacity="0.92" opacity="1.0"/><text x="1177.5" y="343.0" text-anchor="middle" font-size="12" font-style="italic" font-weight="400" fill="#5f6368" opacity="1.0">BGP</text><polyline points="1240.1,122.0 1240.1,140.0 1297.5,140.0 1297.5,390.0" fill="none" stroke="#188038" stroke-width="2.0" opacity="1.0" stroke-dasharray="3 3"></polyline><rect x="1279.9" y="330.0" width="35.2" height="24.0" rx="4" fill="#ffffff" fill-opacity="0.92" opacity="1.0"/><text x="1297.5" y="343.0" text-anchor="middle" font-size="12" font-style="italic" font-weight="400" fill="#5f6368" opacity="1.0">BGP</text><polyline points="1247.3,122.0 1247.3,158.0 1417.5,158.0 1417.5,390.0" fill="none" stroke="#188038" stroke-width="2.0" opacity="1.0" stroke-dasharray="3 3"></polyline><rect x="1399.9" y="330.0" width="35.2" height="24.0" rx="4" fill="#ffffff" fill-opacity="0.92" opacity="1.0"/><text x="1417.5" y="343.0" text-anchor="middle" font-size="12" font-style="italic" font-weight="400" fill="#5f6368" opacity="1.0">BGP</text><polyline points="1254.4,122.0 1254.4,176.0 1537.5,176.0 1537.5,390.0" fill="none" stroke="#188038" stroke-width="2.0" opacity="1.0" stroke-dasharray="3 3"></polyline><rect x="1519.9" y="330.0" width="35.2" height="24.0" rx="4" fill="#ffffff" fill-opacity="0.92" opacity="1.0"/><text x="1537.5" y="343.0" text-anchor="middle" font-size="12" font-style="italic" font-weight="400" fill="#5f6368" opacity="1.0">BGP</text><polyline points="1261.6,122.0 1261.6,194.0 1657.5,194.0 1657.5,390.0" fill="none" stroke="#188038" stroke-width="2.0" opacity="1.0" stroke-dasharray="3 3"></polyline><rect x="1639.9" y="330.0" width="35.2" height="24.0" rx="4" fill="#ffffff" fill-opacity="0.92" opacity="1.0"/><text x="1657.5" y="343.0" text-anchor="middle" font-size="12" font-style="italic" font-weight="400" fill="#5f6368" opacity="1.0">BGP</text><polyline points="1268.7,122.0 1268.7,212.0 1777.5,212.0 1777.5,390.0" fill="none" stroke="#188038" stroke-width="2.0" opacity="1.0" stroke-dasharray="3 3"></polyline><rect x="1759.9" y="330.0" width="35.2" height="24.0" rx="4" fill="#ffffff" fill-opacity="0.92" opacity="1.0"/><text x="1777.5" y="343.0" text-anchor="middle" font-size="12" font-style="italic" font-weight="400" fill="#5f6368" opacity="1.0">BGP</text><polyline points="1275.8,122.0 1275.8,230.0 1897.5,230.0 1897.5,390.0" fill="none" stroke="#188038" stroke-width="2.0" opacity="1.0" stroke-dasharray="3 3"></polyline><rect x="1879.9" y="330.0" width="35.2" height="24.0" rx="4" fill="#ffffff" fill-opacity="0.92" opacity="1.0"/><text x="1897.5" y="343.0" text-anchor="middle" font-size="12" font-style="italic" font-weight="400" fill="#5f6368" opacity="1.0">BGP</text><polyline points="1283.0,122.0 1283.0,248.0 2017.5,248.0 2017.5,390.0" fill="none" stroke="#188038" stroke-width="2.0" opacity="1.0" stroke-dasharray="3 3"></polyline><rect x="1999.9" y="330.0" width="35.2" height="24.0" rx="4" fill="#ffffff" fill-opacity="0.92" opacity="1.0"/><text x="2017.5" y="343.0" text-anchor="middle" font-size="12" font-style="italic" font-weight="400" fill="#5f6368" opacity="1.0">BGP</text><polyline points="1290.1,122.0 1290.1,266.0 2137.5,266.0 2137.5,390.0" fill="none" stroke="#188038" stroke-width="2.0" opacity="1.0" stroke-dasharray="3 3"></polyline><rect x="2119.9" y="330.0" width="35.2" height="24.0" rx="4" fill="#ffffff" fill-opacity="0.92" opacity="1.0"/><text x="2137.5" y="343.0" text-anchor="middle" font-size="12" font-style="italic" font-weight="400" fill="#5f6368" opacity="1.0">BGP</text><polyline points="1297.3,122.0 1297.3,284.0 2257.5,284.0 2257.5,390.0" fill="none" stroke="#188038" stroke-width="2.0" opacity="1.0" stroke-dasharray="3 3"></polyline><rect x="2239.9" y="330.0" width="35.2" height="24.0" rx="4" fill="#ffffff" fill-opacity="0.92" opacity="1.0"/><text x="2257.5" y="343.0" text-anchor="middle" font-size="12" font-style="italic" font-weight="400" fill="#5f6368" opacity="1.0">BGP</text><polyline points="1304.4,122.0 1304.4,302.0 2377.5,302.0 2377.5,390.0" fill="none" stroke="#188038" stroke-width="2.0" opacity="1.0" stroke-dasharray="3 3"></polyline><rect x="2359.9" y="330.0" width="35.2" height="24.0" rx="4" fill="#ffffff" fill-opacity="0.92" opacity="1.0"/><text x="2377.5" y="343.0" text-anchor="middle" font-size="12" font-style="italic" font-weight="400" fill="#5f6368" opacity="1.0">BGP</text><ellipse cx="1236.6" cy="84.0" rx="75.0" ry="38.0" fill="#f1f3f4" stroke="#5f6368" stroke-width="1.6"/><text x="1236.6" y="84.0" text-anchor="middle" dominant-baseline="central" font-size="12.5" font-weight="600" fill="#1e293b">IP-VPN網</text><rect x="40.0" y="390.0" width="96.2" height="46.0" rx="4" fill="#fff8e1" stroke="#b58105" stroke-width="1.4"/><text x="88.1" y="413.0" text-anchor="middle" dominant-baseline="central" font-size="12.5" font-weight="600" fill="#1e293b">東日本ハブ</text><rect x="166.2" y="390.0" width="90.0" height="46.0" rx="4" fill="#fff8e1" stroke="#b58105" stroke-width="1.4"/><text x="211.2" y="413.0" text-anchor="middle" dominant-baseline="central" font-size="12.5" font-weight="600" fill="#1e293b">支店03</text><rect x="286.2" y="390.0" width="96.2" height="46.0" rx="4" fill="#fff8e1" stroke="#b58105" stroke-width="1.4"/><text x="334.4" y="413.0" text-anchor="middle" dominant-baseline="central" font-size="12.5" font-weight="600" fill="#1e293b">西日本ハブ</text><rect x="412.5" y="390.0" width="90.0" height="46.0" rx="4" fill="#fff8e1" stroke="#b58105" stroke-width="1.4"/><text x="457.5" y="413.0" text-anchor="middle" dominant-baseline="central" font-size="12.5" font-weight="600" fill="#1e293b">支店04</text><rect x="532.5" y="390.0" width="90.0" height="46.0" rx="4" fill="#fff8e1" stroke="#b58105" stroke-width="1.4"/><text x="577.5" y="413.0" text-anchor="middle" dominant-baseline="central" font-size="12.5" font-weight="600" fill="#1e293b">支店05</text><rect x="652.5" y="390.0" width="90.0" height="46.0" rx="4" fill="#fff8e1" stroke="#b58105" stroke-width="1.4"/><text x="697.5" y="413.0" text-anchor="middle" dominant-baseline="central" font-size="12.5" font-weight="600" fill="#1e293b">支店06</text><rect x="772.5" y="390.0" width="90.0" height="46.0" rx="4" fill="#fff8e1" stroke="#b58105" stroke-width="1.4"/><text x="817.5" y="413.0" text-anchor="middle" dominant-baseline="central" font-size="12.5" font-weight="600" fill="#1e293b">支店07</text><rect x="892.5" y="390.0" width="90.0" height="46.0" rx="4" fill="#fff8e1" stroke="#b58105" stroke-width="1.4"/><text x="937.5" y="413.0" text-anchor="middle" dominant-baseline="central" font-size="12.5" font-weight="600" fill="#1e293b">支店08</text><rect x="1012.5" y="390.0" width="90.0" height="46.0" rx="4" fill="#fff8e1" stroke="#b58105" stroke-width="1.4"/><text x="1057.5" y="413.0" text-anchor="middle" dominant-baseline="central" font-size="12.5" font-weight="600" fill="#1e293b">支店09</text><rect x="1132.5" y="390.0" width="90.0" height="46.0" rx="4" fill="#fff8e1" stroke="#b58105" stroke-width="1.4"/><text x="1177.5" y="413.0" text-anchor="middle" dominant-baseline="central" font-size="12.5" font-weight="600" fill="#1e293b">支店10</text><rect x="1252.5" y="390.0" width="90.0" height="46.0" rx="4" fill="#fff8e1" stroke="#b58105" stroke-width="1.4"/><text x="1297.5" y="413.0" text-anchor="middle" dominant-baseline="central" font-size="12.5" font-weight="600" fill="#1e293b">支店11</text><rect x="1372.5" y="390.0" width="90.0" height="46.0" rx="4" fill="#fff8e1" stroke="#b58105" stroke-width="1.4"/><text x="1417.5" y="413.0" text-anchor="middle" dominant-baseline="central" font-size="12.5" font-weight="600" fill="#1e293b">支店12</text><rect x="1492.5" y="390.0" width="90.0" height="46.0" rx="4" fill="#fff8e1" stroke="#b58105" stroke-width="1.4"/><text x="1537.5" y="413.0" text-anchor="middle" dominant-baseline="central" font-size="12.5" font-weight="600" fill="#1e293b">支店13</text><rect x="1612.5" y="390.0" width="90.0" height="46.0" rx="4" fill="#fff8e1" stroke="#b58105" stroke-width="1.4"/><text x="1657.5" y="413.0" text-anchor="middle" dominant-baseline="central" font-size="12.5" font-weight="600" fill="#1e293b">支店14</text><rect x="1732.5" y="390.0" width="90.0" height="46.0" rx="4" fill="#fff8e1" stroke="#b58105" stroke-width="1.4"/><text x="1777.5" y="413.0" text-anchor="middle" dominant-baseline="central" font-size="12.5" font-weight="600" fill="#1e293b">支店15</text><rect x="1852.5" y="390.0" width="90.0" height="46.0" rx="4" fill="#fff8e1" stroke="#b58105" stroke-width="1.4"/><text x="1897.5" y="413.0" text-anchor="middle" dominant-baseline="central" font-size="12.5" font-weight="600" fill="#1e293b">支店16</text><rect x="1972.5" y="390.0" width="90.0" height="46.0" rx="4" fill="#fff8e1" stroke="#b58105" stroke-width="1.4"/><text x="2017.5" y="413.0" text-anchor="middle" dominant-baseline="central" font-size="12.5" font-weight="600" fill="#1e293b">支店17</text><rect x="2092.5" y="390.0" width="90.0" height="46.0" rx="4" fill="#fff8e1" stroke="#b58105" stroke-width="1.4"/><text x="2137.5" y="413.0" text-anchor="middle" dominant-baseline="central" font-size="12.5" font-weight="600" fill="#1e293b">支店18</text><rect x="2212.5" y="390.0" width="90.0" height="46.0" rx="4" fill="#fff8e1" stroke="#b58105" stroke-width="1.4"/><text x="2257.5" y="413.0" text-anchor="middle" dominant-baseline="central" font-size="12.5" font-weight="600" fill="#1e293b">支店19</text><rect x="2332.5" y="390.0" width="90.0" height="46.0" rx="4" fill="#fff8e1" stroke="#b58105" stroke-width="1.4"/><text x="2377.5" y="413.0" text-anchor="middle" dominant-baseline="central" font-size="12.5" font-weight="600" fill="#1e293b">支店20</text></svg>