<svg xmlns="http://www.w3.org/2000/svg" width="3032" height="1362" viewBox="0 0 3032 1362" font-family="'Segoe UI','Hiragino Sans','Noto Sans JP',Meiryo,sans-serif"><defs><marker id="arrow-c5221f" viewBox="0 0 10 10" refX="9" refY="5" markerWidth="7" markerHeight="7" orient="auto-start-reverse"><path d="M 0 0 L 10 5 L 0 10 z" fill="#c5221f"/></marker></defs><rect width="100%" height="100%" fill="#ffffff"/><text x="24" y="30" font-size="19" font-weight="700" fill="#1e293b">支店06 IP-VPN障害時経路</text><rect x="40.0" y="984.0" width="323.4" height="338.0" rx="6" fill="#f7f9fc" stroke="#8fa8c4"/><text x="44.0" y="976.0" font-size="14.5" font-weight="600" fill="#33475b">東日本ハブ</text><rect x="419.4" y="984.0" width="184.8" height="230.0" rx="6" fill="#f7f9fc" stroke="#8fa8c4"/><text x="423.4" y="976.0" font-size="14.5" font-weight="600" fill="#33475b">支店06</text><polyline points="132.4,1086.0 132.4,1108.0 110.3,1108.0 110.3,1148.0" fill="none" stroke="#4a4a4a" stroke-width="2.0" opacity="0.15"></polyline><text x="136.4" y="1099.0" font-size="10.5" font-style="italic" fill="#5f6368" opacity="0.15">Gi0/1</text><text x="114.3" y="1143.0" font-size="10.5" font-style="italic" fill="#5f6368" opacity="0.15">Gi0/1</text><polyline points="837.4,122.0 837.4,140.0 79.9,140.0 79.9,1040.0" fill="none" stroke="#1a73e8" stroke-width="3.5" opacity="0.15"></polyline><rect x="8.0" y="600.0" width="143.8" height="42.0" rx="4" fill="#ffffff" fill-opacity="0.92" opacity="0.15"/><text x="79.9" y="613.0" text-anchor="middle" font-size="12" font-style="italic" font-weight="400" fill="#5f6368" opacity="0.15">NTT Com IP-VPN 1G</text><text x="79.9" y="630.0" text-anchor="middle" font-size="12" font-style="italic" font-weight="400" fill="#5f6368" opacity="0.15">(Gi0/2)</text><polyline points="905.2,122.0 905.2,158.0 298.5,158.0 298.5,1040.0" fill="none" stroke="#1a73e8" stroke-width="3.5" opacity="0.15"></polyline><rect x="226.6" y="600.0" width="143.8" height="42.0" rx="4" fill="#ffffff" fill-opacity="0.92" opacity="0.15"/><text x="298.5" y="613.0" text-anchor="middle" font-size="12" font-style="italic" font-weight="400" fill="#5f6368" opacity="0.15">NTT Com IP-VPN 1G</text><text x="298.5" y="630.0" text-anchor="middle" font-size="12" font-style="italic" font-weight="400" fill="#5f6368" opacity="0.15">(Gi0/2)</text><polyline points="841.0,122.0 841.0,194.0 85.7,194.0 85.7,1040.0" fill="none" stroke="#188038" stroke-width="2.0" opacity="0.15" stroke-dasharray="3 3"></polyline><rect x="68.1" y="636.0" width="35.2" height="24.0" rx="4" fill="#ffffff" fill-opacity="0.92" opacity="0.15"/><text x="85.7" y="649.0" text-anchor="middle" font-size="12" font-style="italic" font-weight="400" fill="#5f6368" opacity="0.15">BGP</text><polyline points="919.5,122.0 919.5,176.0 710.4,176.0 710.4,984.0" fill="none" stroke="#188038" stroke-width="2.0" opacity="0.15" stroke-dasharray="3 3"></polyline><polyline points="844.5,122.0 844.5,212.0 91.6,212.0 91.6,1040.0" fill="none" stroke="#188038" stroke-width="2.0" opacity="0.15" stroke-dasharray="3 3"></polyline><rect x="73.9" y="672.0" width="35.2" height="24.0" rx="4" fill="#ffffff" fill-opacity="0.92" opacity="0.15"/><text x="91.6" y="685.0" text-anchor="middle" font-size="12" font-style="italic" font-weight="400" fill="#5f6368" opacity="0.15">BGP</text><polyline points="923.1,122.0 923.1,230.0 841.0,230.0 841.0,984.0" fill="none" stroke="#188038" stroke-width="2.0" opacity="0.15" stroke-dasharray="3 3"></polyline><polyline points="848.1,122.0 848.1,248.0 97.4,248.0 97.4,1040.0" fill="none" stroke="#188038" stroke-width="2.0" opacity="0.15" stroke-dasharray="3 3"></polyline><rect x="79.8" y="708.0" width="35.2" height="24.0" rx="4" fill="#ffffff" fill-opacity="0.92" opacity="0.15"/><text x="97.4" y="721.0" text-anchor="middle" font-size="12" font-style="italic" font-weight="400" fill="#5f6368" opacity="0.15">BGP</text><polyline points="926.7,122.0 926.7,140.0 971.5,140.0 971.5,984.0" fill="none" stroke="#188038" stroke-width="2.0" opacity="0.15" stroke-dasharray="3 3"></polyline><polyline points="908.8,122.0 908.8,266.0 429.4,266.0 429.4,1128.0 500.1,1128.0 500.1,1142.0" fill="none" stroke="#c5221f" stroke-width="3.5" opacity="0.55" stroke-dasharray="5 4"></polyline><rect x="420.5" y="600.0" width="159.2" height="42.0" rx="4" fill="#ffffff" fill-opacity="0.92" opacity="0.55"/><text x="500.1" y="613.0" text-anchor="middle" font-size="12" font-style="italic" font-weight="400" fill="#5f6368" opacity="0.55">NTT Com IP-VPN 100M</text><text x="500.1" y="630.0" text-anchor="middle" font-size="12" font-style="italic" font-weight="400" fill="#5f6368" opacity="0.55">(Gi0/2)</text><polyline points="851.7,122.0 851.7,284.0 103.2,284.0 103.2,1040.0" fill="none" stroke="#188038" stroke-width="2.0" opacity="0.15" stroke-dasharray="3 3"></polyline><rect x="85.6" y="744.0" width="35.2" height="24.0" rx="4" fill="#ffffff" fill-opacity="0.92" opacity="0.15"/><text x="103.2" y="757.0" text-anchor="middle" font-size="12" font-style="italic" font-weight="400" fill="#5f6368" opacity="0.15">BGP</text><polyline points="912.4,122.0 912.4,302.0 594.2,302.0 594.2,1128.0 523.4,1128.0 523.4,1142.0" fill="none" stroke="#188038" stroke-width="2.0" opacity="0.15" stroke-dasharray="3 3"></polyline><polyline points="930.2,122.0 930.2,158.0 1108.0,158.0 1108.0,984.0" fill="none" stroke="#188038" stroke-width="2.0" opacity="0.15" stroke-dasharray="3 3"></polyline><rect x="1090.3" y="600.0" width="35.2" height="24.0" rx="4" fill="#ffffff" fill-opacity="0.92" opacity="0.15"/><text x="1108.0" y="613.0" text-anchor="middle" font-size="12" font-style="italic" font-weight="400" fill="#5f6368" opacity="0.15">BGP</text><polyline points="916.0,122.0 916.0,320.0 594.2,320.0 594.2,1128.0 546.8,1128.0 546.8,1142.0" fill="none" stroke="#188038" stroke-width="2.0" opacity="0.15" stroke-dasharray="3 3"></polyline><polyline points="855.2,122.0 855.2,338.0 109.1,338.0 109.1,1040.0" fill="none" stroke="#188038" stroke-width="2.0" opacity="0.15" stroke-dasharray="3 3"></polyline><rect x="91.4" y="780.0" width="35.2" height="24.0" rx="4" fill="#ffffff" fill-opacity="0.92" opacity="0.15"/><text x="109.1" y="793.0" text-anchor="middle" font-size="12" font-style="italic" font-weight="400" fill="#5f6368" opacity="0.15">BGP</text><polyline points="933.8,122.0 933.8,176.0 1244.4,176.0 1244.4,984.0" fill="none" stroke="#188038" stroke-width="2.0" opacity="0.15" stroke-dasharray="3 3"></polyline><polyline points="858.8,122.0 858.8,356.0 114.9,356.0 114.9,1040.0" fill="none" stroke="#188038" stroke-width="2.0" opacity="0.15" stroke-dasharray="3 3"></polyline><rect x="97.3" y="816.0" width="35.2" height="24.0" rx="4" fill="#ffffff" fill-opacity="0.92" opacity="0.15"/><text x="114.9" y="829.0" text-anchor="middle" font-size="12" font-style="italic" font-weight="400" fill="#5f6368" opacity="0.15">BGP</text><polyline points="937.4,122.0 937.4,194.0 1375.0,194.0 1375.0,984.0" fill="none" stroke="#188038" stroke-width="2.0" opacity="0.15" stroke-dasharray="3 3"></polyline><polyline points="862.4,122.0 862.4,374.0 120.7,374.0 120.7,1040.0" fill="none" stroke="#188038" stroke-width="2.0" opacity="0.15" stroke-dasharray="3 3"></polyline><rect x="103.1" y="852.0" width="35.2" height="24.0" rx="4" fill="#ffffff" fill-opacity="0.92" opacity="0.15"/><text x="120.7" y="865.0" text-anchor="middle" font-size="12" font-style="italic" font-weight="400" fill="#5f6368" opacity="0.15">BGP</text><polyline points="941.0,122.0 941.0,212.0 1505.5,212.0 1505.5,984.0" fill="none" stroke="#188038" stroke-width="2.0" opacity="0.15" stroke-dasharray="3 3"></polyline><polyline points="866.0,122.0 866.0,392.0 126.6,392.0 126.6,1040.0" fill="none" stroke="#188038" stroke-width="2.0" opacity="0.15" stroke-dasharray="3 3"></polyline><rect x="108.9" y="888.0" width="35.2" height="24.0" rx="4" fill="#ffffff" fill-opacity="0.92" opacity="0.15"/><text x="126.6" y="901.0" text-anchor="middle" font-size="12" font-style="italic" font-weight="400" fill="#5f6368" opacity="0.15">BGP</text><polyline points="944.5,122.0 944.5,230.0 1636.0,230.0 1636.0,984.0" fill="none" stroke="#188038" stroke-width="2.0" opacity="0.15" stroke-dasharray="3 3"></polyline><polyline points="869.5,122.0 869.5,410.0 132.4,410.0 132.4,1040.0" fill="none" stroke="#188038" stroke-width="2.0" opacity="0.15" stroke-dasharray="3 3"></polyline><rect x="114.8" y="924.0" width="35.2" height="24.0" rx="4" fill="#ffffff" fill-opacity="0.92" opacity="0.15"/><text x="132.4" y="937.0" text-anchor="middle" font-size="12" font-style="italic" font-weight="400" fill="#5f6368" opacity="0.15">BGP</text><polyline points="948.1,122.0 948.1,248.0 1766.6,248.0 1766.6,984.0" fill="none" stroke="#188038" stroke-width="2.0" opacity="0.15" stroke-dasharray="3 3"></polyline><polyline points="873.1,122.0 873.1,428.0 138.2,428.0 138.2,1040.0" fill="none" stroke="#188038" stroke-width="2.0" opacity="0.15" stroke-dasharray="3 3"></polyline><rect x="120.6" y="636.0" width="35.2" height="24.0" rx="4" fill="#ffffff" fill-opacity="0.92" opacity="0.15"/><text x="138.2" y="649.0" text-anchor="middle" font-size="12" font-style="italic" font-weight="400" fill="#5f6368" opacity="0.15">BGP</text><polyline points="951.7,122.0 951.7,266.0 1897.1,266.0 1897.1,984.0" fill="none" stroke="#188038" stroke-width="2.0" opacity="0.15" stroke-dasharray="3 3"></polyline><polyline points="876.7,122.0 876.7,446.0 144.1,446.0 144.1,1040.0" fill="none" stroke="#188038" stroke-width="2.0" opacity="0.15" stroke-dasharray="3 3"></polyline><rect x="126.4" y="672.0" width="35.2" height="24.0" rx="4" fill="#ffffff" fill-opacity="0.92" opacity="0.15"/><text x="144.1" y="685.0" text-anchor="middle" font-size="12" font-style="italic" font-weight="400" fill="#5f6368" opacity="0.15">BGP</text><polyline points="955.2,122.0 955.2,284.0 2027.7,284.0 2027.7,984.0" fill="none" stroke="#188038" stroke-width="2.0" opacity="0.15" stroke-dasharray="3 3"></polyline><polyline points="880.2,122.0 880.2,464.0 149.9,464.0 149.9,1040.0" fill="none" stroke="#188038" stroke-width="2.0" opacity="0.15" stroke-dasharray="3 3"></polyline><rect x="132.3" y="708.0" width="35.2" height="24.0" rx="4" fill="#ffffff" fill-opacity="0.92" opacity="0.15"/><text x="149.9" y="721.0" text-anchor="middle" font-size="12" font-style="italic" font-weight="400" fill="#5f6368" opacity="0.15">BGP</text><polyline points="958.8,122.0 958.8,302.0 2158.2,302.0 2158.2,984.0" fill="none" stroke="#188038" stroke-width="2.0" opacity="0.15" stroke-dasharray="3 3"></polyline><polyline points="883.8,122.0 883.8,482.0 155.7,482.0 155.7,1040.0" fill="none" stroke="#188038" stroke-width="2.0" opacity="0.15" stroke-dasharray="3 3"></polyline><rect x="138.1" y="744.0" width="35.2" height="24.0" rx="4" fill="#ffffff" fill-opacity="0.92" opacity="0.15"/><text x="155.7" y="757.0" text-anchor="middle" font-size="12" font-style="italic" font-weight="400" fill="#5f6368" opacity="0.15">BGP</text><polyline points="962.4,122.0 962.4,320.0 2288.7,320.0 2288.7,984.0" fill="none" stroke="#188038" stroke-width="2.0" opacity="0.15" stroke-dasharray="3 3"></polyline><polyline points="887.4,122.0 887.4,500.0 161.6,500.0 161.6,1040.0" fill="none" stroke="#188038" stroke-width="2.0" opacity="0.15" stroke-dasharray="3 3"></polyline><rect x="143.9" y="780.0" width="35.2" height="24.0" rx="4" fill="#ffffff" fill-opacity="0.92" opacity="0.15"/><text x="161.6" y="793.0" text-anchor="middle" font-size="12" font-style="italic" font-weight="400" fill="#5f6368" opacity="0.15">BGP</text><polyline points="966.0,122.0 966.0,338.0 2419.3,338.0 2419.3,984.0" fill="none" stroke="#188038" stroke-width="2.0" opacity="0.15" stroke-dasharray="3 3"></polyline><polyline points="891.0,122.0 891.0,518.0 167.4,518.0 167.4,1040.0" fill="none" stroke="#188038" stroke-width="2.0" opacity="0.15" stroke-dasharray="3 3"></polyline><rect x="149.8" y="816.0" width="35.2" height="24.0" rx="4" fill="#ffffff" fill-opacity="0.92" opacity="0.15"/><text x="167.4" y="829.0" text-anchor="middle" font-size="12" font-style="italic" font-weight="400" fill="#5f6368" opacity="0.15">BGP</text><polyline points="969.5,122.0 969.5,356.0 2549.8,356.0 2549.8,984.0" fill="none" stroke="#188038" stroke-width="2.0" opacity="0.15" stroke-dasharray="3 3"></polyline><polyline points="894.5,122.0 894.5,536.0 173.2,536.0 173.2,1040.0" fill="none" stroke="#188038" stroke-width="2.0" opacity="0.15" stroke-dasharray="3 3"></polyline><rect x="155.6" y="852.0" width="35.2" height="24.0" rx="4" fill="#ffffff" fill-opacity="0.92" opacity="0.15"/><text x="173.2" y="865.0" text-anchor="middle" font-size="12" font-style="italic" font-weight="400" fill="#5f6368" opacity="0.15">BGP</text><polyline points="973.1,122.0 973.1,374.0 2680.4,374.0 2680.4,984.0" fill="none" stroke="#188038" stroke-width="2.0" opacity="0.15" stroke-dasharray="3 3"></polyline><polyline points="898.1,122.0 898.1,554.0 179.1,554.0 179.1,1040.0" fill="none" stroke="#188038" stroke-width="2.0" opacity="0.15" stroke-dasharray="3 3"></polyline><rect x="161.4" y="888.0" width="35.2" height="24.0" rx="4" fill="#ffffff" fill-opacity="0.92" opacity="0.15"/><text x="179.1" y="901.0" text-anchor="middle" font-size="12" font-style="italic" font-weight="400" fill="#5f6368" opacity="0.15">BGP</text><polyline points="976.7,122.0 976.7,392.0 2810.9,392.0 2810.9,984.0" fill="none" stroke="#188038" stroke-width="2.0" opacity="0.15" stroke-dasharray="3 3"></polyline><polyline points="901.7,122.0 901.7,572.0 184.9,572.0 184.9,1040.0" fill="none" stroke="#188038" stroke-width="2.0" opacity="0.15" stroke-dasharray="3 3"></polyline><rect x="167.3" y="600.0" width="35.2" height="24.0" rx="4" fill="#ffffff" fill-opacity="0.92" opacity="0.15"/><text x="184.9" y="613.0" text-anchor="middle" font-size="12" font-style="italic" font-weight="400" fill="#5f6368" opacity="0.15">BGP</text><polyline points="980.2,122.0 980.2,410.0 2941.4,410.0 2941.4,984.0" fill="none" stroke="#188038" stroke-width="2.0" opacity="0.15" stroke-dasharray="3 3"></polyline><polyline points="279.1,1086.0 279.1,1108.0 154.5,1108.0 154.5,1148.0" fill="none" stroke="#c5221f" stroke-width="4.0" opacity="1.0" stroke-dasharray="10 6" marker-end="url(#arrow-c5221f)"><animate attributeName="stroke-dashoffset" from="32" to="0" dur="1.2s" repeatCount="indefinite"/></polyline><text x="283.1" y="1099.0" font-size="10.5" font-style="italic" fill="#5f6368" opacity="1.0">Gi0/1</text><text x="158.5" y="1143.0" font-size="10.5" font-style="italic" fill="#5f6368" opacity="1.0">Gi0/2</text><rect x="206.9" y="1097.0" width="19.8" height="22.0" rx="4" fill="#ffffff" fill-opacity="0.92" opacity="1.0"/><text x="216.8" y="1110.0" text-anchor="middle" font-size="12" font-style="italic" font-weight="600" fill="#c5221f" opacity="1.0">④</text><polyline points="132.4,1194.0 132.4,1250.0" fill="none" stroke="#c5221f" stroke-width="4.0" opacity="1.0" stroke-dasharray="10 6" marker-end="url(#arrow-c5221f)"><animate attributeName="stroke-dashoffset" from="32" to="0" dur="1.2s" repeatCount="indefinite"/></polyline><text x="136.4" y="1207.0" font-size="10.5" font-style="italic" fill="#5f6368" opacity="1.0">Gi0/3</text><text x="136.4" y="1245.0" font-size="10.5" font-style="italic" fill="#5f6368" opacity="1.0">Gi0/1</text><rect x="122.5" y="1211.0" width="19.8" height="22.0" rx="4" fill="#ffffff" fill-opacity="0.92" opacity="1.0"/><text x="132.4" y="1224.0" text-anchor="middle" font-size="12" font-style="italic" font-weight="600" fill="#c5221f" opacity="1.0">⑤</text><polyline points="511.8,1086.0 511.8,1142.0" fill="none" stroke="#c5221f" stroke-width="4.0" opacity="1.0" stroke-dasharray="10 6" marker-end="url(#arrow-c5221f)"><animate attributeName="stroke-dashoffset" from="32" to="0" dur="1.2s" repeatCount="indefinite"/></polyline><text x="515.8" y="1099.0" font-size="10.5" font-style="italic" fill="#5f6368" opacity="1.0">Gi0/1</text><text x="515.8" y="1137.0" font-size="10.5" font-style="italic" fill="#5f6368" opacity="1.0">Gi0/1</text><rect x="501.9" y="1103.0" width="19.8" height="22.0" rx="4" fill="#ffffff" fill-opacity="0.92" opacity="1.0"/><text x="511.8" y="1116.0" text-anchor="middle" font-size="12" font-style="italic" font-weight="600" fill="#c5221f" opacity="1.0">①</text><polyline points="368.2,122.0 368.2,176.0 259.6,176.0 259.6,1040.0" fill="none" stroke="#c5221f" stroke-width="4.0" opacity="1.0" stroke-dasharray="10 6" marker-end="url(#arrow-c5221f)"><animate attributeName="stroke-dashoffset" from="32" to="0" dur="1.2s" repeatCount="indefinite"/></polyline><rect x="249.7" y="636.0" width="19.8" height="24.0" rx="4" fill="#ffffff" fill-opacity="0.92" opacity="1.0"/><text x="259.6" y="649.0" text-anchor="middle" font-size="12" font-style="italic" font-weight="600" fill="#c5221f" opacity="1.0">③</text><polyline points="476.8,1142.0 476.8,1128.0 429.4,1128.0 429.4,176.0 422.7,176.0 422.7,122.0" fill="none" stroke="#c5221f" stroke-width="4.0" opacity="1.0" stroke-dasharray="10 6" marker-end="url(#arrow-c5221f)"><animate attributeName="stroke-dashoffset" from="32" to="0" dur="1.2s" repeatCount="indefinite"/></polyline><rect x="381.9" y="636.0" width="189.8" height="24.0" rx="4" fill="#ffffff" fill-opacity="0.92" opacity="1.0"/><text x="476.8" y="649.0" text-anchor="middle" font-size="12" font-style="italic" font-weight="600" fill="#c5221f" opacity="1.0">② BGP モバイル閉域網へ切替</text><ellipse cx="395.4" cy="84.0" rx="81.8" ry="38.0" fill="#f1f3f4" stroke="#5f6368" stroke-width="1.6"/><text x="395.4" y="84.0" text-anchor="middle" dominant-baseline="central" font-size="12.5" font-weight="600" fill="#1e293b">モバイル閉域網</text><ellipse cx="908.8" cy="84.0" rx="75.0" ry="38.0" fill="#f1f3f4" stroke="#5f6368" stroke-width="1.6" opacity="0.3"/><text x="908.8" y="84.0" text-anchor="middle" dominant-baseline="central" font-size="12.5" font-weight="600" fill="#1e293b" opacity="0.3">IP-VPN網</text><rect x="74.1" y="1040.0" width="116.7" height="46.0" rx="4" fill="#e8f0fe" stroke="#1a56b0" stroke-width="1.4" opacity="0.3"/><text x="132.4" y="1055.0" text-anchor="middle" dominant-baseline="central" font-size="12.5" font-weight="600" fill="#1e293b" opacity="0.3">hube-rt01</text><text x="132.4" y="1071.0" text-anchor="middle" dominant-baseline="central" font-size="12.5" font-weight="400" fill="#1e293b" opacity="0.3">Cisco C8300</text><rect x="66.0" y="1148.0" width="132.8" height="46.0" rx="4" fill="#d2e3fc" stroke="#1a56b0" stroke-width="1.4"/><text x="132.4" y="1163.0" text-anchor="middle" dominant-baseline="central" font-size="12.5" font-weight="600" fill="#1e293b">hube-core01</text><text x="132.4" y="1179.0" text-anchor="middle" dominant-baseline="central" font-size="12.5" font-weight="400" fill="#1e293b">Catalyst 9500</text><rect x="220.7" y="1040.0" width="116.7" height="46.0" rx="4" fill="#e8f0fe" stroke="#1a56b0" stroke-width="1.4"/><text x="279.1" y="1055.0" text-anchor="middle" dominant-baseline="central" font-size="12.5" font-weight="600" fill="#1e293b">hube-rt02</text><text x="279.1" y="1071.0" text-anchor="middle" dominant-baseline="central" font-size="12.5" font-weight="400" fill="#1e293b">Cisco C8300</text><rect x="78.1" y="1250.0" width="108.6" height="46.0" rx="4" fill="#f1f3f4" stroke="#5f6368" stroke-width="1.4"/><text x="132.4" y="1265.0" text-anchor="middle" dominant-baseline="central" font-size="12.5" font-weight="600" fill="#1e293b">hube-srv01</text><text x="132.4" y="1281.0" text-anchor="middle" dominant-baseline="central" font-size="12.5" font-weight="400" fill="#1e293b">基幹サーバ</text><rect x="453.4" y="1142.0" width="116.7" height="46.0" rx="4" fill="#e8f0fe" stroke="#1a56b0" stroke-width="1.4"/><text x="511.8" y="1157.0" text-anchor="middle" dominant-baseline="central" font-size="12.5" font-weight="600" fill="#1e293b">br06-rt01</text><text x="511.8" y="1173.0" text-anchor="middle" dominant-baseline="central" font-size="12.5" font-weight="400" fill="#1e293b">Cisco C1121</text><rect x="445.4" y="1040.0" width="132.8" height="46.0" rx="4" fill="#e6f4ea" stroke="#137333" stroke-width="1.4"/><text x="511.8" y="1055.0" text-anchor="middle" dominant-baseline="central" font-size="12.5" font-weight="600" fill="#1e293b">br06-sw01</text><text x="511.8" y="1071.0" text-anchor="middle" dominant-baseline="central" font-size="12.5" font-weight="400" fill="#1e293b">Catalyst 1000</text><rect x="660.2" y="984.0" width="100.5" height="46.0" rx="4" fill="#ffffff" stroke="#9aa0a6" stroke-width="1.4" stroke-dasharray="4 3" opacity="0.3"/><text x="710.4" y="999.0" text-anchor="middle" dominant-baseline="central" font-size="12.5" font-weight="600" fill="#1e293b" opacity="0.3">br03-rt01</text><text x="710.4" y="1015.0" text-anchor="middle" dominant-baseline="central" font-size="12.5" font-weight="400" fill="#1e293b" opacity="0.3">(支店03)</text><rect x="790.7" y="984.0" width="100.5" height="46.0" rx="4" fill="#ffffff" stroke="#9aa0a6" stroke-width="1.4" stroke-dasharray="4 3" opacity="0.3"/><text x="841.0" y="999.0" text-anchor="middle" dominant-baseline="central" font-size="12.5" font-weight="600" fill="#1e293b" opacity="0.3">br04-rt01</text><text x="841.0" y="1015.0" text-anchor="middle" dominant-baseline="central" font-size="12.5" font-weight="400" fill="#1e293b" opacity="0.3">(支店04)</text><rect x="921.2" y="984.0" width="100.5" height="46.0" rx="4" fill="#ffffff" stroke="#9aa0a6" stroke-width="1.4" stroke-dasharray="4 3" opacity="0.3"/><text x="971.5" y="999.0" text-anchor="middle" dominant-baseline="central" font-size="12.5" font-weight="600" fill="#1e293b" opacity="0.3">br05-rt01</text><text x="971.5" y="1015.0" text-anchor="middle" dominant-baseline="central" font-size="12.5" font-weight="400" fill="#1e293b" opacity="0.3">(支店05)</text><rect x="1051.8" y="984.0" width="112.4" height="46.0" rx="4" fill="#ffffff" stroke="#9aa0a6" stroke-width="1.4" stroke-dasharray="4 3" opacity="0.3"/><text x="1108.0" y="999.0" text-anchor="middle" dominant-baseline="central" font-size="12.5" font-weight="600" fill="#1e293b" opacity="0.3">hubw-rt01</text><text x="1108.0" y="1015.0" text-anchor="middle" dominant-baseline="central" font-size="12.5" font-weight="400" fill="#1e293b" opacity="0.3">(西日本ハブ)</text><rect x="1194.2" y="984.0" width="100.5" height="46.0" rx="4" fill="#ffffff" stroke="#9aa0a6" stroke-width="1.4" stroke-dasharray="4 3" opacity="0.3"/><text x="1244.4" y="999.0" text-anchor="middle" dominant-baseline="central" font-size="12.5" font-weight="600" fill="#1e293b" opacity="0.3">br07-rt01</text><text x="1244.4" y="1015.0" text-anchor="middle" dominant-baseline="central" font-size="12.5" font-weight="400" fill="#1e293b" opacity="0.3">(支店07)</text><rect x="1324.7" y="984.0" width="100.5" height="46.0" rx="4" fill="#ffffff" stroke="#9aa0a6" stroke-width="1.4" stroke-dasharray="4 3" opacity="0.3"/><text x="1375.0" y="999.0" text-anchor="middle" dominant-baseline="central" font-size="12.5" font-weight="600" fill="#1e293b" opacity="0.3">br08-rt01</text><text x="1375.0" y="1015.0" text-anchor="middle" dominant-baseline="central" font-size="12.5" font-weight="400" fill="#1e293b" opacity="0.3">(支店08)</text><rect x="1455.2" y="984.0" width="100.5" height="46.0" rx="4" fill="#ffffff" stroke="#9aa0a6" stroke-width="1.4" stroke-dasharray="4 3" opacity="0.3"/><text x="1505.5" y="999.0" text-anchor="middle" dominant-baseline="central" font-size="12.5" font-weight="600" fill="#1e293b" opacity="0.3">br09-rt01</text><text x="1505.5" y="1015.0" text-anchor="middle" dominant-baseline="central" font-size="12.5" font-weight="400" fill="#1e293b" opacity="0.3">(支店09)</text><rect x="1585.8" y="984.0" width="100.5" height="46.0" rx="4" fill="#ffffff" stroke="#9aa0a6" stroke-width="1.4" stroke-dasharray="4 3" opacity="0.3"/><text x="1636.0" y="999.0" text-anchor="middle" dominant-baseline="central" font-size="12.5" font-weight="600" fill="#1e293b" opacity="0.3">br10-rt01</text><text x="1636.0" y="1015.0" text-anchor="middle" dominant-baseline="central" font-size="12.5" font-weight="400" fill="#1e293b" opacity="0.3">(支店10)</text><rect x="1716.3" y="984.0" width="100.5" height="46.0" rx="4" fill="#ffffff" stroke="#9aa0a6" stroke-width="1.4" stroke-dasharray="4 3" opacity="0.3"/><text x="1766.6" y="999.0" text-anchor="middle" dominant-baseline="central" font-size="12.5" font-weight="600" fill="#1e293b" opacity="0.3">br11-rt01</text><text x="1766.6" y="1015.0" text-anchor="middle" dominant-baseline="central" font-size="12.5" font-weight="400" fill="#1e293b" opacity="0.3">(支店11)</text><rect x="1846.9" y="984.0" width="100.5" height="46.0" rx="4" fill="#ffffff" stroke="#9aa0a6" stroke-width="1.4" stroke-dasharray="4 3" opacity="0.3"/><text x="1897.1" y="999.0" text-anchor="middle" dominant-baseline="central" font-size="12.5" font-weight="600" fill="#1e293b" opacity="0.3">br12-rt01</text><text x="1897.1" y="1015.0" text-anchor="middle" dominant-baseline="central" font-size="12.5" font-weight="400" fill="#1e293b" opacity="0.3">(支店12)</text><rect x="1977.4" y="984.0" width="100.5" height="46.0" rx="4" fill="#ffffff" stroke="#9aa0a6" stroke-width="1.4" stroke-dasharray="4 3" opacity="0.3"/><text x="2027.7" y="999.0" text-anchor="middle" dominant-baseline="central" font-size="12.5" font-weight="600" fill="#1e293b" opacity="0.3">br13-rt01</text><text x="2027.7" y="1015.0" text-anchor="middle" dominant-baseline="central" font-size="12.5" font-weight="400" fill="#1e293b" opacity="0.3">(支店13)</text><rect x="2107.9" y="984.0" width="100.5" height="46.0" rx="4" fill="#ffffff" stroke="#9aa0a6" stroke-width="1.4" stroke-dasharray="4 3" opacity="0.3"/><text x="2158.2" y="999.0" text-anchor="middle" dominant-baseline="central" font-size="12.5" font-weight="600" fill="#1e293b" opacity="0.3">br14-rt01</text><text x="2158.2" y="1015.0" text-anchor="middle" dominant-baseline="central" font-size="12.5" font-weight="400" fill="#1e293b" opacity="0.3">(支店14)</text><rect x="2238.5" y="984.0" width="100.5" height="46.0" rx="4" fill="#ffffff" stroke="#9aa0a6" stroke-width="1.4" stroke-dasharray="4 3" opacity="0.3"/><text x="2288.7" y="999.0" text-anchor="middle" dominant-baseline="central" font-size="12.5" font-weight="600" fill="#1e293b" opacity="0.3">br15-rt01</text><text x="2288.7" y="1015.0" text-anchor="middle" dominant-baseline="central" font-size="12.5" font-weight="400" fill="#1e293b" opacity="0.3">(支店15)</text><rect x="2369.0" y="984.0" width="100.5" height="46.0" rx="4" fill="#ffffff" stroke="#9aa0a6" stroke-width="1.4" stroke-dasharray="4 3" opacity="0.3"/><text x="2419.3" y="999.0" text-anchor="middle" dominant-baseline="central" font-size="12.5" font-weight="600" fill="#1e293b" opacity="0.3">br16-rt01</text><text x="2419.3" y="1015.0" text-anchor="middle" dominant-baseline="central" font-size="12.5" font-weight="400" fill="#1e293b" opacity="0.3">(支店16)</text><rect x="2499.6" y="984.0" width="100.5" height="46.0" rx="4" fill="#ffffff" stroke="#9aa0a6" stroke-width="1.4" stroke-dasharray="4 3" opacity="0.3"/><text x="2549.8" y="999.0" text-anchor="middle" dominant-baseline="central" font-size="12.5" font-weight="600" fill="#1e293b" opacity="0.3">br17-rt01</text><text x="2549.8" y="1015.0" text-anchor="middle" dominant-baseline="central" font-size="12.5" font-weight="400" fill="#1e293b" opacity="0.3">(支店17)</text><rect x="2630.1" y="984.0" width="100.5" height="46.0" rx="4" fill="#ffffff" stroke="#9aa0a6" stroke-width="1.4" stroke-dasharray="4 3" opacity="0.3"/><text x="2680.4" y="999.0" text-anchor="middle" dominant-baseline="central" font-size="12.5" font-weight="600" fill="#1e293b" opacity="0.3">br18-rt01</text><text x="2680.4" y="1015.0" text-anchor="middle" dominant-baseline="central" font-size="12.5" font-weight="400" fill="#1e293b" opacity="0.3">(支店18)</text><rect x="2760.6" y="984.0" width="100.5" height="46.0" rx="4" fill="#ffffff" stroke="#9aa0a6" stroke-width="1.4" stroke-dasharray="4 3" opacity="0.3"/><text x="2810.9" y="999.0" text-anchor="middle" dominant-baseline="central" font-size="12.5" font-weight="600" fill="#1e293b" opacity="0.3">br19-rt01</text><text x="2810.9" y="1015.0" text-anchor="middle" dominant-baseline="central" font-size="12.5" font-weight="400" fill="#1e293b" opacity="0.3">(支店19)</text><rect x="2891.2" y="984.0" width="100.5" height="46.0" rx="4" fill="#ffffff" stroke="#9aa0a6" stroke-width="1.4" stroke-dasharray="4 3" opacity="0.3"/><text x="2941.4" y="999.0" text-anchor="middle" dominant-baseline="central" font-size="12.5" font-weight="600" fill="#1e293b" opacity="0.3">br20-rt01</text><text x="2941.4" y="1015.0" text-anchor="middle" dominant-baseline="central" font-size="12.5" font-weight="400" fill="#1e293b" opacity="0.3">(支店20)</text></svg>