<svg xmlns="http://www.w3.org/2000/svg" width="3032" height="1020" viewBox="0 0 3032 1020" font-family="'Segoe UI','Hiragino Sans','Noto Sans JP',Meiryo,sans-serif"><defs><marker id="arrow-c5221f" viewBox="0 0 10 10" refX="9" refY="5" markerWidth="7" markerHeight="7" orient="auto-start-reverse"><path d="M 0 0 L 10 5 L 0 10 z" fill="#c5221f"/></marker></defs><rect width="100%" height="100%" fill="#ffffff"/><text x="24" y="30" font-size="19" font-weight="700" fill="#1e293b">支店06 IP-VPN障害時経路</text><rect x="40.0" y="642.0" width="323.4" height="338.0" rx="6" fill="#f7f9fc" stroke="#8fa8c4"/><text x="44.0" y="634.0" font-size="14.5" font-weight="600" fill="#33475b">東日本ハブ</text><rect x="419.4" y="642.0" width="184.8" height="230.0" rx="6" fill="#f7f9fc" stroke="#8fa8c4"/><text x="423.4" y="634.0" font-size="14.5" font-weight="600" fill="#33475b">支店06</text><polyline points="132.4,744.0 132.4,766.0 110.3,766.0 110.3,806.0" fill="none" stroke="#4a4a4a" stroke-width="2.0" opacity="0.15"></polyline><text x="136.4" y="757.0" font-size="10.5" font-style="italic" fill="#5f6368" opacity="0.15">Gi0/1</text><text x="114.3" y="801.0" font-size="10.5" font-style="italic" fill="#5f6368" opacity="0.15">Gi0/1</text><polyline points="270.2,122.0 270.2,140.0 79.9,140.0 79.9,698.0" fill="none" stroke="#1a73e8" stroke-width="3.5" opacity="0.15"></polyline><rect x="8.0" y="510.0" width="143.8" height="42.0" rx="4" fill="#ffffff" fill-opacity="0.92" opacity="0.15"/><text x="79.9" y="523.0" text-anchor="middle" font-size="12" font-style="italic" font-weight="400" fill="#5f6368" opacity="0.15">NTT Com IP-VPN 1G</text><text x="79.9" y="540.0" text-anchor="middle" font-size="12" font-style="italic" font-weight="400" fill="#5f6368" opacity="0.15">(Gi0/2)</text><polyline points="307.7,122.0 307.7,158.0 259.6,158.0 259.6,698.0" fill="none" stroke="#1a73e8" stroke-width="3.5" opacity="0.15"></polyline><rect x="187.7" y="510.0" width="143.8" height="42.0" rx="4" fill="#ffffff" fill-opacity="0.92" opacity="0.15"/><text x="259.6" y="523.0" text-anchor="middle" font-size="12" font-style="italic" font-weight="400" fill="#5f6368" opacity="0.15">NTT Com IP-VPN 1G</text><text x="259.6" y="540.0" text-anchor="middle" font-size="12" font-style="italic" font-weight="400" fill="#5f6368" opacity="0.15">(Gi0/2)</text><polyline points="91.6,698.0 91.6,176.0 710.4,176.0 710.4,642.0" fill="none" stroke="#188038" stroke-width="2.0" opacity="0.15" stroke-dasharray="3 3"></polyline><rect x="383.4" y="510.0" width="35.2" height="24.0" rx="4" fill="#ffffff" fill-opacity="0.92" opacity="0.15"/><text x="401.0" y="523.0" text-anchor="middle" font-size="12" font-style="italic" font-weight="400" fill="#5f6368" opacity="0.15">BGP</text><polyline points="97.4,698.0 97.4,194.0 841.0,194.0 841.0,642.0" fill="none" stroke="#188038" stroke-width="2.0" opacity="0.15" stroke-dasharray="3 3"></polyline><rect x="451.6" y="510.0" width="35.2" height="24.0" rx="4" fill="#ffffff" fill-opacity="0.92" opacity="0.15"/><text x="469.2" y="523.0" text-anchor="middle" font-size="12" font-style="italic" font-weight="400" fill="#5f6368" opacity="0.15">BGP</text><polyline points="103.2,698.0 103.2,212.0 971.5,212.0 971.5,642.0" fill="none" stroke="#188038" stroke-width="2.0" opacity="0.15" stroke-dasharray="3 3"></polyline><rect x="519.7" y="510.0" width="35.2" height="24.0" rx="4" fill="#ffffff" fill-opacity="0.92" opacity="0.15"/><text x="537.4" y="523.0" text-anchor="middle" font-size="12" font-style="italic" font-weight="400" fill="#5f6368" opacity="0.15">BGP</text><polyline points="345.2,122.0 345.2,158.0 429.4,158.0 429.4,786.0 500.1,786.0 500.1,800.0" fill="none" stroke="#c5221f" stroke-width="3.5" opacity="0.55" stroke-dasharray="5 4"></polyline><rect x="420.5" y="546.0" width="159.2" height="42.0" rx="4" fill="#ffffff" fill-opacity="0.92" opacity="0.55"/><text x="500.1" y="559.0" text-anchor="middle" font-size="12" font-style="italic" font-weight="400" fill="#5f6368" opacity="0.55">NTT Com IP-VPN 100M</text><text x="500.1" y="576.0" text-anchor="middle" font-size="12" font-style="italic" font-weight="400" fill="#5f6368" opacity="0.55">(Gi0/2)</text><polyline points="85.7,698.0 85.7,230.0 429.4,230.0 429.4,786.0 476.8,786.0 476.8,800.0" fill="none" stroke="#188038" stroke-width="2.0" opacity="0.15" stroke-dasharray="3 3"></polyline><rect x="263.6" y="582.0" width="35.2" height="24.0" rx="4" fill="#ffffff" fill-opacity="0.92" opacity="0.15"/><text x="281.2" y="595.0" text-anchor="middle" font-size="12" font-style="italic" font-weight="400" fill="#5f6368" opacity="0.15">BGP</text><polyline points="546.8,800.0 546.8,786.0 594.2,786.0 594.2,158.0 1108.0,158.0 1108.0,642.0" fill="none" stroke="#188038" stroke-width="2.0" opacity="0.15" stroke-dasharray="3 3"></polyline><rect x="809.7" y="510.0" width="35.2" height="24.0" rx="4" fill="#ffffff" fill-opacity="0.92" opacity="0.15"/><text x="827.4" y="523.0" text-anchor="middle" font-size="12" font-style="italic" font-weight="400" fill="#5f6368" opacity="0.15">BGP</text><polyline points="109.1,698.0 109.1,248.0 1244.4,248.0 1244.4,642.0" fill="none" stroke="#188038" stroke-width="2.0" opacity="0.15" stroke-dasharray="3 3"></polyline><rect x="659.1" y="510.0" width="35.2" height="24.0" rx="4" fill="#ffffff" fill-opacity="0.92" opacity="0.15"/><text x="676.7" y="523.0" text-anchor="middle" font-size="12" font-style="italic" font-weight="400" fill="#5f6368" opacity="0.15">BGP</text><polyline points="114.9,698.0 114.9,266.0 1375.0,266.0 1375.0,642.0" fill="none" stroke="#188038" stroke-width="2.0" opacity="0.15" stroke-dasharray="3 3"></polyline><rect x="727.3" y="510.0" width="35.2" height="24.0" rx="4" fill="#ffffff" fill-opacity="0.92" opacity="0.15"/><text x="744.9" y="523.0" text-anchor="middle" font-size="12" font-style="italic" font-weight="400" fill="#5f6368" opacity="0.15">BGP</text><polyline points="120.7,698.0 120.7,284.0 1505.5,284.0 1505.5,642.0" fill="none" stroke="#188038" stroke-width="2.0" opacity="0.15" stroke-dasharray="3 3"></polyline><rect x="795.5" y="546.0" width="35.2" height="24.0" rx="4" fill="#ffffff" fill-opacity="0.92" opacity="0.15"/><text x="813.1" y="559.0" text-anchor="middle" font-size="12" font-style="italic" font-weight="400" fill="#5f6368" opacity="0.15">BGP</text><polyline points="126.6,698.0 126.6,302.0 1636.0,302.0 1636.0,642.0" fill="none" stroke="#188038" stroke-width="2.0" opacity="0.15" stroke-dasharray="3 3"></polyline><rect x="863.7" y="510.0" width="35.2" height="24.0" rx="4" fill="#ffffff" fill-opacity="0.92" opacity="0.15"/><text x="881.3" y="523.0" text-anchor="middle" font-size="12" font-style="italic" font-weight="400" fill="#5f6368" opacity="0.15">BGP</text><polyline points="132.4,698.0 132.4,320.0 1766.6,320.0 1766.6,642.0" fill="none" stroke="#188038" stroke-width="2.0" opacity="0.15" stroke-dasharray="3 3"></polyline><rect x="931.9" y="510.0" width="35.2" height="24.0" rx="4" fill="#ffffff" fill-opacity="0.92" opacity="0.15"/><text x="949.5" y="523.0" text-anchor="middle" font-size="12" font-style="italic" font-weight="400" fill="#5f6368" opacity="0.15">BGP</text><polyline points="138.2,698.0 138.2,338.0 1897.1,338.0 1897.1,642.0" fill="none" stroke="#188038" stroke-width="2.0" opacity="0.15" stroke-dasharray="3 3"></polyline><rect x="1000.0" y="510.0" width="35.2" height="24.0" rx="4" fill="#ffffff" fill-opacity="0.92" opacity="0.15"/><text x="1017.7" y="523.0" text-anchor="middle" font-size="12" font-style="italic" font-weight="400" fill="#5f6368" opacity="0.15">BGP</text><polyline points="144.1,698.0 144.1,356.0 2027.7,356.0 2027.7,642.0" fill="none" stroke="#188038" stroke-width="2.0" opacity="0.15" stroke-dasharray="3 3"></polyline><rect x="1068.2" y="510.0" width="35.2" height="24.0" rx="4" fill="#ffffff" fill-opacity="0.92" opacity="0.15"/><text x="1085.9" y="523.0" text-anchor="middle" font-size="12" font-style="italic" font-weight="400" fill="#5f6368" opacity="0.15">BGP</text><polyline points="149.9,698.0 149.9,374.0 2158.2,374.0 2158.2,642.0" fill="none" stroke="#188038" stroke-width="2.0" opacity="0.15" stroke-dasharray="3 3"></polyline><rect x="1136.4" y="510.0" width="35.2" height="24.0" rx="4" fill="#ffffff" fill-opacity="0.92" opacity="0.15"/><text x="1154.0" y="523.0" text-anchor="middle" font-size="12" font-style="italic" font-weight="400" fill="#5f6368" opacity="0.15">BGP</text><polyline points="155.7,698.0 155.7,392.0 2288.7,392.0 2288.7,642.0" fill="none" stroke="#188038" stroke-width="2.0" opacity="0.15" stroke-dasharray="3 3"></polyline><rect x="1204.6" y="510.0" width="35.2" height="24.0" rx="4" fill="#ffffff" fill-opacity="0.92" opacity="0.15"/><text x="1222.2" y="523.0" text-anchor="middle" font-size="12" font-style="italic" font-weight="400" fill="#5f6368" opacity="0.15">BGP</text><polyline points="161.6,698.0 161.6,410.0 2419.3,410.0 2419.3,642.0" fill="none" stroke="#188038" stroke-width="2.0" opacity="0.15" stroke-dasharray="3 3"></polyline><rect x="1272.8" y="510.0" width="35.2" height="24.0" rx="4" fill="#ffffff" fill-opacity="0.92" opacity="0.15"/><text x="1290.4" y="523.0" text-anchor="middle" font-size="12" font-style="italic" font-weight="400" fill="#5f6368" opacity="0.15">BGP</text><polyline points="167.4,698.0 167.4,428.0 2549.8,428.0 2549.8,642.0" fill="none" stroke="#188038" stroke-width="2.0" opacity="0.15" stroke-dasharray="3 3"></polyline><rect x="1341.0" y="510.0" width="35.2" height="24.0" rx="4" fill="#ffffff" fill-opacity="0.92" opacity="0.15"/><text x="1358.6" y="523.0" text-anchor="middle" font-size="12" font-style="italic" font-weight="400" fill="#5f6368" opacity="0.15">BGP</text><polyline points="173.2,698.0 173.2,446.0 2680.4,446.0 2680.4,642.0" fill="none" stroke="#188038" stroke-width="2.0" opacity="0.15" stroke-dasharray="3 3"></polyline><rect x="1409.2" y="510.0" width="35.2" height="24.0" rx="4" fill="#ffffff" fill-opacity="0.92" opacity="0.15"/><text x="1426.8" y="523.0" text-anchor="middle" font-size="12" font-style="italic" font-weight="400" fill="#5f6368" opacity="0.15">BGP</text><polyline points="179.1,698.0 179.1,464.0 2810.9,464.0 2810.9,642.0" fill="none" stroke="#188038" stroke-width="2.0" opacity="0.15" stroke-dasharray="3 3"></polyline><rect x="1477.4" y="510.0" width="35.2" height="24.0" rx="4" fill="#ffffff" fill-opacity="0.92" opacity="0.15"/><text x="1495.0" y="523.0" text-anchor="middle" font-size="12" font-style="italic" font-weight="400" fill="#5f6368" opacity="0.15">BGP</text><polyline points="184.9,698.0 184.9,482.0 2941.4,482.0 2941.4,642.0" fill="none" stroke="#188038" stroke-width="2.0" opacity="0.15" stroke-dasharray="3 3"></polyline><rect x="1545.5" y="510.0" width="35.2" height="24.0" rx="4" fill="#ffffff" fill-opacity="0.92" opacity="0.15"/><text x="1563.2" y="523.0" text-anchor="middle" font-size="12" font-style="italic" font-weight="400" fill="#5f6368" opacity="0.15">BGP</text><polyline points="279.1,744.0 279.1,766.0 154.5,766.0 154.5,806.0" fill="none" stroke="#c5221f" stroke-width="4.0" opacity="1.0" stroke-dasharray="10 6" marker-end="url(#arrow-c5221f)"><animate attributeName="stroke-dashoffset" from="32" to="0" dur="1.2s" repeatCount="indefinite"/></polyline><text x="283.1" y="757.0" font-size="10.5" font-style="italic" fill="#5f6368" opacity="1.0">Gi0/1</text><text x="158.5" y="801.0" font-size="10.5" font-style="italic" fill="#5f6368" opacity="1.0">Gi0/2</text><rect x="206.9" y="755.0" width="19.8" height="22.0" rx="4" fill="#ffffff" fill-opacity="0.92" opacity="1.0"/><text x="216.8" y="768.0" text-anchor="middle" font-size="12" font-style="italic" font-weight="600" fill="#c5221f" opacity="1.0">④</text><polyline points="132.4,852.0 132.4,908.0" fill="none" stroke="#c5221f" stroke-width="4.0" opacity="1.0" stroke-dasharray="10 6" marker-end="url(#arrow-c5221f)"><animate attributeName="stroke-dashoffset" from="32" to="0" dur="1.2s" repeatCount="indefinite"/></polyline><text x="136.4" y="865.0" font-size="10.5" font-style="italic" fill="#5f6368" opacity="1.0">Gi0/3</text><text x="136.4" y="903.0" font-size="10.5" font-style="italic" fill="#5f6368" opacity="1.0">Gi0/1</text><rect x="122.5" y="869.0" width="19.8" height="22.0" rx="4" fill="#ffffff" fill-opacity="0.92" opacity="1.0"/><text x="132.4" y="882.0" text-anchor="middle" font-size="12" font-style="italic" font-weight="600" fill="#c5221f" opacity="1.0">⑤</text><polyline points="511.8,744.0 511.8,800.0" fill="none" stroke="#c5221f" stroke-width="4.0" opacity="1.0" stroke-dasharray="10 6" marker-end="url(#arrow-c5221f)"><animate attributeName="stroke-dashoffset" from="32" to="0" dur="1.2s" repeatCount="indefinite"/></polyline><text x="515.8" y="757.0" font-size="10.5" font-style="italic" fill="#5f6368" opacity="1.0">Gi0/1</text><text x="515.8" y="795.0" font-size="10.5" font-style="italic" fill="#5f6368" opacity="1.0">Gi0/1</text><rect x="501.9" y="761.0" width="19.8" height="22.0" rx="4" fill="#ffffff" fill-opacity="0.92" opacity="1.0"/><text x="511.8" y="774.0" text-anchor="middle" font-size="12" font-style="italic" font-weight="600" fill="#c5221f" opacity="1.0">①</text><polyline points="497.3,122.0 497.3,140.0 298.5,140.0 298.5,698.0" fill="none" stroke="#c5221f" stroke-width="4.0" opacity="1.0" stroke-dasharray="10 6" marker-end="url(#arrow-c5221f)"><animate attributeName="stroke-dashoffset" from="32" to="0" dur="1.2s" repeatCount="indefinite"/></polyline><rect x="288.6" y="546.0" width="19.8" height="24.0" rx="4" fill="#ffffff" fill-opacity="0.92" opacity="1.0"/><text x="298.5" y="559.0" text-anchor="middle" font-size="12" font-style="italic" font-weight="600" fill="#c5221f" opacity="1.0">③</text><polyline points="523.4,800.0 523.4,786.0 594.2,786.0 594.2,140.0 551.8,140.0 551.8,122.0" fill="none" stroke="#c5221f" stroke-width="4.0" opacity="1.0" stroke-dasharray="10 6" marker-end="url(#arrow-c5221f)"><animate attributeName="stroke-dashoffset" from="32" to="0" dur="1.2s" repeatCount="indefinite"/></polyline><rect x="428.6" y="582.0" width="189.8" height="24.0" rx="4" fill="#ffffff" fill-opacity="0.92" opacity="1.0"/><text x="523.4" y="595.0" text-anchor="middle" font-size="12" font-style="italic" font-weight="600" fill="#c5221f" opacity="1.0">② BGP モバイル閉域網へ切替</text><ellipse cx="307.7" cy="84.0" rx="75.0" ry="38.0" fill="#f1f3f4" stroke="#5f6368" stroke-width="1.6" opacity="0.3"/><text x="307.7" y="84.0" text-anchor="middle" dominant-baseline="central" font-size="12.5" font-weight="600" fill="#1e293b" opacity="0.3">IP-VPN網</text><ellipse cx="524.5" cy="84.0" rx="81.8" ry="38.0" fill="#f1f3f4" stroke="#5f6368" stroke-width="1.6"/><text x="524.5" y="84.0" text-anchor="middle" dominant-baseline="central" font-size="12.5" font-weight="600" fill="#1e293b">モバイル閉域網</text><rect x="74.1" y="698.0" width="116.7" height="46.0" rx="4" fill="#e8f0fe" stroke="#1a56b0" stroke-width="1.4" opacity="0.3"/><text x="132.4" y="713.0" text-anchor="middle" dominant-baseline="central" font-size="12.5" font-weight="600" fill="#1e293b" opacity="0.3">hube-rt01</text><text x="132.4" y="729.0" text-anchor="middle" dominant-baseline="central" font-size="12.5" font-weight="400" fill="#1e293b" opacity="0.3">Cisco C8300</text><rect x="66.0" y="806.0" width="132.8" height="46.0" rx="4" fill="#d2e3fc" stroke="#1a56b0" stroke-width="1.4"/><text x="132.4" y="821.0" text-anchor="middle" dominant-baseline="central" font-size="12.5" font-weight="600" fill="#1e293b">hube-core01</text><text x="132.4" y="837.0" text-anchor="middle" dominant-baseline="central" font-size="12.5" font-weight="400" fill="#1e293b">Catalyst 9500</text><rect x="220.7" y="698.0" width="116.7" height="46.0" rx="4" fill="#e8f0fe" stroke="#1a56b0" stroke-width="1.4"/><text x="279.1" y="713.0" text-anchor="middle" dominant-baseline="central" font-size="12.5" font-weight="600" fill="#1e293b">hube-rt02</text><text x="279.1" y="729.0" text-anchor="middle" dominant-baseline="central" font-size="12.5" font-weight="400" fill="#1e293b">Cisco C8300</text><rect x="78.1" y="908.0" width="108.6" height="46.0" rx="4" fill="#f1f3f4" stroke="#5f6368" stroke-width="1.4"/><text x="132.4" y="923.0" text-anchor="middle" dominant-baseline="central" font-size="12.5" font-weight="600" fill="#1e293b">hube-srv01</text><text x="132.4" y="939.0" text-anchor="middle" dominant-baseline="central" font-size="12.5" font-weight="400" fill="#1e293b">基幹サーバ</text><rect x="453.4" y="800.0" width="116.7" height="46.0" rx="4" fill="#e8f0fe" stroke="#1a56b0" stroke-width="1.4"/><text x="511.8" y="815.0" text-anchor="middle" dominant-baseline="central" font-size="12.5" font-weight="600" fill="#1e293b">br06-rt01</text><text x="511.8" y="831.0" text-anchor="middle" dominant-baseline="central" font-size="12.5" font-weight="400" fill="#1e293b">Cisco C1121</text><rect x="445.4" y="698.0" width="132.8" height="46.0" rx="4" fill="#e6f4ea" stroke="#137333" stroke-width="1.4"/><text x="511.8" y="713.0" text-anchor="middle" dominant-baseline="central" font-size="12.5" font-weight="600" fill="#1e293b">br06-sw01</text><text x="511.8" y="729.0" text-anchor="middle" dominant-baseline="central" font-size="12.5" font-weight="400" fill="#1e293b">Catalyst 1000</text><rect x="660.2" y="642.0" width="100.5" height="46.0" rx="4" fill="#ffffff" stroke="#9aa0a6" stroke-width="1.4" stroke-dasharray="4 3" opacity="0.3"/><text x="710.4" y="657.0" text-anchor="middle" dominant-baseline="central" font-size="12.5" font-weight="600" fill="#1e293b" opacity="0.3">br03-rt01</text><text x="710.4" y="673.0" text-anchor="middle" dominant-baseline="central" font-size="12.5" font-weight="400" fill="#1e293b" opacity="0.3">(支店03)</text><rect x="790.7" y="642.0" width="100.5" height="46.0" rx="4" fill="#ffffff" stroke="#9aa0a6" stroke-width="1.4" stroke-dasharray="4 3" opacity="0.3"/><text x="841.0" y="657.0" text-anchor="middle" dominant-baseline="central" font-size="12.5" font-weight="600" fill="#1e293b" opacity="0.3">br04-rt01</text><text x="841.0" y="673.0" text-anchor="middle" dominant-baseline="central" font-size="12.5" font-weight="400" fill="#1e293b" opacity="0.3">(支店04)</text><rect x="921.2" y="642.0" width="100.5" height="46.0" rx="4" fill="#ffffff" stroke="#9aa0a6" stroke-width="1.4" stroke-dasharray="4 3" opacity="0.3"/><text x="971.5" y="657.0" text-anchor="middle" dominant-baseline="central" font-size="12.5" font-weight="600" fill="#1e293b" opacity="0.3">br05-rt01</text><text x="971.5" y="673.0" text-anchor="middle" dominant-baseline="central" font-size="12.5" font-weight="400" fill="#1e293b" opacity="0.3">(支店05)</text><rect x="1051.8" y="642.0" width="112.4" height="46.0" rx="4" fill="#ffffff" stroke="#9aa0a6" stroke-width="1.4" stroke-dasharray="4 3" opacity="0.3"/><text x="1108.0" y="657.0" text-anchor="middle" dominant-baseline="central" font-size="12.5" font-weight="600" fill="#1e293b" opacity="0.3">hubw-rt01</text><text x="1108.0" y="673.0" text-anchor="middle" dominant-baseline="central" font-size="12.5" font-weight="400" fill="#1e293b" opacity="0.3">(西日本ハブ)</text><rect x="1194.2" y="642.0" width="100.5" height="46.0" rx="4" fill="#ffffff" stroke="#9aa0a6" stroke-width="1.4" stroke-dasharray="4 3" opacity="0.3"/><text x="1244.4" y="657.0" text-anchor="middle" dominant-baseline="central" font-size="12.5" font-weight="600" fill="#1e293b" opacity="0.3">br07-rt01</text><text x="1244.4" y="673.0" text-anchor="middle" dominant-baseline="central" font-size="12.5" font-weight="400" fill="#1e293b" opacity="0.3">(支店07)</text><rect x="1324.7" y="642.0" width="100.5" height="46.0" rx="4" fill="#ffffff" stroke="#9aa0a6" stroke-width="1.4" stroke-dasharray="4 3" opacity="0.3"/><text x="1375.0" y="657.0" text-anchor="middle" dominant-baseline="central" font-size="12.5" font-weight="600" fill="#1e293b" opacity="0.3">br08-rt01</text><text x="1375.0" y="673.0" text-anchor="middle" dominant-baseline="central" font-size="12.5" font-weight="400" fill="#1e293b" opacity="0.3">(支店08)</text><rect x="1455.2" y="642.0" width="100.5" height="46.0" rx="4" fill="#ffffff" stroke="#9aa0a6" stroke-width="1.4" stroke-dasharray="4 3" opacity="0.3"/><text x="1505.5" y="657.0" text-anchor="middle" dominant-baseline="central" font-size="12.5" font-weight="600" fill="#1e293b" opacity="0.3">br09-rt01</text><text x="1505.5" y="673.0" text-anchor="middle" dominant-baseline="central" font-size="12.5" font-weight="400" fill="#1e293b" opacity="0.3">(支店09)</text><rect x="1585.8" y="642.0" width="100.5" height="46.0" rx="4" fill="#ffffff" stroke="#9aa0a6" stroke-width="1.4" stroke-dasharray="4 3" opacity="0.3"/><text x="1636.0" y="657.0" text-anchor="middle" dominant-baseline="central" font-size="12.5" font-weight="600" fill="#1e293b" opacity="0.3">br10-rt01</text><text x="1636.0" y="673.0" text-anchor="middle" dominant-baseline="central" font-size="12.5" font-weight="400" fill="#1e293b" opacity="0.3">(支店10)</text><rect x="1716.3" y="642.0" width="100.5" height="46.0" rx="4" fill="#ffffff" stroke="#9aa0a6" stroke-width="1.4" stroke-dasharray="4 3" opacity="0.3"/><text x="1766.6" y="657.0" text-anchor="middle" dominant-baseline="central" font-size="12.5" font-weight="600" fill="#1e293b" opacity="0.3">br11-rt01</text><text x="1766.6" y="673.0" text-anchor="middle" dominant-baseline="central" font-size="12.5" font-weight="400" fill="#1e293b" opacity="0.3">(支店11)</text><rect x="1846.9" y="642.0" width="100.5" height="46.0" rx="4" fill="#ffffff" stroke="#9aa0a6" stroke-width="1.4" stroke-dasharray="4 3" opacity="0.3"/><text x="1897.1" y="657.0" text-anchor="middle" dominant-baseline="central" font-size="12.5" font-weight="600" fill="#1e293b" opacity="0.3">br12-rt01</text><text x="1897.1" y="673.0" text-anchor="middle" dominant-baseline="central" font-size="12.5" font-weight="400" fill="#1e293b" opacity="0.3">(支店12)</text><rect x="1977.4" y="642.0" width="100.5" height="46.0" rx="4" fill="#ffffff" stroke="#9aa0a6" stroke-width="1.4" stroke-dasharray="4 3" opacity="0.3"/><text x="2027.7" y="657.0" text-anchor="middle" dominant-baseline="central" font-size="12.5" font-weight="600" fill="#1e293b" opacity="0.3">br13-rt01</text><text x="2027.7" y="673.0" text-anchor="middle" dominant-baseline="central" font-size="12.5" font-weight="400" fill="#1e293b" opacity="0.3">(支店13)</text><rect x="2107.9" y="642.0" width="100.5" height="46.0" rx="4" fill="#ffffff" stroke="#9aa0a6" stroke-width="1.4" stroke-dasharray="4 3" opacity="0.3"/><text x="2158.2" y="657.0" text-anchor="middle" dominant-baseline="central" font-size="12.5" font-weight="600" fill="#1e293b" opacity="0.3">br14-rt01</text><text x="2158.2" y="673.0" text-anchor="middle" dominant-baseline="central" font-size="12.5" font-weight="400" fill="#1e293b" opacity="0.3">(支店14)</text><rect x="2238.5" y="642.0" width="100.5" height="46.0" rx="4" fill="#ffffff" stroke="#9aa0a6" stroke-width="1.4" stroke-dasharray="4 3" opacity="0.3"/><text x="2288.7" y="657.0" text-anchor="middle" dominant-baseline="central" font-size="12.5" font-weight="600" fill="#1e293b" opacity="0.3">br15-rt01</text><text x="2288.7" y="673.0" text-anchor="middle" dominant-baseline="central" font-size="12.5" font-weight="400" fill="#1e293b" opacity="0.3">(支店15)</text><rect x="2369.0" y="642.0" width="100.5" height="46.0" rx="4" fill="#ffffff" stroke="#9aa0a6" stroke-width="1.4" stroke-dasharray="4 3" opacity="0.3"/><text x="2419.3" y="657.0" text-anchor="middle" dominant-baseline="central" font-size="12.5" font-weight="600" fill="#1e293b" opacity="0.3">br16-rt01</text><text x="2419.3" y="673.0" text-anchor="middle" dominant-baseline="central" font-size="12.5" font-weight="400" fill="#1e293b" opacity="0.3">(支店16)</text><rect x="2499.6" y="642.0" width="100.5" height="46.0" rx="4" fill="#ffffff" stroke="#9aa0a6" stroke-width="1.4" stroke-dasharray="4 3" opacity="0.3"/><text x="2549.8" y="657.0" text-anchor="middle" dominant-baseline="central" font-size="12.5" font-weight="600" fill="#1e293b" opacity="0.3">br17-rt01</text><text x="2549.8" y="673.0" text-anchor="middle" dominant-baseline="central" font-size="12.5" font-weight="400" fill="#1e293b" opacity="0.3">(支店17)</text><rect x="2630.1" y="642.0" width="100.5" height="46.0" rx="4" fill="#ffffff" stroke="#9aa0a6" stroke-width="1.4" stroke-dasharray="4 3" opacity="0.3"/><text x="2680.4" y="657.0" text-anchor="middle" dominant-baseline="central" font-size="12.5" font-weight="600" fill="#1e293b" opacity="0.3">br18-rt01</text><text x="2680.4" y="673.0" text-anchor="middle" dominant-baseline="central" font-size="12.5" font-weight="400" fill="#1e293b" opacity="0.3">(支店18)</text><rect x="2760.6" y="642.0" width="100.5" height="46.0" rx="4" fill="#ffffff" stroke="#9aa0a6" stroke-width="1.4" stroke-dasharray="4 3" opacity="0.3"/><text x="2810.9" y="657.0" text-anchor="middle" dominant-baseline="central" font-size="12.5" font-weight="600" fill="#1e293b" opacity="0.3">br19-rt01</text><text x="2810.9" y="673.0" text-anchor="middle" dominant-baseline="central" font-size="12.5" font-weight="400" fill="#1e293b" opacity="0.3">(支店19)</text><rect x="2891.2" y="642.0" width="100.5" height="46.0" rx="4" fill="#ffffff" stroke="#9aa0a6" stroke-width="1.4" stroke-dasharray="4 3" opacity="0.3"/><text x="2941.4" y="657.0" text-anchor="middle" dominant-baseline="central" font-size="12.5" font-weight="600" fill="#1e293b" opacity="0.3">br20-rt01</text><text x="2941.4" y="673.0" text-anchor="middle" dominant-baseline="central" font-size="12.5" font-weight="400" fill="#1e293b" opacity="0.3">(支店20)</text></svg>