<svg xmlns="http://www.w3.org/2000/svg" width="2462" height="692" viewBox="0 0 2462 692" font-family="'Segoe UI','Hiragino Sans','Noto Sans JP',Meiryo,sans-serif"><defs></defs><rect width="100%" height="100%" fill="#ffffff"/><text x="24" y="30" font-size="19" font-weight="700" fill="#1e293b">20拠点 WAN概要図</text><polyline points="1114.2,122.0 1114.2,140.0 88.1,140.0 88.1,606.0" fill="none" stroke="#1a73e8" stroke-width="3.5" opacity="1.0"></polyline><rect x="16.2" y="402.0" width="143.8" height="24.0" rx="4" fill="#ffffff" fill-opacity="0.92" opacity="1.0"/><text x="88.1" y="415.0" text-anchor="middle" font-size="12" font-style="italic" font-weight="400" fill="#5f6368" opacity="1.0">NTT Com IP-VPN 1G</text><polyline points="1120.8,122.0 1120.8,158.0 112.2,158.0 112.2,606.0" fill="none" stroke="#1a73e8" stroke-width="3.5" opacity="1.0"></polyline><rect x="40.3" y="438.0" width="143.8" height="24.0" rx="4" fill="#ffffff" fill-opacity="0.92" opacity="1.0"/><text x="112.2" y="451.0" text-anchor="middle" font-size="12" font-style="italic" font-weight="400" fill="#5f6368" opacity="1.0">NTT Com IP-VPN 1G</text><polyline points="902.3,122.0 902.3,176.0 64.1,176.0 64.1,606.0" fill="none" stroke="#1a73e8" stroke-width="3.5" opacity="1.0"></polyline><rect x="-18.9" y="474.0" width="165.9" height="24.0" rx="4" fill="#ffffff" fill-opacity="0.92" opacity="1.0"/><text x="64.1" y="487.0" text-anchor="middle" font-size="12" font-style="italic" font-weight="400" fill="#5f6368" opacity="1.0">SB モバイル閉域網 100M</text><polyline points="1127.3,122.0 1127.3,194.0 214.4,194.0 214.4,606.0" fill="none" stroke="#1a73e8" stroke-width="3.5" opacity="1.0"></polyline><rect x="142.5" y="510.0" width="143.8" height="24.0" rx="4" fill="#ffffff" fill-opacity="0.92" opacity="1.0"/><text x="214.4" y="523.0" text-anchor="middle" font-size="12" font-style="italic" font-weight="400" fill="#5f6368" opacity="1.0">NTT Com IP-VPN 1G</text><polyline points="1133.8,122.0 1133.8,212.0 238.4,212.0 238.4,606.0" fill="none" stroke="#1a73e8" stroke-width="3.5" opacity="1.0"></polyline><rect x="166.6" y="474.0" width="143.8" height="24.0" rx="4" fill="#ffffff" fill-opacity="0.92" opacity="1.0"/><text x="238.4" y="487.0" text-anchor="middle" font-size="12" font-style="italic" font-weight="400" fill="#5f6368" opacity="1.0">NTT Com IP-VPN 1G</text><polyline points="920.5,122.0 920.5,230.0 190.3,230.0 190.3,606.0" fill="none" stroke="#1a73e8" stroke-width="3.5" opacity="1.0"></polyline><rect x="107.4" y="546.0" width="165.9" height="24.0" rx="4" fill="#ffffff" fill-opacity="0.92" opacity="1.0"/><text x="190.3" y="559.0" text-anchor="middle" font-size="12" font-style="italic" font-weight="400" fill="#5f6368" opacity="1.0">SB モバイル閉域網 100M</text><polyline points="1140.3,122.0 1140.3,248.0 352.5,248.0 352.5,606.0" fill="none" stroke="#1a73e8" stroke-width="3.5" opacity="1.0"></polyline><rect x="272.9" y="402.0" width="159.2" height="24.0" rx="4" fill="#ffffff" fill-opacity="0.92" opacity="1.0"/><text x="352.5" y="415.0" text-anchor="middle" font-size="12" font-style="italic" font-weight="400" fill="#5f6368" opacity="1.0">NTT Com IP-VPN 100M</text><polyline points="938.7,122.0 938.7,266.0 322.5,266.0 322.5,606.0" fill="none" stroke="#1a73e8" stroke-width="3.5" opacity="1.0"></polyline><rect x="243.4" y="438.0" width="158.1" height="24.0" rx="4" fill="#ffffff" fill-opacity="0.92" opacity="1.0"/><text x="322.5" y="451.0" text-anchor="middle" font-size="12" font-style="italic" font-weight="400" fill="#5f6368" opacity="1.0">SB モバイル閉域網 50M</text><polyline points="1146.8,122.0 1146.8,284.0 457.5,284.0 457.5,606.0" fill="none" stroke="#1a73e8" stroke-width="3.5" opacity="1.0"></polyline><rect x="377.9" y="474.0" width="159.2" height="24.0" rx="4" fill="#ffffff" fill-opacity="0.92" opacity="1.0"/><text x="457.5" y="487.0" text-anchor="middle" font-size="12" font-style="italic" font-weight="400" fill="#5f6368" opacity="1.0">NTT Com IP-VPN 100M</text><polyline points="1153.4,122.0 1153.4,302.0 577.5,302.0 577.5,606.0" fill="none" stroke="#1a73e8" stroke-width="3.5" opacity="1.0"></polyline><rect x="497.9" y="402.0" width="159.2" height="24.0" rx="4" fill="#ffffff" fill-opacity="0.92" opacity="1.0"/><text x="577.5" y="415.0" text-anchor="middle" font-size="12" font-style="italic" font-weight="400" fill="#5f6368" opacity="1.0">NTT Com IP-VPN 100M</text><polyline points="1159.9,122.0 1159.9,320.0 712.5,320.0 712.5,606.0" fill="none" stroke="#1a73e8" stroke-width="3.5" opacity="1.0"></polyline><rect x="632.9" y="438.0" width="159.2" height="24.0" rx="4" fill="#ffffff" fill-opacity="0.92" opacity="1.0"/><text x="712.5" y="451.0" text-anchor="middle" font-size="12" font-style="italic" font-weight="400" fill="#5f6368" opacity="1.0">NTT Com IP-VPN 100M</text><polyline points="956.9,122.0 956.9,338.0 682.5,338.0 682.5,606.0" fill="none" stroke="#1a73e8" stroke-width="3.5" opacity="1.0"></polyline><rect x="603.4" y="474.0" width="158.1" height="24.0" rx="4" fill="#ffffff" fill-opacity="0.92" opacity="1.0"/><text x="682.5" y="487.0" text-anchor="middle" font-size="12" font-style="italic" font-weight="400" fill="#5f6368" opacity="1.0">SB モバイル閉域網 50M</text><polyline points="1166.4,122.0 1166.4,356.0 817.5,356.0 817.5,606.0" fill="none" stroke="#1a73e8" stroke-width="3.5" opacity="1.0"></polyline><rect x="737.9" y="402.0" width="159.2" height="24.0" rx="4" fill="#ffffff" fill-opacity="0.92" opacity="1.0"/><text x="817.5" y="415.0" text-anchor="middle" font-size="12" font-style="italic" font-weight="400" fill="#5f6368" opacity="1.0">NTT Com IP-VPN 100M</text><polyline points="1172.9,122.0 1172.9,176.0 937.5,176.0 937.5,606.0" fill="none" stroke="#1a73e8" stroke-width="3.5" opacity="1.0"></polyline><rect x="857.9" y="438.0" width="159.2" height="24.0" rx="4" fill="#ffffff" fill-opacity="0.92" opacity="1.0"/><text x="937.5" y="451.0" text-anchor="middle" font-size="12" font-style="italic" font-weight="400" fill="#5f6368" opacity="1.0">NTT Com IP-VPN 100M</text><polyline points="1179.5,122.0 1179.5,230.0 1072.5,230.0 1072.5,606.0" fill="none" stroke="#1a73e8" stroke-width="3.5" opacity="1.0"></polyline><rect x="992.9" y="402.0" width="159.2" height="24.0" rx="4" fill="#ffffff" fill-opacity="0.92" opacity="1.0"/><text x="1072.5" y="415.0" text-anchor="middle" font-size="12" font-style="italic" font-weight="400" fill="#5f6368" opacity="1.0">NTT Com IP-VPN 100M</text><polyline points="975.0,122.0 975.0,230.0 1042.5,230.0 1042.5,606.0" fill="none" stroke="#1a73e8" stroke-width="3.5" opacity="1.0"></polyline><rect x="963.4" y="474.0" width="158.1" height="24.0" rx="4" fill="#ffffff" fill-opacity="0.92" opacity="1.0"/><text x="1042.5" y="487.0" text-anchor="middle" font-size="12" font-style="italic" font-weight="400" fill="#5f6368" opacity="1.0">SB モバイル閉域網 50M</text><polyline points="1186.0,122.0 1186.0,140.0 1177.5,140.0 1177.5,606.0" fill="none" stroke="#1a73e8" stroke-width="3.5" opacity="1.0"></polyline><rect x="1097.9" y="438.0" width="159.2" height="24.0" rx="4" fill="#ffffff" fill-opacity="0.92" opacity="1.0"/><text x="1177.5" y="451.0" text-anchor="middle" font-size="12" font-style="italic" font-weight="400" fill="#5f6368" opacity="1.0">NTT Com IP-VPN 100M</text><polyline points="1192.5,122.0 1192.5,158.0 1297.5,158.0 1297.5,606.0" fill="none" stroke="#1a73e8" stroke-width="3.5" opacity="1.0"></polyline><rect x="1217.9" y="402.0" width="159.2" height="24.0" rx="4" fill="#ffffff" fill-opacity="0.92" opacity="1.0"/><text x="1297.5" y="415.0" text-anchor="middle" font-size="12" font-style="italic" font-weight="400" fill="#5f6368" opacity="1.0">NTT Com IP-VPN 100M</text><polyline points="1199.0,122.0 1199.0,140.0 1432.5,140.0 1432.5,606.0" fill="none" stroke="#1a73e8" stroke-width="3.5" opacity="1.0"></polyline><rect x="1352.9" y="438.0" width="159.2" height="24.0" rx="4" fill="#ffffff" fill-opacity="0.92" opacity="1.0"/><text x="1432.5" y="451.0" text-anchor="middle" font-size="12" font-style="italic" font-weight="400" fill="#5f6368" opacity="1.0">NTT Com IP-VPN 100M</text><polyline points="993.2,122.0 993.2,266.0 1402.5,266.0 1402.5,606.0" fill="none" stroke="#1a73e8" stroke-width="3.5" opacity="1.0"></polyline><rect x="1323.4" y="474.0" width="158.1" height="24.0" rx="4" fill="#ffffff" fill-opacity="0.92" opacity="1.0"/><text x="1402.5" y="487.0" text-anchor="middle" font-size="12" font-style="italic" font-weight="400" fill="#5f6368" opacity="1.0">SB モバイル閉域網 50M</text><polyline points="1205.5,122.0 1205.5,176.0 1537.5,176.0 1537.5,606.0" fill="none" stroke="#1a73e8" stroke-width="3.5" opacity="1.0"></polyline><rect x="1457.9" y="402.0" width="159.2" height="24.0" rx="4" fill="#ffffff" fill-opacity="0.92" opacity="1.0"/><text x="1537.5" y="415.0" text-anchor="middle" font-size="12" font-style="italic" font-weight="400" fill="#5f6368" opacity="1.0">NTT Com IP-VPN 100M</text><polyline points="1212.1,122.0 1212.1,194.0 1657.5,194.0 1657.5,606.0" fill="none" stroke="#1a73e8" stroke-width="3.5" opacity="1.0"></polyline><rect x="1577.9" y="438.0" width="159.2" height="24.0" rx="4" fill="#ffffff" fill-opacity="0.92" opacity="1.0"/><text x="1657.5" y="451.0" text-anchor="middle" font-size="12" font-style="italic" font-weight="400" fill="#5f6368" opacity="1.0">NTT Com IP-VPN 100M</text><polyline points="1218.6,122.0 1218.6,212.0 1792.5,212.0 1792.5,606.0" fill="none" stroke="#1a73e8" stroke-width="3.5" opacity="1.0"></polyline><rect x="1712.9" y="402.0" width="159.2" height="24.0" rx="4" fill="#ffffff" fill-opacity="0.92" opacity="1.0"/><text x="1792.5" y="415.0" text-anchor="middle" font-size="12" font-style="italic" font-weight="400" fill="#5f6368" opacity="1.0">NTT Com IP-VPN 100M</text><polyline points="1011.4,122.0 1011.4,338.0 1762.5,338.0 1762.5,606.0" fill="none" stroke="#1a73e8" stroke-width="3.5" opacity="1.0"></polyline><rect x="1683.4" y="474.0" width="158.1" height="24.0" rx="4" fill="#ffffff" fill-opacity="0.92" opacity="1.0"/><text x="1762.5" y="487.0" text-anchor="middle" font-size="12" font-style="italic" font-weight="400" fill="#5f6368" opacity="1.0">SB モバイル閉域網 50M</text><polyline points="1225.1,122.0 1225.1,230.0 1897.5,230.0 1897.5,606.0" fill="none" stroke="#1a73e8" stroke-width="3.5" opacity="1.0"></polyline><rect x="1817.9" y="438.0" width="159.2" height="24.0" rx="4" fill="#ffffff" fill-opacity="0.92" opacity="1.0"/><text x="1897.5" y="451.0" text-anchor="middle" font-size="12" font-style="italic" font-weight="400" fill="#5f6368" opacity="1.0">NTT Com IP-VPN 100M</text><polyline points="1231.6,122.0 1231.6,248.0 2017.5,248.0 2017.5,606.0" fill="none" stroke="#1a73e8" stroke-width="3.5" opacity="1.0"></polyline><rect x="1937.9" y="402.0" width="159.2" height="24.0" rx="4" fill="#ffffff" fill-opacity="0.92" opacity="1.0"/><text x="2017.5" y="415.0" text-anchor="middle" font-size="12" font-style="italic" font-weight="400" fill="#5f6368" opacity="1.0">NTT Com IP-VPN 100M</text><polyline points="1238.1,122.0 1238.1,284.0 2152.5,284.0 2152.5,606.0" fill="none" stroke="#1a73e8" stroke-width="3.5" opacity="1.0"></polyline><rect x="2072.9" y="438.0" width="159.2" height="24.0" rx="4" fill="#ffffff" fill-opacity="0.92" opacity="1.0"/><text x="2152.5" y="451.0" text-anchor="middle" font-size="12" font-style="italic" font-weight="400" fill="#5f6368" opacity="1.0">NTT Com IP-VPN 100M</text><polyline points="1029.5,122.0 1029.5,374.0 2122.5,374.0 2122.5,606.0" fill="none" stroke="#1a73e8" stroke-width="3.5" opacity="1.0"></polyline><rect x="2043.4" y="474.0" width="158.1" height="24.0" rx="4" fill="#ffffff" fill-opacity="0.92" opacity="1.0"/><text x="2122.5" y="487.0" text-anchor="middle" font-size="12" font-style="italic" font-weight="400" fill="#5f6368" opacity="1.0">SB モバイル閉域網 50M</text><polyline points="1244.7,122.0 1244.7,302.0 2257.5,302.0 2257.5,606.0" fill="none" stroke="#1a73e8" stroke-width="3.5" opacity="1.0"></polyline><rect x="2177.9" y="402.0" width="159.2" height="24.0" rx="4" fill="#ffffff" fill-opacity="0.92" opacity="1.0"/><text x="2257.5" y="415.0" text-anchor="middle" font-size="12" font-style="italic" font-weight="400" fill="#5f6368" opacity="1.0">NTT Com IP-VPN 100M</text><polyline points="1251.2,122.0 1251.2,320.0 2377.5,320.0 2377.5,606.0" fill="none" stroke="#1a73e8" stroke-width="3.5" opacity="1.0"></polyline><rect x="2297.9" y="438.0" width="159.2" height="24.0" rx="4" fill="#ffffff" fill-opacity="0.92" opacity="1.0"/><text x="2377.5" y="451.0" text-anchor="middle" font-size="12" font-style="italic" font-weight="400" fill="#5f6368" opacity="1.0">NTT Com IP-VPN 100M</text><ellipse cx="965.9" cy="84.0" rx="81.8" ry="38.0" fill="#f1f3f4" stroke="#5f6368" stroke-width="1.6"/><text x="965.9" y="84.0" text-anchor="middle" dominant-baseline="central" font-size="12.5" font-weight="600" fill="#1e293b">モバイル閉域網</text><ellipse cx="1182.7" cy="84.0" rx="75.0" ry="38.0" fill="#f1f3f4" stroke="#5f6368" stroke-width="1.6"/><text x="1182.7" y="84.0" text-anchor="middle" dominant-baseline="central" font-size="12.5" font-weight="600" fill="#1e293b">IP-VPN網</text><rect x="40.0" y="606.0" width="96.2" height="46.0" rx="4" fill="#fff8e1" stroke="#b58105" stroke-width="1.4"/><text x="88.1" y="629.0" text-anchor="middle" dominant-baseline="central" font-size="12.5" font-weight="600" fill="#1e293b">東日本ハブ</text><rect x="166.2" y="606.0" width="96.2" height="46.0" rx="4" fill="#fff8e1" stroke="#b58105" stroke-width="1.4"/><text x="214.4" y="629.0" text-anchor="middle" dominant-baseline="central" font-size="12.5" font-weight="600" fill="#1e293b">西日本ハブ</text><rect x="292.5" y="606.0" width="90.0" height="46.0" rx="4" fill="#fff8e1" stroke="#b58105" stroke-width="1.4"/><text x="337.5" y="629.0" text-anchor="middle" dominant-baseline="central" font-size="12.5" font-weight="600" fill="#1e293b">支店03</text><rect x="412.5" y="606.0" width="90.0" height="46.0" rx="4" fill="#fff8e1" stroke="#b58105" stroke-width="1.4"/><text x="457.5" y="629.0" text-anchor="middle" dominant-baseline="central" font-size="12.5" font-weight="600" fill="#1e293b">支店04</text><rect x="532.5" y="606.0" width="90.0" height="46.0" rx="4" fill="#fff8e1" stroke="#b58105" stroke-width="1.4"/><text x="577.5" y="629.0" text-anchor="middle" dominant-baseline="central" font-size="12.5" font-weight="600" fill="#1e293b">支店05</text><rect x="652.5" y="606.0" width="90.0" height="46.0" rx="4" fill="#fff8e1" stroke="#b58105" stroke-width="1.4"/><text x="697.5" y="629.0" text-anchor="middle" dominant-baseline="central" font-size="12.5" font-weight="600" fill="#1e293b">支店06</text><rect x="772.5" y="606.0" width="90.0" height="46.0" rx="4" fill="#fff8e1" stroke="#b58105" stroke-width="1.4"/><text x="817.5" y="629.0" text-anchor="middle" dominant-baseline="central" font-size="12.5" font-weight="600" fill="#1e293b">支店07</text><rect x="892.5" y="606.0" width="90.0" height="46.0" rx="4" fill="#fff8e1" stroke="#b58105" stroke-width="1.4"/><text x="937.5" y="629.0" text-anchor="middle" dominant-baseline="central" font-size="12.5" font-weight="600" fill="#1e293b">支店08</text><rect x="1012.5" y="606.0" width="90.0" height="46.0" rx="4" fill="#fff8e1" stroke="#b58105" stroke-width="1.4"/><text x="1057.5" y="629.0" text-anchor="middle" dominant-baseline="central" font-size="12.5" font-weight="600" fill="#1e293b">支店09</text><rect x="1132.5" y="606.0" width="90.0" height="46.0" rx="4" fill="#fff8e1" stroke="#b58105" stroke-width="1.4"/><text x="1177.5" y="629.0" text-anchor="middle" dominant-baseline="central" font-size="12.5" font-weight="600" fill="#1e293b">支店10</text><rect x="1252.5" y="606.0" width="90.0" height="46.0" rx="4" fill="#fff8e1" stroke="#b58105" stroke-width="1.4"/><text x="1297.5" y="629.0" text-anchor="middle" dominant-baseline="central" font-size="12.5" font-weight="600" fill="#1e293b">支店11</text><rect x="1372.5" y="606.0" width="90.0" height="46.0" rx="4" fill="#fff8e1" stroke="#b58105" stroke-width="1.4"/><text x="1417.5" y="629.0" text-anchor="middle" dominant-baseline="central" font-size="12.5" font-weight="600" fill="#1e293b">支店12</text><rect x="1492.5" y="606.0" width="90.0" height="46.0" rx="4" fill="#fff8e1" stroke="#b58105" stroke-width="1.4"/><text x="1537.5" y="629.0" text-anchor="middle" dominant-baseline="central" font-size="12.5" font-weight="600" fill="#1e293b">支店13</text><rect x="1612.5" y="606.0" width="90.0" height="46.0" rx="4" fill="#fff8e1" stroke="#b58105" stroke-width="1.4"/><text x="1657.5" y="629.0" text-anchor="middle" dominant-baseline="central" font-size="12.5" font-weight="600" fill="#1e293b">支店14</text><rect x="1732.5" y="606.0" width="90.0" height="46.0" rx="4" fill="#fff8e1" stroke="#b58105" stroke-width="1.4"/><text x="1777.5" y="629.0" text-anchor="middle" dominant-baseline="central" font-size="12.5" font-weight="600" fill="#1e293b">支店15</text><rect x="1852.5" y="606.0" width="90.0" height="46.0" rx="4" fill="#fff8e1" stroke="#b58105" stroke-width="1.4"/><text x="1897.5" y="629.0" text-anchor="middle" dominant-baseline="central" font-size="12.5" font-weight="600" fill="#1e293b">支店16</text><rect x="1972.5" y="606.0" width="90.0" height="46.0" rx="4" fill="#fff8e1" stroke="#b58105" stroke-width="1.4"/><text x="2017.5" y="629.0" text-anchor="middle" dominant-baseline="central" font-size="12.5" font-weight="600" fill="#1e293b">支店17</text><rect x="2092.5" y="606.0" width="90.0" height="46.0" rx="4" fill="#fff8e1" stroke="#b58105" stroke-width="1.4"/><text x="2137.5" y="629.0" text-anchor="middle" dominant-baseline="central" font-size="12.5" font-weight="600" fill="#1e293b">支店18</text><rect x="2212.5" y="606.0" width="90.0" height="46.0" rx="4" fill="#fff8e1" stroke="#b58105" stroke-width="1.4"/><text x="2257.5" y="629.0" text-anchor="middle" dominant-baseline="central" font-size="12.5" font-weight="600" fill="#1e293b">支店19</text><rect x="2332.5" y="606.0" width="90.0" height="46.0" rx="4" fill="#fff8e1" stroke="#b58105" stroke-width="1.4"/><text x="2377.5" y="629.0" text-anchor="middle" dominant-baseline="central" font-size="12.5" font-weight="600" fill="#1e293b">支店20</text></svg>