<svg xmlns="http://www.w3.org/2000/svg" width="420" height="440" viewBox="0 0 420 440" font-family="'Segoe UI','Hiragino Sans','Noto Sans JP',Meiryo,sans-serif"><defs></defs><rect width="100%" height="100%" fill="#ffffff"/><text x="24" y="30" font-size="19" font-weight="700" fill="#1e293b">配線図 (スタック集約)</text><rect x="40.0" y="56.0" width="339.5" height="344.0" rx="6" fill="#f7f9fc" stroke="#8fa8c4"/><text x="44.0" y="48.0" font-size="14.5" font-weight="600" fill="#33475b">データセンター</text><polyline points="124.3,158.0 124.3,243.0 124.3,288.0 107.0,288.0 107.0,328.0" fill="none" stroke="#4a4a4a" stroke-width="2.0" opacity="1.0"></polyline><rect x="110.6" y="254.5" width="27.5" height="22.0" rx="4" fill="#ffffff" fill-opacity="0.92" opacity="1.0"/><text x="124.3" y="267.5" text-anchor="middle" font-size="12" font-style="italic" font-weight="400" fill="#5f6368" opacity="1.0">×2</text><polyline points="225.7,266.0 225.7,288.0 141.7,288.0 141.7,328.0" fill="none" stroke="#4a4a4a" stroke-width="2.0" opacity="1.0"></polyline><rect x="169.9" y="277.0" width="27.5" height="22.0" rx="4" fill="#ffffff" fill-opacity="0.92" opacity="1.0"/><text x="183.7" y="290.0" text-anchor="middle" font-size="12" font-style="italic" font-weight="400" fill="#5f6368" opacity="1.0">×2</text><polyline points="283.1,158.0 283.1,180.0 225.7,180.0 225.7,220.0" fill="none" stroke="#4a4a4a" stroke-width="2.0" opacity="1.0"></polyline><text x="287.1" y="171.0" font-size="10.5" font-style="italic" fill="#5f6368" opacity="1.0">eno1</text><text x="229.7" y="215.0" font-size="10.5" font-style="italic" fill="#5f6368" opacity="1.0">Gi1/0/1</text><rect x="66.0" y="112.0" width="116.7" height="46.0" rx="4" fill="#e8f0fe" stroke="#1a56b0" stroke-width="1.4"/><text x="124.3" y="127.0" text-anchor="middle" dominant-baseline="central" font-size="12.5" font-weight="600" fill="#1e293b">dc-rt01</text><text x="124.3" y="143.0" text-anchor="middle" dominant-baseline="central" font-size="12.5" font-weight="400" fill="#1e293b">Cisco C8300</text><rect x="72.3" y="328.0" width="104.0" height="46.0" rx="4" fill="#d2e3fc" stroke="#1a56b0" stroke-width="1.4"/><text x="124.3" y="343.0" text-anchor="middle" dominant-baseline="central" font-size="12.5" font-weight="600" fill="#1e293b">dc-core</text><text x="124.3" y="359.0" text-anchor="middle" dominant-baseline="central" font-size="12.5" font-weight="400" fill="#1e293b">スタック×2</text><rect x="159.3" y="220.0" width="132.8" height="46.0" rx="4" fill="#e6f4ea" stroke="#137333" stroke-width="1.4"/><text x="225.7" y="235.0" text-anchor="middle" dominant-baseline="central" font-size="12.5" font-weight="600" fill="#1e293b">dc-acc01</text><text x="225.7" y="251.0" text-anchor="middle" dominant-baseline="central" font-size="12.5" font-weight="400" fill="#1e293b">Catalyst 9200</text><rect x="212.7" y="112.0" width="140.8" height="46.0" rx="4" fill="#f1f3f4" stroke="#5f6368" stroke-width="1.4"/><text x="283.1" y="127.0" text-anchor="middle" dominant-baseline="central" font-size="12.5" font-weight="600" fill="#1e293b">dc-srv01</text><text x="283.1" y="143.0" text-anchor="middle" dominant-baseline="central" font-size="12.5" font-weight="400" fill="#1e293b">PowerEdge R760</text></svg>