<svg xmlns="http://www.w3.org/2000/svg" width="508" height="460" viewBox="0 0 508 460" font-family="'Segoe UI','Hiragino Sans','Noto Sans JP',Meiryo,sans-serif"><defs></defs><rect width="100%" height="100%" fill="#ffffff"/><text x="24" y="30" font-size="19" font-weight="700" fill="#1e293b">論理構成図</text><rect x="40.0" y="56.0" width="428.2" height="364.0" rx="6" fill="#f7f9fc" stroke="#8fa8c4"/><text x="44.0" y="48.0" font-size="14.5" font-weight="600" fill="#33475b">データセンター</text><polygon class="domain-hull" points="54.1,210.0 94.4,92.0 251.0,92.0 291.3,210.0 291.3,312.0 54.1,312.0" fill="#e8710a" fill-opacity="0.09" stroke="#e8710a" stroke-opacity="0.35" stroke-width="1.2" stroke-linejoin="round"/><text x="100.4" y="86.0" font-size="14" font-weight="600" fill="#e8710a" opacity="0.85">OSPF Area 0</text><polyline points="172.7,158.0 172.7,230.0" fill="none" stroke="#e8710a" stroke-width="2.0" opacity="1.0" stroke-dasharray="3 3"></polyline><polyline points="172.7,292.0 172.7,348.0" fill="none" stroke="#0f766e" stroke-width="1.5" opacity="1.0"></polyline><text x="176.7" y="305.0" font-size="10.5" font-style="italic" fill="#5f6368" opacity="1.0">Vlan10</text><rect x="335.5" y="42.0" width="152.7" height="50" rx="8" fill="#ffffff" stroke="#c3ccd6"/><text x="347.5" y="61.0" font-size="12" fill="#64748b">凡例</text><line x1="347.5" y1="76.0" x2="375.5" y2="76.0" stroke="#e8710a" stroke-width="3"/><text x="383.5" y="80.0" font-size="12.5" fill="#1e293b">OSPF Area 0</text><rect x="114.4" y="112.0" width="116.7" height="46.0" rx="4" fill="#e8f0fe" stroke="#1a56b0" stroke-width="1.4"/><text x="172.7" y="127.0" text-anchor="middle" dominant-baseline="central" font-size="12.5" font-weight="600" fill="#1e293b">dc-rt01</text><text x="172.7" y="143.0" text-anchor="middle" dominant-baseline="central" font-size="12.5" font-weight="400" fill="#1e293b">Cisco C8300</text><rect x="74.1" y="230.0" width="197.3" height="62.0" rx="4" fill="#d2e3fc" stroke="#1a56b0" stroke-width="1.4"/><text x="172.7" y="245.0" text-anchor="middle" dominant-baseline="central" font-size="12.5" font-weight="600" fill="#1e293b">dc-core</text><text x="172.7" y="261.0" text-anchor="middle" dominant-baseline="central" font-size="12.5" font-weight="400" fill="#1e293b">スタック×2</text><text x="172.7" y="277.0" text-anchor="middle" dominant-baseline="central" font-size="12.5" font-weight="400" fill="#1e293b">Vlan10: 10.20.10.1/24</text><rect x="261.0" y="112.0" width="181.1" height="62.0" rx="4" fill="#f1f3f4" stroke="#5f6368" stroke-width="1.4"/><text x="351.6" y="127.0" text-anchor="middle" dominant-baseline="central" font-size="12.5" font-weight="600" fill="#1e293b">dc-srv01</text><text x="351.6" y="143.0" text-anchor="middle" dominant-baseline="central" font-size="12.5" font-weight="400" fill="#1e293b">PowerEdge R760</text><text x="351.6" y="159.0" text-anchor="middle" dominant-baseline="central" font-size="12.5" font-weight="400" fill="#1e293b">eno1: 10.20.10.5/24</text><rect x="66.0" y="348.0" width="213.4" height="46.0" rx="4" fill="#e2f5f0" stroke="#0f766e" stroke-width="1.4"/><text x="172.7" y="363.0" text-anchor="middle" dominant-baseline="central" font-size="12.5" font-weight="600" fill="#1e293b">サーバセグメント</text><text x="172.7" y="379.0" text-anchor="middle" dominant-baseline="central" font-size="12.5" font-weight="400" fill="#1e293b">VLAN 10 / 10.20.10.0/24</text></svg>