<svg xmlns="http://www.w3.org/2000/svg" width="613" height="580" viewBox="0 0 613 580" font-family="'Segoe UI','Hiragino Sans','Noto Sans JP',Meiryo,sans-serif"><defs></defs><rect width="100%" height="100%" fill="#ffffff"/><text x="24" y="30" font-size="19" font-weight="700" fill="#1e293b">物理構成図</text><rect x="40.0" y="56.0" width="533.0" height="484.0" rx="6" fill="#f7f9fc" stroke="#8fa8c4"/><text x="44.0" y="48.0" font-size="14.5" font-weight="600" fill="#33475b">データセンター</text><rect x="57.0" y="335.0" width="292.2" height="188.0" rx="6" fill="none" stroke="#64748b" stroke-width="1.3" stroke-dasharray="5 4"/><text x="61.0" y="330.0" font-size="11.5" font-weight="600" fill="#475569">dc-core</text><polyline points="203.1,390.0 203.1,412.0 134.6,412.0 134.6,468.0" fill="none" stroke="#4a4a4a" stroke-width="2.0" opacity="1.0"></polyline><rect x="155.1" y="401.0" width="27.5" height="22.0" rx="4" fill="#ffffff" fill-opacity="0.92" opacity="1.0"/><text x="168.8" y="414.0" text-anchor="middle" font-size="12" font-style="italic" font-weight="400" fill="#5f6368" opacity="1.0">×2</text><polyline points="269.7,158.0 269.7,180.0 203.1,180.0 203.1,243.0 203.1,288.0 157.4,288.0 157.4,344.0" fill="none" stroke="#4a4a4a" stroke-width="2.0" opacity="1.0"></polyline><text x="273.7" y="171.0" font-size="10.5" font-style="italic" fill="#5f6368" opacity="1.0">Gi0/0/1</text><text x="161.4" y="339.0" font-size="10.5" font-style="italic" fill="#5f6368" opacity="1.0">Te1/0/1</text><polyline points="308.6,158.0 308.6,180.0 375.2,180.0 375.2,243.0 375.2,367.0 375.2,428.0 203.1,428.0 203.1,468.0" fill="none" stroke="#4a4a4a" stroke-width="2.0" opacity="1.0"></polyline><text x="312.6" y="171.0" font-size="10.5" font-style="italic" fill="#5f6368" opacity="1.0">Gi0/0/2</text><text x="207.1" y="463.0" font-size="10.5" font-style="italic" fill="#5f6368" opacity="1.0">Te2/0/1</text><polyline points="454.5,266.0 454.5,288.0 248.8,288.0 248.8,344.0" fill="none" stroke="#4a4a4a" stroke-width="2.0" opacity="1.0"></polyline><text x="458.5" y="279.0" font-size="10.5" font-style="italic" fill="#5f6368" opacity="1.0">Gi1/0/49</text><text x="252.8" y="339.0" font-size="10.5" font-style="italic" fill="#5f6368" opacity="1.0">Te1/0/2</text><polyline points="498.7,266.0 498.7,304.0 415.2,304.0 415.2,367.0 415.2,412.0 271.7,412.0 271.7,468.0" fill="none" stroke="#4a4a4a" stroke-width="2.0" opacity="1.0"></polyline><text x="502.7" y="279.0" font-size="10.5" font-style="italic" fill="#5f6368" opacity="1.0">Gi1/0/50</text><text x="275.7" y="463.0" font-size="10.5" font-style="italic" fill="#5f6368" opacity="1.0">Te2/0/2</text><polyline points="476.6,158.0 476.6,220.0" fill="none" stroke="#4a4a4a" stroke-width="2.0" opacity="1.0"></polyline><text x="480.6" y="171.0" font-size="10.5" font-style="italic" fill="#5f6368" opacity="1.0">eno1</text><text x="480.6" y="215.0" font-size="10.5" font-style="italic" fill="#5f6368" opacity="1.0">Gi1/0/1</text><rect x="66.0" y="344.0" width="274.2" height="46.0" rx="4" fill="#d2e3fc" stroke="#1a56b0" stroke-width="1.4"/><text x="203.1" y="359.0" text-anchor="middle" dominant-baseline="central" font-size="12.5" font-weight="600" fill="#1e293b">dc-core01</text><text x="203.1" y="375.0" text-anchor="middle" dominant-baseline="central" font-size="12.5" font-weight="400" fill="#1e293b">Catalyst 9500 (スタックメンバー1)</text><rect x="66.0" y="468.0" width="274.2" height="46.0" rx="4" fill="#d2e3fc" stroke="#1a56b0" stroke-width="1.4"/><text x="203.1" y="483.0" text-anchor="middle" dominant-baseline="central" font-size="12.5" font-weight="600" fill="#1e293b">dc-core02</text><text x="203.1" y="499.0" text-anchor="middle" dominant-baseline="central" font-size="12.5" font-weight="400" fill="#1e293b">Catalyst 9500 (スタックメンバー2)</text><rect x="230.8" y="112.0" width="116.7" height="46.0" rx="4" fill="#e8f0fe" stroke="#1a56b0" stroke-width="1.4"/><text x="289.2" y="127.0" text-anchor="middle" dominant-baseline="central" font-size="12.5" font-weight="600" fill="#1e293b">dc-rt01</text><text x="289.2" y="143.0" text-anchor="middle" dominant-baseline="central" font-size="12.5" font-weight="400" fill="#1e293b">Cisco C8300</text><rect x="410.2" y="220.0" width="132.8" height="46.0" rx="4" fill="#e6f4ea" stroke="#137333" stroke-width="1.4"/><text x="476.6" y="235.0" text-anchor="middle" dominant-baseline="central" font-size="12.5" font-weight="600" fill="#1e293b">dc-acc01</text><text x="476.6" y="251.0" text-anchor="middle" dominant-baseline="central" font-size="12.5" font-weight="400" fill="#1e293b">Catalyst 9200</text><rect x="406.2" y="112.0" width="140.8" height="46.0" rx="4" fill="#f1f3f4" stroke="#5f6368" stroke-width="1.4"/><text x="476.6" y="127.0" text-anchor="middle" dominant-baseline="central" font-size="12.5" font-weight="600" fill="#1e293b">dc-srv01</text><text x="476.6" y="143.0" text-anchor="middle" dominant-baseline="central" font-size="12.5" font-weight="400" fill="#1e293b">PowerEdge R760</text></svg>