<svg xmlns="http://www.w3.org/2000/svg" width="683" height="530" viewBox="0 0 683 530" font-family="'Segoe UI','Hiragino Sans','Noto Sans JP',Meiryo,sans-serif"><defs></defs><rect width="100%" height="100%" fill="#ffffff"/><text x="24" y="30" font-size="19" font-weight="700" fill="#1e293b">全体論理構成図</text><rect x="40.0" y="228.0" width="273.4" height="262.0" rx="6" fill="#f7f9fc" stroke="#8fa8c4"/><text x="44.0" y="220.0" font-size="14.5" font-weight="600" fill="#33475b">東京本社</text><rect x="369.4" y="228.0" width="273.4" height="262.0" rx="6" fill="#f7f9fc" stroke="#8fa8c4"/><text x="373.4" y="220.0" font-size="14.5" font-weight="600" fill="#33475b">福岡営業所</text><polyline points="176.7,362.0 176.7,418.0" fill="none" stroke="#0f766e" stroke-width="1.5" opacity="1.0"></polyline><text x="180.7" y="375.0" font-size="10.5" font-style="italic" fill="#5f6368" opacity="1.0">lan1</text><polyline points="506.2,362.0 506.2,418.0" fill="none" stroke="#0f766e" stroke-width="1.5" opacity="1.0"></polyline><text x="510.2" y="375.0" font-size="10.5" font-style="italic" fill="#5f6368" opacity="1.0">lan1</text><polyline points="314.2,122.0 314.2,140.0 176.7,140.0 176.7,284.0" fill="none" stroke="#7b1fa2" stroke-width="2.0" opacity="1.0" stroke-dasharray="7 4"></polyline><rect x="93.8" y="168.0" width="165.9" height="24.0" rx="4" fill="#ffffff" fill-opacity="0.92" opacity="1.0"/><text x="176.7" y="181.0" text-anchor="middle" font-size="12" font-style="italic" font-weight="400" fill="#5f6368" opacity="1.0">IPsec本線 (経路は静的)</text><polyline points="368.7,122.0 368.7,140.0 506.2,140.0 506.2,284.0" fill="none" stroke="#7b1fa2" stroke-width="2.0" opacity="1.0" stroke-dasharray="7 4"></polyline><rect x="423.2" y="168.0" width="165.9" height="24.0" rx="4" fill="#ffffff" fill-opacity="0.92" opacity="1.0"/><text x="506.2" y="181.0" text-anchor="middle" font-size="12" font-style="italic" font-weight="400" fill="#5f6368" opacity="1.0">IPsec本線 (経路は静的)</text><ellipse cx="341.4" cy="84.0" rx="81.8" ry="38.0" fill="#f1f3f4" stroke="#5f6368" stroke-width="1.6"/><text x="341.4" y="84.0" text-anchor="middle" dominant-baseline="central" font-size="12.5" font-weight="600" fill="#1e293b">インターネット</text><rect x="74.1" y="284.0" width="205.3" height="78.0" rx="4" fill="#e8f0fe" stroke="#1a56b0" stroke-width="1.4"/><text x="176.7" y="299.0" text-anchor="middle" dominant-baseline="central" font-size="12.5" font-weight="600" fill="#1e293b">tk-rt01</text><text x="176.7" y="315.0" text-anchor="middle" dominant-baseline="central" font-size="12.5" font-weight="400" fill="#1e293b">Yamaha RTX1300</text><text x="176.7" y="331.0" text-anchor="middle" dominant-baseline="central" font-size="12.5" font-weight="400" fill="#1e293b">lan1: 192.168.10.1/24</text><text x="176.7" y="347.0" text-anchor="middle" dominant-baseline="central" font-size="12.5" font-weight="400" fill="#1e293b">tunnel1: 172.16.0.1/30</text><rect x="66.0" y="418.0" width="221.4" height="46.0" rx="4" fill="#e2f5f0" stroke="#0f766e" stroke-width="1.4"/><text x="176.7" y="433.0" text-anchor="middle" dominant-baseline="central" font-size="12.5" font-weight="600" fill="#1e293b">東京LAN</text><text x="176.7" y="449.0" text-anchor="middle" dominant-baseline="central" font-size="12.5" font-weight="400" fill="#1e293b">VLAN 1 / 192.168.10.0/24</text><rect x="403.5" y="284.0" width="205.3" height="78.0" rx="4" fill="#e8f0fe" stroke="#1a56b0" stroke-width="1.4"/><text x="506.2" y="299.0" text-anchor="middle" dominant-baseline="central" font-size="12.5" font-weight="600" fill="#1e293b">fk-rt01</text><text x="506.2" y="315.0" text-anchor="middle" dominant-baseline="central" font-size="12.5" font-weight="400" fill="#1e293b">Yamaha RTX830</text><text x="506.2" y="331.0" text-anchor="middle" dominant-baseline="central" font-size="12.5" font-weight="400" fill="#1e293b">lan1: 192.168.20.1/24</text><text x="506.2" y="347.0" text-anchor="middle" dominant-baseline="central" font-size="12.5" font-weight="400" fill="#1e293b">tunnel1: 172.16.0.2/30</text><rect x="395.4" y="418.0" width="221.4" height="46.0" rx="4" fill="#e2f5f0" stroke="#0f766e" stroke-width="1.4"/><text x="506.2" y="433.0" text-anchor="middle" dominant-baseline="central" font-size="12.5" font-weight="600" fill="#1e293b">福岡LAN</text><text x="506.2" y="449.0" text-anchor="middle" dominant-baseline="central" font-size="12.5" font-weight="400" fill="#1e293b">VLAN 1 / 192.168.20.0/24</text></svg>