<svg xmlns="http://www.w3.org/2000/svg" width="854" height="686" viewBox="0 0 854 686" font-family="'Segoe UI','Hiragino Sans','Noto Sans JP',Meiryo,sans-serif"><defs><marker id="arrow-c5221f" viewBox="0 0 10 10" refX="9" refY="5" markerWidth="7" markerHeight="7" orient="auto-start-reverse"><path d="M 0 0 L 10 5 L 0 10 z" fill="#c5221f"/></marker></defs><rect width="100%" height="100%" fill="#ffffff"/><text x="24" y="30" font-size="19" font-weight="700" fill="#1e293b">通信経路 東京→福岡</text><rect x="40.0" y="282.0" width="273.4" height="364.0" rx="6" fill="#f7f9fc" stroke="#8fa8c4"/><text x="44.0" y="274.0" font-size="14.5" font-weight="600" fill="#33475b">東京本社</text><rect x="369.4" y="282.0" width="444.3" height="268.0" rx="6" fill="#f7f9fc" stroke="#8fa8c4"/><text x="373.4" y="274.0" font-size="14.5" font-weight="600" fill="#33475b">福岡営業所</text><polyline points="176.7,518.0 176.7,574.0" fill="none" stroke="#0f766e" stroke-width="1.5" opacity="0.15"></polyline><text x="180.7" y="531.0" font-size="10.5" font-style="italic" fill="#5f6368" opacity="0.15">lan1</text><polyline points="605.7,416.0 605.7,438.0 677.0,438.0 677.0,478.0" fill="none" stroke="#0f766e" stroke-width="1.5" opacity="0.15"></polyline><text x="609.7" y="429.0" font-size="10.5" font-style="italic" fill="#5f6368" opacity="0.15">lan1</text><polyline points="357.7,122.0 357.7,158.0 303.4,158.0 303.4,426.0 210.9,426.0 210.9,440.0" fill="none" stroke="#7b1fa2" stroke-width="2.0" opacity="0.15" stroke-dasharray="7 4"></polyline><rect x="128.0" y="222.0" width="165.9" height="24.0" rx="4" fill="#ffffff" fill-opacity="0.92" opacity="0.15"/><text x="210.9" y="235.0" text-anchor="middle" font-size="12" font-style="italic" font-weight="400" fill="#5f6368" opacity="0.15">IPsec本線 (経路は静的)</text><polyline points="423.1,122.0 423.1,158.0 605.7,158.0 605.7,338.0" fill="none" stroke="#7b1fa2" stroke-width="2.0" opacity="0.15" stroke-dasharray="7 4"></polyline><polyline points="176.7,384.0 176.7,440.0" fill="none" stroke="#c5221f" stroke-width="4.0" opacity="1.0" stroke-dasharray="10 6" marker-end="url(#arrow-c5221f)"><animate attributeName="stroke-dashoffset" from="32" to="0" dur="1.2s" repeatCount="indefinite"/></polyline><text x="180.7" y="397.0" font-size="10.5" font-style="italic" fill="#5f6368" opacity="1.0">port1</text><text x="180.7" y="435.0" font-size="10.5" font-style="italic" fill="#5f6368" opacity="1.0">lan1</text><rect x="29.4" y="401.0" width="294.6" height="22.0" rx="4" fill="#ffffff" fill-opacity="0.92" opacity="1.0"/><text x="176.7" y="414.0" text-anchor="middle" font-size="12" font-style="italic" font-weight="600" fill="#c5221f" opacity="1.0">① 静的ルート 192.168.20.0/24 → tunnel1</text><polyline points="537.2,416.0 537.2,438.0 465.9,438.0 465.9,478.0" fill="none" stroke="#c5221f" stroke-width="4.0" opacity="1.0" stroke-dasharray="10 6" marker-end="url(#arrow-c5221f)"><animate attributeName="stroke-dashoffset" from="32" to="0" dur="1.2s" repeatCount="indefinite"/></polyline><text x="541.2" y="429.0" font-size="10.5" font-style="italic" fill="#5f6368" opacity="1.0">lan1</text><text x="469.9" y="473.0" font-size="10.5" font-style="italic" fill="#5f6368" opacity="1.0">port1</text><rect x="491.7" y="427.0" width="19.8" height="22.0" rx="4" fill="#ffffff" fill-opacity="0.92" opacity="1.0"/><text x="501.5" y="440.0" text-anchor="middle" font-size="12" font-style="italic" font-weight="600" fill="#c5221f" opacity="1.0">④</text><polyline points="142.5,440.0 142.5,426.0 50.0,426.0 50.0,140.0 325.0,140.0 325.0,122.0" fill="none" stroke="#c5221f" stroke-width="4.0" opacity="1.0" stroke-dasharray="10 6" marker-end="url(#arrow-c5221f)"><animate attributeName="stroke-dashoffset" from="32" to="0" dur="1.2s" repeatCount="indefinite"/></polyline><rect x="39.9" y="186.0" width="205.2" height="24.0" rx="4" fill="#ffffff" fill-opacity="0.92" opacity="1.0"/><text x="142.5" y="199.0" text-anchor="middle" font-size="12" font-style="italic" font-weight="600" fill="#c5221f" opacity="1.0">② IPsec インターネット網経由</text><polyline points="390.4,122.0 390.4,140.0 537.2,140.0 537.2,338.0" fill="none" stroke="#c5221f" stroke-width="4.0" opacity="1.0" stroke-dasharray="10 6" marker-end="url(#arrow-c5221f)"><animate attributeName="stroke-dashoffset" from="32" to="0" dur="1.2s" repeatCount="indefinite"/></polyline><rect x="504.1" y="186.0" width="66.2" height="24.0" rx="4" fill="#ffffff" fill-opacity="0.92" opacity="1.0"/><text x="537.2" y="199.0" text-anchor="middle" font-size="12" font-style="italic" font-weight="600" fill="#c5221f" opacity="1.0">③ IPsec</text><ellipse cx="374.1" cy="84.0" rx="81.8" ry="38.0" fill="#f1f3f4" stroke="#5f6368" stroke-width="1.6"/><text x="374.1" y="84.0" text-anchor="middle" dominant-baseline="central" font-size="12.5" font-weight="600" fill="#1e293b">インターネット</text><rect x="74.1" y="440.0" width="205.3" height="78.0" rx="4" fill="#e8f0fe" stroke="#1a56b0" stroke-width="1.4"/><text x="176.7" y="455.0" text-anchor="middle" dominant-baseline="central" font-size="12.5" font-weight="600" fill="#1e293b">tk-rt01</text><text x="176.7" y="471.0" text-anchor="middle" dominant-baseline="central" font-size="12.5" font-weight="400" fill="#1e293b">Yamaha RTX1300</text><text x="176.7" y="487.0" text-anchor="middle" dominant-baseline="central" font-size="12.5" font-weight="400" fill="#1e293b">lan1: 192.168.10.1/24</text><text x="176.7" y="503.0" text-anchor="middle" dominant-baseline="central" font-size="12.5" font-weight="400" fill="#1e293b">tunnel1: 172.16.0.1/30</text><rect x="106.3" y="338.0" width="140.8" height="46.0" rx="4" fill="#e6f4ea" stroke="#137333" stroke-width="1.4"/><text x="176.7" y="353.0" text-anchor="middle" dominant-baseline="central" font-size="12.5" font-weight="600" fill="#1e293b">tk-sw01</text><text x="176.7" y="369.0" text-anchor="middle" dominant-baseline="central" font-size="12.5" font-weight="400" fill="#1e293b">Yamaha SWX2310</text><rect x="66.0" y="574.0" width="221.4" height="46.0" rx="4" fill="#e2f5f0" stroke="#0f766e" stroke-width="1.4" opacity="0.3"/><text x="176.7" y="589.0" text-anchor="middle" dominant-baseline="central" font-size="12.5" font-weight="600" fill="#1e293b" opacity="0.3">東京LAN</text><text x="176.7" y="605.0" text-anchor="middle" dominant-baseline="central" font-size="12.5" font-weight="400" fill="#1e293b" opacity="0.3">VLAN 1 / 192.168.10.0/24</text><rect x="468.8" y="338.0" width="205.3" height="78.0" rx="4" fill="#e8f0fe" stroke="#1a56b0" stroke-width="1.4"/><text x="571.4" y="353.0" text-anchor="middle" dominant-baseline="central" font-size="12.5" font-weight="600" fill="#1e293b">fk-rt01</text><text x="571.4" y="369.0" text-anchor="middle" dominant-baseline="central" font-size="12.5" font-weight="400" fill="#1e293b">Yamaha RTX830</text><text x="571.4" y="385.0" text-anchor="middle" dominant-baseline="central" font-size="12.5" font-weight="400" fill="#1e293b">lan1: 192.168.20.1/24</text><text x="571.4" y="401.0" text-anchor="middle" dominant-baseline="central" font-size="12.5" font-weight="400" fill="#1e293b">tunnel1: 172.16.0.2/30</text><rect x="395.4" y="478.0" width="140.8" height="46.0" rx="4" fill="#e6f4ea" stroke="#137333" stroke-width="1.4"/><text x="465.9" y="493.0" text-anchor="middle" dominant-baseline="central" font-size="12.5" font-weight="600" fill="#1e293b">fk-sw01</text><text x="465.9" y="509.0" text-anchor="middle" dominant-baseline="central" font-size="12.5" font-weight="400" fill="#1e293b">Yamaha SWX2210</text><rect x="566.3" y="478.0" width="221.4" height="46.0" rx="4" fill="#e2f5f0" stroke="#0f766e" stroke-width="1.4" opacity="0.3"/><text x="677.0" y="493.0" text-anchor="middle" dominant-baseline="central" font-size="12.5" font-weight="600" fill="#1e293b" opacity="0.3">福岡LAN</text><text x="677.0" y="509.0" text-anchor="middle" dominant-baseline="central" font-size="12.5" font-weight="400" fill="#1e293b" opacity="0.3">VLAN 1 / 192.168.20.0/24</text></svg>