<svg xmlns="http://www.w3.org/2000/svg" width="1025" height="590" viewBox="0 0 1025 590" font-family="'Segoe UI','Hiragino Sans','Noto Sans JP',Meiryo,sans-serif"><defs><marker id="arrow-c5221f" viewBox="0 0 10 10" refX="9" refY="5" markerWidth="7" markerHeight="7" orient="auto-start-reverse"><path d="M 0 0 L 10 5 L 0 10 z" fill="#c5221f"/></marker></defs><rect width="100%" height="100%" fill="#ffffff"/><text x="24" y="30" font-size="19" font-weight="700" fill="#1e293b">通信経路 東京→福岡</text><rect x="40.0" y="282.0" width="444.3" height="268.0" rx="6" fill="#f7f9fc" stroke="#8fa8c4"/><text x="44.0" y="274.0" font-size="14.5" font-weight="600" fill="#33475b">東京本社</text><rect x="540.3" y="282.0" width="444.3" height="268.0" rx="6" fill="#f7f9fc" stroke="#8fa8c4"/><text x="544.3" y="274.0" font-size="14.5" font-weight="600" fill="#33475b">福岡営業所</text><polyline points="276.2,416.0 276.2,438.0 347.6,438.0 347.6,478.0" fill="none" stroke="#0f766e" stroke-width="1.5" opacity="0.15"></polyline><text x="280.2" y="429.0" font-size="10.5" font-style="italic" fill="#5f6368" opacity="0.15">lan1</text><polyline points="776.5,416.0 776.5,438.0 847.8,438.0 847.8,478.0" fill="none" stroke="#0f766e" stroke-width="1.5" opacity="0.15"></polyline><text x="780.5" y="429.0" font-size="10.5" font-style="italic" fill="#5f6368" opacity="0.15">lan1</text><polyline points="475.8,122.0 475.8,158.0 276.2,158.0 276.2,338.0" fill="none" stroke="#7b1fa2" stroke-width="2.0" opacity="0.15" stroke-dasharray="7 4"></polyline><rect x="193.3" y="222.0" width="165.9" height="24.0" rx="4" fill="#ffffff" fill-opacity="0.92" opacity="0.15"/><text x="276.2" y="235.0" text-anchor="middle" font-size="12" font-style="italic" font-weight="400" fill="#5f6368" opacity="0.15">IPsec本線 (経路は静的)</text><polyline points="541.2,122.0 541.2,158.0 776.5,158.0 776.5,338.0" fill="none" stroke="#7b1fa2" stroke-width="2.0" opacity="0.15" stroke-dasharray="7 4"></polyline><rect x="693.6" y="222.0" width="165.9" height="24.0" rx="4" fill="#ffffff" fill-opacity="0.92" opacity="0.15"/><text x="776.5" y="235.0" text-anchor="middle" font-size="12" font-style="italic" font-weight="400" fill="#5f6368" opacity="0.15">IPsec本線 (経路は静的)</text><polyline points="207.8,416.0 207.8,438.0 136.4,438.0 136.4,478.0" fill="none" stroke="#c5221f" stroke-width="4.0" opacity="1.0" stroke-dasharray="10 6" marker-end="url(#arrow-c5221f)"><animate attributeName="stroke-dashoffset" from="32" to="0" dur="1.2s" repeatCount="indefinite"/></polyline><text x="211.8" y="429.0" font-size="10.5" font-style="italic" fill="#5f6368" opacity="1.0">lan1</text><text x="140.4" y="473.0" font-size="10.5" font-style="italic" fill="#5f6368" opacity="1.0">port1</text><rect x="24.8" y="427.0" width="294.6" height="22.0" rx="4" fill="#ffffff" fill-opacity="0.92" opacity="1.0"/><text x="172.1" y="440.0" text-anchor="middle" font-size="12" font-style="italic" font-weight="600" fill="#c5221f" opacity="1.0">① 静的ルート 192.168.20.0/24 → tunnel1</text><polyline points="708.1,416.0 708.1,438.0 636.7,438.0 636.7,478.0" fill="none" stroke="#c5221f" stroke-width="4.0" opacity="1.0" stroke-dasharray="10 6" marker-end="url(#arrow-c5221f)"><animate attributeName="stroke-dashoffset" from="32" to="0" dur="1.2s" repeatCount="indefinite"/></polyline><text x="712.1" y="429.0" font-size="10.5" font-style="italic" fill="#5f6368" opacity="1.0">lan1</text><text x="640.7" y="473.0" font-size="10.5" font-style="italic" fill="#5f6368" opacity="1.0">port1</text><rect x="662.5" y="427.0" width="19.8" height="22.0" rx="4" fill="#ffffff" fill-opacity="0.92" opacity="1.0"/><text x="672.4" y="440.0" text-anchor="middle" font-size="12" font-style="italic" font-weight="600" fill="#c5221f" opacity="1.0">④</text><polyline points="443.1,122.0 443.1,140.0 207.8,140.0 207.8,338.0" fill="none" stroke="#c5221f" stroke-width="4.0" opacity="1.0" stroke-dasharray="10 6" marker-end="url(#arrow-c5221f)"><animate attributeName="stroke-dashoffset" from="32" to="0" dur="1.2s" repeatCount="indefinite"/></polyline><rect x="105.1" y="186.0" width="205.2" height="24.0" rx="4" fill="#ffffff" fill-opacity="0.92" opacity="1.0"/><text x="207.8" y="199.0" text-anchor="middle" font-size="12" font-style="italic" font-weight="600" fill="#c5221f" opacity="1.0">② IPsec インターネット網経由</text><polyline points="508.5,122.0 508.5,140.0 708.1,140.0 708.1,338.0" fill="none" stroke="#c5221f" stroke-width="4.0" opacity="1.0" stroke-dasharray="10 6" marker-end="url(#arrow-c5221f)"><animate attributeName="stroke-dashoffset" from="32" to="0" dur="1.2s" repeatCount="indefinite"/></polyline><rect x="674.9" y="186.0" width="66.2" height="24.0" rx="4" fill="#ffffff" fill-opacity="0.92" opacity="1.0"/><text x="708.1" y="199.0" text-anchor="middle" font-size="12" font-style="italic" font-weight="600" fill="#c5221f" opacity="1.0">③ IPsec</text><ellipse cx="492.1" cy="84.0" rx="81.8" ry="38.0" fill="#f1f3f4" stroke="#5f6368" stroke-width="1.6"/><text x="492.1" y="84.0" text-anchor="middle" dominant-baseline="central" font-size="12.5" font-weight="600" fill="#1e293b">インターネット</text><rect x="139.3" y="338.0" width="205.3" height="78.0" rx="4" fill="#e8f0fe" stroke="#1a56b0" stroke-width="1.4"/><text x="242.0" y="353.0" text-anchor="middle" dominant-baseline="central" font-size="12.5" font-weight="600" fill="#1e293b">tk-rt01</text><text x="242.0" y="369.0" text-anchor="middle" dominant-baseline="central" font-size="12.5" font-weight="400" fill="#1e293b">Yamaha RTX1300</text><text x="242.0" y="385.0" text-anchor="middle" dominant-baseline="central" font-size="12.5" font-weight="400" fill="#1e293b">lan1: 192.168.10.1/24</text><text x="242.0" y="401.0" text-anchor="middle" dominant-baseline="central" font-size="12.5" font-weight="400" fill="#1e293b">tunnel1: 172.16.0.1/30</text><rect x="66.0" y="478.0" width="140.8" height="46.0" rx="4" fill="#e6f4ea" stroke="#137333" stroke-width="1.4"/><text x="136.4" y="493.0" text-anchor="middle" dominant-baseline="central" font-size="12.5" font-weight="600" fill="#1e293b">tk-sw01</text><text x="136.4" y="509.0" text-anchor="middle" dominant-baseline="central" font-size="12.5" font-weight="400" fill="#1e293b">Yamaha SWX2310</text><rect x="236.8" y="478.0" width="221.4" height="46.0" rx="4" fill="#e2f5f0" stroke="#0f766e" stroke-width="1.4" opacity="0.3"/><text x="347.6" y="493.0" text-anchor="middle" dominant-baseline="central" font-size="12.5" font-weight="600" fill="#1e293b" opacity="0.3">東京LAN</text><text x="347.6" y="509.0" text-anchor="middle" dominant-baseline="central" font-size="12.5" font-weight="400" fill="#1e293b" opacity="0.3">VLAN 1 / 192.168.10.0/24</text><rect x="639.6" y="338.0" width="205.3" height="78.0" rx="4" fill="#e8f0fe" stroke="#1a56b0" stroke-width="1.4"/><text x="742.3" y="353.0" text-anchor="middle" dominant-baseline="central" font-size="12.5" font-weight="600" fill="#1e293b">fk-rt01</text><text x="742.3" y="369.0" text-anchor="middle" dominant-baseline="central" font-size="12.5" font-weight="400" fill="#1e293b">Yamaha RTX830</text><text x="742.3" y="385.0" text-anchor="middle" dominant-baseline="central" font-size="12.5" font-weight="400" fill="#1e293b">lan1: 192.168.20.1/24</text><text x="742.3" y="401.0" text-anchor="middle" dominant-baseline="central" font-size="12.5" font-weight="400" fill="#1e293b">tunnel1: 172.16.0.2/30</text><rect x="566.3" y="478.0" width="140.8" height="46.0" rx="4" fill="#e6f4ea" stroke="#137333" stroke-width="1.4"/><text x="636.7" y="493.0" text-anchor="middle" dominant-baseline="central" font-size="12.5" font-weight="600" fill="#1e293b">fk-sw01</text><text x="636.7" y="509.0" text-anchor="middle" dominant-baseline="central" font-size="12.5" font-weight="400" fill="#1e293b">Yamaha SWX2210</text><rect x="737.1" y="478.0" width="221.4" height="46.0" rx="4" fill="#e2f5f0" stroke="#0f766e" stroke-width="1.4" opacity="0.3"/><text x="847.8" y="493.0" text-anchor="middle" dominant-baseline="central" font-size="12.5" font-weight="600" fill="#1e293b" opacity="0.3">福岡LAN</text><text x="847.8" y="509.0" text-anchor="middle" dominant-baseline="central" font-size="12.5" font-weight="400" fill="#1e293b" opacity="0.3">VLAN 1 / 192.168.20.0/24</text></svg>