<svg xmlns="http://www.w3.org/2000/svg" width="522" height="534" viewBox="0 0 522 534" font-family="'Segoe UI','Hiragino Sans','Noto Sans JP',Meiryo,sans-serif"><defs></defs><rect width="100%" height="100%" fill="#ffffff"/><text x="24" y="30" font-size="19" font-weight="700" fill="#1e293b">全体物理構成図</text><rect x="40.0" y="264.0" width="192.8" height="230.0" rx="6" fill="#f7f9fc" stroke="#8fa8c4"/><text x="44.0" y="256.0" font-size="14.5" font-weight="600" fill="#33475b">東京本社</text><rect x="288.8" y="264.0" width="192.8" height="230.0" rx="6" fill="#f7f9fc" stroke="#8fa8c4"/><text x="292.8" y="256.0" font-size="14.5" font-weight="600" fill="#33475b">福岡営業所</text><polyline points="136.4,366.0 136.4,422.0" fill="none" stroke="#4a4a4a" stroke-width="2.0" opacity="1.0"></polyline><text x="140.4" y="379.0" font-size="10.5" font-style="italic" fill="#5f6368" opacity="1.0">lan1</text><text x="140.4" y="417.0" font-size="10.5" font-style="italic" fill="#5f6368" opacity="1.0">port1</text><polyline points="385.3,366.0 385.3,422.0" fill="none" stroke="#4a4a4a" stroke-width="2.0" opacity="1.0"></polyline><text x="389.3" y="379.0" font-size="10.5" font-style="italic" fill="#5f6368" opacity="1.0">lan1</text><text x="389.3" y="417.0" font-size="10.5" font-style="italic" fill="#5f6368" opacity="1.0">port1</text><polyline points="233.6,122.0 233.6,140.0 136.4,140.0 136.4,320.0" fill="none" stroke="#1a73e8" stroke-width="3.5" opacity="1.0"></polyline><rect x="4.0" y="168.0" width="264.9" height="42.0" rx="4" fill="#ffffff" fill-opacity="0.92" opacity="1.0"/><text x="136.4" y="181.0" text-anchor="middle" font-size="12" font-style="italic" font-weight="400" fill="#5f6368" opacity="1.0">NTT東日本 フレッツ光クロス + OCN 10G</text><text x="136.4" y="198.0" text-anchor="middle" font-size="12" font-style="italic" font-weight="400" fill="#5f6368" opacity="1.0">(lan2)</text><polyline points="288.1,122.0 288.1,140.0 385.3,140.0 385.3,320.0" fill="none" stroke="#1a73e8" stroke-width="3.5" opacity="1.0"></polyline><rect x="250.1" y="204.0" width="270.2" height="42.0" rx="4" fill="#ffffff" fill-opacity="0.92" opacity="1.0"/><text x="385.3" y="217.0" text-anchor="middle" font-size="12" font-style="italic" font-weight="400" fill="#5f6368" opacity="1.0">NTT西日本 フレッツ光ネクスト + OCN 1G</text><text x="385.3" y="234.0" text-anchor="middle" font-size="12" font-style="italic" font-weight="400" fill="#5f6368" opacity="1.0">(lan2)</text><ellipse cx="260.8" cy="84.0" rx="81.8" ry="38.0" fill="#f1f3f4" stroke="#5f6368" stroke-width="1.6"/><text x="260.8" y="84.0" text-anchor="middle" dominant-baseline="central" font-size="12.5" font-weight="600" fill="#1e293b">インターネット</text><rect x="66.0" y="320.0" width="140.8" height="46.0" rx="4" fill="#e8f0fe" stroke="#1a56b0" stroke-width="1.4"/><text x="136.4" y="335.0" text-anchor="middle" dominant-baseline="central" font-size="12.5" font-weight="600" fill="#1e293b">tk-rt01</text><text x="136.4" y="351.0" text-anchor="middle" dominant-baseline="central" font-size="12.5" font-weight="400" fill="#1e293b">Yamaha RTX1300</text><rect x="66.0" y="422.0" width="140.8" height="46.0" rx="4" fill="#e6f4ea" stroke="#137333" stroke-width="1.4"/><text x="136.4" y="437.0" text-anchor="middle" dominant-baseline="central" font-size="12.5" font-weight="600" fill="#1e293b">tk-sw01</text><text x="136.4" y="453.0" text-anchor="middle" dominant-baseline="central" font-size="12.5" font-weight="400" fill="#1e293b">Yamaha SWX2310</text><rect x="318.9" y="320.0" width="132.8" height="46.0" rx="4" fill="#e8f0fe" stroke="#1a56b0" stroke-width="1.4"/><text x="385.3" y="335.0" text-anchor="middle" dominant-baseline="central" font-size="12.5" font-weight="600" fill="#1e293b">fk-rt01</text><text x="385.3" y="351.0" text-anchor="middle" dominant-baseline="central" font-size="12.5" font-weight="400" fill="#1e293b">Yamaha RTX830</text><rect x="314.8" y="422.0" width="140.8" height="46.0" rx="4" fill="#e6f4ea" stroke="#137333" stroke-width="1.4"/><text x="385.3" y="437.0" text-anchor="middle" dominant-baseline="central" font-size="12.5" font-weight="600" fill="#1e293b">fk-sw01</text><text x="385.3" y="453.0" text-anchor="middle" dominant-baseline="central" font-size="12.5" font-weight="400" fill="#1e293b">Yamaha SWX2210</text></svg>